<?xml version="1.0" encoding="utf-8"?>
<!-- Generator: Adobe Illustrator 19.0.0, SVG Export Plug-In . SVG Version: 6.00 Build 0)  -->
<svg version="1.1" id="Layer_1" xmlns="http://www.w3.org/2000/svg" xmlns:xlink="http://www.w3.org/1999/xlink" x="0px" y="0px"
	 viewBox="0 0 200 200" style="enable-background:new 0 0 200 200;" xml:space="preserve">
<style type="text/css">
	.st0{fill:#42200D;}
	.st1{fill:#EFCF81;}
	.st2{fill:#E5E5E5;}
	.st3{fill:#251206;}
	.st4{fill:#DFA563;}
	.st5{fill:#763917;}
	.st6{fill:#E0A969;}
	.st7{fill:#333333;}
	.st8{fill:#D0362B;}
	.st9{fill:#E87D75;}
	.st10{fill:#EFCF82;}
	.st11{fill:#E78575;}
	.st12{fill:#E1554A;}
	.st13{fill:#FEFEFE;}
	.st14{fill:#D93C31;}
	.st15{fill:#271407;}
	.st16{fill:#261306;}
	.st17{fill:#BC3026;}
	.st18{fill:#030303;}
	.st19{fill:#020202;}
	.st20{fill:#D69255;}
	.st21{fill:#E9BC5F;}
	.st22{fill:#E1A631;}
	.st23{fill:#666666;}
	.st24{fill:#5B4F47;}
	.st25{fill:#746359;}
	.st26{fill:#50140F;}
	.st27{fill:#827065;}
	.st28{fill:#8B7F78;}
	.st29{fill:#8B8078;}
	.st30{fill:#EECD80;}
	.st31{fill:#E46756;}
	.st32{fill:#603C39;}
	.st33{fill:#7D5D5B;}
	.st34{fill:#DB635A;}
	.st35{fill:#D29F68;}
	.st36{fill:#373635;}
</style>
<g id="XMLID_68_">
	<path id="XMLID_201_" class="st0" d="M65,61.5c-0.1,0.1-0.2,0.5-0.4,0.1c-0.1-0.2,0-0.6,0-0.8c0-13.6,0-27.3,0-40.9
		c0-0.8,0.2-1.2,0.9-1.5c11.5-6,23-12,34.5-18c0.5-0.3,0.9-0.4,1.5-0.1c9.8,5.2,19.6,10.3,29.4,15.4c0.2,0.1,0.3,0.2,0.4,0.3
		c0,0.6-0.5,0.7-0.8,0.9c-1.6,1-3.2,1.7-4.9,2.6c-7.2,3.7-14.4,7.6-21.6,11.3c-2.5,1.3-5,2.6-7.5,3.9c-0.4,0.2-0.9,0.5-1.4,0.5
		c-1.6-0.7-3.2-1.5-4.8-2.3c-8.1-4.2-16.2-8.5-24.3-12.7c-0.2-0.1-0.3-0.2-0.5-0.2c-0.4-0.2-0.6-0.1-0.6,0.4c0,0.2,0,0.5,0,0.7
		C65,34,65,47,65,60.1C65,60.6,65,61,65,61.5z"/>
	<path id="XMLID_200_" class="st1" d="M130,25.3c0,10.1,0,20.2,0,30.3c0,0.1,0,0.3,0.1,0.4c0.1,0.6,0,1.1,0.1,1.7c0,1.9,0,3.9,0,5.8
		c0,0.4,0,0.8-0.2,1.1c-0.8,0.9-1.9,1.3-3,1.8c-4.4,2.2-8.7,4.6-13.1,6.8c-1.2,0.5-2.2,1.3-3.4,1.8c-4.4,2.3-8.7,4.5-13.1,6.8
		c-0.4,0.2-0.7,0.4-1.2,0.2c-0.3-0.3-0.3-0.6-0.4-1c0-0.1,0-0.3,0-0.4c0-7.7,0-15.4,0-23c0-0.4,0-0.7-0.1-1.1
		c-0.1-0.3-0.1-0.6-0.1-0.9c0-5.1-0.1-10.2,0-15.2c0.1-0.6,0.5-0.8,0.9-1.1c3.4-1.8,7-3.4,10.5-5.1c0.5-0.3,1-0.3,1.5,0
		c1.6,1.3,3.6,1.9,5.5,2.5c1.3,0.4,1.3,0.5,1.4,1.9c0,0.6-0.2,1.2,0.2,1.7c0.8,0,1.4-0.8,2.3-0.8c0.7,0.3,0.6,1.1,0.8,1.6
		c0.1,0.4,0.2,0.7,0.3,1.3c0.6-1.5,1.3-2.7,1.9-4c0.3-0.5,0.6-1,1.2-1.3c0.2-0.1,0.5-0.3,0.8-0.4c1.7-0.5,2.2-1.6,2-3.3
		c-0.1-0.6-0.3-0.9-0.8-1c-0.2-0.2-0.1-0.4,0-0.6c0.8-1.4,1.3-3,2.1-4.4C127.1,26.3,128.5,25.6,130,25.3z"/>
	<path id="XMLID_199_" class="st2" d="M129.8,93.8c0,8.9,0,17.9,0,26.8c0,0.8,0.3,1.2,1,1.5c6.2,3.2,12.4,6.4,18.6,9.6
		c1.8,0.9,3.5,1.9,5.3,2.8c-0.4,0.5-1,0.7-1.5,1c-5.4,2.8-10.7,5.6-16.1,8.4c-5.9,3.1-11.9,6.2-17.8,9.3c-4.2,2.2-8.4,4.4-12.6,6.6
		c-3.2,1.7-6.5,3.4-9.7,5.1c-0.5,0.2-0.8,0.2-1.2,0c-8.3-4.3-16.5-8.6-24.8-12.9c-2.1-1.1-4.1-2.2-6.2-3.3
		c-5.9-3.1-11.8-6.1-17.6-9.1c-0.2-0.1-0.5-0.2-0.6-0.5c6.9-3.6,13.8-7.2,20.7-10.9c0,0,0.1,0.1,0.1,0.2c0,1.6,1,3.1,0.8,4.8
		c-0.1,3,0.2,5.9-0.2,8.9c-0.1,0.7,0.4,0.9,0.9,1.2c2.3,1.2,4.5,2.3,6.8,3.5c3.7,1.9,7.3,3.8,10.9,5.6c2.9,1.5,5.8,3,8.8,4.5
		c0.2,0.1,0.4,0.2,0.7,0c4.8-2.5,9.4-5.1,14.2-7.6c0.6-0.3,0.8-0.7,0.7-1.4c-0.1-1.5,0-3,0-4.5c0-0.4,0-0.8,0.4-1
		c0.6-0.1,1,0.2,1.5,0.5c1.6,0.9,3.3,1.7,5,2.6c0.2,0.2,0.3,0.2,0.4,0c4.2-2.4,8.5-4.7,12.9-7c1.5-0.8,2.2-1.5,2.1-3.4
		c-0.1-2.8-0.3-5.6-0.3-8.5c0-0.5-0.5-0.8-0.8-1c-0.8-0.5-1.7-0.9-2.6-1.4c-0.4-0.2-0.7-0.4-0.6-1c0.3-1.8,0.1-3.6,0.1-5.5
		c0-0.9,0-1.8,0-2.6c0-5.7-0.1-11.5,0-17.2c0-1.2-0.1-2.5,0-3.7c0-0.1,0.1-0.3,0.2-0.4C129.6,93.7,129.7,93.7,129.8,93.8z"/>
	<path id="XMLID_198_" class="st3" d="M65,61.5c-0.4-0.3-0.2-0.6-0.2-1c0-13.6,0-27.1,0-40.7c0-0.2,0-0.5,0.1-0.8
		c3.5,1.8,7,3.6,10.4,5.4c1.8,1,3.7,2,5.5,2.9c4.8,2.5,9.6,5,14.4,7.5c0.1,0,0.1,0,0.2,0c0.3,0.3,0.3,0.7,0.3,1.1
		c0,1.4,0.1,2.7,0,4.1c0,0.5-0.3,0.9-0.6,1.4c-3.2,4.9-6.5,9.7-9.7,14.6c-0.1,0.1-0.2,0.2-0.2,0.3c-0.6,0.7-0.9,0.7-1.4,0
		c-0.7-1-1.3-2.1-1.9-3.2c-0.5-0.9-1.1-1.7-1.5-2.7c-0.4-0.7-0.7-0.7-1.3-0.2c-3.4,2.8-6.8,5.7-10.2,8.5c-0.5,0.4-0.9,0.9-1.6,1.1
		C66.5,60.3,65.7,60.9,65,61.5z"/>
	<path id="XMLID_197_" class="st4" d="M67.3,59.7c2.8-2.4,5.7-4.8,8.5-7.2c1.1-0.9,2.2-1.7,3.2-2.7c0.8-0.8,1.1-0.5,1.6,0.3
		c1.2,2.2,2.5,4.4,3.9,6.8c3.7-5.6,7.3-11.1,11-16.5c0.1-0.3,0.3-0.4,0.6-0.3c0,5,0,10.1,0,15.1c0,0.5,0,0.9,0.2,1.3
		c-0.2,0.3-0.1,0.6-0.1,0.8c0,7.6,0,15.2,0,22.8c0,0.3-0.1,0.6,0.1,0.8c0,0.1,0,0.2,0,0.2c-0.3,0.3,0.1,0.8-0.4,0.9
		c-0.5,0-0.8-0.2-1.2-0.4c-3.5-1.9-7-3.7-10.5-5.5c-4.2-2.2-8.4-4.4-12.6-6.5c-0.2-0.1-0.3-0.2-0.4-0.3c-0.9-0.8-2.1-1.2-3.1-1.8
		c-0.5-0.3-0.7-0.6-0.7-1.2C67.3,64.2,67.3,62,67.3,59.7z"/>
	<path id="XMLID_196_" class="st5" d="M96,40.1c-0.2,0.1-0.4,0.2-0.6,0.3c0-1.9,0-3.7,0-5.6c7-3.6,14-7.3,21-10.9
		c4.9-2.5,9.7-5.1,14.5-7.7c0.2-0.1,0.3-0.3,0.5-0.4c0.4,0.1,0.3,0.5,0.3,0.8c0,2.4,0,4.7,0,7.1c0,0.6-0.2,0.8-0.7,1
		c-0.3,0.2-0.7,0.4-1,0.6c-0.9,0.5-1.8,1-2.7,1.5c-0.5,0.2-0.7,0.6-0.9,1c-0.8,1.6-1.4,3.2-2.4,4.7c0.3,0.5,0,0.8-0.2,1.2
		c-0.6,1.2-1.2,2.5-1.7,3.8c-0.5,0.3-0.8,0.7-1,1.2c-0.7,1.5-1.4,2.9-2.2,4.5c-0.6-1.1-0.4-2.4-1.2-3.4c-0.4-1.1-0.6-2.3-0.9-3.4
		c-0.4-2-1.1-3.9-1.3-5.9c0.3,2.3-0.4,4.6-0.1,6.9c0.1,1.2,0.1,2.4,0,3.5c-0.4,0.3-0.5,0-0.5-0.3c0-0.8,0-1.6,0-2.3
		c0-0.6-0.2-0.8-0.7-0.9c-2.1-0.7-4.3-1.3-6.1-2.8c-0.3-0.2-0.5-0.2-0.8-0.1C103.7,36.3,99.8,38.2,96,40.1z"/>
	<path id="XMLID_195_" class="st6" d="M67.5,120.1c0.4-2.2-0.8-3.2-2.6-3.8c-0.3-0.1-0.6-0.4-0.9-0.5c-1.8-0.5-2.1-1.6-2.1-3.4
		c0.1-7.4,0-14.7,0-22.1c0-0.4,0-0.8,0-1.3c0.4-0.2,0.7,0,1,0.1c3.9,1.9,7.6,4.1,11.5,6c0.1,0.1,0.1,0.2,0.1,0.4
		c0,7.8,0,15.5,0,23.3c0,0.6,0,1.2-0.1,1.8c-0.3,0.7-0.8,0.4-1.2,0.2c-1.4-0.6-2.7-1.5-4.1-2.2c-1.1-0.5-1.1-0.5-1.2,0.6
		C67.9,119.7,68,120.1,67.5,120.1z"/>
	<path id="XMLID_194_" class="st7" d="M67.5,120.1c0.3-0.7-0.1-1.5,0.2-2.3c2.3,0.9,4.3,2.3,6.5,3.2c0.7-0.7,1.5-1,2.3-1.4
		c2.9-1.5,5.9-3.1,8.8-4.6c0.2-0.1,0.3-0.1,0.5-0.1c1.9,0.6,3.7,1.6,5.4,2.7c0.1,0.1,0.1,0.2,0.2,0.3c0.2,1,0.3,2,0.3,3.1
		c0,4,0,8.1,0,12.1c0,0.6,0.1,1.1-0.2,1.7c-0.5,0.5-1,0.2-1.4,0c-2.4-1.2-4.7-2.4-7.1-3.7c-2.1-1.1-4.2-2.2-6.3-3.3
		c-2.7-1.4-5.4-2.9-8.2-4.2c-0.4-0.2-0.9-0.4-1.1-0.9C67.5,121.7,67.5,120.9,67.5,120.1z"/>
	<path id="XMLID_193_" class="st8" d="M71.1,69.5c1.2,0.2,2.2,0.9,3.3,1.5c6.6,3.4,13.2,6.9,19.9,10.3c0.2,0.1,0.3,0.2,0.5,0.3
		c-0.3,0.9-1.1,0.9-1.7,1.3c-0.5,0.3-1.1,0.4-1.3,1.1c-0.1,0.5-0.1,0.9-0.1,1.4c0,8.7,0,17.5,0,26.2c0,0.6,0.1,1.1-0.2,1.7
		c-0.1,0.2-0.4,0.3-0.6,0.2c-1.5-0.6-3.2-1.1-4.4-2.4c-0.2-0.5-0.2-1-0.2-1.6c0-4.3,0-8.6,0-13c0.1-5.9-0.4-11.7-0.3-17.6
		c-0.2-0.4-0.6-0.5-0.9-0.7c-3.3-1.8-6.7-3.4-10-5.2c-0.7-0.4-1.3-0.3-2,0.1c-1.4,0.9-3,1.6-4.5,2.3c-1,0.5-1.1,0.4-1.1-0.7
		c0-1.2-0.2-2.4,0.1-3.6C68.8,70.7,70,70.1,71.1,69.5z"/>
	<path id="XMLID_192_" class="st6" d="M67.5,122.5c7.9,4.1,15.8,8.2,23.8,12.4c0.1,0.1,0.2,0.2,0.2,0.3c0.2,2.3,0.1,4.7,0.1,7
		c0,0.8-0.4,1-1.2,0.7c-0.9-0.4-1.8-0.9-2.7-1.3c-2.3-0.8-4.3-2.1-6.4-3.3c-1.7-0.9-3.6-1.7-5.3-2.7c-2.1-1.2-4.3-2.3-6.5-3.4
		c-0.7-0.4-0.9-0.3-1,0.5c0,0.2,0,0.6-0.4,0.6c0.2-1.7-1-3.3-0.7-5C67.5,126.3,67.5,124.4,67.5,122.5z"/>
	<path id="XMLID_191_" class="st9" d="M67.7,71.3c0,1.4,0,2.8,0,4.4c1.7-0.9,3.4-1.6,5-2.6c1.2-0.7,2.1-0.6,3.3,0
		c3.4,1.9,6.8,3.6,10.3,5.3c0.1,0.5-0.3,0.7-0.6,0.9c-3.6,1.9-7.1,3.8-10.7,5.7c-0.2,0.1-0.4,0.2-0.6,0.2c-0.4,0-0.7-0.2-1.1-0.4
		c-3.3-1.8-6.7-3.4-10-5.1c-0.4-0.2-1-0.3-1-1c1.1-0.8,2.3-1.4,3.6-1.9c1.5-0.6,1.9-1.5,1.8-2.9C67.4,73,67.2,72.1,67.7,71.3z"/>
	<path id="XMLID_190_" class="st8" d="M62.2,78.6c1.5,1.3,3.4,2,5.2,2.8c2.3,1.2,4.6,2.4,7,3.6c0.4,0.4,0.3,0.8,0.3,1.3
		c0,2.5,0,5.1,0,7.6c0,0.5,0,0.9-0.3,1.3c-2.3-0.9-4.5-2.1-6.7-3.3c-1.8-1-3.7-2-5.6-2.9c0-3.3,0-6.7,0-10
		C62,78.9,62,78.7,62.2,78.6z"/>
	<path id="XMLID_189_" class="st10" d="M129.8,93.8c-0.1,0-0.1,0-0.2,0c-0.4-0.3-0.4-0.8-0.4-1.3c0-7.8,0-15.5,0-23.3
		c0-0.4,0-0.8,0.2-1.1c0.4-0.6,1.1-0.8,1.7-1.2c0.1,0,0.2,0,0.3,0.1c0,8.4,0,16.8,0,25.2c0,0.5-0.2,0.8-0.6,1
		C130.5,93.3,130.1,93.5,129.8,93.8z"/>
	<path id="XMLID_188_" class="st11" d="M131.5,67c0,0-0.1,0-0.1,0c-0.4-0.4-0.3-0.9-0.3-1.4c0-2.3,0-4.5,0-6.8
		c0-0.9-0.2-1.3-1.1-1.2c0-0.5-0.2-1.1,0.2-1.6c1.1,0.3,1.5,1,1.5,2.2C131.4,61.2,131.5,64.1,131.5,67z"/>
	<path id="XMLID_187_" class="st12" d="M129.8,67.9c-0.2,0.3-0.2,0.6-0.2,0.9c0,8.2,0,16.5,0,24.7c0,0.1,0,0.2,0,0.3
		c0,0.1-0.1,0.1-0.1,0.1c-0.2,0.3-0.5,0.5-0.8,0.7c-3.8,1.9-7.6,4-11.4,5.9c-8.1,4.2-16.2,8.5-24.3,12.6c-0.5,0.2-0.9,0.6-1.5,0.3
		c-0.2-0.3-0.1-0.6-0.1-0.9c0-9.4,0-18.7,0-28.1c0-0.3-0.1-0.6,0.1-0.8c1-0.7,2.2-1.1,3.2-1.9c0.3,0.1,0.7,0.3,1,0.4
		c0.2,0.1,0.4,0.1,0.7,0c4.3-2.2,8.6-4.5,12.9-6.7c0.4-0.2,0.8-0.4,1.1-0.5c0.7,0.2,1.1,0.9,1.6,1.3c0.7,0.6,0.8,0.6,1-0.3
		c0.3-0.9,0.6-1.9,0.7-2.8c5.3-2.7,10.5-5.5,15.8-8.2C130.1,65.9,129.9,66.9,129.8,67.9z"/>
	<path id="XMLID_186_" class="st3" d="M110.7,39.6c0,1.2,0,2.2,0,3.2c0,0.3-0.1,0.6-0.4,0.8c-2.9,1.5-5.8,3-9,4.6c0-1.3,0-2.3,0-3.4
		c0-0.3,0.1-0.4,0.4-0.6C104.6,42.7,107.5,41.2,110.7,39.6z"/>
	<path id="XMLID_185_" class="st13" d="M119,46.7c0.3-0.7,0.2-1.5,0.1-2.2c-0.1-0.6,0.2-0.9,0.7-1.1c0.7-0.3,1.4-0.7,2.3-1.2
		c0,2.3,0,4.3,0,6.4c0,0.3-0.2,0.5-0.5,0.6c-1.3,0.7-2.7,1.4-4,2.1c-0.5,0.3-0.8,0.2-0.8-0.5c0.1-1.1-0.2-2.1,0.1-3.2
		C117.5,47.2,118.2,46.8,119,46.7z"/>
	<path id="XMLID_184_" class="st13" d="M107.4,50.2c0.9-0.7,1.9-1,3.1-1.7c0,1.6-0.1,3.1,0,4.5c0.2,1.8-0.4,2.8-2.1,3.4
		c-0.9,0.3-1.8,0.9-2.6,1.3c-0.3,0.2-0.6,0.3-0.6-0.2c0.1-1.2-0.2-2.3,0.1-3.5c0.1-0.5,0.5-0.6,0.9-0.8c0.7-0.3,1-0.8,1-1.6
		C107.2,51.2,107.2,50.7,107.4,50.2z"/>
	<path id="XMLID_183_" class="st14" d="M129.8,67.9c-0.5-1-0.1-2-0.2-2.9c0.3-0.3,0.2-0.7,0.2-1.1c0-2,0-4.1,0-6.1
		c1.4-0.8,1.4-0.8,1.4,0.9c0,2.8,0,5.6,0,8.4C130.9,67.4,130.4,67.7,129.8,67.9z"/>
	<path id="XMLID_182_" class="st15" d="M115.6,40.9c-0.5-1.2-0.1-2.4-0.2-3.6c0.4-0.7,1-1.1,1.9-0.9c0.2,1.1,0.8,2.2,0.6,3.4
		C117.1,40.1,116.3,40.5,115.6,40.9z"/>
	<path id="XMLID_181_" class="st16" d="M122.2,37.5c-0.5-0.3-0.1-0.6,0-0.9c0.6-1.4,1.2-2.7,1.8-4c0.3,0,0.6,0,1.1-0.3
		c0,1.2,0,2.2,0,3.3c0,0.4-0.2,0.6-0.5,0.7C123.8,36.7,123,37.1,122.2,37.5z"/>
	<path id="XMLID_180_" class="st17" d="M113.8,73.1c0.4,0.3,0.1,0.6,0,1c-0.2,0.8-0.4,1.6-0.7,2.4c-0.2,0.5-0.4,0.9-0.9,0.3
		c-0.6-0.6-1.2-1.3-1.8-1.9C111.6,74.3,112.7,73.7,113.8,73.1z"/>
	<path id="XMLID_179_" class="st18" d="M107.4,50.2c0.4,1.9-0.1,3.3-2.1,3.8c-0.4-0.8-0.1-1.6-0.2-2.5c0-0.4,0.4-0.4,0.7-0.6
		C106.4,50.8,106.9,50.5,107.4,50.2z"/>
	<path id="XMLID_178_" class="st19" d="M119,46.7c-0.7,0.4-1.4,0.8-2,1.1c-0.8-1.6-0.1-3.1,1.6-3.6c0.5-0.1,0.4,0.2,0.4,0.4
		C119,45.4,119,46.1,119,46.7z"/>
	<path id="XMLID_177_" class="st20" d="M96.2,81c-0.3-0.3-0.2-0.7-0.2-1c0-7.5,0-15,0-22.4c0-0.3-0.1-0.7,0.2-1
		C96.2,64.7,96.2,72.9,96.2,81z"/>
	<path id="XMLID_176_" class="st21" d="M114.1,56.8c0.5-0.2,0.9-0.5,1.4-0.7c0.5-0.2,1,0.1,1.2,0.4c0.2,0.3-0.4,0.4-0.6,0.5
		c-0.4,0.2-0.5,0.5-0.5,0.9c0,0.4,0.1,0.7,0,1.1c-0.1,0.4,0.4,1.1-0.3,1.2c-0.6,0.1-1.6-0.8-1.5-1.4c0-0.7-0.2-1.4,0.2-2.1
		c0.3,0.5,0.2,1,0.3,1.5c0,0.4,0,0.7,0.3,0.9c0.3,0.2,0.5,0.3,0.6-0.2c0-0.7,0.1-1.3-0.6-1.7C114.2,57.2,114,57.1,114.1,56.8z"/>
	<path id="XMLID_175_" class="st22" d="M114.1,56.8c0.9,0.4,1.5,1.1,1.3,2.2c-0.1,0.3,0.3,0.9-0.4,0.9c-0.5,0-1.1-0.2-1.1-0.9
		c0-0.7,0-1.4,0-2.1C113.9,56.8,114,56.8,114.1,56.8z"/>
	<path id="XMLID_174_" class="st20" d="M96.4,82.1c-0.2,0.2-0.5,0.2-0.7,0c0.4-0.2,0.1-0.7,0.4-0.8C96.2,81.6,96.1,81.9,96.4,82.1z"
		/>
	<path id="XMLID_173_" class="st23" d="M91.3,135.1c0-0.1,0-0.1,0-0.2c0.3-0.3,0.2-0.7,0.2-1.1c0-4.6,0-9.1,0-13.7
		c0-0.8-0.1-1.7-0.2-2.5c0.1-0.2,0.3-0.3,0.4-0.4c2-1.2,4-2.1,6-3.1c6.5-3.4,13-6.8,19.5-10.1c3.7-1.9,7.5-3.9,11.2-5.8
		c0.3-0.2,0.6-0.5,1.1-0.3c0,5.8,0,11.6,0,17.4c-0.2,0.3-0.4,0.5-0.7,0.6c-4.7,2.5-9.4,4.9-14.1,7.4c-0.3,0.1-0.6,0.3-0.9,0.3
		c-0.2,0-0.3-0.1-0.3-0.3c-0.1-0.5,0.3-1.3-0.2-1.6c-0.4-0.2-1,0.4-1.4,0.7c-0.1,0-0.2,0.1-0.3,0.2c-0.2,0.1-0.5,0.2-0.7,0.3
		c-1.3,0.5-2.6,1.1-2.2,2.9c0.1,0.3-0.1,0.5-0.3,0.8c-2.2,1.3-4.5,2.4-6.7,3.6c-3.4,1.7-6.7,3.6-10.1,5.2
		C91.5,135.2,91.4,135.1,91.3,135.1z"/>
	<path id="XMLID_172_" class="st24" d="M68.2,133.3c0.3-1.8,0.3-1.8,1.9-1c5.6,2.7,11,5.8,16.5,8.6c0.3,0.1,0.6,0.2,0.9,0.4
		c1.2,0.7,2.4,1.3,3.7,1.9c1.4,0.7,2.8,1.4,4.2,2.1c0.4,0.2,0.8,0.4,0.9,0.8c0.1,3.4,0,6.8,0,10.3c0,0.4,0.1,0.8-0.5,0.9
		c-9-4.6-18.1-9.3-27.1-13.9c-0.5-0.3-0.7-0.6-0.7-1.2C68.1,139.2,68.1,136.2,68.2,133.3z"/>
	<path id="XMLID_171_" class="st25" d="M111.7,142.5c-0.4,0.2-0.2,0.6-0.2,1c0,1.6,0.1,3.3,0.1,4.9c0,0.4,0,0.7-0.4,0.9
		c-5,2.7-10,5.4-15,8c-0.2-0.6-0.1-1.2-0.1-1.8c0-3.1,0-6.3,0-9.4c0-0.6,0.5-0.7,0.9-0.9c1.7-0.9,3.3-1.7,5-2.6
		c2.7-1.4,5.3-3,8.1-4.3c0.4-0.2,0.9-0.7,1.4-0.1C111.6,139.6,111.8,141,111.7,142.5z"/>
	<path id="XMLID_170_" class="st25" d="M133.4,126.6c0.1,3.5,0.3,6.9,0.4,10.4c0,0.3-0.1,0.5-0.4,0.7c-5,2.7-10,5.4-15.1,8.1
		c-0.3-0.3-0.3-0.6-0.3-1c0-3.4-0.1-6.8,0-10.2c0.1-0.4,0.4-0.6,0.8-0.8c4.5-2.3,9-4.6,13.4-6.9C132.6,126.6,133,126.4,133.4,126.6z
		"/>
	<path id="XMLID_169_" class="st26" d="M129.6,97.8c-7.3,3.8-14.7,7.6-22,11.4c-5.3,2.7-10.5,5.5-15.8,8.2c-0.4-0.1-0.5-0.4-0.5-0.7
		c0-1-0.1-2,0.1-3c0.1-0.3,0.4-0.2,0.6-0.4c3.7-1.9,7.4-3.8,11.1-5.7c8.7-4.5,17.3-9,26-13.5c0.2-0.1,0.3-0.1,0.5-0.2
		C129.6,95.2,129.6,96.5,129.6,97.8z"/>
	<path id="XMLID_168_" class="st1" d="M113.9,123.4c5.2-2.8,10.4-5.6,15.7-8.2c0,2.5,0,4.9,0,7.4c0,0.4,0,0.8-0.5,1
		c-0.8,1-2,1.3-3,1.8c-3.7,2-7.4,3.9-11.1,5.8c-0.4,0.2-1,0.7-1.4-0.1c-0.2-2.3-0.1-4.7-0.1-7C113.6,123.9,113.6,123.6,113.9,123.4z
		"/>
	<path id="XMLID_167_" class="st24" d="M111.7,142.5c-0.6-1.4-0.4-3-0.4-4.5c-0.9-0.9-2.1-1.3-3.2-2c-0.4-0.3-1.1-0.4-1-1.2
		c1-0.6,1.2-1.5,1.2-2.6c0-0.9-0.2-1.8,0.1-2.7c0.4-0.4,0.8-0.2,1.1,0c2.7,1.3,5.4,2.7,8.1,4.1c0.3,0.2,0.6,0.3,0.6,0.8
		c0,3.4,0,6.8,0,10.1c0,0.3,0.1,0.7-0.1,1C115.9,144.8,113.8,143.6,111.7,142.5z"/>
	<path id="XMLID_166_" class="st27" d="M118.1,134.2c-2.6-1.3-5.3-2.6-7.9-4c-0.5-0.3-1-0.6-1.6-0.7c-0.2-0.2-0.2-0.4-0.1-0.6
		c0.2-0.3,0.5-0.2,0.8-0.1c1.5,0.9,3.2,1.5,4.6,2.6c2.6-1.1,4.9-2.5,7.4-3.8c2.6-1.3,5.3-2.7,7.9-4.1c1.2,0.7,2.4,1.4,3.7,2.1
		c0.4,0.2,0.7,0.4,0.5,0.9c-4.7,2.4-9.3,4.8-14,7.2c-0.3,0.2-0.7,0.3-1.1,0.4C118.3,134.3,118.2,134.3,118.1,134.2z"/>
	<path id="XMLID_165_" class="st28" d="M96.2,145.7c0,3.8,0,7.7,0,11.5c-0.2,0.2-0.3,0.1-0.4-0.1c0.2-0.2,0.2-0.4,0.2-0.7
		c0-3.6,0-7.2,0-10.8C96,145.6,96.1,145.6,96.2,145.7z"/>
	<path id="XMLID_164_" class="st29" d="M118.1,134.2c0.1,0,0.2,0,0.3,0c0,3.8,0,7.7,0,11.5c-0.1,0.1-0.1,0.2-0.2,0
		C118.1,141.9,118.1,138,118.1,134.2z"/>
	<path id="XMLID_163_" class="st30" d="M117.2,36.3c-0.6,0.3-1.3,0.6-1.9,0.9c-0.3-0.1-0.2-0.4-0.2-0.6c0.1-2.2,0.3-4.4,0.6-6.6
		C116.2,32.1,116.7,34.2,117.2,36.3z"/>
	<path id="XMLID_162_" class="st1" d="M86,115.1c-3.5,1.8-7,3.6-10.5,5.5c-0.4,0.2-0.7,0.5-1.2,0.5c0-8.2,0-16.3,0-24.5
		c0-0.4,0-0.9,0.2-1.2c0.2-0.4,0.6-0.6,0.9-0.8c3.2-1.6,6.3-3.3,9.5-5c0.1-0.1,0.3-0.1,0.4-0.2c1.1-0.5,1.2-0.4,1.2,0.8
		c0,6.6,0,13.2,0,19.8c0,0.5,0,0.9,0.1,1.4c0.2,0.9,0.1,1.9,0.1,2.8C86.7,114.6,86.5,114.9,86,115.1z"/>
	<path id="XMLID_161_" class="st31" d="M86.5,111.2c0-0.5-0.1-0.9-0.1-1.4c0-6.5,0-13,0-19.5c0-0.4,0-0.8,0-1.3
		c-4.1,2.1-8,4.2-11.9,6.2c-0.1,0-0.1,0-0.2,0c0-3.4,0-6.8,0-10.2c3.7-2,7.4-3.9,11.1-5.9c0.3-0.2,0.6-0.3,0.8-0.7
		c0.3,0.2,0.2,0.6,0.2,0.9c0.1,6.1,0.2,12.3,0.2,18.4c0,4,0,8.1,0,12.1c0,0.5-0.1,0.9,0.2,1.3C86.7,111.4,86.6,111.3,86.5,111.2z"/>
	<path id="XMLID_160_" class="st32" d="M86.5,111.2c0.1,0,0.2,0,0.3,0c1.3,0.9,2.8,1.5,4.2,2.1c0.2,0,0.3,0.2,0.4,0.4
		c0,1,0,1.9,0,2.9c0,0.3,0.1,0.7-0.3,0.9c-1.7-0.8-3.3-1.9-5.1-2.5c0.4-0.2,0.5-0.6,0.5-1.1C86.5,113.1,86.5,112.2,86.5,111.2z"/>
	<path id="XMLID_159_" class="st33" d="M91.1,117.6c0.4-1.3,0.1-2.7,0.2-4c0.1-0.1,0.2-0.1,0.3,0c0.1,1.3-0.3,2.6,0.2,3.8
		c-0.1,0.1-0.3,0.1-0.4,0.2C91.2,117.6,91.2,117.6,91.1,117.6z"/>
	<path id="XMLID_158_" class="st34" d="M91.5,113.6c-0.1,0-0.2,0-0.3,0c-0.1-0.1-0.2-0.2-0.2-0.2c0.5-0.4,0.2-0.9,0.2-1.3
		c0-9.1,0-18.2,0-27.3c0-0.4-0.2-0.9,0.2-1.2c0,9.5,0,19.1,0,28.6c0,0.4-0.3,1,0.4,1.1C91.8,113.4,91.7,113.5,91.5,113.6z"/>
	<path id="XMLID_157_" class="st35" d="M91.1,143.2c-1.2-0.6-2.5-1.1-3.6-1.9c1.1,0.3,2,0.9,3.1,1.4c0.6,0.3,0.8,0.2,0.8-0.5
		c0-2.4,0-4.7,0-7.1c0.1,0,0.2,0,0.2,0c0.3,0.2,0.3,0.6,0.3,0.9c0,2.1,0,4.3,0,6.4c0,0.2-0.1,0.5-0.2,0.7
		C91.5,143.3,91.3,143.2,91.1,143.2z"/>
	<path id="XMLID_156_" class="st1" d="M91.5,143.1c0-2.7,0-5.4,0-8.1c1.7-0.9,3.5-1.9,5.2-2.8c3.8-2,7.7-4,11.5-6
		c0.7,0.6,0.8,1.4,0.2,2.6c0,0.2,0,0.4,0,0.6c0,1-0.1,2,0,3c0.1,1.3-0.2,2.2-1.5,2.5c-0.2,0.4-0.6,0.6-1,0.9c-4.5,2.3-9,4.7-13.5,7
		C92.2,143.2,91.9,143.4,91.5,143.1z"/>
	<path id="XMLID_155_" class="st6" d="M108.5,128.9c-0.1-0.9,0.3-1.8-0.2-2.6c0.3-0.3,0.3-0.7,0.2-1.1c-0.2-1.2,0.3-1.9,1.4-2.2
		c0.6-0.2,1.1-0.7,1.8-0.8c0.8,0.1,1.4,0.4,1.9,1c0.1,0.1,0.2,0.1,0.2,0.2c0,2.7,0,5.4,0,8.1c-1.4-0.4-2.6-1.2-3.9-1.9
		C109.5,129.3,109.1,129,108.5,128.9z"/>
	<path id="XMLID_154_" class="st36" d="M113.6,123.2c-0.6-0.3-1.2-0.6-1.9-1c0.1-0.2,0.3-0.4,0.6-0.4c0.5-0.2,1.1-1,1.4-0.6
		C114.1,121.7,114,122.5,113.6,123.2z"/>
	<path id="XMLID_153_" class="st27" d="M91.5,143.1c1.8-0.9,3.6-1.8,5.4-2.7c3.4-1.8,6.8-3.5,10.2-5.3c1.1,0.9,2.4,1.3,3.6,2.1
		c0.3,0.2,0.7,0.4,0.6,0.8c-1.5,0.7-3,1.5-4.4,2.2c-3.5,1.9-7,3.9-10.7,5.4c-0.1,0-0.2,0-0.3,0c-1.7-0.7-3.4-1.5-4.9-2.5
		C91.2,143.2,91.4,143.1,91.5,143.1z"/>
</g>
<g id="XMLID_69_">
	<path id="XMLID_70_" class="st7" d="M60.1,179.1c-0.2,0-0.3-0.1-0.4-0.2c-0.1-0.1-0.2-0.3-0.2-0.4v-8.4c0-0.2,0.1-0.3,0.2-0.4
		c0.1-0.1,0.3-0.2,0.4-0.2h3.3c0.4,0,0.9,0.1,1.2,0.3c0.4,0.2,0.7,0.4,1,0.7s0.5,0.6,0.7,1s0.3,0.8,0.3,1.2s-0.1,0.9-0.3,1.2
		c-0.2,0.4-0.4,0.7-0.7,1s-0.6,0.5-1,0.7c-0.4,0.2-0.8,0.3-1.2,0.3c-0.2,0-0.3-0.1-0.4-0.2c-0.1-0.1-0.2-0.3-0.2-0.4
		c0-0.2,0.1-0.3,0.2-0.4c0.1-0.1,0.3-0.2,0.4-0.2c0.3,0,0.5-0.1,0.8-0.2c0.2-0.1,0.5-0.3,0.6-0.4c0.2-0.2,0.3-0.4,0.4-0.6
		c0.1-0.2,0.2-0.5,0.2-0.8s-0.1-0.5-0.2-0.8c-0.1-0.2-0.2-0.5-0.4-0.6c-0.2-0.2-0.4-0.3-0.6-0.4c-0.2-0.1-0.5-0.2-0.8-0.2h-2.7v7.8
		c0,0.2-0.1,0.3-0.2,0.4C60.4,179.1,60.2,179.1,60.1,179.1z"/>
	<path id="XMLID_72_" class="st7" d="M76.2,179.2c-0.3,0-0.5,0-0.7-0.1s-0.4-0.2-0.6-0.5c-0.1-0.1-0.2-0.3-0.4-0.5
		c-0.2-0.2-0.4-0.5-0.6-0.9c-0.1-0.2-0.2-0.3-0.3-0.5s-0.2-0.2-0.2-0.3l-0.1-0.1c-0.1-0.1-0.2-0.3-0.3-0.3c-0.1-0.1-0.2-0.1-0.4-0.1
		c-0.2,0-0.3-0.1-0.4-0.2c-0.1-0.1-0.2-0.3-0.2-0.4c0-0.2,0.1-0.3,0.2-0.4c0.1-0.1,0.3-0.2,0.4-0.2c0.3,0,0.5-0.1,0.8-0.2
		s0.5-0.3,0.6-0.4c0.2-0.2,0.3-0.4,0.4-0.6c0.1-0.2,0.2-0.5,0.2-0.8s-0.1-0.5-0.2-0.8s-0.3-0.5-0.4-0.6c-0.2-0.2-0.4-0.3-0.6-0.4
		c-0.2-0.1-0.5-0.2-0.8-0.2h-2.7v7.9c0,0.2-0.1,0.3-0.2,0.4s-0.3,0.2-0.4,0.2s-0.3-0.1-0.4-0.2s-0.2-0.3-0.2-0.4v-8.5
		c0-0.2,0.1-0.3,0.2-0.4s0.3-0.2,0.4-0.2h3.3c0.4,0,0.9,0.1,1.2,0.3c0.4,0.2,0.7,0.4,1,0.7s0.5,0.6,0.7,1c0.2,0.4,0.3,0.8,0.3,1.2
		c0,0.6-0.1,1.1-0.4,1.6c-0.3,0.5-0.7,0.9-1.2,1.2c0,0,0.1,0.1,0.1,0.1l0.1,0.1c0.1,0.1,0.1,0.2,0.2,0.3c0.1,0.1,0.2,0.3,0.3,0.5
		c0.1,0.1,0.2,0.2,0.2,0.4c0.1,0.1,0.2,0.3,0.3,0.4c0.1,0.1,0.2,0.2,0.2,0.3c0.1,0.1,0.1,0.2,0.2,0.2c0.1,0.1,0.1,0.1,0.2,0.2
		c0,0,0.1,0,0.2,0c0.2,0,0.3,0.1,0.4,0.2c0.1,0.1,0.2,0.3,0.2,0.4s-0.1,0.3-0.2,0.4C76.5,179.1,76.3,179.2,76.2,179.2z"/>
	<path id="XMLID_74_" class="st7" d="M84.8,177.9c0.2,0,0.3,0.1,0.4,0.2s0.2,0.2,0.2,0.4c0,0.2-0.1,0.3-0.2,0.4
		c-0.1,0.1-0.2,0.2-0.4,0.2h-5.6c-0.2,0-0.3-0.1-0.4-0.2c-0.1-0.1-0.2-0.2-0.2-0.4v-8.4c0-0.2,0.1-0.3,0.2-0.4
		c0.1-0.1,0.3-0.2,0.4-0.2h5.6c0.2,0,0.3,0.1,0.4,0.2s0.2,0.2,0.2,0.4c0,0.2-0.1,0.3-0.2,0.4s-0.2,0.2-0.4,0.2h-5v3h3.3
		c0.2,0,0.3,0.1,0.4,0.2c0.1,0.1,0.2,0.2,0.2,0.4s-0.1,0.3-0.2,0.4c-0.1,0.1-0.2,0.2-0.4,0.2h-3.3v3H84.8z"/>
	<path id="XMLID_76_" class="st7" d="M90.2,179.1c-0.1,0-0.2,0-0.3-0.1c-0.1-0.1-0.2-0.1-0.2-0.3l-3.4-8.6c-0.1-0.1-0.1-0.3,0-0.4
		c0.1-0.1,0.2-0.2,0.3-0.3c0.1-0.1,0.3,0,0.4,0s0.2,0.2,0.3,0.3l2.9,7.3l2.9-7.3c0.1-0.1,0.2-0.2,0.3-0.3s0.3-0.1,0.4,0
		c0.1,0.1,0.3,0.2,0.3,0.3c0.1,0.1,0.1,0.3,0,0.4l-3.4,8.6C90.7,179,90.5,179.1,90.2,179.1z"/>
	<path id="XMLID_78_" class="st7" d="M96.5,179.1c-0.2,0-0.3-0.1-0.4-0.2c-0.1-0.1-0.2-0.3-0.2-0.4v-8.5c0-0.2,0.1-0.3,0.2-0.4
		c0.1-0.1,0.3-0.2,0.4-0.2c0.2,0,0.3,0.1,0.4,0.2s0.2,0.2,0.2,0.4v8.5c0,0.2-0.1,0.3-0.2,0.4C96.8,179.1,96.7,179.1,96.5,179.1z"/>
	<path id="XMLID_80_" class="st7" d="M104.3,169.6c0.7,0,1.3,0.1,1.9,0.4c0.6,0.3,1.1,0.6,1.5,1c0.4,0.4,0.8,0.9,1,1.5
		c0.3,0.6,0.4,1.2,0.4,1.9c0,0.8-0.2,1.5-0.5,2.1c-0.3,0.6-0.8,1.2-1.3,1.6l0,0c-0.4,0.3-0.9,0.6-1.4,0.7c-0.5,0.2-1,0.3-1.6,0.3
		c-0.7,0-1.3-0.1-1.9-0.4c-0.6-0.3-1.1-0.6-1.5-1c-0.4-0.4-0.8-0.9-1-1.5c-0.3-0.6-0.4-1.2-0.4-1.9c0-0.7,0.1-1.4,0.4-2
		c0.3-0.6,0.7-1.2,1.2-1.6l0.1-0.1c0,0,0,0,0,0c0.4-0.3,0.9-0.6,1.4-0.8C103.2,169.6,103.7,169.6,104.3,169.6z M104.3,178
		c0.3,0,0.6,0,0.9-0.1c0.3-0.1,0.6-0.2,0.9-0.3l-4.6-5.6c-0.3,0.3-0.5,0.7-0.7,1.1c-0.2,0.4-0.2,0.8-0.2,1.3c0,0.5,0.1,1,0.3,1.4
		c0.2,0.4,0.5,0.8,0.8,1.2s0.7,0.6,1.2,0.8C103.4,177.9,103.8,178,104.3,178z M107,176.8c0.3-0.3,0.5-0.7,0.7-1.1
		c0.2-0.4,0.3-0.9,0.3-1.3c0-0.5-0.1-1-0.3-1.4c-0.2-0.4-0.5-0.8-0.8-1.2c-0.3-0.3-0.7-0.6-1.2-0.8c-0.4-0.2-0.9-0.3-1.4-0.3
		c-0.3,0-0.7,0-1,0.1c-0.3,0.1-0.6,0.2-0.9,0.4L107,176.8z"/>
	<path id="XMLID_84_" class="st7" d="M114.6,179.2c-0.5,0-1-0.1-1.4-0.3s-0.8-0.4-1.2-0.8c-0.3-0.3-0.6-0.7-0.8-1.2
		s-0.3-0.9-0.3-1.4V170c0-0.2,0.1-0.3,0.2-0.4c0.1-0.1,0.2-0.2,0.4-0.2c0.2,0,0.3,0.1,0.4,0.2s0.2,0.2,0.2,0.4v5.6
		c0,0.3,0.1,0.7,0.2,1c0.1,0.3,0.3,0.6,0.5,0.8s0.5,0.4,0.8,0.5c0.3,0.1,0.6,0.2,1,0.2s0.7-0.1,1-0.2c0.3-0.1,0.6-0.3,0.8-0.5
		s0.4-0.5,0.5-0.8c0.1-0.3,0.2-0.6,0.2-1v-5v0c0,0,0-0.1,0-0.1c0-0.1,0-0.2,0-0.3c0-0.2,0.1-0.3,0.2-0.4s0.2-0.2,0.2-0.2
		c0.1,0,0.2-0.1,0.2-0.1c0.1,0,0.1,0,0.2,0c0.2,0,0.3,0.1,0.4,0.2s0.2,0.2,0.2,0.4c0,0.2-0.1,0.4-0.3,0.5c0,0,0,0.1,0,0.1v5
		c0,0.5-0.1,1-0.3,1.4c-0.2,0.4-0.4,0.8-0.8,1.2c-0.3,0.3-0.7,0.6-1.2,0.8S115.1,179.2,114.6,179.2z"/>
	<path id="XMLID_86_" class="st7" d="M124,179.3c-0.5,0-0.9-0.1-1.3-0.2c-0.4-0.1-0.8-0.3-1.1-0.5c-0.4-0.3-0.7-0.6-0.9-1
		c-0.2-0.4-0.3-0.9-0.3-1.4c0-0.2,0.1-0.3,0.2-0.4c0.1-0.1,0.3-0.2,0.4-0.2c0.1,0,0.3,0.1,0.4,0.2c0.1,0.1,0.2,0.2,0.2,0.4
		c0,0.7,0.2,1.2,0.7,1.5c0.2,0.2,0.5,0.3,0.8,0.4c0.3,0.1,0.6,0.1,1,0.1c0.3,0,0.6,0,0.8-0.1s0.5-0.2,0.7-0.4
		c0.4-0.3,0.6-0.7,0.6-1.2c0-0.4-0.1-0.7-0.4-0.9c-0.2-0.2-0.4-0.3-0.7-0.4c-0.3-0.1-0.7-0.2-1.1-0.2c-0.2,0-0.3-0.1-0.5-0.1
		s-0.3-0.1-0.4-0.1c-0.1,0-0.2-0.1-0.3-0.1s-0.2-0.1-0.4-0.1c-0.2-0.1-0.4-0.1-0.6-0.2s-0.4-0.2-0.5-0.3c-0.3-0.3-0.5-0.6-0.6-0.9
		c-0.1-0.3-0.2-0.7-0.2-1.1c0-0.3,0.1-0.6,0.2-0.9c0.1-0.3,0.3-0.6,0.6-0.8c0.1-0.1,0.2-0.2,0.4-0.3s0.3-0.2,0.5-0.3
		s0.4-0.1,0.7-0.2c0.3-0.1,0.5-0.1,0.8-0.1c0.3,0,0.6,0,0.9,0.1c0.3,0.1,0.5,0.1,0.7,0.2s0.4,0.2,0.6,0.3c0.2,0.1,0.3,0.2,0.4,0.4
		c0.1,0.1,0.2,0.3,0.3,0.4c0.1,0.2,0.2,0.3,0.3,0.5c0.1,0.3,0.2,0.6,0.2,0.9c0,0.2-0.1,0.3-0.2,0.4c-0.1,0.1-0.2,0.2-0.4,0.2
		c-0.2,0-0.3-0.1-0.4-0.2c-0.1-0.1-0.2-0.3-0.2-0.4c0-0.1,0-0.2-0.1-0.4c-0.1-0.2-0.2-0.4-0.4-0.6c-0.1-0.2-0.4-0.3-0.7-0.5
		s-0.7-0.2-1.2-0.2c-0.3,0-0.7,0-0.9,0.1c-0.3,0.1-0.5,0.2-0.7,0.4c-0.2,0.2-0.3,0.3-0.4,0.5s-0.1,0.3-0.1,0.4c0,0.2,0,0.4,0.1,0.5
		c0.1,0.2,0.2,0.3,0.3,0.5c0.2,0.2,0.4,0.3,0.7,0.4c0.3,0.1,0.8,0.3,1.3,0.4c0.6,0.1,1,0.2,1.5,0.4c0.4,0.1,0.8,0.3,1,0.6
		c0.5,0.5,0.7,1.1,0.7,1.7c0,0.4-0.1,0.8-0.3,1.2c-0.2,0.4-0.4,0.7-0.7,0.9c-0.3,0.2-0.6,0.4-1,0.5S124.4,179.3,124,179.3z"/>
	<path id="XMLID_88_" class="st7" d="M134.8,179.1h-5.3c-0.2,0-0.3-0.1-0.4-0.2c-0.1-0.1-0.2-0.3-0.2-0.4v-8.4
		c0-0.2,0.1-0.3,0.2-0.4s0.2-0.2,0.4-0.2s0.3,0.1,0.4,0.2s0.2,0.3,0.2,0.4v7.8h4.8c0.2,0,0.3,0.1,0.4,0.2c0.1,0.1,0.2,0.3,0.2,0.4
		c0,0.2-0.1,0.3-0.2,0.4C135.1,179,134.9,179.1,134.8,179.1z"/>
	<path id="XMLID_90_" class="st7" d="M141.8,169.7c0.1,0.1,0.2,0.2,0.2,0.4c0,0.2,0,0.3-0.1,0.4l-3.2,4v4c0,0.2-0.1,0.3-0.2,0.4
		c-0.1,0.1-0.2,0.2-0.4,0.2c-0.2,0-0.3-0.1-0.4-0.2c-0.1-0.1-0.2-0.2-0.2-0.4v-4l-2.9-3.7c0-0.1-0.1-0.1-0.1-0.1c0,0-0.1,0-0.1,0
		c-0.1,0-0.3-0.1-0.4-0.2c-0.1-0.1-0.2-0.2-0.2-0.4c0-0.2,0-0.3,0.1-0.4c0.1-0.1,0.2-0.2,0.4-0.2c0,0,0.1,0,0.1,0
		c0.1,0,0.2,0,0.3,0.1c0.1,0,0.2,0.1,0.3,0.2c0.1,0.1,0.2,0.2,0.3,0.3l2.6,3.3l2.8-3.6c0.1-0.1,0.2-0.2,0.4-0.2
		C141.6,169.6,141.7,169.6,141.8,169.7z"/>
	<path id="XMLID_92_" class="st7" d="M70.4,193.5c0.2,0,0.3,0.1,0.4,0.2s0.2,0.2,0.2,0.4c0,0.2-0.1,0.3-0.2,0.4
		c-0.1,0.1-0.2,0.2-0.4,0.2h-5.6c-0.2,0-0.3-0.1-0.4-0.2c-0.1-0.1-0.2-0.2-0.2-0.4v-8.4c0-0.2,0.1-0.3,0.2-0.4
		c0.1-0.1,0.3-0.2,0.4-0.2h5.6c0.2,0,0.3,0.1,0.4,0.2s0.2,0.2,0.2,0.4c0,0.2-0.1,0.3-0.2,0.4s-0.2,0.2-0.4,0.2h-5v3h3.3
		c0.2,0,0.3,0.1,0.4,0.2c0.1,0.1,0.2,0.2,0.2,0.4s-0.1,0.3-0.2,0.4c-0.1,0.1-0.2,0.2-0.4,0.2h-3.3v3H70.4z"/>
	<path id="XMLID_94_" class="st7" d="M76.5,190.5c-0.2,0-0.3-0.1-0.4-0.2l-3.3-4.3c-0.1-0.1-0.1-0.3-0.1-0.4c0-0.2,0.1-0.3,0.2-0.4
		c0.1-0.1,0.3-0.1,0.4-0.1c0.2,0,0.3,0.1,0.4,0.2l2.9,3.7l2.8-3.7c0.1-0.1,0.2-0.2,0.4-0.2c0.2,0,0.3,0,0.4,0.1
		c0.1,0.1,0.2,0.2,0.2,0.4c0,0.2,0,0.3-0.1,0.4l-3.3,4.2C76.8,190.5,76.7,190.5,76.5,190.5z M80.1,194.7c0,0-0.1,0-0.2,0
		c-0.1,0-0.2,0-0.3-0.1c-0.1,0-0.2-0.1-0.3-0.2c-0.1-0.1-0.2-0.2-0.3-0.3l-2.6-3.4l-2.8,3.7c-0.1,0.1-0.2,0.2-0.4,0.2
		c-0.2,0-0.3,0-0.4-0.1c-0.1-0.1-0.2-0.2-0.2-0.4s0-0.3,0.1-0.4l3.3-4.2c0.1-0.1,0.2-0.2,0.4-0.2c0.2,0,0.3,0.1,0.4,0.2l3,3.9
		c0,0.1,0.1,0.1,0.1,0.1s0.1,0,0.1,0c0.1,0,0.3,0,0.4,0.1c0.1,0.1,0.2,0.2,0.2,0.4c0,0.2,0,0.3-0.1,0.4S80.3,194.7,80.1,194.7
		L80.1,194.7z"/>
	<path id="XMLID_97_" class="st7" d="M87.1,194.7c-0.7,0-1.3-0.1-1.9-0.4c-0.6-0.3-1.1-0.6-1.5-1s-0.8-0.9-1-1.5
		c-0.3-0.6-0.4-1.2-0.4-1.9c0-0.7,0.1-1.3,0.4-1.9c0.3-0.6,0.6-1.1,1-1.5s0.9-0.8,1.5-1s1.2-0.4,1.9-0.4c0.9,0,1.7,0.2,2.4,0.6
		c0.1,0.1,0.2,0.2,0.3,0.3c0,0.2,0,0.3-0.1,0.4c-0.1,0.1-0.2,0.2-0.4,0.3c-0.2,0-0.3,0-0.4-0.1c-0.3-0.2-0.6-0.3-0.9-0.4
		c-0.3-0.1-0.6-0.1-1-0.1c-0.5,0-1,0.1-1.4,0.3c-0.4,0.2-0.8,0.5-1.2,0.8c-0.3,0.3-0.6,0.7-0.8,1.2c-0.2,0.5-0.3,0.9-0.3,1.4
		c0,0.5,0.1,1,0.3,1.4c0.2,0.4,0.5,0.8,0.8,1.2c0.3,0.3,0.7,0.6,1.2,0.8c0.4,0.2,0.9,0.3,1.4,0.3c0.4,0,0.7,0,1-0.1
		c0.3-0.1,0.6-0.2,0.9-0.4c0.1-0.1,0.3-0.1,0.4-0.1c0.2,0,0.3,0.1,0.4,0.3c0.1,0.1,0.1,0.3,0.1,0.4s-0.1,0.3-0.3,0.4
		C88.9,194.5,88.1,194.7,87.1,194.7z"/>
	<path id="XMLID_99_" class="st7" d="M97.5,194.7h-5.3c-0.2,0-0.3-0.1-0.4-0.2c-0.1-0.1-0.2-0.3-0.2-0.4v-8.4c0-0.2,0.1-0.3,0.2-0.4
		s0.2-0.2,0.4-0.2c0.2,0,0.3,0.1,0.4,0.2c0.1,0.1,0.2,0.3,0.2,0.4v7.8h4.8c0.2,0,0.3,0.1,0.4,0.2c0.1,0.1,0.2,0.3,0.2,0.4
		c0,0.2-0.1,0.3-0.2,0.4C97.8,194.6,97.6,194.7,97.5,194.7z"/>
	<path id="XMLID_101_" class="st7" d="M103.5,194.8c-0.5,0-1-0.1-1.4-0.3s-0.8-0.4-1.2-0.8c-0.3-0.3-0.6-0.7-0.8-1.2
		c-0.2-0.4-0.3-0.9-0.3-1.4v-5.6c0-0.2,0.1-0.3,0.2-0.4s0.2-0.2,0.4-0.2c0.2,0,0.3,0.1,0.4,0.2c0.1,0.1,0.2,0.2,0.2,0.4v5.6
		c0,0.3,0.1,0.7,0.2,1c0.1,0.3,0.3,0.6,0.5,0.8c0.2,0.2,0.5,0.4,0.8,0.5c0.3,0.1,0.6,0.2,1,0.2s0.7-0.1,1-0.2
		c0.3-0.1,0.6-0.3,0.8-0.5s0.4-0.5,0.5-0.8c0.1-0.3,0.2-0.6,0.2-1v-5v0c0,0,0-0.1,0-0.1c0-0.1,0-0.2,0-0.3c0-0.2,0.1-0.3,0.2-0.4
		s0.2-0.2,0.2-0.2c0.1,0,0.2-0.1,0.2-0.1c0.1,0,0.1,0,0.2,0c0.2,0,0.3,0.1,0.4,0.2s0.2,0.2,0.2,0.4c0,0.2-0.1,0.4-0.3,0.5
		c0,0,0,0.1,0,0.1v5c0,0.5-0.1,1-0.3,1.4c-0.2,0.4-0.4,0.8-0.8,1.2c-0.3,0.3-0.7,0.6-1.2,0.8S104,194.8,103.5,194.8z"/>
	<path id="XMLID_103_" class="st7" d="M112.6,194.7c-0.2,0-0.3-0.1-0.4-0.2s-0.2-0.2-0.2-0.4c0-0.2,0.1-0.3,0.2-0.4s0.2-0.2,0.4-0.2
		c0.5,0,1-0.1,1.4-0.3c0.4-0.2,0.8-0.5,1.2-0.8c0.3-0.3,0.6-0.7,0.8-1.2c0.2-0.4,0.3-0.9,0.3-1.4c0-0.5-0.1-1-0.3-1.4
		c-0.2-0.4-0.5-0.8-0.8-1.2s-0.7-0.6-1.2-0.8c-0.4-0.2-0.9-0.3-1.4-0.3h-1.5v7.8c0,0.2-0.1,0.3-0.2,0.4c-0.1,0.1-0.3,0.2-0.4,0.2
		c-0.2,0-0.3-0.1-0.4-0.2c-0.1-0.1-0.2-0.2-0.2-0.4v-8.4c0-0.2,0.1-0.3,0.2-0.4c0.1-0.1,0.2-0.2,0.4-0.2h2.1c0.7,0,1.3,0.1,1.9,0.4
		c0.6,0.3,1.1,0.6,1.5,1c0.4,0.4,0.8,0.9,1,1.5c0.3,0.6,0.4,1.2,0.4,1.9c0,0.7-0.1,1.3-0.4,1.9c-0.3,0.6-0.6,1.1-1,1.5
		s-0.9,0.8-1.5,1C113.9,194.6,113.2,194.7,112.6,194.7z"/>
	<path id="XMLID_105_" class="st7" d="M125.8,193.5c0.2,0,0.3,0.1,0.4,0.2c0.1,0.1,0.2,0.2,0.2,0.4c0,0.2-0.1,0.3-0.2,0.4
		c-0.1,0.1-0.2,0.2-0.4,0.2h-5.6c-0.2,0-0.3-0.1-0.4-0.2c-0.1-0.1-0.2-0.2-0.2-0.4v-8.4c0-0.2,0.1-0.3,0.2-0.4
		c0.1-0.1,0.2-0.2,0.4-0.2h5.6c0.2,0,0.3,0.1,0.4,0.2c0.1,0.1,0.2,0.2,0.2,0.4c0,0.2-0.1,0.3-0.2,0.4c-0.1,0.1-0.2,0.2-0.4,0.2h-5v3
		h3.3c0.2,0,0.3,0.1,0.4,0.2c0.1,0.1,0.2,0.2,0.2,0.4s-0.1,0.3-0.2,0.4c-0.1,0.1-0.2,0.2-0.4,0.2h-3.3v3H125.8z"/>
	<path id="XMLID_107_" class="st7" d="M131,194.7c-0.2,0-0.3-0.1-0.4-0.2s-0.2-0.2-0.2-0.4c0-0.2,0.1-0.3,0.2-0.4s0.2-0.2,0.4-0.2
		c0.5,0,1-0.1,1.4-0.3c0.4-0.2,0.8-0.5,1.2-0.8c0.3-0.3,0.6-0.7,0.8-1.2c0.2-0.4,0.3-0.9,0.3-1.4c0-0.5-0.1-1-0.3-1.4
		c-0.2-0.4-0.5-0.8-0.8-1.2s-0.7-0.6-1.2-0.8c-0.4-0.2-0.9-0.3-1.4-0.3h-1.5v7.8c0,0.2-0.1,0.3-0.2,0.4c-0.1,0.1-0.3,0.2-0.4,0.2
		c-0.2,0-0.3-0.1-0.4-0.2c-0.1-0.1-0.2-0.2-0.2-0.4v-8.4c0-0.2,0.1-0.3,0.2-0.4c0.1-0.1,0.2-0.2,0.4-0.2h2.1c0.7,0,1.3,0.1,1.9,0.4
		c0.6,0.3,1.1,0.6,1.5,1c0.4,0.4,0.8,0.9,1,1.5c0.3,0.6,0.4,1.2,0.4,1.9c0,0.7-0.1,1.3-0.4,1.9c-0.3,0.6-0.6,1.1-1,1.5
		s-0.9,0.8-1.5,1C132.3,194.6,131.7,194.7,131,194.7z"/>
</g>
</svg>
