<?xml version="1.0" encoding="utf-8"?>
<!-- Generator: Adobe Illustrator 19.0.0, SVG Export Plug-In . SVG Version: 6.00 Build 0)  -->
<svg version="1.1" id="Layer_1" xmlns="http://www.w3.org/2000/svg" xmlns:xlink="http://www.w3.org/1999/xlink" x="0px" y="0px"
	 viewBox="-20 -23.1 200 200" style="enable-background:new -20 -23.1 200 200;" xml:space="preserve">
<style type="text/css">
	.st0{fill:#42200D;}
	.st1{fill:#EFCF81;}
	.st2{fill:#E5E5E5;}
	.st3{fill:#251206;}
	.st4{fill:#DFA563;}
	.st5{fill:#763917;}
	.st6{fill:#E0A969;}
	.st7{fill:#333333;}
	.st8{fill:#D0362B;}
	.st9{fill:#E87D75;}
	.st10{fill:#EFCF82;}
	.st11{fill:#E78575;}
	.st12{fill:#E1554A;}
	.st13{fill:#FEFEFE;}
	.st14{fill:#D93C31;}
	.st15{fill:#271407;}
	.st16{fill:#261306;}
	.st17{fill:#BC3026;}
	.st18{fill:#030303;}
	.st19{fill:#020202;}
	.st20{fill:#D69255;}
	.st21{fill:#E9BC5F;}
	.st22{fill:#E1A631;}
	.st23{fill:#666666;}
	.st24{fill:#5B4F47;}
	.st25{fill:#746359;}
	.st26{fill:#50140F;}
	.st27{fill:#827065;}
	.st28{fill:#8B7F78;}
	.st29{fill:#8B8078;}
	.st30{fill:#EECD80;}
	.st31{fill:#E46756;}
	.st32{fill:#603C39;}
	.st33{fill:#7D5D5B;}
	.st34{fill:#DB635A;}
	.st35{fill:#D29F68;}
	.st36{fill:#373635;}
	.st37{fill:#FADBA8;}
	.st38{fill:#E49D5F;}
	.st39{fill:#01D6E6;}
	.st40{fill:#29F1FF;}
	.st41{fill:#00A4B0;}
	.st42{fill:#C3C5CA;}
	.st43{fill:#FFFFFF;}
	.st44{fill:#900002;}
	.st45{fill:#D4D5D7;}
	.st46{fill:#AAACB1;}
	.st47{fill:#DD0144;}
	.st48{fill:#EA556D;}
	.st49{fill:#EDEEF0;}
	.st50{fill:#D8DADE;}
	.st51{fill:#9C9AA0;}
	.st52{fill:#797979;}
	.st53{fill:#023798;}
	.st54{fill-rule:evenodd;clip-rule:evenodd;fill:#FFFFFF;}
	.st55{fill-rule:evenodd;clip-rule:evenodd;fill:#FCBD6D;}
	.st56{fill-rule:evenodd;clip-rule:evenodd;fill:#E49D5F;}
	.st57{fill-rule:evenodd;clip-rule:evenodd;}
</style>
<g id="XMLID_68_">
	<path id="XMLID_201_" class="st0" d="M282,36.2c-0.1,0.1-0.2,0.5-0.4,0.1c-0.1-0.2,0-0.6,0-0.8c0-13.6,0-27.3,0-40.9
		c0-0.8,0.2-1.2,0.9-1.5c11.5-6,23-12,34.5-18c0.5-0.3,0.9-0.4,1.5-0.1c9.8,5.2,19.6,10.3,29.4,15.4c0.2,0.1,0.3,0.2,0.4,0.3
		c0,0.6-0.5,0.7-0.8,0.9c-1.6,1-3.2,1.7-4.9,2.6c-7.2,3.7-14.4,7.6-21.6,11.3c-2.5,1.3-5,2.6-7.5,3.9c-0.4,0.2-0.9,0.5-1.4,0.5
		c-1.6-0.7-3.2-1.5-4.8-2.3c-8.1-4.2-16.2-8.5-24.3-12.7c-0.2-0.1-0.3-0.2-0.5-0.2c-0.4-0.2-0.6-0.1-0.6,0.4c0,0.2,0,0.5,0,0.7
		c0.1,12.9,0.1,25.9,0.1,39C282,35.3,282,35.7,282,36.2z"/>
	<path id="XMLID_200_" class="st1" d="M347,0c0,10.1,0,20.2,0,30.3c0,0.1,0,0.3,0.1,0.4c0.1,0.6,0,1.1,0.1,1.7c0,1.9,0,3.9,0,5.8
		c0,0.4,0,0.8-0.2,1.1c-0.8,0.9-1.9,1.3-3,1.8c-4.4,2.2-8.7,4.6-13.1,6.8c-1.2,0.5-2.2,1.3-3.4,1.8c-4.4,2.3-8.7,4.5-13.1,6.8
		c-0.4,0.2-0.7,0.4-1.2,0.2c-0.3-0.3-0.3-0.6-0.4-1c0-0.1,0-0.3,0-0.4c0-7.7,0-15.4,0-23c0-0.4,0-0.7-0.1-1.1
		c-0.1-0.3-0.1-0.6-0.1-0.9c0-5.1-0.1-10.2,0-15.2c0.1-0.6,0.5-0.8,0.9-1.1c3.4-1.8,7-3.4,10.5-5.1c0.5-0.3,1-0.3,1.5,0
		c1.6,1.3,3.6,1.9,5.5,2.5c1.3,0.4,1.3,0.5,1.4,1.9c0,0.6-0.2,1.2,0.2,1.7c0.8,0,1.4-0.8,2.3-0.8c0.7,0.3,0.6,1.1,0.8,1.6
		c0.1,0.4,0.2,0.7,0.3,1.3c0.6-1.5,1.3-2.7,1.9-4c0.3-0.5,0.6-1,1.2-1.3c0.2-0.1,0.5-0.3,0.8-0.4c1.7-0.5,2.2-1.6,2-3.3
		c-0.1-0.6-0.3-0.9-0.8-1c-0.2-0.2-0.1-0.4,0-0.6c0.8-1.4,1.3-3,2.1-4.4C344.1,1,345.5,0.3,347,0z"/>
	<path id="XMLID_199_" class="st2" d="M346.8,68.5c0,8.9,0,17.9,0,26.8c0,0.8,0.3,1.2,1,1.5c6.2,3.2,12.4,6.4,18.6,9.6
		c1.8,0.9,3.5,1.9,5.3,2.8c-0.4,0.5-1,0.7-1.5,1c-5.4,2.8-10.7,5.6-16.1,8.4c-5.9,3.1-11.9,6.2-17.8,9.3c-4.2,2.2-8.4,4.4-12.6,6.6
		c-3.2,1.7-6.5,3.4-9.7,5.1c-0.5,0.2-0.8,0.2-1.2,0c-8.3-4.3-16.5-8.6-24.8-12.9c-2.1-1.1-4.1-2.2-6.2-3.3
		c-5.9-3.1-11.8-6.1-17.6-9.1c-0.2-0.1-0.5-0.2-0.6-0.5c6.9-3.6,13.8-7.2,20.7-10.9c0,0,0.1,0.1,0.1,0.2c0,1.6,1,3.1,0.8,4.8
		c-0.1,3,0.2,5.9-0.2,8.9c-0.1,0.7,0.4,0.9,0.9,1.2c2.3,1.2,4.5,2.3,6.8,3.5c3.7,1.9,7.3,3.8,10.9,5.6c2.9,1.5,5.8,3,8.8,4.5
		c0.2,0.1,0.4,0.2,0.7,0c4.8-2.5,9.4-5.1,14.2-7.6c0.6-0.3,0.8-0.7,0.7-1.4c-0.1-1.5,0-3,0-4.5c0-0.4,0-0.8,0.4-1
		c0.6-0.1,1,0.2,1.5,0.5c1.6,0.9,3.3,1.7,5,2.6c0.2,0.2,0.3,0.2,0.4,0c4.2-2.4,8.5-4.7,12.9-7c1.5-0.8,2.2-1.5,2.1-3.4
		c-0.1-2.8-0.3-5.6-0.3-8.5c0-0.5-0.5-0.8-0.8-1c-0.8-0.5-1.7-0.9-2.6-1.4c-0.4-0.2-0.7-0.4-0.6-1c0.3-1.8,0.1-3.6,0.1-5.5
		c0-0.9,0-1.8,0-2.6c0-5.7-0.1-11.5,0-17.2c0-1.2-0.1-2.5,0-3.7c0-0.1,0.1-0.3,0.2-0.4C346.6,68.4,346.7,68.4,346.8,68.5z"/>
	<path id="XMLID_198_" class="st3" d="M282,36.2c-0.4-0.3-0.2-0.6-0.2-1c0-13.6,0-27.1,0-40.7c0-0.2,0-0.5,0.1-0.8
		c3.5,1.8,7,3.6,10.4,5.4c1.8,1,3.7,2,5.5,2.9c4.8,2.5,9.6,5,14.4,7.5c0.1,0,0.1,0,0.2,0c0.3,0.3,0.3,0.7,0.3,1.1
		c0,1.4,0.1,2.7,0,4.1c0,0.5-0.3,0.9-0.6,1.4c-3.2,4.9-6.5,9.7-9.7,14.6c-0.1,0.1-0.2,0.2-0.2,0.3c-0.6,0.7-0.9,0.7-1.4,0
		c-0.7-1-1.3-2.1-1.9-3.2c-0.5-0.9-1.1-1.7-1.5-2.7c-0.4-0.7-0.7-0.7-1.3-0.2c-3.4,2.8-6.8,5.7-10.2,8.5c-0.5,0.4-0.9,0.9-1.6,1.1
		C283.5,35,282.7,35.6,282,36.2z"/>
	<path id="XMLID_197_" class="st4" d="M284.3,34.4c2.8-2.4,5.7-4.8,8.5-7.2c1.1-0.9,2.2-1.7,3.2-2.7c0.8-0.8,1.1-0.5,1.6,0.3
		c1.2,2.2,2.5,4.4,3.9,6.8c3.7-5.6,7.3-11.1,11-16.5c0.1-0.3,0.3-0.4,0.6-0.3c0,5,0,10.1,0,15.1c0,0.5,0,0.9,0.2,1.3
		c-0.2,0.3-0.1,0.6-0.1,0.8c0,7.6,0,15.2,0,22.8c0,0.3-0.1,0.6,0.1,0.8c0,0.1,0,0.2,0,0.2c-0.3,0.3,0.1,0.8-0.4,0.9
		c-0.5,0-0.8-0.2-1.2-0.4c-3.5-1.9-7-3.7-10.5-5.5c-4.2-2.2-8.4-4.4-12.6-6.5c-0.2-0.1-0.3-0.2-0.4-0.3c-0.9-0.8-2.1-1.2-3.1-1.8
		c-0.5-0.3-0.7-0.6-0.7-1.2C284.3,38.9,284.3,36.7,284.3,34.4z"/>
	<path id="XMLID_196_" class="st5" d="M313,14.8c-0.2,0.1-0.4,0.2-0.6,0.3c0-1.9,0-3.7,0-5.6c7-3.6,14-7.3,21-10.9
		c4.9-2.5,9.7-5.1,14.5-7.7c0.2-0.1,0.3-0.3,0.5-0.4c0.4,0.1,0.3,0.5,0.3,0.8c0,2.4,0,4.7,0,7.1c0,0.6-0.2,0.8-0.7,1
		c-0.3,0.2-0.7,0.4-1,0.6c-0.9,0.5-1.8,1-2.7,1.5c-0.5,0.2-0.7,0.6-0.9,1c-0.8,1.6-1.4,3.2-2.4,4.7c0.3,0.5,0,0.8-0.2,1.2
		c-0.6,1.2-1.2,2.5-1.7,3.8c-0.5,0.3-0.8,0.7-1,1.2c-0.7,1.5-1.4,2.9-2.2,4.5c-0.6-1.1-0.4-2.4-1.2-3.4c-0.4-1.1-0.6-2.3-0.9-3.4
		c-0.4-2-1.1-3.9-1.3-5.9c0.3,2.3-0.4,4.6-0.1,6.9c0.1,1.2,0.1,2.4,0,3.5c-0.4,0.3-0.5,0-0.5-0.3c0-0.8,0-1.6,0-2.3
		c0-0.6-0.2-0.8-0.7-0.9c-2.1-0.7-4.3-1.3-6.1-2.8c-0.3-0.2-0.5-0.2-0.8-0.1C320.7,11,316.8,12.9,313,14.8z"/>
	<path id="XMLID_195_" class="st6" d="M284.5,94.8c0.4-2.2-0.8-3.2-2.6-3.8c-0.3-0.1-0.6-0.4-0.9-0.5c-1.8-0.5-2.1-1.6-2.1-3.4
		c0.1-7.4,0-14.7,0-22.1c0-0.4,0-0.8,0-1.3c0.4-0.2,0.7,0,1,0.1c3.9,1.9,7.6,4.1,11.5,6c0.1,0.1,0.1,0.2,0.1,0.4
		c0,7.8,0,15.5,0,23.3c0,0.6,0,1.2-0.1,1.8c-0.3,0.7-0.8,0.4-1.2,0.2c-1.4-0.6-2.7-1.5-4.1-2.2c-1.1-0.5-1.1-0.5-1.2,0.6
		C284.9,94.4,285,94.8,284.5,94.8z"/>
	<path id="XMLID_194_" class="st7" d="M284.5,94.8c0.3-0.7-0.1-1.5,0.2-2.3c2.3,0.9,4.3,2.3,6.5,3.2c0.7-0.7,1.5-1,2.3-1.4
		c2.9-1.5,5.9-3.1,8.8-4.6c0.2-0.1,0.3-0.1,0.5-0.1c1.9,0.6,3.7,1.6,5.4,2.7c0.1,0.1,0.1,0.2,0.2,0.3c0.2,1,0.3,2,0.3,3.1
		c0,4,0,8.1,0,12.1c0,0.6,0.1,1.1-0.2,1.7c-0.5,0.5-1,0.2-1.4,0c-2.4-1.2-4.7-2.4-7.1-3.7c-2.1-1.1-4.2-2.2-6.3-3.3
		c-2.7-1.4-5.4-2.9-8.2-4.2c-0.4-0.2-0.9-0.4-1.1-0.9C284.5,96.4,284.5,95.6,284.5,94.8z"/>
	<path id="XMLID_193_" class="st8" d="M288.1,44.2c1.2,0.2,2.2,0.9,3.3,1.5c6.6,3.4,13.2,6.9,19.9,10.3c0.2,0.1,0.3,0.2,0.5,0.3
		c-0.3,0.9-1.1,0.9-1.7,1.3c-0.5,0.3-1.1,0.4-1.3,1.1c-0.1,0.5-0.1,0.9-0.1,1.4c0,8.7,0,17.5,0,26.2c0,0.6,0.1,1.1-0.2,1.7
		c-0.1,0.2-0.4,0.3-0.6,0.2c-1.5-0.6-3.2-1.1-4.4-2.4c-0.2-0.5-0.2-1-0.2-1.6c0-4.3,0-8.6,0-13c0.1-5.9-0.4-11.7-0.3-17.6
		c-0.2-0.4-0.6-0.5-0.9-0.7c-3.3-1.8-6.7-3.4-10-5.2c-0.7-0.4-1.3-0.3-2,0.1c-1.4,0.9-3,1.6-4.5,2.3c-1,0.5-1.1,0.4-1.1-0.7
		c0-1.2-0.2-2.4,0.1-3.6C285.8,45.4,287,44.8,288.1,44.2z"/>
	<path id="XMLID_192_" class="st6" d="M284.5,97.2c7.9,4.1,15.8,8.2,23.8,12.4c0.1,0.1,0.2,0.2,0.2,0.3c0.2,2.3,0.1,4.7,0.1,7
		c0,0.8-0.4,1-1.2,0.7c-0.9-0.4-1.8-0.9-2.7-1.3c-2.3-0.8-4.3-2.1-6.4-3.3c-1.7-0.9-3.6-1.7-5.3-2.7c-2.1-1.2-4.3-2.3-6.5-3.4
		c-0.7-0.4-0.9-0.3-1,0.5c0,0.2,0,0.6-0.4,0.6c0.2-1.7-1-3.3-0.7-5C284.5,101,284.5,99.1,284.5,97.2z"/>
	<path id="XMLID_191_" class="st9" d="M284.7,46c0,1.4,0,2.8,0,4.4c1.7-0.9,3.4-1.6,5-2.6c1.2-0.7,2.1-0.6,3.3,0
		c3.4,1.9,6.8,3.6,10.3,5.3c0.1,0.5-0.3,0.7-0.6,0.9c-3.6,1.9-7.1,3.8-10.7,5.7c-0.2,0.1-0.4,0.2-0.6,0.2c-0.4,0-0.7-0.2-1.1-0.4
		c-3.3-1.8-6.7-3.4-10-5.1c-0.4-0.2-1-0.3-1-1c1.1-0.8,2.3-1.4,3.6-1.9c1.5-0.6,1.9-1.5,1.8-2.9C284.4,47.7,284.2,46.8,284.7,46z"/>
	<path id="XMLID_190_" class="st8" d="M279.2,53.3c1.5,1.3,3.4,2,5.2,2.8c2.3,1.2,4.6,2.4,7,3.6c0.4,0.4,0.3,0.8,0.3,1.3
		c0,2.5,0,5.1,0,7.6c0,0.5,0,0.9-0.3,1.3c-2.3-0.9-4.5-2.1-6.7-3.3c-1.8-1-3.7-2-5.6-2.9c0-3.3,0-6.7,0-10
		C279,53.6,279,53.4,279.2,53.3z"/>
	<path id="XMLID_189_" class="st10" d="M346.8,68.5c-0.1,0-0.1,0-0.2,0c-0.4-0.3-0.4-0.8-0.4-1.3c0-7.8,0-15.5,0-23.3
		c0-0.4,0-0.8,0.2-1.1c0.4-0.6,1.1-0.8,1.7-1.2c0.1,0,0.2,0,0.3,0.1c0,8.4,0,16.8,0,25.2c0,0.5-0.2,0.8-0.6,1
		C347.5,68,347.1,68.2,346.8,68.5z"/>
	<path id="XMLID_188_" class="st11" d="M348.5,41.7h-0.1c-0.4-0.4-0.3-0.9-0.3-1.4c0-2.3,0-4.5,0-6.8c0-0.9-0.2-1.3-1.1-1.2
		c0-0.5-0.2-1.1,0.2-1.6c1.1,0.3,1.5,1,1.5,2.2C348.4,35.9,348.5,38.8,348.5,41.7z"/>
	<path id="XMLID_187_" class="st12" d="M346.8,42.6c-0.2,0.3-0.2,0.6-0.2,0.9c0,8.2,0,16.5,0,24.7c0,0.1,0,0.2,0,0.3
		c0,0.1-0.1,0.1-0.1,0.1c-0.2,0.3-0.5,0.5-0.8,0.7c-3.8,1.9-7.6,4-11.4,5.9c-8.1,4.2-16.2,8.5-24.3,12.6c-0.5,0.2-0.9,0.6-1.5,0.3
		c-0.2-0.3-0.1-0.6-0.1-0.9c0-9.4,0-18.7,0-28.1c0-0.3-0.1-0.6,0.1-0.8c1-0.7,2.2-1.1,3.2-1.9c0.3,0.1,0.7,0.3,1,0.4
		c0.2,0.1,0.4,0.1,0.7,0c4.3-2.2,8.6-4.5,12.9-6.7c0.4-0.2,0.8-0.4,1.1-0.5c0.7,0.2,1.1,0.9,1.6,1.3c0.7,0.6,0.8,0.6,1-0.3
		c0.3-0.9,0.6-1.9,0.7-2.8c5.3-2.7,10.5-5.5,15.8-8.2C347.1,40.6,346.9,41.6,346.8,42.6z"/>
	<path id="XMLID_186_" class="st3" d="M327.7,14.3c0,1.2,0,2.2,0,3.2c0,0.3-0.1,0.6-0.4,0.8c-2.9,1.5-5.8,3-9,4.6c0-1.3,0-2.3,0-3.4
		c0-0.3,0.1-0.4,0.4-0.6C321.6,17.4,324.5,15.9,327.7,14.3z"/>
	<path id="XMLID_185_" class="st13" d="M336,21.4c0.3-0.7,0.2-1.5,0.1-2.2c-0.1-0.6,0.2-0.9,0.7-1.1c0.7-0.3,1.4-0.7,2.3-1.2
		c0,2.3,0,4.3,0,6.4c0,0.3-0.2,0.5-0.5,0.6c-1.3,0.7-2.7,1.4-4,2.1c-0.5,0.3-0.8,0.2-0.8-0.5c0.1-1.1-0.2-2.1,0.1-3.2
		C334.5,21.9,335.2,21.5,336,21.4z"/>
	<path id="XMLID_184_" class="st13" d="M324.4,24.9c0.9-0.7,1.9-1,3.1-1.7c0,1.6-0.1,3.1,0,4.5c0.2,1.8-0.4,2.8-2.1,3.4
		c-0.9,0.3-1.8,0.9-2.6,1.3c-0.3,0.2-0.6,0.3-0.6-0.2c0.1-1.2-0.2-2.3,0.1-3.5c0.1-0.5,0.5-0.6,0.9-0.8c0.7-0.3,1-0.8,1-1.6
		C324.2,25.9,324.2,25.4,324.4,24.9z"/>
	<path id="XMLID_183_" class="st14" d="M346.8,42.6c-0.5-1-0.1-2-0.2-2.9c0.3-0.3,0.2-0.7,0.2-1.1c0-2,0-4.1,0-6.1
		c1.4-0.8,1.4-0.8,1.4,0.9c0,2.8,0,5.6,0,8.4C347.9,42.1,347.4,42.4,346.8,42.6z"/>
	<path id="XMLID_182_" class="st15" d="M332.6,15.6c-0.5-1.2-0.1-2.4-0.2-3.6c0.4-0.7,1-1.1,1.9-0.9c0.2,1.1,0.8,2.2,0.6,3.4
		C334.1,14.8,333.3,15.2,332.6,15.6z"/>
	<path id="XMLID_181_" class="st16" d="M339.2,12.2c-0.5-0.3-0.1-0.6,0-0.9c0.6-1.4,1.2-2.7,1.8-4c0.3,0,0.6,0,1.1-0.3
		c0,1.2,0,2.2,0,3.3c0,0.4-0.2,0.6-0.5,0.7C340.8,11.4,340,11.8,339.2,12.2z"/>
	<path id="XMLID_180_" class="st17" d="M330.8,47.8c0.4,0.3,0.1,0.6,0,1c-0.2,0.8-0.4,1.6-0.7,2.4c-0.2,0.5-0.4,0.9-0.9,0.3
		c-0.6-0.6-1.2-1.3-1.8-1.9C328.6,49,329.7,48.4,330.8,47.8z"/>
	<path id="XMLID_179_" class="st18" d="M324.4,24.9c0.4,1.9-0.1,3.3-2.1,3.8c-0.4-0.8-0.1-1.6-0.2-2.5c0-0.4,0.4-0.4,0.7-0.6
		C323.4,25.5,323.9,25.2,324.4,24.9z"/>
	<path id="XMLID_178_" class="st19" d="M336,21.4c-0.7,0.4-1.4,0.8-2,1.1c-0.8-1.6-0.1-3.1,1.6-3.6c0.5-0.1,0.4,0.2,0.4,0.4
		C336,20.1,336,20.8,336,21.4z"/>
	<path id="XMLID_177_" class="st20" d="M313.2,55.7c-0.3-0.3-0.2-0.7-0.2-1c0-7.5,0-15,0-22.4c0-0.3-0.1-0.7,0.2-1
		C313.2,39.4,313.2,47.6,313.2,55.7z"/>
	<path id="XMLID_176_" class="st21" d="M331.1,31.5c0.5-0.2,0.9-0.5,1.4-0.7s1,0.1,1.2,0.4c0.2,0.3-0.4,0.4-0.6,0.5
		c-0.4,0.2-0.5,0.5-0.5,0.9s0.1,0.7,0,1.1c-0.1,0.4,0.4,1.1-0.3,1.2c-0.6,0.1-1.6-0.8-1.5-1.4c0-0.7-0.2-1.4,0.2-2.1
		c0.3,0.5,0.2,1,0.3,1.5c0,0.4,0,0.7,0.3,0.9c0.3,0.2,0.5,0.3,0.6-0.2c0-0.7,0.1-1.3-0.6-1.7C331.2,31.9,331,31.8,331.1,31.5z"/>
	<path id="XMLID_175_" class="st22" d="M331.1,31.5c0.9,0.4,1.5,1.1,1.3,2.2c-0.1,0.3,0.3,0.9-0.4,0.9c-0.5,0-1.1-0.2-1.1-0.9
		s0-1.4,0-2.1C330.9,31.5,331,31.5,331.1,31.5z"/>
	<path id="XMLID_174_" class="st20" d="M313.4,56.8c-0.2,0.2-0.5,0.2-0.7,0c0.4-0.2,0.1-0.7,0.4-0.8
		C313.2,56.3,313.1,56.6,313.4,56.8z"/>
	<path id="XMLID_173_" class="st23" d="M308.3,109.8c0-0.1,0-0.1,0-0.2c0.3-0.3,0.2-0.7,0.2-1.1c0-4.6,0-9.1,0-13.7
		c0-0.8-0.1-1.7-0.2-2.5c0.1-0.2,0.3-0.3,0.4-0.4c2-1.2,4-2.1,6-3.1c6.5-3.4,13-6.8,19.5-10.1c3.7-1.9,7.5-3.9,11.2-5.8
		c0.3-0.2,0.6-0.5,1.1-0.3c0,5.8,0,11.6,0,17.4c-0.2,0.3-0.4,0.5-0.7,0.6c-4.7,2.5-9.4,4.9-14.1,7.4c-0.3,0.1-0.6,0.3-0.9,0.3
		c-0.2,0-0.3-0.1-0.3-0.3c-0.1-0.5,0.3-1.3-0.2-1.6c-0.4-0.2-1,0.4-1.4,0.7c-0.1,0-0.2,0.1-0.3,0.2c-0.2,0.1-0.5,0.2-0.7,0.3
		c-1.3,0.5-2.6,1.1-2.2,2.9c0.1,0.3-0.1,0.5-0.3,0.8c-2.2,1.3-4.5,2.4-6.7,3.6c-3.4,1.7-6.7,3.6-10.1,5.2
		C308.5,109.9,308.4,109.8,308.3,109.8z"/>
	<path id="XMLID_172_" class="st24" d="M285.2,108c0.3-1.8,0.3-1.8,1.9-1c5.6,2.7,11,5.8,16.5,8.6c0.3,0.1,0.6,0.2,0.9,0.4
		c1.2,0.7,2.4,1.3,3.7,1.9c1.4,0.7,2.8,1.4,4.2,2.1c0.4,0.2,0.8,0.4,0.9,0.8c0.1,3.4,0,6.8,0,10.3c0,0.4,0.1,0.8-0.5,0.9
		c-9-4.6-18.1-9.3-27.1-13.9c-0.5-0.3-0.7-0.6-0.7-1.2C285.1,113.9,285.1,110.9,285.2,108z"/>
	<path id="XMLID_171_" class="st25" d="M328.7,117.2c-0.4,0.2-0.2,0.6-0.2,1c0,1.6,0.1,3.3,0.1,4.9c0,0.4,0,0.7-0.4,0.9
		c-5,2.7-10,5.4-15,8c-0.2-0.6-0.1-1.2-0.1-1.8c0-3.1,0-6.3,0-9.4c0-0.6,0.5-0.7,0.9-0.9c1.7-0.9,3.3-1.7,5-2.6
		c2.7-1.4,5.3-3,8.1-4.3c0.4-0.2,0.9-0.7,1.4-0.1C328.6,114.3,328.8,115.7,328.7,117.2z"/>
	<path id="XMLID_170_" class="st25" d="M350.4,101.3c0.1,3.5,0.3,6.9,0.4,10.4c0,0.3-0.1,0.5-0.4,0.7c-5,2.7-10,5.4-15.1,8.1
		c-0.3-0.3-0.3-0.6-0.3-1c0-3.4-0.1-6.8,0-10.2c0.1-0.4,0.4-0.6,0.8-0.8c4.5-2.3,9-4.6,13.4-6.9C349.6,101.3,350,101.1,350.4,101.3z
		"/>
	<path id="XMLID_169_" class="st26" d="M346.6,72.5c-7.3,3.8-14.7,7.6-22,11.4c-5.3,2.7-10.5,5.5-15.8,8.2c-0.4-0.1-0.5-0.4-0.5-0.7
		c0-1-0.1-2,0.1-3c0.1-0.3,0.4-0.2,0.6-0.4c3.7-1.9,7.4-3.8,11.1-5.7c8.7-4.5,17.3-9,26-13.5c0.2-0.1,0.3-0.1,0.5-0.2
		C346.6,69.9,346.6,71.2,346.6,72.5z"/>
	<path id="XMLID_168_" class="st1" d="M330.9,98.1c5.2-2.8,10.4-5.6,15.7-8.2c0,2.5,0,4.9,0,7.4c0,0.4,0,0.8-0.5,1
		c-0.8,1-2,1.3-3,1.8c-3.7,2-7.4,3.9-11.1,5.8c-0.4,0.2-1,0.7-1.4-0.1c-0.2-2.3-0.1-4.7-0.1-7C330.6,98.6,330.6,98.3,330.9,98.1z"/>
	<path id="XMLID_167_" class="st24" d="M328.7,117.2c-0.6-1.4-0.4-3-0.4-4.5c-0.9-0.9-2.1-1.3-3.2-2c-0.4-0.3-1.1-0.4-1-1.2
		c1-0.6,1.2-1.5,1.2-2.6c0-0.9-0.2-1.8,0.1-2.7c0.4-0.4,0.8-0.2,1.1,0c2.7,1.3,5.4,2.7,8.1,4.1c0.3,0.2,0.6,0.3,0.6,0.8
		c0,3.4,0,6.8,0,10.1c0,0.3,0.1,0.7-0.1,1C332.9,119.5,330.8,118.3,328.7,117.2z"/>
	<path id="XMLID_166_" class="st27" d="M335.1,108.9c-2.6-1.3-5.3-2.6-7.9-4c-0.5-0.3-1-0.6-1.6-0.7c-0.2-0.2-0.2-0.4-0.1-0.6
		c0.2-0.3,0.5-0.2,0.8-0.1c1.5,0.9,3.2,1.5,4.6,2.6c2.6-1.1,4.9-2.5,7.4-3.8c2.6-1.3,5.3-2.7,7.9-4.1c1.2,0.7,2.4,1.4,3.7,2.1
		c0.4,0.2,0.7,0.4,0.5,0.9c-4.7,2.4-9.3,4.8-14,7.2c-0.3,0.2-0.7,0.3-1.1,0.4C335.3,109,335.2,109,335.1,108.9z"/>
	<path id="XMLID_165_" class="st28" d="M313.2,120.4c0,3.8,0,7.7,0,11.5c-0.2,0.2-0.3,0.1-0.4-0.1c0.2-0.2,0.2-0.4,0.2-0.7
		c0-3.6,0-7.2,0-10.8C313,120.3,313.1,120.3,313.2,120.4z"/>
	<path id="XMLID_164_" class="st29" d="M335.1,108.9c0.1,0,0.2,0,0.3,0c0,3.8,0,7.7,0,11.5c-0.1,0.1-0.1,0.2-0.2,0
		C335.1,116.6,335.1,112.7,335.1,108.9z"/>
	<path id="XMLID_163_" class="st30" d="M334.2,11c-0.6,0.3-1.3,0.6-1.9,0.9c-0.3-0.1-0.2-0.4-0.2-0.6c0.1-2.2,0.3-4.4,0.6-6.6
		C333.2,6.8,333.7,8.9,334.2,11z"/>
	<path id="XMLID_162_" class="st1" d="M303,89.8c-3.5,1.8-7,3.6-10.5,5.5c-0.4,0.2-0.7,0.5-1.2,0.5c0-8.2,0-16.3,0-24.5
		c0-0.4,0-0.9,0.2-1.2c0.2-0.4,0.6-0.6,0.9-0.8c3.2-1.6,6.3-3.3,9.5-5c0.1-0.1,0.3-0.1,0.4-0.2c1.1-0.5,1.2-0.4,1.2,0.8
		c0,6.6,0,13.2,0,19.8c0,0.5,0,0.9,0.1,1.4c0.2,0.9,0.1,1.9,0.1,2.8C303.7,89.3,303.5,89.6,303,89.8z"/>
	<path id="XMLID_161_" class="st31" d="M303.5,85.9c0-0.5-0.1-0.9-0.1-1.4c0-6.5,0-13,0-19.5c0-0.4,0-0.8,0-1.3
		c-4.1,2.1-8,4.2-11.9,6.2c-0.1,0-0.1,0-0.2,0c0-3.4,0-6.8,0-10.2c3.7-2,7.4-3.9,11.1-5.9c0.3-0.2,0.6-0.3,0.8-0.7
		c0.3,0.2,0.2,0.6,0.2,0.9c0.1,6.1,0.2,12.3,0.2,18.4c0,4,0,8.1,0,12.1c0,0.5-0.1,0.9,0.2,1.3C303.7,86.1,303.6,86,303.5,85.9z"/>
	<path id="XMLID_160_" class="st32" d="M303.5,85.9c0.1,0,0.2,0,0.3,0c1.3,0.9,2.8,1.5,4.2,2.1c0.2,0,0.3,0.2,0.4,0.4
		c0,1,0,1.9,0,2.9c0,0.3,0.1,0.7-0.3,0.9c-1.7-0.8-3.3-1.9-5.1-2.5c0.4-0.2,0.5-0.6,0.5-1.1C303.5,87.8,303.5,86.9,303.5,85.9z"/>
	<path id="XMLID_159_" class="st33" d="M308.1,92.3c0.4-1.3,0.1-2.7,0.2-4c0.1-0.1,0.2-0.1,0.3,0c0.1,1.3-0.3,2.6,0.2,3.8
		c-0.1,0.1-0.3,0.1-0.4,0.2C308.2,92.3,308.2,92.3,308.1,92.3z"/>
	<path id="XMLID_158_" class="st34" d="M308.5,88.3c-0.1,0-0.2,0-0.3,0c-0.1-0.1-0.2-0.2-0.2-0.2c0.5-0.4,0.2-0.9,0.2-1.3
		c0-9.1,0-18.2,0-27.3c0-0.4-0.2-0.9,0.2-1.2c0,9.5,0,19.1,0,28.6c0,0.4-0.3,1,0.4,1.1C308.8,88.1,308.7,88.2,308.5,88.3z"/>
	<path id="XMLID_157_" class="st35" d="M308.1,117.9c-1.2-0.6-2.5-1.1-3.6-1.9c1.1,0.3,2,0.9,3.1,1.4c0.6,0.3,0.8,0.2,0.8-0.5
		c0-2.4,0-4.7,0-7.1c0.1,0,0.2,0,0.2,0c0.3,0.2,0.3,0.6,0.3,0.9c0,2.1,0,4.3,0,6.4c0,0.2-0.1,0.5-0.2,0.7
		C308.5,118,308.3,117.9,308.1,117.9z"/>
	<path id="XMLID_156_" class="st1" d="M308.5,117.8c0-2.7,0-5.4,0-8.1c1.7-0.9,3.5-1.9,5.2-2.8c3.8-2,7.7-4,11.5-6
		c0.7,0.6,0.8,1.4,0.2,2.6c0,0.2,0,0.4,0,0.6c0,1-0.1,2,0,3c0.1,1.3-0.2,2.2-1.5,2.5c-0.2,0.4-0.6,0.6-1,0.9c-4.5,2.3-9,4.7-13.5,7
		C309.2,117.9,308.9,118.1,308.5,117.8z"/>
	<path id="XMLID_155_" class="st6" d="M325.5,103.6c-0.1-0.9,0.3-1.8-0.2-2.6c0.3-0.3,0.3-0.7,0.2-1.1c-0.2-1.2,0.3-1.9,1.4-2.2
		c0.6-0.2,1.1-0.7,1.8-0.8c0.8,0.1,1.4,0.4,1.9,1c0.1,0.1,0.2,0.1,0.2,0.2c0,2.7,0,5.4,0,8.1c-1.4-0.4-2.6-1.2-3.9-1.9
		C326.5,104,326.1,103.7,325.5,103.6z"/>
	<path id="XMLID_154_" class="st36" d="M330.6,97.9c-0.6-0.3-1.2-0.6-1.9-1c0.1-0.2,0.3-0.4,0.6-0.4c0.5-0.2,1.1-1,1.4-0.6
		C331.1,96.4,331,97.2,330.6,97.9z"/>
	<path id="XMLID_153_" class="st27" d="M308.5,117.8c1.8-0.9,3.6-1.8,5.4-2.7c3.4-1.8,6.8-3.5,10.2-5.3c1.1,0.9,2.4,1.3,3.6,2.1
		c0.3,0.2,0.7,0.4,0.6,0.8c-1.5,0.7-3,1.5-4.4,2.2c-3.5,1.9-7,3.9-10.7,5.4c-0.1,0-0.2,0-0.3,0c-1.7-0.7-3.4-1.5-4.9-2.5
		C308.2,117.9,308.4,117.8,308.5,117.8z"/>
</g>
<g id="XMLID_69_">
	<path id="XMLID_70_" class="st7" d="M-178.9,86.1c-0.2,0-0.3-0.1-0.4-0.2c-0.1-0.1-0.2-0.3-0.2-0.4v-8.4c0-0.2,0.1-0.3,0.2-0.4
		c0.1-0.1,0.3-0.2,0.4-0.2h3.3c0.4,0,0.9,0.1,1.2,0.3c0.4,0.2,0.7,0.4,1,0.7c0.3,0.3,0.5,0.6,0.7,1c0.2,0.4,0.3,0.8,0.3,1.2
		s-0.1,0.9-0.3,1.2c-0.2,0.4-0.4,0.7-0.7,1c-0.3,0.3-0.6,0.5-1,0.7c-0.4,0.2-0.8,0.3-1.2,0.3c-0.2,0-0.3-0.1-0.4-0.2
		c-0.1-0.1-0.2-0.3-0.2-0.4c0-0.2,0.1-0.3,0.2-0.4c0.1-0.1,0.3-0.2,0.4-0.2c0.3,0,0.5-0.1,0.8-0.2c0.2-0.1,0.5-0.3,0.6-0.4
		c0.2-0.2,0.3-0.4,0.4-0.6c0.1-0.2,0.2-0.5,0.2-0.8s-0.1-0.5-0.2-0.8c-0.1-0.2-0.2-0.5-0.4-0.6c-0.2-0.2-0.4-0.3-0.6-0.4
		c-0.2-0.1-0.5-0.2-0.8-0.2h-2.7v7.8c0,0.2-0.1,0.3-0.2,0.4C-178.6,86.1-178.8,86.1-178.9,86.1z"/>
	<path id="XMLID_72_" class="st7" d="M-162.8,86.2c-0.3,0-0.5,0-0.7-0.1s-0.4-0.2-0.6-0.5c-0.1-0.1-0.2-0.3-0.4-0.5
		c-0.2-0.2-0.4-0.5-0.6-0.9c-0.1-0.2-0.2-0.3-0.3-0.5s-0.2-0.2-0.2-0.3l-0.1-0.1c-0.1-0.1-0.2-0.3-0.3-0.3c-0.1-0.1-0.2-0.1-0.4-0.1
		c-0.2,0-0.3-0.1-0.4-0.2c-0.1-0.1-0.2-0.3-0.2-0.4c0-0.2,0.1-0.3,0.2-0.4c0.1-0.1,0.3-0.2,0.4-0.2c0.3,0,0.5-0.1,0.8-0.2
		c0.3-0.1,0.5-0.3,0.6-0.4c0.2-0.2,0.3-0.4,0.4-0.6c0.1-0.2,0.2-0.5,0.2-0.8s-0.1-0.5-0.2-0.8c-0.1-0.3-0.3-0.5-0.4-0.6
		c-0.2-0.2-0.4-0.3-0.6-0.4c-0.2-0.1-0.5-0.2-0.8-0.2h-2.7v7.9c0,0.2-0.1,0.3-0.2,0.4c-0.1,0.1-0.3,0.2-0.4,0.2s-0.3-0.1-0.4-0.2
		c-0.1-0.1-0.2-0.3-0.2-0.4v-8.5c0-0.2,0.1-0.3,0.2-0.4c0.1-0.1,0.3-0.2,0.4-0.2h3.3c0.4,0,0.9,0.1,1.2,0.3c0.4,0.2,0.7,0.4,1,0.7
		s0.5,0.6,0.7,1s0.3,0.8,0.3,1.2c0,0.6-0.1,1.1-0.4,1.6c-0.3,0.5-0.7,0.9-1.2,1.2l0.1,0.1l0.1,0.1c0.1,0.1,0.1,0.2,0.2,0.3
		c0.1,0.1,0.2,0.3,0.3,0.5c0.1,0.1,0.2,0.2,0.2,0.4c0.1,0.1,0.2,0.3,0.3,0.4c0.1,0.1,0.2,0.2,0.2,0.3c0.1,0.1,0.1,0.2,0.2,0.2
		c0.1,0.1,0.1,0.1,0.2,0.2c0,0,0.1,0,0.2,0c0.2,0,0.3,0.1,0.4,0.2c0.1,0.1,0.2,0.3,0.2,0.4s-0.1,0.3-0.2,0.4
		C-162.5,86.1-162.7,86.2-162.8,86.2z"/>
	<path id="XMLID_74_" class="st7" d="M-154.2,84.9c0.2,0,0.3,0.1,0.4,0.2c0.1,0.1,0.2,0.2,0.2,0.4s-0.1,0.3-0.2,0.4
		c-0.1,0.1-0.2,0.2-0.4,0.2h-5.6c-0.2,0-0.3-0.1-0.4-0.2c-0.1-0.1-0.2-0.2-0.2-0.4v-8.4c0-0.2,0.1-0.3,0.2-0.4
		c0.1-0.1,0.3-0.2,0.4-0.2h5.6c0.2,0,0.3,0.1,0.4,0.2c0.1,0.1,0.2,0.2,0.2,0.4s-0.1,0.3-0.2,0.4c-0.1,0.1-0.2,0.2-0.4,0.2h-5v3h3.3
		c0.2,0,0.3,0.1,0.4,0.2c0.1,0.1,0.2,0.2,0.2,0.4s-0.1,0.3-0.2,0.4c-0.1,0.1-0.2,0.2-0.4,0.2h-3.3v3L-154.2,84.9L-154.2,84.9z"/>
	<path id="XMLID_76_" class="st7" d="M-148.8,86.1c-0.1,0-0.2,0-0.3-0.1s-0.2-0.1-0.2-0.3l-3.4-8.6c-0.1-0.1-0.1-0.3,0-0.4
		c0.1-0.1,0.2-0.2,0.3-0.3c0.1-0.1,0.3,0,0.4,0s0.2,0.2,0.3,0.3l2.9,7.3l2.9-7.3c0.1-0.1,0.2-0.2,0.3-0.3s0.3-0.1,0.4,0
		c0.1,0.1,0.3,0.2,0.3,0.3c0.1,0.1,0.1,0.3,0,0.4l-3.4,8.6C-148.3,86-148.5,86.1-148.8,86.1z"/>
	<path id="XMLID_78_" class="st7" d="M-142.5,86.1c-0.2,0-0.3-0.1-0.4-0.2c-0.1-0.1-0.2-0.3-0.2-0.4V77c0-0.2,0.1-0.3,0.2-0.4
		c0.1-0.1,0.3-0.2,0.4-0.2c0.2,0,0.3,0.1,0.4,0.2c0.1,0.1,0.2,0.2,0.2,0.4v8.5c0,0.2-0.1,0.3-0.2,0.4
		C-142.2,86.1-142.3,86.1-142.5,86.1z"/>
	<path id="XMLID_80_" class="st7" d="M-134.7,76.6c0.7,0,1.3,0.1,1.9,0.4c0.6,0.3,1.1,0.6,1.5,1c0.4,0.4,0.8,0.9,1,1.5
		c0.3,0.6,0.4,1.2,0.4,1.9c0,0.8-0.2,1.5-0.5,2.1s-0.8,1.2-1.3,1.6l0,0c-0.4,0.3-0.9,0.6-1.4,0.7c-0.5,0.2-1,0.3-1.6,0.3
		c-0.7,0-1.3-0.1-1.9-0.4c-0.6-0.3-1.1-0.6-1.5-1c-0.4-0.4-0.8-0.9-1-1.5c-0.3-0.6-0.4-1.2-0.4-1.9s0.1-1.4,0.4-2
		c0.3-0.6,0.7-1.2,1.2-1.6l0.1-0.1l0,0c0.4-0.3,0.9-0.6,1.4-0.8C-135.8,76.6-135.3,76.6-134.7,76.6z M-134.7,85c0.3,0,0.6,0,0.9-0.1
		c0.3-0.1,0.6-0.2,0.9-0.3l-4.6-5.6c-0.3,0.3-0.5,0.7-0.7,1.1c-0.2,0.4-0.2,0.8-0.2,1.3s0.1,1,0.3,1.4c0.2,0.4,0.5,0.8,0.8,1.2
		c0.3,0.4,0.7,0.6,1.2,0.8C-135.6,84.9-135.2,85-134.7,85z M-132,83.8c0.3-0.3,0.5-0.7,0.7-1.1c0.2-0.4,0.3-0.9,0.3-1.3
		c0-0.5-0.1-1-0.3-1.4s-0.5-0.8-0.8-1.2c-0.3-0.3-0.7-0.6-1.2-0.8c-0.4-0.2-0.9-0.3-1.4-0.3c-0.3,0-0.7,0-1,0.1
		c-0.3,0.1-0.6,0.2-0.9,0.4L-132,83.8z"/>
	<path id="XMLID_84_" class="st7" d="M-124.4,86.2c-0.5,0-1-0.1-1.4-0.3s-0.8-0.4-1.2-0.8c-0.3-0.3-0.6-0.7-0.8-1.2
		c-0.2-0.5-0.3-0.9-0.3-1.4V77c0-0.2,0.1-0.3,0.2-0.4c0.1-0.1,0.2-0.2,0.4-0.2c0.2,0,0.3,0.1,0.4,0.2s0.2,0.2,0.2,0.4v5.6
		c0,0.3,0.1,0.7,0.2,1s0.3,0.6,0.5,0.8s0.5,0.4,0.8,0.5s0.6,0.2,1,0.2s0.7-0.1,1-0.2c0.3-0.1,0.6-0.3,0.8-0.5s0.4-0.5,0.5-0.8
		s0.2-0.6,0.2-1v-5l0,0v-0.1c0-0.1,0-0.2,0-0.3c0-0.2,0.1-0.3,0.2-0.4s0.2-0.2,0.2-0.2c0.1,0,0.2-0.1,0.2-0.1c0.1,0,0.1,0,0.2,0
		c0.2,0,0.3,0.1,0.4,0.2s0.2,0.2,0.2,0.4s-0.1,0.4-0.3,0.5v0.1v5c0,0.5-0.1,1-0.3,1.4c-0.2,0.4-0.4,0.8-0.8,1.2
		c-0.3,0.3-0.7,0.6-1.2,0.8S-123.9,86.2-124.4,86.2z"/>
	<path id="XMLID_86_" class="st7" d="M-115,86.3c-0.5,0-0.9-0.1-1.3-0.2c-0.4-0.1-0.8-0.3-1.1-0.5c-0.4-0.3-0.7-0.6-0.9-1
		c-0.2-0.4-0.3-0.9-0.3-1.4c0-0.2,0.1-0.3,0.2-0.4c0.1-0.1,0.3-0.2,0.4-0.2s0.3,0.1,0.4,0.2c0.1,0.1,0.2,0.2,0.2,0.4
		c0,0.7,0.2,1.2,0.7,1.5c0.2,0.2,0.5,0.3,0.8,0.4c0.3,0.1,0.6,0.1,1,0.1c0.3,0,0.6,0,0.8-0.1s0.5-0.2,0.7-0.4
		c0.4-0.3,0.6-0.7,0.6-1.2c0-0.4-0.1-0.7-0.4-0.9c-0.2-0.2-0.4-0.3-0.7-0.4c-0.3-0.1-0.7-0.2-1.1-0.2c-0.2,0-0.3-0.1-0.5-0.1
		s-0.3-0.1-0.4-0.1s-0.2-0.1-0.3-0.1s-0.2-0.1-0.4-0.1c-0.2-0.1-0.4-0.1-0.6-0.2s-0.4-0.2-0.5-0.3c-0.3-0.3-0.5-0.6-0.6-0.9
		c-0.1-0.3-0.2-0.7-0.2-1.1c0-0.3,0.1-0.6,0.2-0.9c0.1-0.3,0.3-0.6,0.6-0.8c0.1-0.1,0.2-0.2,0.4-0.3s0.3-0.2,0.5-0.3
		s0.4-0.1,0.7-0.2c0.3-0.1,0.5-0.1,0.8-0.1s0.6,0,0.9,0.1s0.5,0.1,0.7,0.2s0.4,0.2,0.6,0.3s0.3,0.2,0.4,0.4c0.1,0.1,0.2,0.3,0.3,0.4
		c0.1,0.2,0.2,0.3,0.3,0.5c0.1,0.3,0.2,0.6,0.2,0.9c0,0.2-0.1,0.3-0.2,0.4c-0.1,0.1-0.2,0.2-0.4,0.2c-0.2,0-0.3-0.1-0.4-0.2
		c-0.1-0.1-0.2-0.3-0.2-0.4c0-0.1,0-0.2-0.1-0.4s-0.2-0.4-0.4-0.6c-0.1-0.2-0.4-0.3-0.7-0.5s-0.7-0.2-1.2-0.2c-0.3,0-0.7,0-0.9,0.1
		c-0.3,0.1-0.5,0.2-0.7,0.4s-0.3,0.3-0.4,0.5s-0.1,0.3-0.1,0.4c0,0.2,0,0.4,0.1,0.5c0.1,0.2,0.2,0.3,0.3,0.5
		c0.2,0.2,0.4,0.3,0.7,0.4c0.3,0.1,0.8,0.3,1.3,0.4c0.6,0.1,1,0.2,1.5,0.4c0.4,0.1,0.8,0.3,1,0.6c0.5,0.5,0.7,1.1,0.7,1.7
		c0,0.4-0.1,0.8-0.3,1.2c-0.2,0.4-0.4,0.7-0.7,0.9c-0.3,0.2-0.6,0.4-1,0.5S-114.6,86.3-115,86.3z"/>
	<path id="XMLID_88_" class="st7" d="M-104.2,86.1h-5.3c-0.2,0-0.3-0.1-0.4-0.2c-0.1-0.1-0.2-0.3-0.2-0.4v-8.4
		c0-0.2,0.1-0.3,0.2-0.4s0.2-0.2,0.4-0.2s0.3,0.1,0.4,0.2s0.2,0.3,0.2,0.4v7.8h4.8c0.2,0,0.3,0.1,0.4,0.2c0.1,0.1,0.2,0.3,0.2,0.4
		c0,0.2-0.1,0.3-0.2,0.4C-103.9,86-104.1,86.1-104.2,86.1z"/>
	<path id="XMLID_90_" class="st7" d="M-97.2,76.7c0.1,0.1,0.2,0.2,0.2,0.4s0,0.3-0.1,0.4l-3.2,4v4c0,0.2-0.1,0.3-0.2,0.4
		c-0.1,0.1-0.2,0.2-0.4,0.2s-0.3-0.1-0.4-0.2c-0.1-0.1-0.2-0.2-0.2-0.4v-4l-2.9-3.7c0-0.1-0.1-0.1-0.1-0.1h-0.1
		c-0.1,0-0.3-0.1-0.4-0.2c-0.1-0.1-0.2-0.2-0.2-0.4s0-0.3,0.1-0.4c0.1-0.1,0.2-0.2,0.4-0.2h0.1c0.1,0,0.2,0,0.3,0.1
		c0.1,0,0.2,0.1,0.3,0.2c0.1,0.1,0.2,0.2,0.3,0.3l2.6,3.3l2.8-3.6c0.1-0.1,0.2-0.2,0.4-0.2C-97.4,76.6-97.3,76.6-97.2,76.7z"/>
	<path id="XMLID_92_" class="st7" d="M-168.6,100.5c0.2,0,0.3,0.1,0.4,0.2s0.2,0.2,0.2,0.4s-0.1,0.3-0.2,0.4
		c-0.1,0.1-0.2,0.2-0.4,0.2h-5.6c-0.2,0-0.3-0.1-0.4-0.2c-0.1-0.1-0.2-0.2-0.2-0.4v-8.4c0-0.2,0.1-0.3,0.2-0.4
		c0.1-0.1,0.3-0.2,0.4-0.2h5.6c0.2,0,0.3,0.1,0.4,0.2s0.2,0.2,0.2,0.4s-0.1,0.3-0.2,0.4s-0.2,0.2-0.4,0.2h-5v3h3.3
		c0.2,0,0.3,0.1,0.4,0.2c0.1,0.1,0.2,0.2,0.2,0.4s-0.1,0.3-0.2,0.4c-0.1,0.1-0.2,0.2-0.4,0.2h-3.3v3L-168.6,100.5L-168.6,100.5z"/>
	<path id="XMLID_94_" class="st7" d="M-162.5,97.5c-0.2,0-0.3-0.1-0.4-0.2l-3.3-4.3c-0.1-0.1-0.1-0.3-0.1-0.4c0-0.2,0.1-0.3,0.2-0.4
		c0.1-0.1,0.3-0.1,0.4-0.1c0.2,0,0.3,0.1,0.4,0.2l2.9,3.7l2.8-3.7c0.1-0.1,0.2-0.2,0.4-0.2s0.3,0,0.4,0.1c0.1,0.1,0.2,0.2,0.2,0.4
		s0,0.3-0.1,0.4l-3.3,4.2C-162.2,97.5-162.3,97.5-162.5,97.5z M-158.9,101.7c0,0-0.1,0-0.2,0c-0.1,0-0.2,0-0.3-0.1
		c-0.1,0-0.2-0.1-0.3-0.2c-0.1-0.1-0.2-0.2-0.3-0.3l-2.6-3.4l-2.8,3.7c-0.1,0.1-0.2,0.2-0.4,0.2c-0.2,0-0.3,0-0.4-0.1
		s-0.2-0.2-0.2-0.4s0-0.3,0.1-0.4l3.3-4.2c0.1-0.1,0.2-0.2,0.4-0.2c0.2,0,0.3,0.1,0.4,0.2l3,3.9c0,0.1,0.1,0.1,0.1,0.1h0.1
		c0.1,0,0.3,0,0.4,0.1s0.2,0.2,0.2,0.4s0,0.3-0.1,0.4C-158.6,101.5-158.7,101.7-158.9,101.7L-158.9,101.7z"/>
	<path id="XMLID_97_" class="st7" d="M-151.9,101.7c-0.7,0-1.3-0.1-1.9-0.4c-0.6-0.3-1.1-0.6-1.5-1s-0.8-0.9-1-1.5
		c-0.3-0.6-0.4-1.2-0.4-1.9s0.1-1.3,0.4-1.9c0.3-0.6,0.6-1.1,1-1.5s0.9-0.8,1.5-1s1.2-0.4,1.9-0.4c0.9,0,1.7,0.2,2.4,0.6
		c0.1,0.1,0.2,0.2,0.3,0.3c0,0.2,0,0.3-0.1,0.4c-0.1,0.1-0.2,0.2-0.4,0.3c-0.2,0-0.3,0-0.4-0.1c-0.3-0.2-0.6-0.3-0.9-0.4
		c-0.3-0.1-0.6-0.1-1-0.1c-0.5,0-1,0.1-1.4,0.3c-0.4,0.2-0.8,0.5-1.2,0.8c-0.3,0.3-0.6,0.7-0.8,1.2c-0.2,0.5-0.3,0.9-0.3,1.4
		s0.1,1,0.3,1.4c0.2,0.4,0.5,0.8,0.8,1.2c0.3,0.3,0.7,0.6,1.2,0.8c0.4,0.2,0.9,0.3,1.4,0.3c0.4,0,0.7,0,1-0.1s0.6-0.2,0.9-0.4
		c0.1-0.1,0.3-0.1,0.4-0.1c0.2,0,0.3,0.1,0.4,0.3c0.1,0.1,0.1,0.3,0.1,0.4s-0.1,0.3-0.3,0.4C-150.1,101.5-150.9,101.7-151.9,101.7z"
		/>
	<path id="XMLID_99_" class="st7" d="M-141.5,101.7h-5.3c-0.2,0-0.3-0.1-0.4-0.2c-0.1-0.1-0.2-0.3-0.2-0.4v-8.4
		c0-0.2,0.1-0.3,0.2-0.4c0.1-0.1,0.2-0.2,0.4-0.2s0.3,0.1,0.4,0.2c0.1,0.1,0.2,0.3,0.2,0.4v7.8h4.8c0.2,0,0.3,0.1,0.4,0.2
		c0.1,0.1,0.2,0.3,0.2,0.4c0,0.2-0.1,0.3-0.2,0.4C-141.2,101.6-141.4,101.7-141.5,101.7z"/>
	<path id="XMLID_101_" class="st7" d="M-135.5,101.8c-0.5,0-1-0.1-1.4-0.3c-0.4-0.2-0.8-0.4-1.2-0.8c-0.3-0.3-0.6-0.7-0.8-1.2
		c-0.2-0.4-0.3-0.9-0.3-1.4v-5.6c0-0.2,0.1-0.3,0.2-0.4c0.1-0.1,0.2-0.2,0.4-0.2c0.2,0,0.3,0.1,0.4,0.2c0.1,0.1,0.2,0.2,0.2,0.4v5.6
		c0,0.3,0.1,0.7,0.2,1c0.1,0.3,0.3,0.6,0.5,0.8c0.2,0.2,0.5,0.4,0.8,0.5c0.3,0.1,0.6,0.2,1,0.2c0.4,0,0.7-0.1,1-0.2
		c0.3-0.1,0.6-0.3,0.8-0.5c0.2-0.2,0.4-0.5,0.5-0.8c0.1-0.3,0.2-0.6,0.2-1v-5l0,0V93c0-0.1,0-0.2,0-0.3c0-0.2,0.1-0.3,0.2-0.4
		c0.1-0.1,0.2-0.2,0.2-0.2c0.1,0,0.2-0.1,0.2-0.1c0.1,0,0.1,0,0.2,0c0.2,0,0.3,0.1,0.4,0.2s0.2,0.2,0.2,0.4s-0.1,0.4-0.3,0.5v0.1v5
		c0,0.5-0.1,1-0.3,1.4s-0.4,0.8-0.8,1.2c-0.3,0.3-0.7,0.6-1.2,0.8S-135,101.8-135.5,101.8z"/>
	<path id="XMLID_103_" class="st7" d="M-126.4,101.7c-0.2,0-0.3-0.1-0.4-0.2s-0.2-0.2-0.2-0.4s0.1-0.3,0.2-0.4s0.2-0.2,0.4-0.2
		c0.5,0,1-0.1,1.4-0.3s0.8-0.5,1.2-0.8c0.3-0.3,0.6-0.7,0.8-1.2c0.2-0.4,0.3-0.9,0.3-1.4s-0.1-1-0.3-1.4c-0.2-0.4-0.5-0.8-0.8-1.2
		s-0.7-0.6-1.2-0.8c-0.4-0.2-0.9-0.3-1.4-0.3h-1.5v7.8c0,0.2-0.1,0.3-0.2,0.4c-0.1,0.1-0.3,0.2-0.4,0.2c-0.2,0-0.3-0.1-0.4-0.2
		c-0.1-0.1-0.2-0.2-0.2-0.4v-8.4c0-0.2,0.1-0.3,0.2-0.4c0.1-0.1,0.2-0.2,0.4-0.2h2.1c0.7,0,1.3,0.1,1.9,0.4c0.6,0.3,1.1,0.6,1.5,1
		s0.8,0.9,1,1.5c0.3,0.6,0.4,1.2,0.4,1.9s-0.1,1.3-0.4,1.9c-0.3,0.6-0.6,1.1-1,1.5s-0.9,0.8-1.5,1
		C-125.1,101.6-125.8,101.7-126.4,101.7z"/>
	<path id="XMLID_105_" class="st7" d="M-113.2,100.5c0.2,0,0.3,0.1,0.4,0.2c0.1,0.1,0.2,0.2,0.2,0.4s-0.1,0.3-0.2,0.4
		c-0.1,0.1-0.2,0.2-0.4,0.2h-5.6c-0.2,0-0.3-0.1-0.4-0.2c-0.1-0.1-0.2-0.2-0.2-0.4v-8.4c0-0.2,0.1-0.3,0.2-0.4
		c0.1-0.1,0.2-0.2,0.4-0.2h5.6c0.2,0,0.3,0.1,0.4,0.2c0.1,0.1,0.2,0.2,0.2,0.4s-0.1,0.3-0.2,0.4c-0.1,0.1-0.2,0.2-0.4,0.2h-5v3h3.3
		c0.2,0,0.3,0.1,0.4,0.2c0.1,0.1,0.2,0.2,0.2,0.4s-0.1,0.3-0.2,0.4c-0.1,0.1-0.2,0.2-0.4,0.2h-3.3v3L-113.2,100.5L-113.2,100.5z"/>
	<path id="XMLID_107_" class="st7" d="M-108,101.7c-0.2,0-0.3-0.1-0.4-0.2s-0.2-0.2-0.2-0.4s0.1-0.3,0.2-0.4s0.2-0.2,0.4-0.2
		c0.5,0,1-0.1,1.4-0.3s0.8-0.5,1.2-0.8c0.3-0.3,0.6-0.7,0.8-1.2c0.2-0.4,0.3-0.9,0.3-1.4s-0.1-1-0.3-1.4s-0.5-0.8-0.8-1.2
		s-0.7-0.6-1.2-0.8c-0.4-0.2-0.9-0.3-1.4-0.3h-1.5v7.8c0,0.2-0.1,0.3-0.2,0.4c-0.1,0.1-0.3,0.2-0.4,0.2c-0.2,0-0.3-0.1-0.4-0.2
		c-0.1-0.1-0.2-0.2-0.2-0.4v-8.4c0-0.2,0.1-0.3,0.2-0.4c0.1-0.1,0.2-0.2,0.4-0.2h2.1c0.7,0,1.3,0.1,1.9,0.4c0.6,0.3,1.1,0.6,1.5,1
		s0.8,0.9,1,1.5c0.3,0.6,0.4,1.2,0.4,1.9s-0.1,1.3-0.4,1.9c-0.3,0.6-0.6,1.1-1,1.5s-0.9,0.8-1.5,1
		C-106.7,101.6-107.3,101.7-108,101.7z"/>
</g>
<g>
	<polygon class="st37" points="107.6,91.3 117.6,86.3 117.6,96.3 107.6,101.3 	"/>
	<polygon class="st38" points="107.6,91.3 97.6,86.3 97.6,96.3 107.6,101.3 	"/>
	<polygon class="st39" points="107.6,91.4 107.6,51.3 117.6,46.3 117.6,86.4 	"/>
	<polygon class="st40" points="117.6,46.3 107.6,41.3 97.6,46.3 107.6,51.3 	"/>
	<polygon class="st41" points="107.6,51.3 97.6,46.3 97.6,86.4 107.6,91.4 	"/>
	<path class="st40" d="M82.4,73.5l9.9-6.5c-3.8-2.9-8.7-6.1-14.6-9c-5.6-2.8-10.2-4.9-14.7-6.2c-3.3,1.6-7.2,3.4-10.5,5L82.4,73.5z"
		/>
	<polygon class="st42" points="82.4,106.9 82.3,87 62.4,81.8 62.4,97 	"/>
	<polygon class="st43" points="82.4,106.9 112.4,92 112.1,57.1 82.4,71.9 	"/>
	<polygon class="st38" points="92.1,67.1 102.3,61.9 92.3,57.1 82.3,57.1 82.4,61.9 	"/>
	<polygon class="st41" points="82.3,97 62.4,87 52.4,72 52.5,56.9 82.4,71.8 	"/>
	<polygon class="st44" points="102.4,152.9 82.4,142.9 82.4,151.8 102.4,161.8 	"/>
	<polygon class="st45" points="92.4,148.2 102.4,143.2 102.4,121.8 92.4,126.8 	"/>
	<polygon class="st46" points="92.4,146.8 82.4,141.8 82.4,121.8 92.4,126.8 	"/>
	<polygon class="st47" points="102.4,152.9 112.4,147.9 112.4,156.8 102.4,161.8 	"/>
	<polygon class="st48" points="92.4,147.9 102.4,142.9 112.4,147.9 102.4,152.9 	"/>
	<polygon class="st44" points="82.4,162.9 62.4,152.9 62.4,161.8 82.4,171.8 	"/>
	<polygon class="st49" points="72.4,158.2 82.4,153.2 82.4,131.8 72.4,136.8 	"/>
	<polygon class="st42" points="72.4,156.8 62.4,151.8 62.4,131.8 72.4,136.8 	"/>
	<polygon class="st47" points="82.4,162.9 92.4,157.9 92.4,166.8 82.4,171.8 	"/>
	<polygon class="st48" points="72.4,157.9 82.4,152.9 92.4,157.9 82.4,162.9 	"/>
	<polygon class="st38" points="52.4,46.9 82.4,61.9 82.4,31.9 52.4,17 	"/>
	<polygon class="st42" points="60.2,-3 75.2,-10.4 60.2,-18 45.2,-10.5 	"/>
	<polygon class="st50" points="60.2,12 60.2,-3 75.2,-10.4 75.2,4.5 	"/>
	<polygon class="st51" points="45.2,-10.5 60.2,-3 60.2,12 45.2,4.5 	"/>
	<polygon class="st42" points="112.4,91.9 82.4,106.9 82.4,146.9 112.4,131.9 	"/>
	<polygon class="st52" points="52.4,92 82.4,106.9 82.4,147 52.4,132 	"/>
	<polygon class="st37" points="112.4,46.9 82.4,61.9 82.4,21 112.4,6.1 	"/>
	<line class="st53" x1="52.4" y1="116.8" x2="62.4" y2="111.8"/>
	<polygon class="st37" points="52.4,116.8 62.4,111.8 62.4,121.8 52.4,126.8 	"/>
	<polyline class="st37" points="92.1,67.1 102.4,61.7 102.4,71.7 92.1,77 	"/>
	<path class="st47" d="M108.4,25.1v10.3l-7.8,3.9V29L108.4,25.1z M109.5,23.3l-10,5V41l10-5V23.3z"/>
	<path class="st47" d="M95.7,31.5v10.3l-7.8,3.9V35.4L95.7,31.5z M96.8,29.7l-10,5v12.7l10-5V29.7z"/>
	<polygon class="st47" points="96.5,35.5 96.5,34.2 99.8,32.4 99.8,33.8 	"/>
	<polygon class="st47" points="87.2,39.7 87.2,38.4 71.3,29.2 71.3,30.4 	"/>
	<line class="st53" x1="52.4" y1="116.8" x2="42.4" y2="111.8"/>
	<polygon class="st38" points="52.4,116.8 42.4,111.8 42.4,121.8 52.4,126.8 	"/>
	<polygon class="st42" points="82.4,21 112.4,6.1 82.4,-8.8 52.4,6 	"/>
	<polygon class="st51" points="52.4,46.9 67.4,33.5 82.4,33 82.4,21 52.4,6 	"/>
	<polygon class="st39" points="52.4,116.9 52.4,76.8 66.9,69.9 66.9,79.9 62.4,81.8 62.4,112 	"/>
	<polygon class="st40" points="66.9,69.9 56.9,64.9 42.4,71.8 52.4,76.8 	"/>
	<polygon class="st41" points="52.4,76.8 42.4,71.8 42.4,112 52.4,116.9 	"/>
	<polygon class="st39" points="82.3,97 92.3,92 92.1,67.1 82.4,71.8 	"/>
	<polygon class="st39" points="102.3,87 112.3,81 112.1,57.1 102.3,61.9 	"/>
	<polygon class="st40" points="102.3,61.9 92.3,57.1 102.2,52 112.1,57.1 	"/>
	<polygon class="st42" points="72.4,156.8 72.4,161.8 62.4,156.8 62.4,151.8 72.3,146.9 	"/>
	<polygon class="st46" points="92.3,146.8 92.3,151.9 82.3,146.9 82.3,146.7 92.3,141.7 	"/>
	<polygon class="st54" points="101.6,30.1 101.6,37.7 107.2,35 107.2,27.4 	"/>
	<polygon class="st55" points="98.9,46.7 101,45.5 101,42.4 98.9,43.6 98.9,44.3 	"/>
	<polygon class="st55" points="97.2,42.6 98.9,43.6 101,42.4 99.2,41.5 	"/>
	<polygon class="st56" points="98.9,43.6 97.2,42.6 97.2,43.3 97.2,45 97.2,45.7 98.9,46.7 	"/>
	<polygon class="st57" points="101.5,33.4 103.9,32.2 103.9,29.2 101.5,30.3 	"/>
	<polygon class="st54" points="89.4,36.2 89.5,43.8 95.1,41.1 95,33.5 	"/>
	<polygon class="st57" points="89.4,39.4 91.8,38.2 91.8,35.2 89.4,36.4 	"/>
</g>
</svg>
