<?xml version="1.0" encoding="utf-8"?>
<!-- Generator: Adobe Illustrator 19.0.0, SVG Export Plug-In . SVG Version: 6.00 Build 0)  -->
<svg version="1.1" id="Layer_1" xmlns="http://www.w3.org/2000/svg" xmlns:xlink="http://www.w3.org/1999/xlink" x="0px" y="0px"
	 viewBox="0 0 200 200" style="enable-background:new 0 0 200 200;" xml:space="preserve">
<style type="text/css">
	.st0{fill-rule:evenodd;clip-rule:evenodd;fill:#FADBA8;}
	.st1{fill-rule:evenodd;clip-rule:evenodd;fill:#773911;}
	.st2{fill-rule:evenodd;clip-rule:evenodd;fill:#A44E18;}
	.st3{fill-rule:evenodd;clip-rule:evenodd;fill:#E76652;}
	.st4{fill-rule:evenodd;clip-rule:evenodd;fill:#80CEFF;}
	.st5{fill-rule:evenodd;clip-rule:evenodd;fill:#C1E2FF;}
	.st6{fill-rule:evenodd;clip-rule:evenodd;fill:#FFFFFF;}
	.st7{fill-rule:evenodd;clip-rule:evenodd;fill:#3DB4FF;}
	.st8{fill-rule:evenodd;clip-rule:evenodd;fill:#477FA9;}
	.st9{fill-rule:evenodd;clip-rule:evenodd;fill:#255675;}
	.st10{fill-rule:evenodd;clip-rule:evenodd;fill:#FCBD6D;}
	.st11{fill-rule:evenodd;clip-rule:evenodd;fill:#E49D5F;}
	.st12{fill-rule:evenodd;clip-rule:evenodd;fill:#251205;}
	.st13{fill-rule:evenodd;clip-rule:evenodd;}
	.st14{fill:#696969;}
	.st15{fill:#959595;}
	.st16{fill-rule:evenodd;clip-rule:evenodd;fill:#797979;}
</style>
<g id="XMLID_67_">
	<polygon id="XMLID_141_" class="st0" points="109.9,86.3 122.2,93.1 134.5,86.3 134.5,121.7 122.2,128.5 109.9,121.7 	"/>
	<polygon id="XMLID_140_" class="st1" points="121.2,173.7 93.3,158.5 93.1,170.7 121.2,186.1 	"/>
	<polygon id="XMLID_139_" class="st2" points="93.3,158.5 121.2,173.7 136.5,165.4 136.5,164.9 109.3,149.1 	"/>
	<polygon id="XMLID_138_" class="st1" points="136.5,165.4 121.2,173.7 121.2,186.1 136.8,177.1 	"/>
	<polygon id="XMLID_137_" class="st1" points="98.8,186.4 70.4,170.9 70.2,183.3 98.8,199 	"/>
	<polygon id="XMLID_136_" class="st2" points="98.8,186.4 114.3,177.9 114.3,177.5 86.7,161.3 70.4,170.5 70.4,170.9 	"/>
	<polygon id="XMLID_135_" class="st1" points="114.3,177.9 98.8,186.4 98.8,199 114.7,189.9 	"/>
	<polygon id="XMLID_134_" class="st3" points="122.2,93.1 109.9,86.3 109.9,75.2 122.2,82.2 	"/>
	<polygon id="XMLID_133_" class="st4" points="134.5,114.8 122.3,121.6 122.3,82.2 134.5,75.2 	"/>
	<polygon id="XMLID_132_" class="st5" points="122.2,82.2 109.9,75.2 122.2,68.5 134.5,75.2 	"/>
	<polygon id="XMLID_131_" class="st0" points="112.6,93.7 117.7,90.9 116,97.3 	"/>
	<polygon id="XMLID_130_" class="st4" points="132.7,127.4 94.4,148.6 94.4,103.9 112.6,93.7 116,97.3 117.7,90.9 132.7,82.6 	"/>
	
		<ellipse id="XMLID_129_" transform="matrix(0.3616 -0.9323 0.9323 0.3616 -21.4701 173.2016)" class="st6" cx="115.7" cy="102.3" rx="1.2" ry="0.9"/>
	
		<ellipse id="XMLID_128_" transform="matrix(0.3616 -0.9323 0.9323 0.3616 -28.5352 178.0395)" class="st6" cx="115.7" cy="109.9" rx="1.2" ry="0.9"/>
	
		<ellipse id="XMLID_127_" transform="matrix(0.3616 -0.9323 0.9323 0.3616 -35.5993 182.8767)" class="st6" cx="115.7" cy="117.4" rx="1.2" ry="0.9"/>
	
		<ellipse id="XMLID_126_" transform="matrix(0.3616 -0.9324 0.9324 0.3616 -42.6627 187.7155)" class="st6" cx="115.7" cy="125" rx="1.2" ry="0.9"/>
	<polygon id="XMLID_125_" class="st7" points="94.4,148.6 70.5,135.4 70.5,90.7 70.6,90.7 108.9,69.4 132.7,82.6 117.7,90.9 
		112.6,93.7 94.4,103.9 	"/>
	<polygon id="XMLID_124_" class="st8" points="94.4,148.1 132.7,126.9 132.7,145.5 94.4,166.7 	"/>
	<polygon id="XMLID_123_" class="st9" points="94.4,148.1 94.4,167.6 70.5,154.3 70.5,134.9 	"/>
	<polygon id="XMLID_122_" class="st10" points="78.7,87.2 102.1,100.1 129.3,85 106.1,72 	"/>
	<path id="XMLID_119_" class="st8" d="M111.5,158.7v13.9L94.4,182v-16.7l17.1-9.5V158.7z M116.9,169.6v-16.7l15.9-8.8v16.7
		L116.9,169.6z"/>
	<path id="XMLID_116_" class="st9" d="M70.5,153.4l23.9,13.3V182l-23.9-13.3V153.4z M116.9,169.6l-5.3-3v-12.1l5.3-3V169.6z"/>
	<polygon id="XMLID_115_" class="st0" points="99.3,56.7 99.3,68.1 99.3,102.2 133.1,83.4 133.1,38 	"/>
	<polygon id="XMLID_114_" class="st10" points="70.4,40.7 99.3,56.7 133.1,38 104.2,21.9 	"/>
	<polygon id="XMLID_113_" class="st11" points="99.3,56.7 70.4,40.7 70.4,52.1 70.4,79.8 70.4,86.2 99.3,102.2 	"/>
	<polygon id="XMLID_112_" class="st6" points="120,67.7 120.1,75 125.5,72 125.4,64.7 	"/>
	<path id="XMLID_109_" class="st12" d="M118.4,59.5v4l10-5.4l-0.1-3.9L118.4,59.5z M113.9,65.9v-4l-9.5,5.1l0.2,3.9L113.9,65.9z"/>
	<polygon id="XMLID_108_" class="st1" points="68.3,39.5 88.8,50.7 88.3,72 83,65.7 70.1,78.1 	"/>
	<polygon id="XMLID_107_" class="st2" points="123.8,32.5 88.9,50.8 68.1,39.8 104,21.2 	"/>
	<polygon id="XMLID_106_" class="st2" points="96.7,45.6 118.6,34.2 126,42.4 126.1,52 120.3,45.4 	"/>
	<polygon id="XMLID_105_" class="st10" points="118.7,84.1 120.7,83 120.7,80 118.7,81.1 118.7,81.7 	"/>
	<polygon id="XMLID_104_" class="st10" points="117,80.1 118.7,81.1 120.7,80 119,79 	"/>
	<polygon id="XMLID_103_" class="st11" points="118.7,81.1 117,80.1 117,80.8 117,82.4 117,83.1 118.7,84.1 	"/>
	<polygon id="XMLID_102_" class="st13" points="119.9,70.8 122.3,69.5 122.3,66.6 119.9,67.9 	"/>
	<polygon id="XMLID_101_" class="st6" points="108.3,74.3 108.4,81.6 113.8,78.7 113.7,71.3 	"/>
	<polygon id="XMLID_100_" class="st13" points="108.3,77.4 110.6,76.1 110.6,73.2 108.3,74.4 	"/>
	<polygon id="XMLID_99_" points="92.6,139.6 92.3,166.5 63.2,151 63.5,124.1 	"/>
	<polygon id="XMLID_98_" class="st14" points="92.6,139.6 98.8,136.3 69.7,120.7 63.5,124.1 	"/>
	<polygon id="XMLID_97_" class="st15" points="92.6,139.6 92.3,166.5 98.5,163.1 98.8,136.2 	"/>
	<polygon id="XMLID_96_" class="st11" points="77.2,124.3 77.2,151.8 64.8,145 64.8,117.5 	"/>
	<polygon id="XMLID_95_" class="st0" points="89.4,125.5 89.4,145 77.2,151.8 77.2,132.3 	"/>
	<polygon id="XMLID_94_" class="st4" points="89.4,136.1 77.2,142.9 77.2,105.5 89.4,98.6 	"/>
	<polygon id="XMLID_93_" class="st5" points="77.2,105.5 64.8,98.6 77.2,91.8 89.4,98.6 	"/>
	<polygon id="XMLID_92_" class="st7" points="64.8,98.6 77.2,105.5 77.2,142.9 64.8,136.1 	"/>
	<polygon id="XMLID_68_" class="st16" points="122,89.6 93.5,142.4 97.8,140.3 126.8,86.9 	"/>
</g>
</svg>
