<?xml version="1.0" encoding="utf-8"?>
<!-- Generator: Adobe Illustrator 19.0.0, SVG Export Plug-In . SVG Version: 6.00 Build 0)  -->
<svg version="1.1" id="Layer_1" xmlns="http://www.w3.org/2000/svg" xmlns:xlink="http://www.w3.org/1999/xlink" x="0px" y="0px"
	 viewBox="0 0 200 200" style="enable-background:new 0 0 200 200;" xml:space="preserve">
<style type="text/css">
	.st0{fill:#333333;}
	.st1{fill-rule:evenodd;clip-rule:evenodd;fill:#FADBA8;}
	.st2{fill-rule:evenodd;clip-rule:evenodd;fill:#773911;}
	.st3{fill-rule:evenodd;clip-rule:evenodd;fill:#A44E18;}
	.st4{fill-rule:evenodd;clip-rule:evenodd;fill:#E76652;}
	.st5{fill-rule:evenodd;clip-rule:evenodd;fill:#80CEFF;}
	.st6{fill-rule:evenodd;clip-rule:evenodd;fill:#C1E2FF;}
	.st7{fill-rule:evenodd;clip-rule:evenodd;fill:#FFFFFF;}
	.st8{fill-rule:evenodd;clip-rule:evenodd;fill:#3DB4FF;}
	.st9{fill-rule:evenodd;clip-rule:evenodd;fill:#477FA9;}
	.st10{fill-rule:evenodd;clip-rule:evenodd;fill:#255675;}
	.st11{fill-rule:evenodd;clip-rule:evenodd;fill:#FCBD6D;}
	.st12{fill-rule:evenodd;clip-rule:evenodd;fill:#E49D5F;}
	.st13{fill-rule:evenodd;clip-rule:evenodd;fill:#251205;}
	.st14{fill-rule:evenodd;clip-rule:evenodd;}
	.st15{fill:#696969;}
	.st16{fill:#959595;}
	.st17{fill-rule:evenodd;clip-rule:evenodd;fill:#797979;}
</style>
<g id="XMLID_69_">
	<path id="XMLID_70_" class="st0" d="M58.5,169.5c0.2,0,0.3,0.1,0.5,0.2c0.1,0.1,0.2,0.3,0.2,0.5c0,0.2-0.1,0.3-0.2,0.5
		c-0.1,0.1-0.3,0.2-0.5,0.2h-5.6v3.5h4.1c0.2,0,0.3,0.1,0.5,0.2c0.1,0.1,0.2,0.3,0.2,0.5c0,0.2-0.1,0.3-0.2,0.5
		c-0.1,0.1-0.3,0.2-0.5,0.2h-4.1v4.2c0,0.2-0.1,0.3-0.2,0.5c-0.1,0.1-0.3,0.2-0.5,0.2s-0.4-0.1-0.5-0.2s-0.2-0.3-0.2-0.5v-9.8
		c0-0.2,0.1-0.3,0.2-0.5c0.1-0.1,0.3-0.2,0.5-0.2H58.5z"/>
	<path id="XMLID_72_" class="st0" d="M66.4,169.5c0.8,0,1.5,0.1,2.2,0.4c0.7,0.3,1.3,0.7,1.8,1.2s0.9,1.1,1.2,1.8s0.4,1.4,0.4,2.2
		c0,0.9-0.2,1.7-0.6,2.5c-0.4,0.8-0.9,1.4-1.5,1.9l0,0c-0.5,0.4-1,0.6-1.6,0.8c-0.6,0.2-1.2,0.3-1.8,0.3c-0.8,0-1.5-0.1-2.1-0.4
		s-1.3-0.7-1.8-1.2s-0.9-1.1-1.2-1.8s-0.4-1.4-0.4-2.2c0-0.8,0.2-1.6,0.5-2.3c0.3-0.7,0.8-1.3,1.4-1.8l0.1-0.1c0,0,0,0,0,0
		c0.5-0.4,1-0.7,1.6-0.9C65.1,169.7,65.8,169.5,66.4,169.5z M66.5,179.3c0.4,0,0.7,0,1.1-0.1c0.3-0.1,0.7-0.2,1-0.4l-5.3-6.4
		c-0.3,0.4-0.6,0.8-0.8,1.3c-0.2,0.5-0.3,1-0.3,1.5c0,0.6,0.1,1.1,0.3,1.6c0.2,0.5,0.5,1,0.9,1.3c0.4,0.4,0.8,0.7,1.3,0.9
		C65.3,179.2,65.9,179.3,66.5,179.3z M69.6,177.9c0.4-0.4,0.6-0.8,0.8-1.3c0.2-0.5,0.3-1,0.3-1.6c0-0.6-0.1-1.1-0.3-1.6
		c-0.2-0.5-0.5-1-0.9-1.3c-0.4-0.4-0.8-0.7-1.3-0.9c-0.5-0.2-1.1-0.3-1.6-0.3c-0.4,0-0.8,0.1-1.2,0.2c-0.4,0.1-0.7,0.3-1,0.5
		L69.6,177.9z"/>
	<path id="XMLID_76_" class="st0" d="M81.1,180.5h-6.2c-0.2,0-0.3-0.1-0.5-0.2s-0.2-0.3-0.2-0.5v-9.6c0-0.2,0.1-0.3,0.2-0.5
		c0.1-0.1,0.3-0.2,0.5-0.2s0.3,0.1,0.5,0.2c0.1,0.1,0.2,0.3,0.2,0.5v9h5.5c0.2,0,0.4,0.1,0.5,0.2c0.1,0.1,0.2,0.3,0.2,0.5
		c0,0.2-0.1,0.4-0.2,0.5S81.2,180.5,81.1,180.5z"/>
	<path id="XMLID_78_" class="st0" d="M90.8,180.5h-6.2c-0.2,0-0.3-0.1-0.5-0.2s-0.2-0.3-0.2-0.5v-9.6c0-0.2,0.1-0.3,0.2-0.5
		c0.1-0.1,0.3-0.2,0.5-0.2s0.3,0.1,0.5,0.2c0.1,0.1,0.2,0.3,0.2,0.5v9h5.5c0.2,0,0.4,0.1,0.5,0.2c0.1,0.1,0.2,0.3,0.2,0.5
		c0,0.2-0.1,0.4-0.2,0.5S91,180.5,90.8,180.5z"/>
	<path id="XMLID_80_" class="st0" d="M98.6,169.5c0.8,0,1.5,0.1,2.2,0.4c0.7,0.3,1.3,0.7,1.8,1.2s0.9,1.1,1.2,1.8s0.4,1.4,0.4,2.2
		c0,0.9-0.2,1.7-0.6,2.5s-0.9,1.4-1.5,1.9l0,0c-0.5,0.4-1,0.6-1.6,0.8c-0.6,0.2-1.2,0.3-1.8,0.3c-0.8,0-1.5-0.1-2.1-0.4
		s-1.3-0.7-1.8-1.2s-0.9-1.1-1.2-1.8s-0.4-1.4-0.4-2.2c0-0.8,0.2-1.6,0.5-2.3c0.3-0.7,0.8-1.3,1.4-1.8l0.1-0.1c0,0,0,0,0,0
		c0.5-0.4,1-0.7,1.6-0.9C97.3,169.7,97.9,169.5,98.6,169.5z M98.6,179.3c0.4,0,0.7,0,1.1-0.1c0.3-0.1,0.7-0.2,1-0.4l-5.3-6.4
		c-0.3,0.4-0.6,0.8-0.8,1.3c-0.2,0.5-0.3,1-0.3,1.5c0,0.6,0.1,1.1,0.3,1.6c0.2,0.5,0.5,1,0.9,1.3c0.4,0.4,0.8,0.7,1.3,0.9
		C97.5,179.2,98,179.3,98.6,179.3z M101.7,177.9c0.3-0.4,0.6-0.8,0.8-1.3s0.3-1,0.3-1.6c0-0.6-0.1-1.1-0.3-1.6
		c-0.2-0.5-0.5-1-0.9-1.3c-0.4-0.4-0.8-0.7-1.3-0.9c-0.5-0.2-1.1-0.3-1.6-0.3c-0.4,0-0.8,0.1-1.2,0.2c-0.4,0.1-0.7,0.3-1,0.5
		L101.7,177.9z"/>
	<path id="XMLID_84_" class="st0" d="M115.1,180.6c-0.1,0-0.3,0-0.4-0.1c-0.1-0.1-0.2-0.2-0.2-0.3l-2.3-8l-2.3,8
		c0,0.1-0.1,0.3-0.2,0.3c-0.1,0.1-0.2,0.1-0.4,0.1c-0.2,0-0.3,0-0.4-0.1c-0.1-0.1-0.2-0.2-0.2-0.3l-3-9.8c0-0.2,0-0.3,0.1-0.5
		c0.1-0.2,0.2-0.3,0.4-0.3c0.2,0,0.3,0,0.5,0.1c0.2,0.1,0.3,0.2,0.3,0.4l2.3,7.7l2.1-7.7c0-0.1,0.1-0.3,0.2-0.3
		c0.1-0.1,0.2-0.1,0.4-0.1h0.2c0.1,0,0.3,0,0.4,0.1c0.1,0.1,0.2,0.2,0.2,0.3l2.2,7.7l2.2-7.7c0-0.2,0.2-0.3,0.3-0.4
		c0.2-0.1,0.3-0.1,0.5-0.1c0.2,0.1,0.3,0.2,0.4,0.3c0.1,0.2,0.1,0.3,0.1,0.5l-2.9,9.8c0,0.1-0.1,0.3-0.2,0.3
		S115.3,180.6,115.1,180.6z"/>
	<path id="XMLID_86_" class="st0" d="M127.7,179.2c0.2,0,0.3,0.1,0.5,0.2c0.1,0.1,0.2,0.3,0.2,0.5c0,0.2-0.1,0.3-0.2,0.5
		c-0.1,0.1-0.3,0.2-0.5,0.2h-6.5c-0.2,0-0.3-0.1-0.5-0.2c-0.1-0.1-0.2-0.3-0.2-0.5v-9.7c0-0.2,0.1-0.3,0.2-0.5
		c0.1-0.1,0.3-0.2,0.5-0.2h6.5c0.2,0,0.3,0.1,0.5,0.2c0.1,0.1,0.2,0.3,0.2,0.5c0,0.2-0.1,0.3-0.2,0.5c-0.1,0.1-0.3,0.2-0.5,0.2h-5.8
		v3.5h3.9c0.2,0,0.3,0.1,0.5,0.2c0.1,0.1,0.2,0.3,0.2,0.5c0,0.2-0.1,0.3-0.2,0.5s-0.3,0.2-0.5,0.2h-3.9v3.5H127.7z"/>
	<path id="XMLID_88_" class="st0" d="M139.5,180.6c-0.3,0-0.5,0-0.8-0.1s-0.5-0.3-0.7-0.6c-0.1-0.1-0.3-0.3-0.4-0.6
		c-0.2-0.3-0.4-0.6-0.7-1c-0.1-0.2-0.3-0.4-0.4-0.5c-0.1-0.2-0.2-0.3-0.2-0.4l-0.1-0.1c-0.1-0.2-0.2-0.3-0.3-0.4
		c-0.1-0.1-0.3-0.1-0.5-0.1c-0.2,0-0.4-0.1-0.5-0.2s-0.2-0.3-0.2-0.5c0-0.2,0.1-0.4,0.2-0.5c0.1-0.1,0.3-0.2,0.5-0.2
		c0.3,0,0.6-0.1,0.9-0.2s0.5-0.3,0.7-0.5s0.4-0.5,0.5-0.7s0.2-0.6,0.2-0.9c0-0.3-0.1-0.6-0.2-0.9s-0.3-0.5-0.5-0.7s-0.5-0.4-0.7-0.5
		s-0.6-0.2-0.9-0.2h-3.2v9.1c0,0.2-0.1,0.4-0.2,0.5c-0.1,0.1-0.3,0.2-0.5,0.2c-0.2,0-0.4-0.1-0.5-0.2c-0.1-0.1-0.2-0.3-0.2-0.5v-9.8
		c0-0.2,0.1-0.4,0.2-0.5s0.3-0.2,0.5-0.2h3.8c0.5,0,1,0.1,1.4,0.3c0.4,0.2,0.8,0.5,1.2,0.8s0.6,0.7,0.8,1.2c0.2,0.5,0.3,0.9,0.3,1.4
		c0,0.7-0.2,1.3-0.5,1.9c-0.3,0.6-0.8,1-1.4,1.3c0,0,0.1,0.1,0.1,0.2l0.1,0.1c0.1,0.1,0.2,0.2,0.3,0.4s0.3,0.4,0.4,0.6
		c0.1,0.1,0.2,0.3,0.3,0.4c0.1,0.1,0.2,0.3,0.3,0.4c0.1,0.1,0.2,0.3,0.3,0.4s0.1,0.2,0.2,0.2c0.1,0.1,0.2,0.2,0.2,0.2
		c0,0,0.1,0,0.3,0c0.2,0,0.3,0.1,0.5,0.2s0.2,0.3,0.2,0.5c0,0.2-0.1,0.4-0.2,0.5C139.9,180.6,139.7,180.6,139.5,180.6z"/>
	<path id="XMLID_90_" class="st0" d="M145.9,180.8c-0.5,0-1.1-0.1-1.6-0.2c-0.5-0.1-0.9-0.3-1.3-0.6c-0.5-0.3-0.8-0.7-1-1.2
		c-0.2-0.5-0.4-1-0.4-1.6c0-0.2,0.1-0.3,0.2-0.5s0.3-0.2,0.5-0.2c0.2,0,0.3,0.1,0.4,0.2s0.2,0.3,0.2,0.5c0,0.8,0.3,1.4,0.8,1.7
		c0.3,0.2,0.6,0.3,0.9,0.4c0.4,0.1,0.7,0.1,1.2,0.1c0.3,0,0.7,0,1-0.1c0.3-0.1,0.6-0.2,0.8-0.4c0.5-0.4,0.7-0.8,0.7-1.4
		c0-0.5-0.1-0.8-0.5-1.1c-0.2-0.2-0.5-0.4-0.8-0.5c-0.4-0.1-0.8-0.2-1.2-0.3c-0.2,0-0.4-0.1-0.5-0.1c-0.2,0-0.3-0.1-0.4-0.1
		s-0.3-0.1-0.4-0.1s-0.3-0.1-0.4-0.1c-0.3-0.1-0.5-0.2-0.7-0.3c-0.2-0.1-0.4-0.2-0.6-0.4c-0.3-0.3-0.5-0.6-0.7-1s-0.2-0.8-0.2-1.3
		c0-0.4,0.1-0.7,0.2-1.1c0.2-0.4,0.4-0.7,0.7-0.9c0.1-0.1,0.3-0.2,0.4-0.3c0.2-0.1,0.4-0.2,0.6-0.3c0.2-0.1,0.5-0.2,0.8-0.2
		s0.6-0.1,1-0.1c0.4,0,0.7,0,1.1,0.1s0.6,0.2,0.9,0.3s0.5,0.2,0.7,0.4c0.2,0.1,0.3,0.3,0.5,0.4c0.1,0.1,0.3,0.3,0.4,0.5
		s0.2,0.4,0.3,0.6c0.2,0.3,0.2,0.7,0.2,1c0,0.2-0.1,0.3-0.2,0.5c-0.1,0.1-0.3,0.2-0.4,0.2c-0.2,0-0.3-0.1-0.5-0.2
		c-0.1-0.1-0.2-0.3-0.2-0.5c0-0.1,0-0.3-0.1-0.5s-0.2-0.4-0.4-0.7c-0.2-0.2-0.4-0.4-0.8-0.5c-0.3-0.2-0.8-0.3-1.4-0.3
		c-0.4,0-0.8,0-1.1,0.2c-0.3,0.1-0.6,0.3-0.8,0.5c-0.2,0.2-0.3,0.4-0.4,0.6c-0.1,0.2-0.1,0.4-0.1,0.5c0,0.2,0,0.4,0.1,0.6
		c0.1,0.2,0.2,0.4,0.4,0.5c0.2,0.2,0.5,0.3,0.9,0.5s0.9,0.3,1.5,0.4c0.6,0.1,1.2,0.3,1.7,0.4c0.5,0.1,0.9,0.4,1.2,0.7
		c0.5,0.6,0.8,1.2,0.8,2c0,0.5-0.1,0.9-0.3,1.4s-0.5,0.8-0.8,1.1c-0.4,0.3-0.7,0.5-1.2,0.6C146.9,180.7,146.4,180.8,145.9,180.8z"/>
</g>
<g id="XMLID_67_">
	<polygon id="XMLID_141_" class="st1" points="108.9,64.2 120.2,70.4 131.3,64.2 131.3,96.3 120.2,102.5 108.9,96.3 	"/>
	<polygon id="XMLID_140_" class="st2" points="119.3,143.5 93.9,129.7 93.7,140.7 119.3,154.7 	"/>
	<polygon id="XMLID_139_" class="st3" points="93.9,129.7 119.3,143.5 133.1,135.9 133.1,135.5 108.5,121.1 	"/>
	<polygon id="XMLID_138_" class="st2" points="133.1,135.9 119.3,143.5 119.3,154.7 133.4,146.6 	"/>
	<polygon id="XMLID_137_" class="st2" points="98.9,155 73.2,140.9 73,152.2 98.9,166.4 	"/>
	<polygon id="XMLID_136_" class="st3" points="98.9,155 113,147.3 113,146.9 88,132.3 73.2,140.5 73.2,140.9 	"/>
	<polygon id="XMLID_135_" class="st2" points="113,147.3 98.9,155 98.9,166.4 113.3,158.1 	"/>
	<polygon id="XMLID_134_" class="st4" points="120.2,70.4 108.9,64.2 108.9,54.2 120.2,60.5 	"/>
	<polygon id="XMLID_133_" class="st5" points="131.3,90 120.2,96.2 120.2,60.5 131.3,54.2 	"/>
	<polygon id="XMLID_132_" class="st6" points="120.2,60.5 108.9,54.2 120.2,48.1 131.3,54.2 	"/>
	<polygon id="XMLID_131_" class="st1" points="111.4,71 116,68.4 114.5,74.2 	"/>
	<polygon id="XMLID_130_" class="st5" points="129.7,101.5 94.9,120.7 94.9,80.1 111.4,71 114.5,74.2 116,68.4 129.7,60.9 	"/>
	
		<ellipse id="XMLID_129_" transform="matrix(0.3616 -0.9323 0.9323 0.3616 -0.4399 156.7884)" class="st7" cx="114.3" cy="78.7" rx="1.1" ry="0.8"/>
	
		<ellipse id="XMLID_128_" transform="matrix(0.3616 -0.9323 0.9323 0.3616 -6.8451 161.1745)" class="st7" cx="114.3" cy="85.6" rx="1.1" ry="0.8"/>
	
		<ellipse id="XMLID_127_" transform="matrix(0.3616 -0.9323 0.9323 0.3616 -13.2495 165.5599)" class="st7" cx="114.3" cy="92.5" rx="1.1" ry="0.8"/>
	
		<ellipse id="XMLID_126_" transform="matrix(0.3616 -0.9324 0.9324 0.3616 -19.653 169.9467)" class="st7" cx="114.3" cy="99.3" rx="1.1" ry="0.8"/>
	<polygon id="XMLID_125_" class="st8" points="94.9,120.7 73.2,108.7 73.2,68.2 73.3,68.2 108.1,48.9 129.7,60.9 116,68.4 111.4,71 
		94.9,80.1 	"/>
	<polygon id="XMLID_124_" class="st9" points="94.9,120.3 129.7,101.1 129.7,117.9 94.9,137.1 	"/>
	<polygon id="XMLID_123_" class="st10" points="94.9,120.3 94.9,137.9 73.2,125.9 73.2,108.3 	"/>
	<polygon id="XMLID_122_" class="st11" points="80.7,65 101.9,76.7 126.6,63 105.5,51.3 	"/>
	<path id="XMLID_119_" class="st9" d="M110.5,129.8v12.6L94.9,151v-15.2l15.5-8.6V129.8z M115.3,139.7v-15.2l14.4-8v15.2
		L115.3,139.7z"/>
	<path id="XMLID_116_" class="st10" d="M73.2,125l21.7,12v14l-21.7-12V125z M115.3,139.7l-4.8-2.7v-11l4.8-2.7V139.7z"/>
	<polygon id="XMLID_115_" class="st1" points="99.3,37.4 99.3,47.7 99.3,78.6 130,61.6 130,20.4 	"/>
	<polygon id="XMLID_114_" class="st11" points="73.1,22.9 99.3,37.4 130,20.4 103.8,5.9 	"/>
	<polygon id="XMLID_113_" class="st12" points="99.3,37.4 73.1,22.9 73.1,33.2 73.1,58.3 73.1,64.1 99.3,78.6 	"/>
	<polygon id="XMLID_112_" class="st7" points="118.2,47.3 118.2,54 123.1,51.3 123,44.7 	"/>
	<path id="XMLID_109_" class="st13" d="M116.7,39.9v3.6l9.1-4.9l-0.1-3.6L116.7,39.9z M112.6,45.7v-3.6l-8.6,4.6l0.2,3.6L112.6,45.7
		z"/>
	<polygon id="XMLID_108_" class="st2" points="71.2,21.8 89.9,31.9 89.4,51.3 84.5,45.5 72.9,56.8 	"/>
	<polygon id="XMLID_107_" class="st3" points="121.6,15.4 89.9,32.1 71.1,22 103.6,5.2 	"/>
	<polygon id="XMLID_106_" class="st3" points="97,27.4 116.8,17 123.5,24.4 123.6,33.2 118.4,27.1 	"/>
	<polygon id="XMLID_105_" class="st11" points="116.9,62.2 118.7,61.2 118.7,58.5 116.9,59.5 116.9,60.1 	"/>
	<polygon id="XMLID_104_" class="st11" points="115.4,58.6 116.9,59.5 118.7,58.5 117.2,57.6 	"/>
	<polygon id="XMLID_103_" class="st12" points="116.9,59.5 115.4,58.6 115.4,59.2 115.4,60.7 115.4,61.4 116.9,62.2 	"/>
	<polygon id="XMLID_102_" class="st14" points="118.1,50.2 120.2,49 120.2,46.4 118.1,47.5 	"/>
	<polygon id="XMLID_101_" class="st7" points="107.5,53.4 107.6,60 112.5,57.3 112.4,50.7 	"/>
	<polygon id="XMLID_100_" class="st14" points="107.5,56.1 109.6,55 109.6,52.3 107.5,53.5 	"/>
	<polygon id="XMLID_99_" points="93.3,112.6 93,136.9 66.6,122.8 66.9,98.5 	"/>
	<polygon id="XMLID_98_" class="st15" points="93.3,112.6 98.9,109.5 72.5,95.4 66.9,98.5 	"/>
	<polygon id="XMLID_97_" class="st16" points="93.3,112.6 93,136.9 98.6,133.9 98.9,109.5 	"/>
	<polygon id="XMLID_96_" class="st12" points="79.3,98.7 79.3,123.6 68.1,117.4 68.1,92.5 	"/>
	<polygon id="XMLID_95_" class="st1" points="90.4,99.7 90.4,117.4 79.3,123.6 79.3,105.9 	"/>
	<polygon id="XMLID_94_" class="st5" points="90.4,109.3 79.3,115.5 79.3,81.6 90.4,75.3 	"/>
	<polygon id="XMLID_93_" class="st6" points="79.3,81.6 68.1,75.3 79.3,69.2 90.4,75.3 	"/>
	<polygon id="XMLID_92_" class="st8" points="68.1,75.3 79.3,81.6 79.3,115.5 68.1,109.3 	"/>
	<polygon id="XMLID_68_" class="st17" points="120,67.2 94.1,115.1 98,113.2 124.3,64.8 	"/>
</g>
</svg>
