<?xml version="1.0" encoding="utf-8"?>
<!-- Generator: Adobe Illustrator 19.0.0, SVG Export Plug-In . SVG Version: 6.00 Build 0)  -->
<svg version="1.1" id="Layer_1" xmlns="http://www.w3.org/2000/svg" xmlns:xlink="http://www.w3.org/1999/xlink" x="0px" y="0px"
	 viewBox="0 0 180 180" style="enable-background:new 0 0 180 180;" xml:space="preserve">
<style type="text/css">
	.st0{fill:none;stroke:#262626;stroke-miterlimit:10;}
	.st1{clip-path:url(#XMLID_207_);}
	.st2{fill:none;stroke:#1A171B;stroke-width:1.0156;stroke-linecap:round;stroke-linejoin:round;}
	.st3{fill:none;stroke:#1A171B;stroke-width:0.5115;stroke-linecap:round;stroke-linejoin:round;}
	.st4{fill:none;stroke:#1A171B;stroke-width:0.7673;stroke-linecap:round;stroke-linejoin:round;}
	.st5{fill:none;stroke:#1A171B;stroke-width:1.05;stroke-linecap:round;stroke-linejoin:round;}
	.st6{fill:none;stroke:#1A171B;stroke-width:1.0231;stroke-linecap:round;stroke-linejoin:round;}
	.st7{fill:none;stroke:#1A171B;stroke-width:0.2558;stroke-linecap:round;stroke-linejoin:round;}
	.st8{fill:none;stroke:#1A171B;stroke-width:0.756;stroke-linecap:round;stroke-linejoin:round;}
	.st9{fill:none;stroke:#1A171B;stroke-width:0.5454;stroke-linecap:round;stroke-linejoin:round;}
	.st10{fill:none;stroke:#1A171B;stroke-width:0.4789;stroke-linecap:round;stroke-linejoin:round;}
	.st11{fill:none;stroke:#1A171B;stroke-width:0.6583;stroke-linecap:round;stroke-linejoin:round;}
	.st12{fill:none;stroke:#1A171B;stroke-width:0.7102;stroke-linecap:round;stroke-linejoin:round;}
	.st13{fill:none;stroke:#1A171B;stroke-width:0.5167;stroke-linecap:round;stroke-linejoin:round;}
	.st14{fill:none;stroke:#1A171B;stroke-width:0.5216;stroke-linecap:round;stroke-linejoin:round;}
	.st15{fill:none;stroke:#1A171B;stroke-width:0.4702;stroke-linecap:round;stroke-linejoin:round;}
	.st16{fill:none;stroke:#1A171B;stroke-width:0.4608;stroke-linecap:round;stroke-linejoin:round;}
	.st17{fill:none;stroke:#1A171B;stroke-width:0.4982;stroke-linecap:round;stroke-linejoin:round;}
	.st18{fill:none;stroke:#1A171B;stroke-width:0.4896;stroke-linecap:round;stroke-linejoin:round;}
	.st19{fill:none;stroke:#1A171B;stroke-width:0.392;stroke-linecap:round;stroke-linejoin:round;}
	.st20{fill:none;stroke:#1A171B;stroke-width:0.3785;stroke-linecap:round;stroke-linejoin:round;}
	.st21{fill:none;stroke:#1A171B;stroke-width:0.2817;stroke-linecap:round;stroke-linejoin:round;}
	.st22{fill:none;stroke:#1A171B;stroke-width:0.537;stroke-linecap:round;stroke-linejoin:round;}
</style>
<circle id="XMLID_205_" class="st0" cx="90" cy="90" r="89.5"/>
<g id="XMLID_204_">
	<defs>
		<circle id="XMLID_202_" cx="90" cy="90" r="89.5"/>
	</defs>
	<clipPath id="XMLID_207_">
		<use xlink:href="#XMLID_202_"  style="overflow:visible;"/>
	</clipPath>
	<g id="XMLID_203_" class="st1">
		<path id="XMLID_201_" class="st2" d="M53.6,133.1l-6.6,4.6l-14.7,20.1c0,0-1.2,1.6,0,2.2l59.2,23.3l15-22.8l1.5-10.9"/>
		<path id="XMLID_200_" class="st3" d="M55.2,135c0.6,4.6,4.3,6.7,4.3,6.7l2.5-1.9"/>
		<path id="XMLID_199_" class="st4" d="M106.1,143.1c10.1-4.4,20.5-12.6,29.6-22.2c18.7-19.9,27.1-41.8,24.6-58c0,0,0.5-0.7,0.6-1
			l-0.4-1.8"/>
		<path id="XMLID_198_" class="st4" d="M73.6,148.3c5.7,1.9,12.6,1.7,20.2-0.4"/>
		<path id="XMLID_197_" class="st4" d="M59.7,133c1.1,4.2,3.1,7.9,6.1,10.7c0.8,0.8,1.7,1.5,2.6,2.1"/>
		<polyline id="XMLID_196_" class="st4" points="118.3,108.2 107.2,125.6 101.8,130.7 96.6,137.9 78.6,138.4 68.9,128.7 73.6,122.2 
			73.8,119.5 76.2,115.5 		"/>
		<path id="XMLID_195_" class="st4" d="M104.7,141.4c9.5-4.9,19.9-12.7,28.8-22.2c18.4-19.5,27.5-41.9,25-57.2c0,0,1.2-1.1,1.8-1.6
			c0.5-0.5-0.4-1.9-0.4-1.9l-12.7,5.7l-16,24.4"/>
		<path id="XMLID_194_" class="st4" d="M59.7,133c1,3.9,2.8,7.2,5.5,9.8c6.3,6,16.9,6.8,28.3,3.3"/>
		<path id="XMLID_193_" class="st4" d="M66.9,98c-5.3,9.9-8,19-8,27.2"/>
		<path id="XMLID_192_" class="st4" d="M100.2,62.3c4.4-3.2,9.2-6.4,12.8-8.5l-1-3.3l-0.2-0.8l-1.8,0.8l0.1,2.4
			c-3.7,2.1-7.1,4.3-10.8,7.1"/>
		<path id="XMLID_191_" class="st4" d="M62.3,125.7c-0.5-7,1.4-15.3,5.3-24"/>
		<path id="XMLID_190_" class="st4" d="M94.9,142.8c-11.3,3.7-20.4,2.6-26.4-2.8c-2.9-2.6-4.8-6-5.7-10.1"/>
		<path id="XMLID_189_" class="st4" d="M154.4,61.3c2.8,14.4-5.4,36.5-22.3,55.3c-9.2,10.2-19.5,18-29.4,22.8"/>
		<polyline id="XMLID_188_" class="st4" points="70.3,130 75.5,122.9 75.5,120.1 77.7,116.8 		"/>
		<path id="XMLID_187_" class="st5" d="M119.2,135.8l1.8,1l17.5-6c0,0,2.7-1.2,3.6-2.8c0.7-1.1,5.2-9.4,5.2-9.4"/>
		<polyline id="XMLID_186_" class="st3" points="142.2,113.8 161.5,130.6 164.1,127.9 144.7,110.4 		"/>
		<path id="XMLID_185_" class="st3" d="M161.5,130.6c0,0-1.5-0.5-3.3-1.1l-2.2-2.4l0.5-0.7"/>
		<line id="XMLID_184_" class="st3" x1="144.1" y1="124.9" x2="152.5" y2="127.6"/>
		<line id="XMLID_183_" class="st3" x1="146" y1="121.2" x2="153.3" y2="123.5"/>
		<polyline id="XMLID_182_" class="st3" points="154.2,124.2 152.3,126.9 154.2,129.2 157.4,129.9 		"/>
		<path id="XMLID_181_" class="st5" d="M156.3,120.7"/>
		<line id="XMLID_180_" class="st3" x1="157.8" y1="129.3" x2="157.5" y2="129.8"/>
		<polyline id="XMLID_179_" class="st6" points="161.3,124.9 164.5,120.4 161.5,117.5 158.6,117.5 156.6,120.5 154.9,119.1 
			159.7,112.5 159.5,108.9 155.3,105.1 149.3,104.3 		"/>
		<polygon id="XMLID_178_" class="st7" points="159.1,121.7 161.2,118.6 163.2,120.5 161,123.5 		"/>
		<polyline id="XMLID_177_" class="st7" points="155.9,125.7 155,127.1 157.5,129.8 		"/>
		<line id="XMLID_176_" class="st7" x1="161.3" y1="117.6" x2="158" y2="122.5"/>
		<path id="XMLID_175_" class="st3" d="M157.4,130"/>
		<polyline id="XMLID_174_" class="st3" points="149.5,114.5 149,112.5 153.8,105.5 155.3,105.1 		"/>
		<line id="XMLID_173_" class="st6" x1="165.9" y1="124.1" x2="162.6" y2="123.4"/>
		<polyline id="XMLID_172_" class="st3" points="131.1,133.1 126.1,140.8 156.7,150.7 164.8,137.2 165.9,124.1 		"/>
		<path id="XMLID_171_" class="st3" d="M150.8,127.1c-3.4,4.9-6.3,3.7-6.3,3.7l-2-2.7"/>
		<path id="XMLID_170_" class="st3" d="M142.8,129.2c0,0-0.6,3.6,3.5,2.7c0,0,3.8-0.8,5.4-4.4"/>
		<path id="XMLID_169_" class="st3" d="M144.1,132l4.7,3.8c0,0,3.1,0.8,5.4-2.1c0,0,1.4,0.6,2.4,0.3c0,0,2.1-0.6,1.7-2.6l-1.5-1.5"
			/>
		<path id="XMLID_168_" class="st3" d="M151,130.8c0,0,0.9-0.3,1.2-0.1c0.4,0.2,2.2,0.6,2.8,0.5c0.8-0.1,1.4-0.9,1.3-1.5"/>
		<polyline id="XMLID_167_" class="st6" points="167.2,135.9 167.6,125.3 165.9,124.1 		"/>
		<polyline id="XMLID_166_" class="st3" points="156.7,150.7 158.4,151.7 166.7,138 167,134.4 		"/>
		<polyline id="XMLID_165_" class="st3" points="167.9,147.6 158.7,151.6 158.7,151.6 		"/>
		<line id="XMLID_164_" class="st6" x1="167.2" y1="134.7" x2="167.9" y2="147.6"/>
		<polyline id="XMLID_163_" class="st3" points="150,148.5 150,151.5 158.8,154.8 167.8,150.1 167.9,147.6 		"/>
		<line id="XMLID_162_" class="st3" x1="158.8" y1="154.8" x2="158.8" y2="152"/>
		<polyline id="XMLID_161_" class="st3" points="129,141.9 129.1,144.7 137.9,147.8 143.2,146.5 		"/>
		<line id="XMLID_160_" class="st3" x1="137.9" y1="144.7" x2="137.8" y2="147.6"/>
		<polyline id="XMLID_159_" class="st2" points="167.7,147.9 170.3,148.9 170.1,151.3 100.9,186.7 94.9,188.6 37,165.9 36.8,162.8 
					"/>
		<polyline id="XMLID_158_" class="st2" points="110.4,148.1 108.6,162 93.8,184.4 91.6,183.3 		"/>
		<polyline id="XMLID_157_" class="st2" points="94.1,184.2 94.3,184.7 100.8,183 169.8,149.2 		"/>
		<line id="XMLID_156_" class="st3" x1="94.3" y1="184.7" x2="94.6" y2="188.4"/>
		<line id="XMLID_155_" class="st3" x1="100.8" y1="183" x2="100.9" y2="186.7"/>
		<polyline id="XMLID_154_" class="st3" points="95.6,182.1 100.6,180.5 111.3,174.6 111.3,177.4 		"/>
		<path id="XMLID_153_" class="st3" d="M109.9,155.1c-0.1,0.2,1.4,19.4,1.4,19.4"/>
		
			<ellipse id="XMLID_152_" transform="matrix(0.9987 -5.103054e-002 5.103054e-002 0.9987 -7.5519 6.9591)" class="st3" cx="132.5" cy="151.4" rx="4.7" ry="1.6"/>
		<path id="XMLID_151_" class="st3" d="M138.1,150.8c-0.4-1-2.5-1.6-5.2-1.6l-5.8,0c-1.2,0.1-0.8,1-0.8,1l0.6,1.8
			c0.5,1,2.9,1.7,5.7,1.5c0.1,0,0.2,0,0.3,0l4.7-0.3c0,0,1.5,0,1.2-0.7L138.1,150.8z"/>
		<path id="XMLID_150_" class="st3" d="M126.3,152.9c0,0.1,0.7,1.7,0.7,1.7c0.6,0.9,2.9,1.5,5.6,1.4c0.4,0,0.7,0,1.1-0.1l4.5-0.4
			c0,0,0.7-0.1,0.7-0.5l-0.1-2.2"/>
		<line id="XMLID_149_" class="st3" x1="126.2" y1="152.6" x2="126.3" y2="149.7"/>
		<path id="XMLID_148_" class="st8" d="M110.3,149.8c5.9,0.8,10.2,2.9,10.2,5.4c0,2.5-4.2,4.6-10,5.4"/>
		<path id="XMLID_147_" class="st8" d="M110.9,167.4c5.8-0.8,9.6-2.7,9.6-5.2l-0.1-7"/>
		<line id="XMLID_146_" class="st8" x1="129" y1="144.3" x2="110.7" y2="148"/>
		<path id="XMLID_145_" class="st3" d="M122.5,167.7l1.9,0.4c0,0,2.1,0.3,3.7-0.6c1.3-0.8,14.8-7.3,14.8-7.3s2.6-1-0.2-1.5
			c-2.6-0.4-3.1-0.5-3.1-0.5s-0.9,0-1.9,0.6c-0.6,0.4-14.8,7.7-14.8,7.7S121,167.3,122.5,167.7z"/>
		<path id="XMLID_144_" class="st3" d="M141.9,160.6c-1.9-0.3-2.3-0.4-2.3-0.4s-0.9,0-1.9,0.6c-0.5,0.3-10.4,5.4-13.8,7.1"/>
		<path id="XMLID_143_" class="st3" d="M111.4,149.7c0,0,2.8-0.2,3.9,0.1c1.3,0.4,0.4,0.9-0.3,1"/>
		<path id="XMLID_142_" class="st3" d="M118.1,107.9l7.5,0l9.8-14.4l-4.8-5l-2.5,3.9c0,0-4.7-0.7-7,3.4c0,0-2.2,3.5-0.1,6.6
			L118.1,107.9z"/>
		<path id="XMLID_141_" class="st5" d="M124.4,107.3"/>
		<path id="XMLID_140_" class="st3" d="M125.3,108l-0.7-1.2l1.4-2.3c0,0,0.7-1,0.1-1.9c-0.5-0.8-2.4-3.3,0.3-6.3
			c0,0,2.3-2.3,4.9-1.2c0,0,1.2,0.6,2.2-0.9c1-1.5,0,0,1-1.5"/>
		<line id="XMLID_139_" class="st3" x1="118.8" y1="106.8" x2="124.6" y2="106.8"/>
		<path id="XMLID_138_" class="st3" d="M106.6,146.3l-0.8-3.6c0,0-3.7-3-5.5-4.5c-2.1-1.7-3.5,1-3.5,1l-3.2,7.5l1.5,3.8
			c0,0,1,0.4,1.6-0.2l-0.7-2c0,0,5.2-0.2,9.1-3.1l0.4,1.7C105.4,147,106.4,147.3,106.6,146.3z"/>
		<path id="XMLID_137_" class="st3" d="M93.8,146.6c0,0,6.5-0.4,11.6-3.6"/>
		<path id="XMLID_136_" class="st3" d="M94.4,149.3l-0.2,3.4c0,0,10.1-2.7,17-6.9l-1.1-4.2l-4.1,1.8"/>
		<path id="XMLID_135_" class="st3" d="M94.2,152.6l0.8,1.3c0,0,11.7-2.9,16.2-6.8l0-1.4"/>
		<path id="XMLID_134_" class="st3" d="M63.1,125.9l-7.2-0.5c0,0-4.8,4.8-0.3,8.7l7.9-7C63.5,127,64.4,126.3,63.1,125.9z"/>
		<path id="XMLID_133_" class="st3" d="M55.6,134l2,2.6c0,0,1-0.2,1.2-1"/>
		<path id="XMLID_132_" class="st3" d="M58,140.4c0,0,1.8-1.5,2.1-1.8c0.6-0.7,0-1.5,0-1.5l-1.9-3.1l5.5-5c0,0,0.4-0.5,0.2-2.3"/>
		<path id="XMLID_131_" class="st4" d="M67.3,92.5c0,0-3.6,26.6,25.9,29.4l0.6-3.8c0,0,3.1-0.2,4.1-0.6"/>
		<path id="XMLID_130_" class="st4" d="M69.1,93.6c0,0-3.8,15.3,13.7,25.8"/>
		<polyline id="XMLID_129_" class="st4" points="67.3,91.7 84.3,106.9 87,106.8 88.8,104.2 72,89.7 		"/>
		<line id="XMLID_128_" class="st4" x1="68.8" y1="91.1" x2="87" y2="106.8"/>
		<polyline id="XMLID_127_" class="st3" points="91.3,75.8 93.2,77.7 96.4,76.3 96.3,73.9 94.2,71.7 		"/>
		<line id="XMLID_126_" class="st3" x1="93" y1="73.3" x2="96.1" y2="76.3"/>
		<path id="XMLID_125_" class="st6" d="M106.3,126c-10.1-7.3-14.7-21.5-10.5-35.5c5.2-17.3,21.8-27.6,37-23c3.1,0.9,6,2.4,8.5,4.4"
			/>
		<path id="XMLID_124_" class="st9" d="M106.5,126c-8.5-7.7-12.6-21.3-8.7-34.4c5.2-17.4,21.8-27.7,37.1-23.1
			c2.4,0.7,4.5,2.1,6.5,3.5"/>
		<path id="XMLID_123_" class="st10" d="M108.8,122.9c-7.5-6.8-11-18.7-7.5-30.3c4.6-15.3,19.2-24.4,32.5-20.4
			c2.1,0.6,3.9,1.9,5.7,3"/>
		<path id="XMLID_122_" class="st3" d="M53.8,130.5"/>
		<path id="XMLID_121_" class="st3" d="M56.3,135.1c0,0-2.8-0.2-2.7-4.3"/>
		<path id="XMLID_120_" class="st11" d="M104.6,75.6c-3.4,0.6-8,4.4-11.6,9.8c-4.8,7.3-6,14.9-2.8,17"/>
		<path id="XMLID_119_" class="st12" d="M105.3,74.6c-3.8-1.6-9.9,2.6-14.5,9.7c-4.9,7.4-5.8,15.4-2.2,17.8c1.5,1,3.5,0.9,5.7,0"/>
		<line id="XMLID_118_" class="st12" x1="97.4" y1="67.2" x2="105.7" y2="74.4"/>
		<line id="XMLID_117_" class="st12" x1="99.4" y1="62.3" x2="110.1" y2="70.9"/>
		<line id="XMLID_116_" class="st12" x1="98.8" y1="64.8" x2="107.7" y2="72.5"/>
		<path id="XMLID_115_" class="st12" d="M91.5,76.7l-9.3,14.4c0,0-1.8,2.8-1.2,5.2l0.4,1.5"/>
		<path id="XMLID_114_" class="st12" d="M83.2,106.2l0.6,2.5c0,0,0.3,1.3,2.8,0.3l7.7-3.6"/>
		<line id="XMLID_113_" class="st3" x1="96.7" y1="81.1" x2="98.8" y2="83.2"/>
		<line id="XMLID_112_" class="st3" x1="100.1" y1="77.9" x2="101.4" y2="79.3"/>
		<line id="XMLID_111_" class="st3" x1="98.7" y1="79.1" x2="100.3" y2="80.7"/>
		<line id="XMLID_110_" class="st3" x1="96.1" y1="73.4" x2="101.7" y2="71.3"/>
		<path id="XMLID_109_" class="st6" d="M84.1,109.2l2.8,2.5c0,0,1.1,0.9,3.9-0.4l4.3-2.2"/>
		<path id="XMLID_108_" class="st6" d="M150.5,101.5c0,0,0.7,2.5,0.4,3"/>
		<polyline id="XMLID_107_" class="st6" points="113.2,50.8 117.5,60 112.4,67.2 		"/>
		<line id="XMLID_106_" class="st6" x1="111.9" y1="50" x2="113.2" y2="50.8"/>
		<polyline id="XMLID_105_" class="st3" points="111.8,67.6 108,69 115.1,59.2 111.6,49.7 		"/>
		<path id="XMLID_104_" class="st6" d="M115.2,68.3c-0.8-1.7-2.1-1.2-2.1-1.2l-0.8,0.2"/>
		<line id="XMLID_103_" class="st3" x1="115.1" y1="59.2" x2="117.5" y2="60"/>
		<line id="XMLID_102_" class="st3" x1="73.9" y1="119.1" x2="75.5" y2="120.1"/>
		<line id="XMLID_101_" class="st3" x1="73.6" y1="122.2" x2="75.5" y2="122.9"/>
		<path id="XMLID_100_" class="st4" d="M35.6,68.9l17.6-6.7c0,0,3.1-1,5.2-4.3c1.8-2.9,13.1-18.4,13.1-18.4S73,37.6,72,35l-1.7-4.1
			c0,0-0.3-0.7,0.2-1.3c0.5-0.6,2-2.5,2-2.5l-3.2-2.6l-6.8-0.5"/>
		<path id="XMLID_99_" class="st6" d="M61.7,89.1c0,0-0.6,0-2.3-1.3L35.9,69.3"/>
		<path id="XMLID_98_" class="st4" d="M71.4,33.1l22.6,19.5l0.9,6.5c0,0,0.2,2.5-1.5,4.7c-1.5,2.1-10,14.5-10,14.5s-1.3,2.6-6.1,4.4
			l-15.6,6.3"/>
		<path id="XMLID_97_" class="st6" d="M55.4,22.7c0,0-2,0.7-1.2,1.9c0.6,0.9,0.3,0.9,0.3,0.9L46,28.9c0,0-3.7,1.4-5.3,4.3l-7.9,11.8
			"/>
		<path id="XMLID_96_" class="st6" d="M28.1,52.8l2.4,11.7c0,0,0.3,2.7,3.5,1.6l17.1-6.6c0,0,2.8-1,4.1-3.4l12.6-17.4
			c0,0,2.1-3.2,1-5l-1.6-4c0,0-0.5-1.2,0-2c0.8-1.3,2.1-2.8,2.1-2.8"/>
		<path id="XMLID_95_" class="st13" d="M45.3,58"/>
		<path id="XMLID_94_" class="st13" d="M45.3,58c-4.4,2.4-8.4,2.8-10.5,0.9c-3.6-3.4-0.3-12.7,7.4-20.8c7.7-8.1,16.8-12,20.3-8.7
			c3.6,3.4,0.3,12.7-7.4,20.8c-0.1,0.1-0.2,0.2-0.3,0.4"/>
		<path id="XMLID_93_" class="st13" d="M47.9,36.6c5.7-4.8,11.5-7.2,15-6"/>
		<path id="XMLID_92_" class="st13" d="M35.8,59.6C34.2,56,36.9,49,42.3,42.4"/>
		<path id="XMLID_91_" class="st6" d="M88.5,47.8l9.5,1.7l2.2,2.4l-1.9,2.3c0,0-0.5,0.8-0.3,1.7c0.1,0.6,0.9,6.1,0.9,6.1
			s0.6,2-2.2,5.6l-9.9,14.6c-1.1,1.5-2.5,2.9-5.4,3.8l-16.1,6.3c0,0-1.6,0.6-2.9-0.4l-2-1.8c0,0-0.4-0.5-0.2-1.1"/>
		<path id="XMLID_90_" class="st14" d="M60.3,89.5C60.5,90.2,62,90,62,90l15.8-6.2c4.8-1.8,6.2-4.5,6.2-4.5s8.8-12.6,10.4-14.8
			c1.7-2.3,1.6-4.8,1.6-4.8l-0.8-6.7c0,0,0.1-0.6,0.7-1.1l2.2-2.5l3-3.8L86.7,43L85,45.1"/>
		<path id="XMLID_89_" class="st4" d="M31,66.1l2.6,2.6c0,0,1.2,1,2.7,0"/>
		<path id="XMLID_88_" class="st4" d="M33.9,45.5c0,0-0.6,0.6-2-0.8c0,0-1.2-1.3-2.2,0.1c-0.6,0.8-3.4,4.5-2.2,7.4
			c0,0,1.2,1,1.7,1.2c0,0,0.4,0.6,0.5,1.3"/>
		<path id="XMLID_87_" class="st4" d="M55,22.7c0,0,5.5-0.2,7.5,1.6l2.2,3.3"/>
		<path id="XMLID_86_" class="st4" d="M49.2,37.1c1.1,0.9,0.6,3.4-1.1,5.5c-1.7,2.1-4.1,3-5.2,2c-1.1-0.9-0.6-3.4,1.1-5.5
			C45.7,37.1,48.1,36.2,49.2,37.1z"/>
		<path id="XMLID_85_" class="st4" d="M42.9,44.6l1.4,1.7c1.1,0.9,3.5,0,5.2-2c1.7-2,2.2-4.3,1.3-5.3l-1.3-1.7l7.8-10.6"/>
		<path id="XMLID_84_" class="st13" d="M44.7,59.3c0,0,1.6-0.5,0.1-3.2c0,0-1.3-1.8,0.2-2.9c0,0,4.4-3,5.4-4.1c0,0,1.5-1.5,3.1,0.7
			c0,0,1.9,1.7,2.7,1.2"/>
		<line id="XMLID_83_" class="st4" x1="42.2" y1="44.4" x2="30.3" y2="48.6"/>
		<line id="XMLID_82_" class="st4" x1="46.8" y1="45" x2="48.5" y2="50.7"/>
		<path id="XMLID_81_" class="st6" d="M100.3,51.9l4.3-6L90.2,32.4l1-1.3l-0.9-1l2.6-3.2c1.8-2.2,0.3-3.4,0.3-3.4l-0.5-0.4"/>
		<polyline id="XMLID_80_" class="st13" points="60.5,16.3 74.8,18.6 90.1,32.5 		"/>
		<line id="XMLID_79_" class="st6" x1="55.9" y1="22.5" x2="61.5" y2="15.2"/>
		<polyline id="XMLID_78_" class="st14" points="72.5,27.2 75.8,23.1 101.1,45.7 		"/>
		<line id="XMLID_77_" class="st14" x1="75.6" y1="32.4" x2="86.7" y2="43"/>
		<path id="XMLID_76_" class="st14" d="M76.2,30.7l2-2.6c0,0,0.3-2.1-3.2-3.8"/>
		<path id="XMLID_75_" class="st15" d="M71.9,28c0.6,0.1,1.6,0.6,2.5,1.2c1.4,1.1,2.3,2.4,1.9,2.9c-0.4,0.5-1.8,0-3.3-1.1
			c-0.9-0.7-1.6-1.4-1.9-2"/>
		<polygon id="XMLID_74_" class="st13" points="31.5,64.1 34.1,65.1 37.1,61.3 34.2,60.5 		"/>
		<polygon id="XMLID_73_" class="st13" points="64.6,35.6 64.5,38.7 67.7,37.5 67.7,34.3 		"/>
		<polygon id="XMLID_72_" class="st13" points="42.2,32.9 43.3,35.1 46.7,32.4 45.4,30.3 		"/>
		<line id="XMLID_71_" class="st13" x1="69.5" y1="24.6" x2="74.4" y2="18.7"/>
		<g id="XMLID_272_">
			<path id="XMLID_70_" class="st16" d="M70.8,150.2c1.1-1.3,1.1-3,0.1-3.8c-1-0.9-2.7-0.5-3.8,0.7c-1.1,1.3-1.1,3-0.1,3.8
				C68.1,151.8,69.8,151.4,70.8,150.2z"/>
			<path id="XMLID_69_" class="st16" d="M67.3,151.1l1.6,1.2c1,0.9,2.7,0.5,3.8-0.7c1.1-1.3,1.1-3,0.1-3.8l-1.9-1.3"/>
		</g>
		<path id="XMLID_68_" class="st16" d="M66.6,150.7l-3.4,4.9c0,0-0.6,1.1,0.7,1.8c1.3,0.7,8.8,3.2,8.8,3.2s2,0.3,2.8-0.9
			c0.8-1.2,2.6-4.4,2.6-4.4l1.3,0.3c0,0,0.5,0,1-0.6c0.5-0.6,0.8-1.3,0.8-1.3l-0.4-1.1l-1-0.3l1.4-2.4"/>
		<path id="XMLID_67_" class="st16" d="M63.2,156.2l9.5,3.6c0,0,1.3,0.3,2.3-0.9l2.6-4.4c0,0,0.1-0.2,0.6-0.1c0.5,0.1,1,0.4,1.3,0.3
			c0.3-0.2,1.2-2,1.3-1.6"/>
		<path id="XMLID_66_" class="st16" d="M76.3,149.3l-3.6,5.8c0,0-1,1.9-3,0.9c0,0-1.2-1.1-0.3-2.2c0.6-0.8,0.6-0.9,0.6-0.9"/>
		<line id="XMLID_65_" class="st16" x1="90.1" y1="111.6" x2="98.8" y2="118.2"/>
		<line id="XMLID_64_" class="st16" x1="91.9" y1="110.7" x2="97.4" y2="115.1"/>
		<path id="XMLID_63_" class="st16" d="M99.1,72.3c0,0-1.4-0.4-1.3-1.3c0,0,0-1.6,1.7-1.7"/>
		<path id="XMLID_62_" class="st6" d="M102.7,64.9c0,0,4.8,1,6.5,3.6"/>
		<path id="XMLID_61_" class="st16" d="M78.1,9.2l0.3,0l-4.7,6.4c0,0-0.7,1,0.3,1.3c0.9,0.3,2.1,0.5,2.1,0.5l14.9,13.8L90,32.4"/>
		<polyline id="XMLID_60_" class="st4" points="60.5,16.3 61.4,15.1 64.4,15.6 70.3,8.2 78.1,9.2 		"/>
		
			<ellipse id="XMLID_59_" transform="matrix(0.696 0.718 -0.718 0.696 44.0698 -56.9517)" class="st6" cx="89.3" cy="23.6" rx="3.4" ry="3.4"/>
		<line id="XMLID_58_" class="st3" x1="77.3" y1="14.7" x2="77" y2="14.9"/>
		<polyline id="XMLID_57_" class="st17" points="78.4,9.2 79.4,11.7 79,12.2 		"/>
		<path id="XMLID_56_" class="st18" d="M87,26.2l-1.8-1c-1.2-1.3-1.1-3.4,0.3-4.7c1-0.9,2.3-1.2,3.4-0.9l2.1,1"/>
		
			<ellipse id="XMLID_55_" transform="matrix(0.6963 0.7178 -0.7178 0.6963 44.0995 -56.9775)" class="st19" cx="89.4" cy="23.6" rx="1.3" ry="1.3"/>
		<path id="XMLID_54_" class="st3" d="M79.6,20.5c0,0,0.4,0.4,2.5-2.1c0,0,2.2-2.7,4.7-0.6l1.9,1.7"/>
		<path id="XMLID_53_" class="st6" d="M79,19.6c0,0,0.2,0.5,2.3-2c0,0,2.2-2.7,4.7-0.6l1.9,1.7"/>
		<path id="XMLID_52_" class="st4" d="M80.2,6.6c0.1-0.2,0.2-0.2,0.2-0.2s5.2,1.4,8.7,6.4l-3.3,4"/>
		<line id="XMLID_51_" class="st13" x1="78" y1="9" x2="78.7" y2="8.2"/>
		<path id="XMLID_50_" class="st4" d="M56.9,22.5l0.9-1.1c0,0,2.4,0.1,3.6,2"/>
		<path id="XMLID_49_" class="st4" d="M29.1,45.5c0,0-3,1.4-2.5,3c0.4,1.6,0.6,1.1,0.8,1.3"/>
		<path id="XMLID_48_" class="st3" d="M51.8,56.8c-1.1,1-2.7,1-3.7,0c-0.9-1-0.8-2.6,0.3-3.6c1.1-1,2.7-1,3.7,0
			C53.1,54.2,52.9,55.8,51.8,56.8z"/>
		<path id="XMLID_47_" class="st3" d="M47.6,54.9c0-0.7,0.2-1.9,0.9-2.5c1.1-1,2.7-1,3.7,0c0.4,0.4,0.6,1.3,0.6,1.8"/>
		
			<ellipse id="XMLID_46_" transform="matrix(0.6757 0.7372 -0.7372 0.6757 56.8755 -19.0979)" class="st3" cx="50.1" cy="55.1" rx="0.2" ry="0.2"/>
		
			<ellipse id="XMLID_45_" transform="matrix(0.799 0.6013 -0.6013 0.799 20.3657 -46.2715)" class="st3" cx="79.4" cy="7.3" rx="0.4" ry="1"/>
		
			<ellipse id="XMLID_44_" transform="matrix(0.6047 -0.7964 0.7964 0.6047 -14.1949 52.721)" class="st7" cx="46" cy="40.7" rx="1.1" ry="0.6"/>
		<path id="XMLID_43_" class="st3" d="M95.8,9.7l-0.5-0.5l-7.1-6.8c0,0-0.6-0.7-1.9-0.9l-6.8-0.7"/>
		<path id="XMLID_42_" class="st6" d="M79.4,0.8L84-5.6c0,0,0.5-0.8,1.5-0.6c1,0.1,5.8,0.6,5.8,0.6s1.2,0.1,2.2,1.2
			c0.6,0.6,6.9,6.4,6.9,6.4s0.7,0.7,0.1,1.3c-0.6,0.6-4.7,6.5-4.7,6.5"/>
		<line id="XMLID_41_" class="st6" x1="83.1" y1="4" x2="79.4" y2="0.9"/>
		<path id="XMLID_40_" class="st6" d="M96.3,9c0,0-0.5,1.2-1.4,1c-0.7-0.2,0.6,0.3-5-1.2"/>
		<line id="XMLID_39_" class="st4" x1="83.6" y1="3.4" x2="81.3" y2="6.5"/>
		<path id="XMLID_38_" class="st4" d="M87.8,11.1l2.5-2.8c0.7-0.8-0.1-2.6-1.8-4.2C86.9,2.6,85,2,84.2,2.7l-0.6,0.8"/>
		<path id="XMLID_37_" class="st20" d="M89.7,9c0.6-0.8-0.2-2.5-1.8-4c-1.6-1.5-3.5-2.1-4.2-1.5"/>
		<path id="XMLID_36_" class="st21" d="M79,12.5c0-0.1-0.1-0.1-0.1-0.1c-0.3-0.2-0.9,0.2-1.3,0.8c-0.4,0.6-0.4,1.3-0.1,1.5"/>
		
			<ellipse id="XMLID_35_" transform="matrix(-0.8575 -0.5146 0.5146 -0.8575 138.8022 65.8441)" class="st21" cx="78.5" cy="13.7" rx="0.7" ry="1.4"/>
		<path id="XMLID_34_" class="st2" d="M37.2,166.2c-4.6,2.3-7.6,0.9-7.6,0.9s-9.5-3.7-10.6-4.1c-1-0.4-2.1-2.3-2.1-2.3l-2.1-27
			c0,0,0.3-1.5,2.6-2l38.5-9.3c0,0,2-0.4,3,0.3"/>
		<polygon id="XMLID_33_" class="st3" points="16.7,137.4 18.6,159.3 29,163.6 27.9,141 		"/>
		<path id="XMLID_32_" class="st16" d="M19.2,133.1l8.6,2.7c0,0,3.9,0.8,6.1,0.1l17.6-3.8"/>
		
			<ellipse id="XMLID_31_" transform="matrix(0.9961 -8.779354e-002 8.779354e-002 0.9961 -11.0841 4.8532)" class="st22" cx="49.6" cy="128.4" rx="4.2" ry="1.5"/>
		
			<ellipse id="XMLID_30_" transform="matrix(0.6733 -0.7393 0.7393 0.6733 -87.3156 99.5732)" class="st16" cx="69" cy="148.6" rx="0.6" ry="0.6"/>
		<line id="XMLID_29_" class="st16" x1="93.4" y1="109.9" x2="96.2" y2="112.2"/>
		<line id="XMLID_28_" class="st16" x1="70" y1="90.4" x2="87.9" y2="105.3"/>
		<path id="XMLID_27_" class="st16" d="M68,91.3"/>
		<line id="XMLID_26_" class="st16" x1="143.4" y1="112.2" x2="162.7" y2="128.9"/>
		<line id="XMLID_25_" class="st16" x1="145.6" y1="122.7" x2="153.4" y2="125"/>
		<line id="XMLID_24_" class="st16" x1="98.9" y1="63.4" x2="108.9" y2="71.8"/>
		<line id="XMLID_23_" class="st16" x1="98" y1="65.8" x2="106.7" y2="73.4"/>
		<line id="XMLID_22_" class="st16" x1="97.5" y1="80" x2="99.7" y2="82.2"/>
		<line id="XMLID_21_" class="st16" x1="92.1" y1="74.5" x2="94.4" y2="76.8"/>
		<line id="XMLID_20_" class="st16" x1="99.4" y1="78.4" x2="100.8" y2="79.8"/>
		<line id="XMLID_19_" class="st16" x1="93.4" y1="72.5" x2="96.3" y2="75.3"/>
		<line id="XMLID_18_" class="st16" x1="34.6" y1="63" x2="35.4" y2="63.2"/>
		<line id="XMLID_17_" class="st16" x1="34.7" y1="61.8" x2="35.5" y2="60.8"/>
		<line id="XMLID_16_" class="st16" x1="33.1" y1="62.3" x2="33.9" y2="62.6"/>
		<line id="XMLID_15_" class="st16" x1="32.9" y1="64.5" x2="33.5" y2="63.7"/>
		<line id="XMLID_14_" class="st16" x1="66.7" y1="36.1" x2="67.6" y2="35.8"/>
		<line id="XMLID_13_" class="st16" x1="66.1" y1="38" x2="66.1" y2="37.1"/>
		<line id="XMLID_12_" class="st16" x1="64.6" y1="36.8" x2="65.5" y2="36.5"/>
		<line id="XMLID_11_" class="st16" x1="66.1" y1="35" x2="66.1" y2="35.9"/>
		<line id="XMLID_10_" class="st16" x1="44.6" y1="32.8" x2="45.1" y2="33.7"/>
		<line id="XMLID_9_" class="st16" x1="43.9" y1="31.6" x2="44.3" y2="32.2"/>
		<line id="XMLID_8_" class="st16" x1="46" y1="31.4" x2="45.2" y2="32"/>
		<line id="XMLID_7_" class="st16" x1="42.8" y1="34" x2="43.7" y2="33.3"/>
		<path id="XMLID_6_" class="st21" d="M77,15c0-0.1-0.1-0.1-0.1-0.1c-0.3-0.2-0.9,0.2-1.3,0.8c-0.4,0.6-0.4,1.3-0.1,1.5"/>
		
			<ellipse id="XMLID_5_" transform="matrix(-0.8569 -0.5154 0.5154 -0.8569 133.7503 69.6338)" class="st21" cx="76.5" cy="16.3" rx="0.7" ry="1.4"/>
		<line id="XMLID_4_" class="st3" x1="161.7" y1="120.5" x2="162.3" y2="119.8"/>
		<line id="XMLID_3_" class="st3" x1="160.2" y1="122.5" x2="160.7" y2="121.8"/>
		<line id="XMLID_2_" class="st3" x1="161.6" y1="121.4" x2="162.1" y2="121.9"/>
		<line id="XMLID_1_" class="st3" x1="160.3" y1="120.2" x2="160.9" y2="120.8"/>
	</g>
</g>
</svg>
