<?xml version="1.0" encoding="utf-8"?>
<!-- Generator: Adobe Illustrator 19.0.0, SVG Export Plug-In . SVG Version: 6.00 Build 0)  -->
<svg version="1.1" xmlns="http://www.w3.org/2000/svg" xmlns:xlink="http://www.w3.org/1999/xlink" x="0px" y="0px"
	 viewBox="0 0 205 205" style="enable-background:new 0 0 205 205;" xml:space="preserve">
<style type="text/css">
	.st0{clip-path:url(#XMLID_319_);}
	.st1{fill:#FADBA8;}
	.st2{fill:#E49D5F;}
	.st3{fill:#797979;}
	.st4{fill:#E85582;}
	.st5{fill:#DD0144;}
	.st6{fill:#EA556D;}
	.st7{fill:#E4756E;}
	.st8{fill:#F4A582;}
	.st9{fill:#F4A8B5;}
	.st10{fill:#FAD754;}
	.st11{fill:#DC1185;}
	.st12{fill:#F3AED5;}
	.st13{fill:#F09600;}
	.st14{fill:#F8C300;}
	.st15{fill:#696969;}
	.st16{fill:#959595;}
	.st17{fill:none;stroke:#000000;stroke-width:3.1728;stroke-linejoin:round;stroke-miterlimit:10;}
	.st18{fill-rule:evenodd;clip-rule:evenodd;fill:#FFFFFF;}
	.st19{fill-rule:evenodd;clip-rule:evenodd;}
	.st20{fill-rule:evenodd;clip-rule:evenodd;fill:#FCBD6D;}
	.st21{fill-rule:evenodd;clip-rule:evenodd;fill:#E49D5F;}
	.st22{fill-rule:evenodd;clip-rule:evenodd;fill:#2C2C32;}
	.st23{fill-rule:evenodd;clip-rule:evenodd;fill:#68696C;}
	.st24{fill-rule:evenodd;clip-rule:evenodd;fill:#403C43;}
	.st25{fill-rule:evenodd;clip-rule:evenodd;fill:#55545B;}
	.st26{fill:none;stroke:#EAB618;stroke-width:3;stroke-miterlimit:10;}
	.st27{fill:#E2E3E5;}
	.st28{fill:#AEAEAE;}
	.st29{fill:#B1B1B1;}
	.st30{fill:#979797;}
	.st31{fill:#919191;}
	.st32{fill:#929292;}
	.st33{fill:#A5A5A5;}
	.st34{fill:#A2A2A2;}
	.st35{fill:#878787;}
	.st36{fill:#A3A3A3;}
	.st37{fill:#939393;}
	.st38{fill:#E3E2E4;}
	.st39{fill:#B3B5C8;}
	.st40{fill:#4990C7;}
	.st41{fill:#23295C;}
	.st42{fill:#242A5C;}
	.st43{fill:#ABADC0;}
	.st44{fill:#FCFDFD;}
	.st45{fill:#394E5E;}
	.st46{fill:#202F39;}
	.st47{fill:#85CEEF;}
	.st48{fill:#F7F8FB;}
	.st49{fill:#F5F7FA;}
	.st50{fill:#FCFEFD;}
	.st51{fill:#88898A;}
	.st52{fill:#999999;}
	.st53{fill:#E4E5E8;}
	.st54{fill:#9C9D9E;}
	.st55{clip-path:url(#XMLID_320_);fill:#999999;}
	.st56{clip-path:url(#XMLID_321_);fill:#BFBFBF;}
	.st57{fill:#BFBFBF;}
	.st58{fill:#FAFBFD;}
	.st59{clip-path:url(#XMLID_322_);fill:#BFBFBF;}
	.st60{clip-path:url(#XMLID_323_);fill:#999999;}
	.st61{fill:#F1F2F2;}
	.st62{fill:#8F2A1F;}
	.st63{fill:#00A4B0;}
	.st64{fill:#9E7907;}
	.st65{fill:#9F9F9F;}
	.st66{fill:#EFEFEF;}
	.st67{fill:#01D6E6;}
	.st68{fill:#B3B3B3;}
	.st69{fill:#FDFFFE;}
	.st70{clip-path:url(#XMLID_324_);fill:#B3B3B3;}
	.st71{clip-path:url(#XMLID_325_);fill:#B3B3B3;}
</style>
<g id="Layer_2">
	<g id="XMLID_7_">
		<defs>
			<circle id="XMLID_6_" cx="102.5" cy="102.5" r="100"/>
		</defs>
		<clipPath id="XMLID_319_">
			<use xlink:href="#XMLID_6_"  style="overflow:visible;"/>
		</clipPath>
		<g id="XMLID_185_" class="st0">
			<polygon id="XMLID_183_" class="st1" points="63.5,134.8 81.1,152.6 81.1,179.3 63.5,188.1 			"/>
			<polygon id="XMLID_182_" class="st2" points="63.5,134.8 45.9,125.9 45.9,188.1 63.5,197 			"/>
			<polygon id="XMLID_181_" class="st2" points="81.1,197 45.9,179.3 45.9,188.2 81.1,205.9 			"/>
			<polygon id="XMLID_180_" points="81.1,205.9 45.9,188.2 45.9,197.1 81.1,214.8 			"/>
			<polygon id="XMLID_179_" points="72.3,210.4 63.5,205.9 63.5,188.1 72.3,192.6 			"/>
			<polygon id="XMLID_178_" class="st1" points="81.1,197 98.7,188.1 81.1,179.2 63.5,188.1 			"/>
			<polygon id="XMLID_177_" class="st3" points="63.5,188.1 81.1,179.2 89.9,183.7 72.3,192.6 			"/>
			<polygon id="XMLID_176_" class="st2" points="98.7,188.1 81.1,197 81.1,214.8 98.7,205.9 			"/>
			<polygon id="XMLID_175_" class="st3" points="98.7,197 81.1,205.9 81.1,214.8 98.7,205.9 			"/>
			<polygon id="XMLID_174_" class="st1" points="28.3,152.6 45.9,170.4 45.9,197 28.3,205.9 			"/>
			<polygon id="XMLID_173_" class="st2" points="28.3,152.6 10.7,143.7 10.7,205.9 28.3,214.8 			"/>
			<polygon id="XMLID_172_" class="st2" points="45.9,214.8 10.7,197.1 10.7,205.9 45.9,223.7 			"/>
			<polygon id="XMLID_171_" points="45.9,223.7 10.7,205.9 10.7,214.8 45.9,232.6 			"/>
			<polygon id="XMLID_170_" points="37.1,228.1 28.3,223.7 28.3,205.9 37.1,210.4 			"/>
			<polygon id="XMLID_169_" class="st1" points="45.9,214.8 63.5,205.9 45.9,197 28.3,205.9 			"/>
			<polygon id="XMLID_168_" class="st3" points="28.3,205.9 45.9,197 54.7,201.5 37.1,210.4 			"/>
			<polygon id="XMLID_167_" class="st2" points="63.5,205.9 45.9,214.8 45.9,232.6 63.5,223.7 			"/>
			<polygon id="XMLID_166_" class="st3" points="63.5,214.8 45.9,223.7 45.9,232.6 63.5,223.7 			"/>
			<polygon id="XMLID_165_" class="st4" points="116.3,72.6 116.3,37.1 98.7,37 98.7,81.5 			"/>
			<polygon id="XMLID_164_" class="st5" points="45.9,54.8 45.9,170.3 -6.9,143.8 -6.9,28.2 			"/>
			<polygon id="XMLID_163_" class="st4" points="45.9,99.3 -6.9,72.7 -6.9,54.9 45.9,81.5 			"/>
			<polygon id="XMLID_162_" class="st4" points="45.9,170.4 -6.9,143.8 -6.9,126 45.9,152.6 			"/>
			<polygon id="XMLID_161_" class="st4" points="45.9,134.8 -6.9,108.2 -6.9,90.5 45.9,117.1 			"/>
			<polygon id="XMLID_160_" class="st6" points="-6.9,63.7 10.7,54.8 10.7,125.9 -6.9,134.8 			"/>
			<polygon id="XMLID_159_" class="st6" points="-6.9,63.7 10.7,54.8 10.7,125.9 -6.9,134.8 			"/>
			<polygon id="XMLID_158_" class="st5" points="-6.9,63.7 -24.5,54.8 -24.5,125.9 -6.9,134.8 			"/>
			<polygon id="XMLID_157_" class="st5" points="-6.9,63.7 -24.5,54.8 -24.5,125.9 -6.9,134.8 			"/>
			<polygon id="XMLID_156_" class="st5" points="-6.9,63.7 -24.5,54.8 -24.5,125.9 -6.9,134.8 			"/>
			<polygon id="XMLID_155_" class="st6" points="45.9,54.8 45.9,170.4 98.7,143.8 98.7,28.3 			"/>
			<polyline id="XMLID_154_" class="st5" points="98.7,28.3 45.9,1.5 -6.9,28.2 45.9,54.8 			"/>
			<polyline id="XMLID_153_" class="st7" points="89.9,32.7 45.9,10.4 10.7,28.2 54.7,50.4 			"/>
			<polygon id="XMLID_152_" class="st1" points="45.9,-41.6 98.7,-68.2 98.7,10.5 45.9,37.1 			"/>
			<polygon id="XMLID_151_" class="st1" points="-6.9,134.8 10.7,125.9 10.7,143.7 -6.9,152.6 			"/>
			<polygon id="XMLID_150_" class="st1" points="-6.9,134.8 10.7,125.9 10.7,143.7 -6.9,152.6 			"/>
			<polygon id="XMLID_149_" class="st1" points="-6.9,134.8 10.7,125.9 10.7,143.7 -6.9,152.6 			"/>
			<polygon id="XMLID_148_" class="st1" points="-6.9,134.8 10.7,125.9 10.7,143.7 -6.9,152.6 			"/>
			<polygon id="XMLID_122_" class="st8" points="-6.9,134.8 -24.5,125.9 -24.5,143.7 -6.9,152.6 			"/>
			<polygon id="XMLID_102_" class="st8" points="-6.9,134.8 -24.5,125.9 -24.5,143.7 -6.9,152.6 			"/>
			<polygon id="XMLID_101_" class="st8" points="-6.9,134.8 -24.5,125.9 -24.5,143.7 -6.9,152.6 			"/>
			<polygon id="XMLID_100_" class="st8" points="-6.9,134.8 -24.5,125.9 -24.5,143.7 -6.9,152.6 			"/>
			<polygon id="XMLID_99_" class="st2" points="-6.9,134.8 -24.5,125.9 -24.5,143.7 -6.9,152.6 			"/>
			<polygon id="XMLID_98_" class="st1" points="72.3,59.3 63.5,46 81.1,37.1 			"/>
			<polygon id="XMLID_97_" class="st1" points="54.7,68.2 89.9,50.5 89.9,32.7 54.7,50.4 			"/>
			<polygon id="XMLID_96_" class="st9" points="45.9,134.8 98.7,108.2 98.7,90.5 45.9,117.1 			"/>
			<polygon id="XMLID_95_" class="st9" points="45.9,170.4 98.7,143.8 98.7,126 45.9,152.6 			"/>
			<polygon id="XMLID_94_" class="st9" points="45.9,99.3 98.7,72.7 98.7,54.9 45.9,81.5 			"/>
			<polygon id="XMLID_93_" class="st9" points="10.7,72.6 28.3,63.7 28.3,46 10.7,54.8 			"/>
			<polygon id="XMLID_92_" class="st9" points="-6.9,99.2 10.7,90.4 10.7,72.6 -6.9,81.5 			"/>
			<polygon id="XMLID_91_" class="st9" points="-6.9,134.8 10.7,125.9 10.7,108.2 -6.9,117 			"/>
			<polygon id="XMLID_90_" class="st9" points="-6.9,134.8 10.7,125.9 10.7,108.2 -6.9,117 			"/>
			<polygon id="XMLID_89_" class="st9" points="-6.9,134.8 10.7,125.9 10.7,108.2 -6.9,117 			"/>
			<polygon id="XMLID_88_" class="st9" points="116.3,37.1 98.7,45.9 98.7,28.1 116.3,19.3 			"/>
			<polygon id="XMLID_87_" class="st9" points="116.3,72.6 98.7,81.5 98.7,63.7 116.3,54.8 			"/>
			<polygon id="XMLID_86_" class="st10" points="45.9,-41.6 98.7,-68.2 98.7,-50.5 45.9,-23.9 			"/>
			<polygon id="XMLID_85_" class="st11" points="37.1,-28.3 45.9,-32.8 45.9,-41.6 37.1,-37.2 			"/>
			<polygon id="XMLID_84_" class="st12" points="28.3,-23.9 37.1,-28.3 37.1,-37.2 28.3,-32.8 			"/>
			<polygon id="XMLID_83_" class="st12" points="37.1,-19.4 45.9,-23.9 45.9,-32.8 37.1,-28.3 			"/>
			<polygon id="XMLID_82_" class="st11" points="28.3,-15 37.1,-19.4 37.1,-28.3 28.3,-23.9 			"/>
			<polygon id="XMLID_81_" class="st13" points="-6.9,45.9 28.3,63.7 28.3,-32.8 -24.5,-59.6 			"/>
			<polygon id="XMLID_80_" class="st14" points="63.5,-103.9 116.3,-77.2 28.3,-32.8 -24.5,-59.6 			"/>
			<polygon id="XMLID_79_" class="st10" points="28.3,63.7 45.9,54.8 45.9,-23.9 28.3,-15 			"/>
			<polygon id="XMLID_78_" class="st13" points="-24.5,54.8 -4.2,44.5 -24.5,28.2 			"/>
			<polygon id="XMLID_77_" class="st10" points="116.3,-77.2 116.3,19.4 98.7,28.3 98.7,-68.2 			"/>
			<polygon id="XMLID_76_" class="st13" points="98.7,10.4 98.7,28.3 81.1,19.3 			"/>
			<polygon id="XMLID_75_" class="st9" points="-6.9,63.7 10.7,54.8 -6.9,45.9 -24.5,54.8 			"/>
			<polygon id="XMLID_74_" class="st9" points="-6.9,63.7 10.7,54.8 -6.9,45.9 -24.5,54.8 			"/>
			<polygon id="XMLID_73_" class="st9" points="-6.9,63.7 10.7,54.8 -6.9,45.9 -24.5,54.8 			"/>
			<polygon id="XMLID_72_" class="st14" points="63.5,-103.9 116.3,-77.2 28.3,-32.8 -24.5,-59.6 			"/>
			<polygon id="XMLID_71_" class="st13" points="-24.5,-59.6 -24.5,28.8 -6.1,46.7 			"/>
			<polygon id="XMLID_70_" class="st2" points="145.8,86.2 145.5,104.9 129.8,96.5 130,77.9 			"/>
			<polygon id="XMLID_69_" points="30.9,127.2 30.6,149.9 5.4,136.7 5.7,114.1 			"/>
			<polygon id="XMLID_68_" class="st15" points="30.9,127.2 36.3,124.3 11.1,111.2 5.7,114.1 			"/>
			<polygon id="XMLID_67_" class="st16" points="30.9,127.2 30.6,149.9 36,147 36.3,124.3 			"/>
			<polygon id="XMLID_66_" class="st1" points="145.8,86.2 161.7,77.8 146,69.4 130,77.9 			"/>
			<polygon id="XMLID_65_" class="st5" points="99,61.4 98.7,80.1 114.5,88.4 114.7,69.8 			"/>
			<polygon id="XMLID_64_" class="st4" points="114.6,69.7 114.3,88.4 130.1,96.8 130.3,78.1 			"/>
			<polygon id="XMLID_63_" class="st6" points="99,61.4 114.9,53 130.7,61.4 114.7,69.8 			"/>
			<polygon id="XMLID_62_" class="st9" points="114.6,69.7 130.5,61.3 146.3,69.7 130.3,78.1 			"/>
			<polygon id="XMLID_61_" class="st1" points="145.7,86.2 145.5,104.9 161.5,96.5 161.7,77.8 			"/>
			<path id="XMLID_60_" class="st17" d="M82,18.9c2.5,4.4,4.9,9.9,4.7,15.7c-0.2,8.1-34,82.2-40.9,89.3c-2.7,2.8-9.7,8.1-11.5,8.1"
				/>
			<polygon id="XMLID_59_" class="st6" points="-6.9,63.7 10.7,54.8 10.7,125.9 -6.9,134.8 			"/>
			<polygon id="XMLID_58_" class="st1" points="-6.9,134.8 10.7,125.9 10.7,143.7 -6.9,152.6 			"/>
			<polygon id="XMLID_57_" class="st9" points="-6.9,99.2 10.7,90.4 10.7,72.6 -6.9,81.5 			"/>
			<polygon id="XMLID_56_" class="st9" points="-6.9,134.8 10.7,125.9 10.7,108.2 -6.9,117 			"/>
			<polygon id="XMLID_55_" class="st4" points="-6.9,99.2 -24.5,90.4 -24.5,72.6 -6.9,81.5 			"/>
			<polygon id="XMLID_54_" class="st4" points="-6.9,99.2 -24.5,90.4 -24.5,72.6 -6.9,81.5 			"/>
			<polygon id="XMLID_53_" class="st4" points="-6.9,99.2 -24.5,90.4 -24.5,72.6 -6.9,81.5 			"/>
			<polygon id="XMLID_52_" class="st4" points="-6.9,99.2 -24.5,90.4 -24.5,72.6 -6.9,81.5 			"/>
			<polygon id="XMLID_51_" class="st4" points="-6.9,134.8 -24.5,125.9 -24.5,108.2 -6.9,117 			"/>
			<polygon id="XMLID_50_" class="st4" points="-6.9,134.8 -24.5,125.9 -24.5,108.2 -6.9,117 			"/>
			<polygon id="XMLID_49_" class="st4" points="-6.9,134.8 -24.5,125.9 -24.5,108.2 -6.9,117 			"/>
			<polygon id="XMLID_48_" class="st4" points="-6.9,134.8 -24.5,125.9 -24.5,108.2 -6.9,117 			"/>
			<polygon id="XMLID_47_" class="st4" points="-6.9,134.8 -24.5,125.9 -24.5,108.2 -6.9,117 			"/>
			<polygon id="XMLID_46_" class="st18" points="79.1,-22.3 79.2,-8.2 89.5,-13.3 89.4,-27.3 			"/>
			<polygon id="XMLID_45_" class="st19" points="78.9,-16.2 83.3,-18.4 83.3,-24 78.9,-21.9 			"/>
			<polygon id="XMLID_44_" class="st18" points="56.6,-10.9 56.7,3.1 67,-2 66.9,-16 			"/>
			<polygon id="XMLID_43_" class="st19" points="56.6,-5 61,-7.3 61,-12.9 56.6,-10.7 			"/>
			<polygon id="XMLID_42_" class="st20" points="75.9,3.5 79.7,1.3 79.7,-4.4 75.9,-2.3 75.9,-1 			"/>
			<polygon id="XMLID_41_" class="st20" points="72.6,-4.1 75.9,-2.3 79.7,-4.4 76.4,-6.2 			"/>
			<polygon id="XMLID_40_" class="st21" points="75.9,-2.3 72.6,-4.1 72.6,-2.8 72.6,0.3 72.6,1.6 75.9,3.5 			"/>
			<path id="XMLID_39_" class="st22" d="M-12.5-9.7C-7-16,3.2-14.9,10.2-7.3c7,7.6,8.3,18.8,2.8,25.1C7.6,24-2.6,22.9-9.6,15.3
				C-16.7,7.7-17.9-3.5-12.5-9.7z"/>
			<path id="XMLID_38_" class="st19" d="M-12.5-9.7C-7-16,3.2-14.9,10.2-7.3c7,7.6,8.3,18.8,2.8,25.1C7.6,24-2.6,22.9-9.6,15.3
				C-16.7,7.7-17.9-3.5-12.5-9.7z"/>
			<path id="XMLID_37_" class="st23" d="M-9.7-12l8.1-5c0,0,11.7-5.4,21.3,10.3l-6.5,3.5C13.2-3.2,4.4-17.8-9.7-12z"/>
			<path id="XMLID_36_" class="st24" d="M9.5,20.4l8.3-4.7c0,0,10.4-7.7,1.2-23.7l-6.2,4C12.8-4,21.3,10.8,9.5,20.4z"/>
			<polygon id="XMLID_35_" class="st22" points="9.7,5.3 9.7,-42.2 98.1,-86.7 103.5,-83.7 103.8,-95.9 4.3,-48.6 4.3,7.4 			"/>
			<polygon id="XMLID_5_" class="st25" points="-4.7,-51.4 -4.7,2.6 4.4,7.3 4.7,-47 103.5,-95.8 93.4,-98.7 			"/>
		</g>
	</g>
</g>
<g id="Layer_3">
	<circle id="XMLID_8_" class="st26" cx="102.5" cy="102.5" r="100"/>
</g>
<g id="Layer_1">
	<g id="XMLID_2_">
		<path id="XMLID_141_" class="st27" d="M-89.1,56.6c-0.4,0.3-0.9,0.4-0.9-0.3c0-0.8-0.2-1.6,0.1-2.4c0.9-1.9,1.7-3.8,2.6-5.7
			c0.3-0.8,0.8-1.1,1.5-0.6c1.6,1.4,3,1,4.7-0.1c3.9-2.4,7.9-4.6,11.8-6.9c1.1-0.7,2.3-0.7,3.5-0.5c1.1,0.2,1.3,0.9,0.9,2
			c-0.1,0.2-0.2,0.3-0.4,0.5c-0.1,0.1-0.2,0.2-0.4,0.3c-4.2,2.5-8.5,4.9-12.7,7.4c-0.4,0.2-1.1,0.3-1.1,0.9c0,0.6,0.8,0.3,1.1,0.6
			c1.1,0.9,1.3,1.8,0.7,3c-0.6-1.5-0.6-1.5-2.3-1.2c-2.8,0.4-5.5,0.8-8.3,1.3C-89.5,55.1-89.6,55.4-89.1,56.6z"/>
		<path id="XMLID_140_" class="st27" d="M-88.9,36.3c0.1-0.8,0.9-0.6,1.3-0.7C-84,35-80.5,34.5-77,34c0.7-0.1,0.7-0.1,0.5,0.7
			c-0.6,2.2-1.9,4.2-2.7,6.3c-0.1,0.3-0.3,0.5-0.7,0.6c-1.1-0.1-1.9-1.1-3-1.3c-2.1,0.8-4,2.2-6,3.3c-3.1,1.7-6,3.5-9.1,5.2
			c-0.6,0.3-1.2,0.3-1.9,0.3c-0.1,0-0.2,0-0.3,0c-0.2,0-0.5-0.2-0.7-0.2c-0.4,0.1-0.2,0.7-0.6,0.9c-0.4-0.7-0.3-1.5-0.4-2.3
			c-0.1-0.8,0.7-1.1,1.3-1.5c4.2-2.4,8.4-4.9,12.5-7.3c0.4-0.3,1.2-0.1,1.2-0.7c0-0.4-0.7-0.5-1-0.8C-88.2,36.9-88.6,36.8-88.9,36.3
			z"/>
		<path id="XMLID_134_" class="st28" d="M-97.8,48.5c5-3,10-6,15.1-8.7c0.3,0.6,0.5,1.2,0,1.8c-4.7,2.7-9.4,5.4-14,8
			c-0.3,0.2-0.7,0.3-1,0.5C-98.3,49.6-98.2,49.1-97.8,48.5z"/>
		<path id="XMLID_133_" class="st28" d="M-78.3,51.8c-0.3,0.1-0.7,0.2-1,0c-0.3-0.2-0.7-0.2-0.8-0.6c0-0.4,0.4-0.5,0.6-0.6
			c4.6-2.6,9.2-5.3,13.9-7.9c0.5,0.6,0.3,1.1,0,1.7c-4.1,2.4-8.2,4.8-12.3,7.2C-78,51.6-78.1,51.7-78.3,51.8z"/>
		<path id="XMLID_132_" class="st29" d="M-89.1,56.6c-0.8,0-0.7-0.5-0.7-1c0-0.6,0.4-0.8,0.9-0.9c2.2-0.3,4.4-0.6,6.5-1
			c1.1-0.2,2.3-0.3,3.4-0.5c1.4-0.2,1.4-0.3,1.4,1.2c0,0.2,0,0.3,0,0.5C-81.5,55.4-85.3,56-89.1,56.6z"/>
		<path id="XMLID_130_" class="st30" d="M-79.9,41.5c1-1.2,1.4-2.8,2.1-4.1c0.5-0.9,0.8-1.9,1.4-2.7c0.1,1-0.1,1.8-0.6,2.7
			c-0.8,1.6-1.5,3.3-2.3,5c-0.1,0.3-0.1,0.8-0.6,0.8C-80.3,42.6-80.4,42.1-79.9,41.5z"/>
		<path id="XMLID_129_" class="st31" d="M-79.9,41.5c0,0.6,0,1.1,0,1.7c-1-0.3-1.9-1-2.8-1.5c0-0.6,0-1.2,0-1.8
			C-81.8,40.4-80.9,41-79.9,41.5z"/>
		<path id="XMLID_128_" class="st32" d="M-88.9,36.3c0.9,0.5,1.8,1,2.9,1.6c-0.7,0.5-1.1,1.1-2,0.8C-89.2,38.3-88.9,37.2-88.9,36.3z
			"/>
		<path id="XMLID_127_" class="st33" d="M-97.8,48.5c0,0.6,0,1.1,0,1.7c-0.8,0.4-1.5,0.7-2.4,0.3c0-0.1,0-0.1,0-0.2
			c0-0.5-0.1-1,0.3-1.5C-99.2,48.8-98.5,48.8-97.8,48.5z"/>
		<path id="XMLID_126_" class="st34" d="M-100.9,48.5c0.2,0.1,0.5,0.2,0.7,0.3c0.2,0.5,0.2,1.1,0,1.6c0,0-0.1,0.1-0.1,0.1
			c-0.2-0.1-0.5,0-0.7-0.3C-101.2,49.6-101.3,49.1-100.9,48.5z"/>
		<path id="XMLID_125_" class="st35" d="M-100.9,48.5c0,0.6,0,1.1,0,1.7c-0.2-0.2-0.3-0.3-0.5-0.5c0-0.4,0-0.8,0-1.1
			C-101.3,48.2-101.1,48.3-100.9,48.5z"/>
		<path id="XMLID_124_" class="st36" d="M-65.3,42.4c0.2-0.1,0.3-0.2,0.5-0.2c-0.1,0.6,0.3,1.4-0.5,1.9
			C-65.5,43.5-65.5,43-65.3,42.4z"/>
		<path id="XMLID_107_" class="st37" d="M-100.2,50.4c0-0.5,0-1.1,0-1.6c0.1,0,0.1,0,0.2,0C-100,49.3-99.7,49.9-100.2,50.4z"/>
	</g>
	<g id="XMLID_1_">
		<path id="XMLID_145_" class="st38" d="M-147.6-51.1c-0.5-1.3-0.1-2.4,1.4-3.3c3.5-2,6.9-3.9,10.4-5.9c5-2.9,10-5.7,15.1-8.6
			c3.1-1.8,6.3-1.8,9.5,0c8.1,4.7,16.1,9.4,24.1,14.2c7,4.1,13.9,8.3,20.8,12.4c2.7,1.6,5.4,3.2,8.1,4.8c0.9,0.5,1.4,1.3,1.4,2.3
			c0.1,1.2,0.1,2.5,0.1,3.8c0,0.2-0.2,0.3-0.4,0.4c0,0-0.1-0.1-0.1-0.1c-0.4-0.7-0.1-1.4-0.2-2.1c0,0-0.1-0.1-0.1-0.1
			c0,0-0.1,0-0.1,0c-1.4,1.2-3,2-4.6,2.9c-7.2,4.1-14.4,8.1-21.6,12.2c-3.2,1.9-6.5,1.9-9.7,0c-12-7.1-24.1-14.2-36.1-21.4
			c-5.3-3.1-10.6-6.3-15.9-9.3C-146.5-49.5-147.3-50.1-147.6-51.1z"/>
		<path id="XMLID_142_" class="st39" d="M-147.6-51.1c1.6,2.1,4.1,3,6.2,4.3c5.5,3.3,11.1,6.6,16.7,9.8c7.7,4.5,15.4,9.1,23,13.6
			c2.7,1.6,5.4,3.2,8.1,4.8c3.2,1.9,6.3,1.9,9.6,0.1c4.8-2.7,9.5-5.4,14.3-8.1c3.6-2.1,7.3-4.1,10.9-6.2c0.4-0.2,0.7-0.6,1.1-0.9
			c0.6,0.3,0.3,0.9,0.3,1.3c0.1,0.4-0.1,0.8,0.1,1.2c0,0,0.1,0,0.1,0c0.3,2.1-0.8,3.2-2.5,4.1c-8,4.5-16,9-23.9,13.6
			c-3.6,2.1-7,2-10.6-0.2c-10-6-20.1-12-30.2-17.9c-7-4.1-14-8.3-21-12.4c-1.5-0.9-2.5-2-2.2-3.9C-147.5-48.9-147.6-50-147.6-51.1z"
			/>
		<path id="XMLID_114_" class="st40" d="M-94.8-22.7c-0.8,0.1-1.4-0.2-2-0.6c-14.4-8.5-28.7-17-43.1-25.5c-1.7-1-1.7-1.6,0-2.6
			c8.4-4.8,16.8-9.5,25.2-14.3c1.4-0.8,2.7-0.8,4,0C-96.4-57-81.9-48.5-67.5-40c1.5,0.9,1.5,1.5,0,2.4c-8.5,4.8-17,9.6-25.5,14.5
			C-93.6-22.8-94.2-22.6-94.8-22.7z"/>
		<path id="XMLID_113_" class="st41" d="M-77.7-24.7c-1.1,0-2.1-0.2-2.8-1c-0.6-0.6-0.7-1.3,0-1.7c2.2-1.4,4.4-3.2,7.1-3.6
			c1.2-0.2,2.3,0,3.2,1c0.5,0.5,0.6,1.2,0,1.5C-72.5-26.9-74.8-25.2-77.7-24.7z"/>
		<path id="XMLID_112_" class="st42" d="M-133.7-57c-0.4-0.2-1-0.1-1.2-0.7c-0.1-0.5,0.4-0.6,0.7-0.8c2.3-1.3,4.5-2.6,6.8-3.9
			c0.3-0.2,0.7-0.4,1.1-0.4c0.5,0,1,0.1,1.2,0.5c0.2,0.6-0.4,0.7-0.7,0.9c-2.2,1.3-4.4,2.5-6.6,3.8C-132.8-57.3-133.3-57.2-133.7-57
			z"/>
		<path id="XMLID_111_" class="st43" d="M-57.2-31.1c-0.5-0.8,0.1-1.8-0.4-2.6c0.2-0.3,0.4-0.6,0.5,0.1
			C-57.1-32.8-57.2-32-57.2-31.1z"/>
		<path id="XMLID_106_" class="st44" d="M-83.2-44c-6.4,3.7-12.5,7.2-18.7,10.8c-2.1,1.2-2.1,1.2-3.9-0.4c-1-0.9-1.9-1.8-2.6-2.9
			c-0.6-1-0.9-2-0.5-3.1c0.6-1.6,1.1-1.9,2.8-1.7c1.5,0.2,3.1,0.3,4.9,0.5c-1.2-1.2-1.9-2.6-3.9-2.3c0.7-0.8,1.5-1.1,2.2-1.5
			c0.2-0.1,0.4-0.1,0.5,0.1c0.8,1.7,2.7,1.2,4.1,1.9c-0.3-0.8-0.5-1.7-0.9-2.5c-0.4-0.9-0.1-1.2,0.8-1.4c2.8-0.6,5.6-0.6,8.4,0.1
			C-87.8-45.8-85.6-45.1-83.2-44z"/>
		<path id="XMLID_105_" class="st44" d="M-109.5-43.1c-2.1-0.1-4.2-0.4-5.9-1.9c-1.7-1.5-1.7-3.2,0.1-4.6c1.9-1.5,4.1-1.8,6.4-1.7
			c2,0.1,3.9,0.5,5.4,1.9c1.5,1.4,1.5,2.8,0,4.2C-105.2-43.5-107.3-43.3-109.5-43.1z"/>
	</g>
	<g id="XMLID_4_">
		<path id="XMLID_144_" class="st45" d="M373-29.8c-1.1-2.2-2.9-2.8-5.2-2.4c-14.6,2.5-29.3,4.9-43.9,7.6c-4.5,0.8-7.6,3.8-9.2,8.1
			c-7.7,21.1-15.5,42.1-23.2,63.2c-2.6,7.2-5.3,14.4-8,21.6c-0.9,2.4-1,4.5,1,6.4c1.8,1.7,2.9,4,5,5.5c-0.1-1.4-1.3-2.1-2-3.1
			c-0.4-0.6-1-1.1-1.5-1.9c6.5-0.7,12.7-2,19-3.1c8.7-1.6,17.5-3,26.2-4.6c4.8-0.9,8.4-3.7,10.1-8.4c8.6-23.4,17.2-46.8,25.8-70.2
			c1.8-4.9,3.8-9.8,5.6-14.8C373.1-27.2,373.4-28.5,373-29.8z"/>
		<path id="XMLID_143_" class="st46" d="M373-29.8c-0.6,4.6-2.8,8.6-4.3,12.9c-3,8.1-5.9,16.1-8.9,24.2c-3.1,8.3-6.1,16.7-9.2,25
			c-2.7,7.3-5.3,14.5-8,21.8c-1,2.6-1.5,5.4-3.3,7.8c-2.8,3.7-6.6,5.1-11,5.7c-8.1,1.2-16.3,2.6-24.4,4.2
			c-5.4,1.1-10.9,1.9-16.3,2.8c-0.8,0.1-1.6-0.1-2.8-0.1c1.7,2.1,3.2,3.9,4.7,5.7c1.2,0.8,2.4,0.6,3.7,0.4
			c14.5-2.5,28.9-4.9,43.4-7.4c4.4-0.8,7.7-3.5,9.2-7.7c10.6-28.6,21-57.2,31.5-85.7c0.8-2.1,0.8-4-1-5.7
			C375.1-27.2,374.1-28.6,373-29.8z"/>
		<path id="XMLID_110_" class="st47" d="M318.5-14.9c-0.8,0.7-1.3,1.6-1.7,2.6c-8.5,23.1-17,46.3-25.5,69.4
			c-0.2,0.4-0.3,0.9-0.5,1.3c-0.6,1.9-0.1,2.6,2,2.3c3.5-0.5,6.9-1.2,10.4-1.8c10.8-1.8,21.6-3.7,32.4-5.5c2.6-0.4,4.1-1.7,5-4.1
			c8.4-23.1,16.9-46.1,25.4-69.1c1.4-3.8,1.1-4.2-2.9-3.5c-13.9,2.4-27.8,4.7-41.7,7.1C320.3-16,319.3-15.6,318.5-14.9z"/>
		<path id="XMLID_109_" class="st48" d="M318.2,65.7c0.9-1,1.9-1.9,2.1-3.4c0.2-1.3-0.4-2.4-1.7-2.2c-3.9,0.5-8,0.4-11.5,2.6
			c-1.4,0.8-2.4,2.1-2.8,3.8c-0.2,1.2,0.2,2.3,1.5,2.2c4.1-0.4,8.3-0.5,12-2.7C318,65.9,318.1,65.7,318.2,65.7z"/>
		<path id="XMLID_108_" class="st49" d="M351.4-24.1c0.4-0.6,1.1-1.1,0.8-1.8c-0.3-0.9-1.2-0.5-1.8-0.4c-3.7,0.6-7.4,1.3-11.1,1.9
			c-1.1,0.2-2.1,0.6-2.7,1.6c-0.4,0.8-0.3,1.5,0.7,1.4c4.4-0.7,8.9-1.3,13.3-2.4C350.9-23.8,351.1-24,351.4-24.1z"/>
		<path id="XMLID_104_" class="st50" d="M329.8,19.6c-0.5-3.2-0.3-4,1.8-6.1c-1.4-0.2-2.5,0.2-3.7,0.4c-0.4,0.1-0.6,0.3-0.5,0.7
			c0.6,2.4-1.5,3.7-2.5,5.4c-0.4,0.6-0.7-0.1-0.9-0.5c-0.4-1-0.8-1.9-1-2.9c-0.3-1.1-0.8-1.1-1.8-0.7c-3,1.4-5.7,3.4-7.9,5.8
			c-3,3.3-5.2,7.2-7.4,11.5c3.7-0.6,7.1-1.2,10.5-1.8c7.3-1.2,14.6-2.5,21.9-3.7c2.6-0.4,2.5-0.4,3-3.1c0.4-2.2,0.7-4.5,0.4-6.7
			c-0.3-2.6-2.2-4.4-4.7-4.8c-1-0.1-1.5,0.5-2,1.1C333.2,15.9,331.6,17.7,329.8,19.6z"/>
		<path id="XMLID_103_" class="st50" d="M328.6,0.3c-2,1.9-4,4.1-4.7,7.2c-0.7,3.2,1.1,5.4,4.3,5.4c3.6,0,6.4-1.8,8.9-4
			c2.1-1.8,3.8-4,4.3-6.9c0.6-3.2-1.1-5.4-4.4-5.3C334.5-3.3,331.4-2,328.6,0.3z"/>
	</g>
	<g id="XMLID_3_">
		<path id="XMLID_218_" class="st51" d="M-204.1,127.4c0.7-0.4,1.7-0.4,2.4,0c0.2,0.1,0.3,0.2,0.4,0.3c0.3-0.4,0.1-0.8-0.4-1.1
			c-0.7-0.4-1.7-0.4-2.4,0c-0.5,0.3-0.6,0.7-0.4,1.1C-204.4,127.6-204.3,127.5-204.1,127.4"/>
		<path id="XMLID_217_" class="st51" d="M-211.6,129.1C-211.6,129.1-211.7,129.1-211.6,129.1c-0.2-0.1-0.2-0.2-0.3-0.2
			c0,0-0.1-0.1-0.1-0.1c-0.1-0.1-0.1-0.1-0.2-0.2c0,0-0.1-0.1-0.1-0.1c0-0.1-0.1-0.1-0.1-0.2c0,0,0-0.1-0.1-0.1
			c0-0.1-0.1-0.1-0.1-0.2c0,0,0-0.1-0.1-0.1c0,0,0-0.1-0.1-0.1c0,0,0-0.1,0-0.1c0,0,0-0.1,0-0.1c0,0,0-0.1,0-0.1c0,0,0-0.1,0-0.1
			c0,0,0,0,0,0c0,0.5,0,1,0,1.4c0,0.7,0.5,1.5,1.5,2l0-1.4C-211.4,129.3-211.5,129.2-211.6,129.1"/>
		<path id="XMLID_216_" class="st52" d="M-186.3,143.9C-186.3,143.8-186.3,143.8-186.3,143.9l-7.6-4.5l-17.4-10l0,1.4l25,14.4
			L-186.3,143.9C-186.3,143.9-186.3,143.9-186.3,143.9"/>
		<path id="XMLID_212_" class="st53" d="M-212.7,127.6c0,0,0,0.1,0,0.1c0,0,0,0.1,0,0.1c0,0.1,0,0.1,0.1,0.1c0,0,0,0.1,0.1,0.1
			c0,0.1,0.1,0.1,0.1,0.2c0,0,0,0.1,0.1,0.1c0,0.1,0.1,0.1,0.1,0.2c0,0,0.1,0.1,0.1,0.1c0,0.1,0.1,0.1,0.2,0.2c0,0,0.1,0.1,0.1,0.1
			c0.1,0.1,0.1,0.1,0.2,0.2c0,0,0.1,0,0.1,0.1c0.1,0.1,0.2,0.1,0.3,0.2l17.4,10l7.6,4.4c0-0.7,0.5-1.4,1.4-1.9l9.5-5.5l-24-13.9
			c-1.9-1.1-5.1-1.1-7,0l-4.9,2.8c-1,0.6-1.4,1.3-1.4,2c0,0,0,0.1,0,0.1C-212.7,127.5-212.7,127.6-212.7,127.6 M-198.9,129.6
			c0.7-0.4,1.7-0.4,2.4,0c0.7,0.4,0.7,1,0,1.4c-0.7,0.4-1.7,0.4-2.4,0C-199.6,130.6-199.6,130-198.9,129.6 M-204.1,126.6
			c0.7-0.4,1.7-0.4,2.4,0c0.7,0.4,0.7,1,0,1.4c-0.7,0.4-1.7,0.4-2.4,0C-204.8,127.6-204.8,127-204.1,126.6"/>
		<path id="XMLID_211_" class="st53" d="M-212.6,128c0,0,0-0.1-0.1-0.1C-212.6,127.9-212.6,128-212.6,128"/>
		<path id="XMLID_210_" class="st53" d="M-212,128.8c-0.1-0.1-0.1-0.1-0.2-0.2C-212.1,128.7-212.1,128.8-212,128.8"/>
		<path id="XMLID_209_" class="st53" d="M-212.7,127.8c0,0,0-0.1,0-0.1C-212.7,127.7-212.7,127.7-212.7,127.8"/>
		<path id="XMLID_208_" class="st53" d="M-211.7,129.1c-0.1-0.1-0.1-0.1-0.2-0.2C-211.8,129-211.8,129-211.7,129.1"/>
		<path id="XMLID_207_" class="st53" d="M-212.2,128.6c0-0.1-0.1-0.1-0.1-0.2C-212.3,128.5-212.3,128.5-212.2,128.6"/>
		<path id="XMLID_206_" class="st53" d="M-212.4,128.3c0,0-0.1-0.1-0.1-0.1C-212.5,128.2-212.5,128.3-212.4,128.3"/>
		<path id="XMLID_205_" class="st53" d="M-211.6,129.1c0.1,0.1,0.2,0.1,0.3,0.2C-211.4,129.3-211.5,129.2-211.6,129.1"/>
		<path id="XMLID_204_" class="st53" d="M-212.7,127.5c0,0,0-0.1,0-0.1C-212.7,127.4-212.7,127.4-212.7,127.5"/>
		<path id="XMLID_203_" class="st53" d="M-211.3,129.4l17.4,10L-211.3,129.4z"/>
		<path id="XMLID_202_" class="st51" d="M-198.9,130.3c0.7-0.4,1.7-0.4,2.4,0c0.2,0.1,0.3,0.2,0.4,0.3c0.3-0.4,0.1-0.8-0.4-1.1
			c-0.7-0.4-1.7-0.4-2.4,0c-0.5,0.3-0.6,0.7-0.4,1.1C-199.2,130.5-199.1,130.4-198.9,130.3"/>
		<path id="XMLID_201_" class="st54" d="M-187.3,145.3C-187.3,145.3-187.3,145.3-187.3,145.3C-187.3,145.3-187.3,145.3-187.3,145.3"
			/>
		<g id="XMLID_198_">
			<defs>
				<path id="XMLID_199_" d="M-188.3,148.1c0,0.7,0.5,1.5,1.5,2l0-4.9c-1-0.6-1.5-1.3-1.5-2L-188.3,148.1z"/>
			</defs>
			<clipPath id="XMLID_320_">
				<use xlink:href="#XMLID_199_"  style="overflow:visible;"/>
			</clipPath>
			<path id="XMLID_200_" class="st55" d="M-186.8,145.2l0,4.9c-1-0.6-1.5-1.3-1.5-2l0-4.9C-188.3,143.9-187.8,144.7-186.8,145.2"/>
		</g>
		<polygon id="XMLID_197_" class="st52" points="-170.6,154.6 -170.6,159.4 -187,150 -187,145.1 		"/>
		<path id="XMLID_196_" class="st52" d="M-163.7,154.5l0,4.9c-0.9,0.6-2.3,0.8-3.5,0.8l0-4.9C-166,155.4-164.6,155.1-163.7,154.5"/>
		<path id="XMLID_195_" class="st52" d="M-167.1,155.4l0,4.9c-1.3,0-2.6-0.3-3.6-0.8l0-4.9C-169.7,155.1-168.4,155.4-167.1,155.4"/>
		<g id="XMLID_191_">
			<defs>
				<path id="XMLID_192_" d="M-151.9,147.7l0,4.9c1-0.6,1.4-1.3,1.4-2c0-1.6,0-3.3,0-4.9C-150.5,146.4-151,147.1-151.9,147.7z"/>
			</defs>
			<clipPath id="XMLID_321_">
				<use xlink:href="#XMLID_192_"  style="overflow:visible;"/>
			</clipPath>
			<path id="XMLID_194_" class="st56" d="M-150.5,145.7l0,4.9c0,0.4-0.1,0.8-0.4,1.1l0-4.9C-150.6,146.4-150.5,146-150.5,145.7"/>
			<path id="XMLID_193_" class="st56" d="M-150.9,146.8l0,4.9c-0.2,0.3-0.6,0.6-1,0.9l0-4.9C-151.5,147.4-151.1,147.1-150.9,146.8"
				/>
		</g>
		<polygon id="XMLID_190_" class="st57" points="-151.9,147.7 -151.9,152.6 -163.7,159.4 -163.7,154.5 		"/>
		<path id="XMLID_189_" class="st58" d="M-151.9,143.6c1.9,1.1,1.9,2.9,0,4.1l-11.8,6.9c-1.9,1.1-5.1,1.1-7,0l-16.1-9.3
			c-1.9-1.1-1.9-2.9,0-4.1l11.8-6.8c1.9-1.1,5.1-1.1,7,0L-151.9,143.6z"/>
		<path id="XMLID_188_" class="st6" d="M-167.2,154.1c-1.1,0-2.1-0.2-2.9-0.7l-16.1-9.3c-0.5-0.3-0.8-0.7-0.8-1
			c0-0.3,0.3-0.6,0.8-0.9l11.8-6.8c0.7-0.4,1.8-0.7,2.9-0.7c1.1,0,2.1,0.2,2.9,0.7l16.1,9.3c0.5,0.3,0.8,0.7,0.8,1
			c0,0.3-0.3,0.6-0.8,0.9l-11.8,6.8C-165.1,153.9-166.1,154.1-167.2,154.1"/>
		<g id="XMLID_147_">
			<defs>
				<path id="XMLID_184_" d="M-125.8,169.1l0,1.4c1-0.6,1.4-1.3,1.4-2l0-1.4C-124.3,167.8-124.8,168.6-125.8,169.1z"/>
			</defs>
			<clipPath id="XMLID_322_">
				<use xlink:href="#XMLID_184_"  style="overflow:visible;"/>
			</clipPath>
			<path id="XMLID_187_" class="st59" d="M-124.3,167.1l0,1.4c0,0.4-0.1,0.8-0.4,1.1l0-1.4C-124.5,167.9-124.3,167.5-124.3,167.1"/>
			<path id="XMLID_186_" class="st59" d="M-124.7,168.2l0,1.4c-0.2,0.3-0.6,0.6-1,0.9l0-1.4C-125.3,168.9-125,168.6-124.7,168.2"/>
		</g>
		<polygon id="XMLID_146_" class="st57" points="-125.8,169.1 -125.8,170.5 -130.6,173.4 -130.6,172 		"/>
		<polygon id="XMLID_139_" class="st52" points="-137.6,172 -137.6,173.4 -163.7,158.3 -163.7,156.9 		"/>
		<g id="XMLID_135_">
			<defs>
				<path id="XMLID_136_" d="M-137.6,172l0,1.4c1.9,1.1,5.1,1.1,7,0l0-1.4C-132.6,173.1-135.7,173.1-137.6,172z"/>
			</defs>
			<clipPath id="XMLID_323_">
				<use xlink:href="#XMLID_136_"  style="overflow:visible;"/>
			</clipPath>
			<path id="XMLID_138_" class="st60" d="M-130.6,172l0,1.4c-0.9,0.6-2.2,0.8-3.4,0.8l0-1.4C-132.8,172.8-131.6,172.5-130.6,172"/>
			<path id="XMLID_137_" class="st60" d="M-134.1,172.8l0,1.4c-1.3,0-2.6-0.3-3.6-0.8l0-1.4C-136.7,172.5-135.4,172.8-134.1,172.8"
				/>
		</g>
		<path id="XMLID_131_" class="st53" d="M-125.8,165.1l-25.9-15l-11.9,6.8l26,15c1.9,1.1,5.1,1.1,7,0l4.9-2.8
			C-123.8,168-123.8,166.2-125.8,165.1"/>
		<path id="XMLID_123_" class="st6" d="M-160.9,141.3c0.8,0.4,0.8,1.1,0,1.6l-12,7c-0.8,0.4-2,0.4-2.7,0l-4.4-2.5
			c-0.8-0.4-0.8-1.1,0-1.6l12-7c0.8-0.4,2-0.4,2.7,0L-160.9,141.3z"/>
		<path id="XMLID_119_" class="st61" d="M-178.6,145.9l2.3-1.3c0.7-0.4,1.8-0.8,3.3,0c1.7,1,0.9,1.6,0.1,1.9c-0.3,0.2-1,0.5-1.1,0.5
			l1.9,1.1l-1.4,0.8L-178.6,145.9z M-174.2,146c0.3-0.2,0.2-0.3-0.2-0.5c-0.4-0.2-0.6-0.2-0.9-0.1l-0.8,0.5l1.1,0.6L-174.2,146z"/>
		<path id="XMLID_116_" class="st61" d="M-173.3,142.9l1.6-0.9l6.8,2.1l-1.4,0.8l-1.2-0.3l-1.4,0.8l0.6,0.7l-1.4,0.8L-173.3,142.9z
			 M-169,144l-1.8-0.6l1,1.1L-169,144z"/>
		<polygon id="XMLID_115_" class="st61" points="-169.4,140.6 -166.3,141.5 -167.9,139.7 -166.3,138.9 -164.2,142 -162.8,142.8 
			-164.2,143.6 -165.6,142.8 -170.9,141.5 		"/>
	</g>
	<g id="XMLID_220_">
		<path id="XMLID_318_" class="st62" d="M160.8,12.8l-3-1.6c-2.8,1.5-5.1,5.1-5.1,8.1l3,1.6C155.7,18,158,14.3,160.8,12.8"/>
		<path id="XMLID_317_" class="st63" d="M167.9,2.9l-3-1.6c-0.7-0.4-1.6-0.3-2.7,0.2l3,1.6C166.3,2.5,167.2,2.5,167.9,2.9"/>
		<polygon id="XMLID_316_" class="st63" points="139.5,20.8 136.4,19.1 136.5,33.8 139.5,35.4 		"/>
		<polygon id="XMLID_315_" class="st63" points="165.2,3.1 162.2,1.5 140.2,13.2 143.2,14.8 		"/>
		<path id="XMLID_314_" class="st63" d="M143.2,14.8l-3-1.6c-2.1,1.1-3.7,3.8-3.7,5.9l3,1.6C139.5,18.6,141.1,15.9,143.2,14.8"/>
		<path id="XMLID_313_" class="st63" d="M139.5,35.4l-3-1.6c0,1.1,0.4,1.8,1.1,2.2l3,1.6C139.9,37.2,139.5,36.5,139.5,35.4"/>
		<path id="XMLID_312_" class="st64" d="M163.2,14.3l-3-1.6c0.4,0.2,0.7,0.7,0.7,1.4c0,1.4-1.1,3.1-2.4,3.8l3,1.6
			c1.3-0.7,2.4-2.4,2.4-3.8C163.9,15,163.7,14.5,163.2,14.3"/>
		<path id="XMLID_311_" class="st65" d="M163.2,14.3l-3-1.6c-0.4-0.2-1-0.2-1.7,0.2l3,1.6C162.2,14.1,162.8,14.1,163.2,14.3"/>
		<path id="XMLID_310_" class="st65" d="M161.5,14.4l-3-1.6c-1.3,0.7-2.4,2.4-2.4,3.8c0,0.7,0.3,1.2,0.7,1.4l3,1.6
			c-0.4-0.2-0.7-0.7-0.7-1.4C159.2,16.8,160.2,15.1,161.5,14.4"/>
		<path id="XMLID_309_" class="st64" d="M155.9,18.2l-3-1.6c0.4,0.2,0.7,0.7,0.7,1.4c0,1.4-1.1,3.1-2.4,3.8l3,1.6
			c1.3-0.7,2.4-2.4,2.4-3.8C156.6,18.9,156.4,18.4,155.9,18.2"/>
		<path id="XMLID_308_" class="st65" d="M155.9,18.2l-3-1.6c-0.4-0.2-1-0.2-1.7,0.2l3,1.6C154.9,18,155.5,17.9,155.9,18.2"/>
		<path id="XMLID_307_" class="st65" d="M154.2,18.3l-3-1.6c-1.3,0.7-2.4,2.4-2.4,3.8c0,0.7,0.3,1.2,0.7,1.4l3,1.6
			c-0.4-0.2-0.7-0.7-0.7-1.4C151.9,20.7,152.9,19,154.2,18.3"/>
		<path id="XMLID_306_" class="st66" d="M154.2,18.3c-1.3,0.7-2.4,2.4-2.4,3.8c0,1.4,1.1,2,2.4,1.3c1.3-0.7,2.4-2.4,2.4-3.8
			C156.6,18.2,155.5,17.6,154.2,18.3"/>
		<path id="XMLID_305_" class="st64" d="M148.6,22.1l-3-1.6c0.4,0.2,0.7,0.7,0.7,1.4c0,1.4-1.1,3.1-2.4,3.8l3,1.6
			c1.3-0.7,2.4-2.4,2.4-3.8C149.3,22.8,149,22.3,148.6,22.1"/>
		<path id="XMLID_304_" class="st65" d="M148.6,22.1l-3-1.6c-0.4-0.2-1-0.2-1.7,0.2l3,1.6C147.6,21.9,148.2,21.8,148.6,22.1"/>
		<path id="XMLID_303_" class="st65" d="M146.9,22.2l-3-1.6c-1.3,0.7-2.4,2.4-2.4,3.8c0,0.7,0.3,1.2,0.7,1.4l3,1.6
			c-0.4-0.2-0.7-0.7-0.7-1.4C144.6,24.6,145.6,22.9,146.9,22.2"/>
		<path id="XMLID_302_" class="st66" d="M146.9,22.2c-1.3,0.7-2.4,2.4-2.4,3.8c0,1.4,1.1,2,2.4,1.3c1.3-0.7,2.4-2.4,2.4-3.8
			C149.3,22.1,148.2,21.5,146.9,22.2"/>
		<path id="XMLID_297_" class="st67" d="M165.2,3.1c2.1-1.1,3.7-0.2,3.8,2l0,14.6c0,2.2-1.7,4.9-3.7,6l-8.2,4.4
			c-0.1,0.1-0.1,0.2-0.3,0.4l-0.2,9c-0.2,0.2-8.9-4.3-8.9-4.3l-4.4,2.4c-2.1,1.1-3.7,0.2-3.8-2l0-14.6c0-2.2,1.7-4.9,3.7-5.9
			L165.2,3.1z M161.6,19.5c1.3-0.7,2.4-2.4,2.4-3.8c0-1.4-1.1-2-2.4-1.3c-1.3,0.7-2.4,2.4-2.4,3.8C159.2,19.6,160.2,20.2,161.6,19.5
			 M154.3,23.4c1.3-0.7,2.4-2.4,2.4-3.8c0-1.4-1.1-2-2.4-1.3c-1.3,0.7-2.4,2.4-2.4,3.8C151.9,23.5,152.9,24.1,154.3,23.4
			 M146.9,27.3c1.3-0.7,2.4-2.4,2.4-3.8c0-1.4-1.1-2-2.4-1.3c-1.3,0.7-2.4,2.4-2.4,3.8C144.6,27.4,145.6,28,146.9,27.3"/>
		<path id="XMLID_296_" class="st66" d="M161.5,14.4c-1.3,0.7-2.4,2.4-2.4,3.8c0,1.4,1.1,1.9,2.4,1.3c1.3-0.7,2.4-2.4,2.4-3.8
			C163.9,14.3,162.9,13.7,161.5,14.4"/>
		<path id="XMLID_295_" class="st68" d="M115,71.1l2.5,1.5l0-1.7v0c0,0,0-0.1,0-0.1c0,0,0,0,0-0.1c0,0,0,0,0-0.1c0,0,0,0,0-0.1
			c0,0,0,0,0,0c0,0,0-0.1,0.1-0.1c0,0,0.1-0.1,0.2-0.1l3-1.7l0-0.5c0-0.5,0-1,0-1.5c0-0.1,0.1-0.2,0.2-0.3l4.1-2.3
			c0.3-0.1,0.7-0.1,0.9,0c0.1,0.1,0.2,0.2,0.2,0.3l0,1.2l5.7-3.2c0.5-0.3,1.2-0.3,1.7,0l23.8,14.1c0.1,0,0.1,0.1,0.2,0.1
			c0,0,0,0,0,0.1c0,0,0,0,0.1,0.1c0,0,0,0,0,0.1c0,0,0,0,0,0.1c0,0,0,0,0,0.1c0,0,0,0,0,0.1v0l0,2.9c0-0.2-0.1-0.4-0.3-0.5l0-1.9
			c0,0,0,0,0,0l0,2.9l-1.9,1.1c0.3,0.2,0.4,0.4,0.4,0.7l0,1.4l5.9-3.4c0.6-0.3,0.9-0.8,0.9-1.2l0,2.9c0,0.5-0.3,0.9-0.9,1.2l-14,7.9
			c-1.2,0.7-3.1,0.7-4.3,0L114.9,74c-0.6-0.3-0.9-0.8-0.9-1.2c0-1,0-1.9,0-2.9C114.1,70.3,114.4,70.8,115,71.1"/>
		<path id="XMLID_294_" class="st68" d="M121,66.4c-0.3,0.1-0.3,0.4,0,0.6c0.3,0.2,0.7,0.2,0.9,0l4.1-2.3c0.3-0.2,0.3-0.4,0-0.5
			c-0.3-0.2-0.7-0.2-0.9,0L121,66.4z"/>
		<path id="XMLID_293_" class="st68" d="M150.4,82.8c-0.7,0.4-0.7,1,0,1.4c0.7,0.4,1.8,0.4,2.5,0l2.5-1.4c0.7-0.4,0.7-1,0-1.4
			c-0.7-0.4-1.8-0.4-2.5,0L150.4,82.8z"/>
		<path id="XMLID_288_" class="st53" d="M115,71.1L143.5,88c1.2,0.7,3.1,0.7,4.3,0l14-7.9c1.2-0.7,1.2-1.8,0-2.5l-28.6-16.9
			c-1.2-0.7-3.1-0.7-4.3,0l-14,7.9C113.8,69.3,113.8,70.4,115,71.1 M126,64.1c0.3,0.2,0.3,0.4,0,0.5l-1.9,1.1l-1,0.6L122,67
			c-0.3,0.1-0.7,0.1-0.9,0c-0.3-0.2-0.3-0.4,0-0.6l4.1-2.3C125.4,64,125.8,64,126,64.1 M150.3,84.2c-0.7-0.4-0.7-1,0-1.4l2.5-1.4
			c0.7-0.4,1.8-0.4,2.5,0c0.7,0.4,0.7,1,0,1.4l-2.5,1.4C152.1,84.6,151,84.6,150.3,84.2 M117.8,71.4c-0.5-0.3-0.5-0.7,0-1l14.1-8
			c0.5-0.3,1.2-0.3,1.7,0l23.8,14.1c0.5,0.3,0.5,0.7,0,1l-14.1,8c-0.5,0.3-1.2,0.3-1.7,0L117.8,71.4z"/>
		<path id="XMLID_287_" class="st4" d="M117.8,71.4c-0.5-0.3-0.5-0.7,0-1l14.1-8c0.5-0.3,1.2-0.3,1.7,0l23.8,14.1
			c0.5,0.3,0.5,0.7,0,1l-14.1,8c-0.5,0.3-1.2,0.3-1.7,0L117.8,71.4z"/>
		<path id="XMLID_286_" class="st69" d="M137.2,73.9c1.5-0.9,1.5-2.3,0-3.1c-1.5-0.9-3.9-0.9-5.4,0s-1.5,2.3,0,3.1
			C133.3,74.8,135.7,74.8,137.2,73.9"/>
		<path id="XMLID_285_" class="st69" d="M139.9,72.9l0.7,2l-2.1-0.6l-0.3-0.6l-0.7,0.4l0,0l-0.7,0.4l1.1,0.2l1.1,1.2l-3.5-0.4
			c-0.8,0.8-1.2,1.8-0.2,3c0.7,0.8,1.5,1.5,2.2,2.1l11.1-6.4c-1-0.4-2.2-0.9-3.6-1.3C143,72.3,141.2,72.5,139.9,72.9"/>
		<polygon id="XMLID_284_" class="st68" points="154.7,59.3 154.7,60.3 153,59.4 153,58.3 		"/>
		<polygon id="XMLID_283_" class="st68" points="157.9,61.2 157.9,62.2 156.3,61.3 156.3,60.2 		"/>
		<polygon id="XMLID_282_" class="st68" points="159.7,57.3 159.7,58.4 157.9,62.2 157.9,61.2 		"/>
		<polygon id="XMLID_281_" class="st68" points="156.3,60.2 156.3,61.3 148.2,65.9 148.2,64.9 		"/>
		<g id="XMLID_271_">
			<defs>
				<path id="XMLID_272_" d="M146.2,65.5c0,0.2,0.1,0.3,0.3,0.5c0.5,0.3,1.2,0.3,1.6,0l0-1c-0.4,0.3-1.2,0.3-1.6,0
					c-0.2-0.1-0.3-0.3-0.3-0.5C146.3,64.8,146.2,65.1,146.2,65.5z"/>
			</defs>
			<clipPath id="XMLID_324_">
				<use xlink:href="#XMLID_272_"  style="overflow:visible;"/>
			</clipPath>
			<path id="XMLID_280_" class="st70" d="M148.2,64.9l0,1c0,0-0.1,0-0.1,0.1l0-1C148.1,65,148.2,64.9,148.2,64.9"/>
			<path id="XMLID_279_" class="st70" d="M148.1,65l0,1c-0.2,0.1-0.3,0.1-0.5,0.1l0-1C147.8,65.1,147.9,65,148.1,65"/>
			<path id="XMLID_278_" class="st70" d="M147.6,65.1l0,1c-0.1,0-0.2,0-0.3,0l0-1C147.4,65.1,147.5,65.1,147.6,65.1"/>
			<path id="XMLID_277_" class="st70" d="M147.3,65.1l0,1c-0.1,0-0.1,0-0.2,0l0-1C147.2,65.1,147.2,65.1,147.3,65.1"/>
			<path id="XMLID_276_" class="st70" d="M147.1,65.1l0,1c-0.1,0-0.1,0-0.2,0l0-1C147,65.1,147.1,65.1,147.1,65.1"/>
			<path id="XMLID_275_" class="st70" d="M146.9,65.1l0,1c-0.1,0-0.1,0-0.2-0.1l0-1C146.8,65,146.9,65,146.9,65.1"/>
			<path id="XMLID_274_" class="st70" d="M146.8,65l0,1c-0.1,0-0.1,0-0.2-0.1l0-1C146.7,65,146.7,65,146.8,65"/>
			<path id="XMLID_273_" class="st70" d="M146.6,64.9l0,1c0,0,0,0,0,0c-0.2-0.1-0.3-0.3-0.3-0.5l0-1
				C146.3,64.6,146.4,64.8,146.6,64.9C146.6,64.9,146.6,64.9,146.6,64.9"/>
		</g>
		<path id="XMLID_270_" class="st53" d="M159.7,57.3l-1.8,3.9l-1.6-0.9l-8.1,4.7c-0.4,0.3-1.2,0.3-1.6,0c-0.5-0.3-0.5-0.7,0-0.9
			l8.1-4.7l-1.6-0.9L159.7,57.3z"/>
		<g id="XMLID_262_">
			<defs>
				<path id="XMLID_263_" d="M165.6,61.7l0,1c0.2-0.1,0.3-0.3,0.3-0.5c0-0.3,0-0.7,0-1C166,61.4,165.9,61.6,165.6,61.7z"/>
			</defs>
			<clipPath id="XMLID_325_">
				<use xlink:href="#XMLID_263_"  style="overflow:visible;"/>
			</clipPath>
			<rect id="XMLID_269_" x="166" y="61.2" class="st71" width="0" height="1"/>
			<path id="XMLID_268_" class="st71" d="M166,61.2l0,1c0,0,0,0.1,0,0.1l0-1C166,61.3,166,61.3,166,61.2"/>
			<path id="XMLID_267_" class="st71" d="M165.9,61.4l0,1c0,0,0,0.1-0.1,0.1l0-1C165.9,61.4,165.9,61.4,165.9,61.4"/>
			<path id="XMLID_266_" class="st71" d="M165.9,61.5l0,1c0,0,0,0.1-0.1,0.1L165.9,61.5C165.9,61.5,165.9,61.5,165.9,61.5"/>
			<path id="XMLID_265_" class="st71" d="M165.8,61.6l0,1c0,0-0.1,0.1-0.1,0.1l0-1C165.8,61.6,165.8,61.6,165.8,61.6"/>
			<path id="XMLID_264_" class="st71" d="M165.7,61.6l0,1c0,0-0.1,0-0.1,0L165.7,61.6C165.7,61.7,165.7,61.7,165.7,61.6"/>
		</g>
		<polygon id="XMLID_261_" class="st68" points="165.6,61.7 165.6,62.7 157.5,67.4 157.5,66.4 		"/>
		<polygon id="XMLID_260_" class="st68" points="159.2,67.3 159.2,68.4 152.5,69.4 152.5,68.3 		"/>
		<path id="XMLID_259_" class="st53" d="M165.6,60.8c0.5,0.3,0.5,0.7,0,0.9l-8.1,4.7l1.6,0.9l-6.7,1l1.8-3.9l1.6,0.9l8.1-4.7
			C164.4,60.5,165.2,60.5,165.6,60.8"/>
		<path id="XMLID_258_" class="st53" d="M165.6,60.8c0.5,0.3,0.5,0.7,0,0.9l-8.1,4.7l1.6,0.9l-6.7,1l1.8-3.9l1.6,0.9l8.1-4.7
			C164.4,60.5,165.2,60.5,165.6,60.8"/>
		<path id="XMLID_257_" class="st68" d="M203.8,55.6c0,0.5-0.3,0.9-0.9,1.3l-6.2,3.6l0-1.4c0-0.2-0.2-0.5-0.4-0.7l2.2-1.3
			c0.2-0.1,0.4-0.3,0.4-0.5l0-2.9c0-0.2-0.1-0.4-0.4-0.5l-24.1-14c-0.5-0.3-1.3-0.3-1.7,0l-5.7,3.3c0-0.4,0-0.8,0-1.2
			c0-0.1-0.1-0.2-0.2-0.3c-0.3-0.2-1,0-1,0l-2,1.2l-2.1,1.2c-0.1,0.1-0.2,0.2-0.2,0.3l0,2l-3,1.7c-0.2,0.1-0.4,0.3-0.4,0.5l0,1.7
			l-2.5-1.5c-0.6-0.3-0.9-0.8-0.9-1.2c0,1,0,1.9,0,2.9c0,0.5,0.3,0.9,0.9,1.2l29,16.8c1.2,0.7,3.1,0.7,4.3,0l14.1-8.1
			c0.6-0.3,0.9-0.8,0.9-1.3C203.8,57.5,203.8,56.6,203.8,55.6"/>
		<path id="XMLID_256_" class="st67" d="M198.4,53.2l-24.1-14c-0.5-0.3-1.3-0.3-1.7,0l-14.2,8.2c-0.5,0.3-0.5,0.7,0,1l24.1,14
			c0.5,0.3,1.2,0.3,1.7,0l14.2-8.2C198.9,53.9,198.9,53.5,198.4,53.2"/>
		<path id="XMLID_255_" class="st69" d="M176.8,49.4c1.5-0.9,1.5-2.3,0-3.1c-1.5-0.9-3.9-0.9-5.4,0c-1.5,0.9-1.5,2.3,0,3.1
			C172.9,50.2,175.3,50.2,176.8,49.4"/>
		<path id="XMLID_254_" class="st69" d="M179.4,48.4l0.7,2l-2.1-0.6l-0.3-0.6l-0.7,0.4l0,0l-0.7,0.4l1.1,0.2l1.1,1.2l-3.5-0.4
			c-0.8,0.8-1.2,1.8-0.2,3c0.7,0.8,1.5,1.5,2.2,2.1l11.1-6.4c-1-0.4-2.2-0.9-3.6-1.3C182.5,47.7,180.8,47.9,179.4,48.4"/>
		<path id="XMLID_253_" class="st68" d="M193.7,58.3c0.7-0.4,1.8-0.4,2.5,0c0.7,0.4,0.7,1,0,1.4l-2.5,1.5c-0.7,0.4-1.8,0.4-2.5,0
			c-0.7-0.4-0.7-1,0-1.4L193.7,58.3z"/>
		<path id="XMLID_248_" class="st53" d="M169.6,37.5c1.2-0.7,3.1-0.7,4.3,0l29,16.8c1.2,0.7,1.2,1.8,0,2.5L188.9,65
			c-1.2,0.7-3.1,0.7-4.3,0l-29-16.8c-1.2-0.7-1.2-1.8,0-2.5L169.6,37.5z M198.4,53.2l-13.7-7.9l-10.4-6.1c-0.5-0.3-1.3-0.3-1.7,0
			l-14.2,8.2c-0.5,0.3-0.5,0.7,0,1l24.1,14c0.5,0.3,1.2,0.3,1.7,0l14.2-8.2C198.9,53.9,198.9,53.5,198.4,53.2 M196.2,59.8
			c0.7-0.4,0.7-1,0-1.4c-0.7-0.4-1.8-0.4-2.5,0l-2.5,1.5c-0.7,0.4-0.7,1,0,1.4c0.7,0.4,2.5,0,2.5,0L196.2,59.8z M161.6,43.4
			c-0.3,0.2-0.3,0.4,0,0.6c0.3,0.2,0.7,0.2,1,0l4.1-2.4c0.3-0.2,0.3-0.4,0-0.6c-0.3-0.2-0.7-0.2-1,0L161.6,43.4z"/>
		<path id="XMLID_247_" class="st68" d="M165.7,41c0.3-0.1,0.7-0.1,1,0c0.3,0.2,0.3,0.4,0,0.6l-4.1,2.4c-0.3,0.2-0.7,0.2-1,0
			c-0.3-0.2-0.3-0.4,0-0.6L165.7,41z"/>
		<path id="XMLID_246_" class="st62" d="M153.3,60.6l-2.3-1.4c0,0,0,0,0,0L153.3,60.6C153.3,60.6,153.3,60.6,153.3,60.6"/>
		<path id="XMLID_245_" class="st62" d="M136.9,34.2l-2.3-1.4c-2.2,1.2-3.9,4.3-3.9,6.8l2.3,1.4C133,38.5,134.7,35.4,136.9,34.2"/>
		<path id="XMLID_244_" class="st5" d="M125.3,58.9l-2.3-1.4c-0.1,0.3-0.1,0.5,0,0.5l2.3,1.4C125.2,59.4,125.2,59.2,125.3,58.9"/>
		<polygon id="XMLID_243_" class="st5" points="126.8,52.8 124.4,51.4 122.9,57.6 125.3,58.9 		"/>
		<path id="XMLID_242_" class="st5" d="M142.4,25.8l-2.3-1.4c-0.5-0.3-1.3-0.3-2.1,0.2l2.3,1.4C141.1,25.6,141.8,25.5,142.4,25.8"/>
		<polygon id="XMLID_241_" class="st5" points="120.4,40.8 118.1,39.5 118.1,51.7 120.5,53.1 		"/>
		<polygon id="XMLID_240_" class="st5" points="140.3,26 138,24.7 121,34.5 123.3,35.8 		"/>
		<path id="XMLID_239_" class="st5" d="M123.3,35.8l-2.3-1.4c-1.6,0.9-2.9,3.2-2.9,5l2.3,1.4C120.4,39,121.7,36.8,123.3,35.8"/>
		<path id="XMLID_238_" class="st5" d="M120.5,53.1l-2.3-1.4c0,0.9,0.3,1.5,0.8,1.8l2.3,1.4C120.8,54.6,120.5,54,120.5,53.1"/>
		<path id="XMLID_237_" class="st64" d="M138.8,35.4l-2.3-1.4c0.3,0.2,0.5,0.6,0.5,1.2c0,1.2-0.8,2.6-1.8,3.2l2.3,1.4
			c1-0.6,1.8-2,1.8-3.2C139.3,36,139.1,35.6,138.8,35.4"/>
		<path id="XMLID_236_" class="st65" d="M138.8,35.4l-2.3-1.4c-0.3-0.2-0.8-0.2-1.3,0.1l2.3,1.4C138,35.2,138.4,35.2,138.8,35.4"/>
		<path id="XMLID_235_" class="st65" d="M137.5,35.5l-2.3-1.4c-1,0.6-1.8,2-1.8,3.2c0,0.6,0.2,1,0.5,1.2l2.3,1.4
			c-0.3-0.2-0.5-0.6-0.5-1.2C135.6,37.5,136.5,36.1,137.5,35.5"/>
		<path id="XMLID_234_" class="st64" d="M133.1,38.7l-2.3-1.4c0.3,0.2,0.5,0.6,0.5,1.2c0,1.2-0.8,2.6-1.8,3.2l2.3,1.4
			c1-0.6,1.8-2,1.8-3.2C133.7,39.3,133.5,38.8,133.1,38.7"/>
		<path id="XMLID_233_" class="st65" d="M133.1,38.7l-2.3-1.4c-0.3-0.2-0.8-0.2-1.3,0.1l2.3,1.4C132.3,38.5,132.8,38.5,133.1,38.7"
			/>
		<path id="XMLID_232_" class="st65" d="M131.8,38.8l-2.3-1.4c-1,0.6-1.8,2-1.8,3.2c0,0.6,0.2,1,0.5,1.2l2.3,1.4
			c-0.3-0.2-0.5-0.6-0.5-1.2C130,40.8,130.8,39.4,131.8,38.8"/>
		<path id="XMLID_231_" class="st66" d="M131.8,38.8c-1,0.6-1.8,2-1.8,3.2c0,1.2,0.8,1.6,1.8,1c1-0.6,1.8-2,1.8-3.2
			C133.7,38.7,132.8,38.2,131.8,38.8"/>
		<path id="XMLID_230_" class="st64" d="M127.5,41.9l-2.3-1.4c0.3,0.2,0.5,0.6,0.5,1.2c0,1.2-0.8,2.6-1.8,3.2l2.3,1.4
			c1-0.6,1.8-2,1.8-3.2C128,42.5,127.8,42.1,127.5,41.9"/>
		<path id="XMLID_229_" class="st65" d="M127.5,41.9l-2.3-1.4c-0.3-0.2-0.8-0.2-1.3,0.1l2.3,1.4C126.7,41.7,127.2,41.7,127.5,41.9"
			/>
		<path id="XMLID_228_" class="st65" d="M126.2,42l-2.3-1.4c-1,0.6-1.8,2-1.8,3.2c0,0.6,0.2,1,0.5,1.2l2.3,1.4
			c-0.3-0.2-0.5-0.6-0.5-1.2C124.4,44,125.2,42.6,126.2,42"/>
		<path id="XMLID_227_" class="st66" d="M126.2,42c-1,0.6-1.8,2-1.8,3.2c0,1.2,0.8,1.6,1.8,1c1-0.6,1.8-2,1.8-3.2
			C128,41.9,127.2,41.5,126.2,42"/>
		<path id="XMLID_222_" class="st4" d="M140.3,26c1.6-0.9,2.9-0.2,2.9,1.6l0,12.3c0,1.8-1.3,4.1-2.9,5l-6.4,3.7
			c0,0.1-0.1,0.2-0.2,0.3l-8.1,10.2c-0.1,0.2-0.2,0.3-0.3,0.3c-0.2,0.1-0.3-0.1-0.2-0.5l1.5-6.2l-3.4,2c-1.6,0.9-2.9,0.2-2.9-1.6
			l0-12.3c0-1.8,1.3-4.1,2.9-5L140.3,26z M137.5,39.8c1-0.6,1.8-2,1.8-3.2c0-1.2-0.8-1.6-1.8-1.1c-1,0.6-1.8,2-1.8,3.2
			C135.6,39.9,136.5,40.3,137.5,39.8 M131.8,43c1-0.6,1.8-2,1.8-3.2c0-1.2-0.8-1.6-1.8-1.1c-1,0.6-1.8,2-1.8,3.2
			C130,43.1,130.8,43.6,131.8,43 M126.2,46.3c1-0.6,1.8-2,1.8-3.2c0-1.2-0.8-1.6-1.8-1.1c-1,0.6-1.8,2-1.8,3.2
			C124.4,46.4,125.2,46.9,126.2,46.3"/>
		<path id="XMLID_221_" class="st66" d="M137.5,35.5c-1,0.6-1.8,2-1.8,3.2c0,1.2,0.8,1.6,1.8,1c1-0.6,1.8-2,1.8-3.2
			C139.3,35.4,138.5,34.9,137.5,35.5"/>
	</g>
</g>
</svg>
