<?xml version="1.0" encoding="utf-8"?>
<!-- Generator: Adobe Illustrator 19.0.0, SVG Export Plug-In . SVG Version: 6.00 Build 0)  -->
<svg version="1.1" xmlns="http://www.w3.org/2000/svg" xmlns:xlink="http://www.w3.org/1999/xlink" x="0px" y="0px"
	 viewBox="0 0 205 205" style="enable-background:new 0 0 205 205;" xml:space="preserve">
<style type="text/css">
	.st0{clip-path:url(#XMLID_43_);}
	.st1{fill:#F6C12C;}
	.st2{fill:#F8D55F;}
	.st3{fill:#ECEDEF;}
	.st4{fill:#F2A8B5;}
	.st5{fill:#E7576F;}
	.st6{fill:#F1A484;}
	.st7{fill:#E55782;}
	.st8{fill:#F8C7A9;}
	.st9{fill:#F1A485;}
	.st10{fill:#F8D9AA;}
	.st11{fill:#ED9425;}
	.st12{fill:#F1AED3;}
	.st13{fill:#D91D85;}
	.st14{fill:#6F020A;}
	.st15{fill:#530103;}
	.st16{fill:#8A030A;}
	.st17{fill:#A50613;}
	.st18{fill:#A34B47;}
	.st19{fill:#851F24;}
	.st20{fill:#F19484;}
	.st21{fill:#DA0E47;}
	.st22{fill:#EFA03E;}
	.st23{fill:#EFB09E;}
	.st24{fill:#E17670;}
	.st25{fill:#D91E84;}
	.st26{fill:#020101;}
	.st27{fill:#010101;}
	.st28{fill:#FBE9AB;}
	.st29{fill:none;stroke:#EAB618;stroke-width:3;stroke-miterlimit:10;}
	.st30{fill:#EA6154;}
	.st31{fill:#F3B22A;}
	.st32{fill:#EA9D2F;}
	.st33{fill:#F29525;}
	.st34{fill:#C4463B;}
	.st35{fill:#A9362E;}
	.st36{fill:#EA9E31;}
	.st37{fill:#F2B852;}
	.st38{fill:#CE6D65;}
	.st39{fill:#D5756C;}
	.st40{fill:#E2766C;}
	.st41{fill:#EEEEEE;}
	.st42{fill:#F3B742;}
	.st43{fill:#E2E3E5;}
	.st44{fill:#AEAEAE;}
	.st45{fill:#B1B1B1;}
	.st46{fill:#979797;}
	.st47{fill:#919191;}
	.st48{fill:#929292;}
	.st49{fill:#A5A5A5;}
	.st50{fill:#A2A2A2;}
	.st51{fill:#878787;}
	.st52{fill:#A3A3A3;}
	.st53{fill:#939393;}
	.st54{fill:#E3E2E4;}
	.st55{fill:#B3B5C8;}
	.st56{fill:#4990C7;}
	.st57{fill:#23295C;}
	.st58{fill:#242A5C;}
	.st59{fill:#ABADC0;}
	.st60{fill:#FCFDFD;}
	.st61{fill:#394E5E;}
	.st62{fill:#202F39;}
	.st63{fill:#85CEEF;}
	.st64{fill:#F7F8FB;}
	.st65{fill:#F5F7FA;}
	.st66{fill:#FCFEFD;}
</style>
<g id="Layer_2">
	<g id="XMLID_7_">
		<defs>
			<circle id="XMLID_6_" cx="102.5" cy="102.5" r="100"/>
		</defs>
		<clipPath id="XMLID_43_">
			<use xlink:href="#XMLID_6_"  style="overflow:visible;"/>
		</clipPath>
		<g id="XMLID_5_" class="st0">
			<path id="XMLID_204_" class="st1" d="M2.8,45.4c0.3-0.5,0.9-0.6,1.4-0.9c27.5-13.8,55-27.7,82.5-41.6c1.2-0.6,2-0.6,3.2,0
				c16.1,8.2,32.2,16.3,48.3,24.4c0.5,0.2,1.1,0.3,1.3,1c-0.5,0.7-1.2,0.9-1.9,1.3c-6,3-12.1,5.9-18,9C107.9,44.7,96,50.5,84.2,56.5
				c-4.4,2.3-8.8,4.4-13.2,6.8c-2.6,1.5-5.3,2.7-8,4.1c-3,1.3-5.7,3.1-8.8,4.2c-0.2,0-0.3,0-0.5,0c-4.3-1.9-8.5-4-12.7-6.2
				c-7-3.7-14.2-7.1-21.2-10.8C14.6,51.9,9.3,49.2,4,46.5c-0.4-0.2-0.8-0.4-1.1-0.7C2.8,45.7,2.7,45.5,2.8,45.4z"/>
			<path id="XMLID_203_" class="st2" d="M70.9,62.9c14-7.1,27.9-14.1,41.9-21.2c8.4-4.2,16.7-8.5,25.1-12.7c0.5-0.3,1.1-0.5,1.7-0.7
				c0,0.4,0.1,0.9,0.1,1.3c0,22.2,0,44.5,0,66.7c0,0.3,0,0.7,0,1c-0.3,0.5-0.7,0.8-1.3,1.1c-4.8,2.3-9.4,5-14.2,7.3
				c-0.5,0.3-1.1,0.6-1.7,0.4c-0.3-0.2-0.3-0.5-0.3-0.8c0-5.4-0.1-10.9,0-16.3c0.1-10.7,0-21.3,0-32c0-2-0.1-2.1-1.9-1.2
				c-10.9,5.4-21.8,10.8-32.6,16.3c-4.7,2.4-9.4,4.8-14.1,7.2c-0.7,0.3-1.3,0.8-2.2,0.7c-0.2-0.1-0.3-0.3-0.4-0.5
				c-0.4-2.8-0.1-5.5-0.2-8.3C70.7,68.5,70.5,65.7,70.9,62.9z"/>
			<path id="XMLID_202_" class="st3" d="M122.6,262c5.5,2.8,11,5.7,16.8,8.6c-2.3,1.3-4.4,2.4-6.5,3.5
				c-10.8,5.4-21.6,10.7-32.3,16.2c-11.9,6.1-23.9,12-35.8,18.1c-3.1,1.6-6.1,3.1-9.2,4.7c-1.1,0.6-2,0.6-3.1,0
				c-4.8-2.8-9.9-5-14.8-7.6c-0.9-0.5-1.7-0.5-2.6,0c-4.6,2.4-9.2,4.6-13.8,7c-0.8,0.4-1.5,0.6-2.3,0.2c-5-2.6-10.1-5.1-15.2-7.6
				c-0.2-0.1-0.5-0.2-0.6-0.6c5.3-2.7,10.6-5.5,16.1-8.3c-5.5-2.8-10.8-5.4-16.6-8.3c11.7-5.9,23-11.5,34.2-17.2
				c0.6,0.5,0.5,1.3,0.5,2c0,2,0,3.9,0,5.9c-0.1,2.2,0,4.4-0.1,6.6c-0.1,1.4,0.5,2.2,1.8,2.8c10.5,5.2,20.9,10.4,31.4,15.6
				c0.3,0.1,0.6,0.3,0.9,0.2c5.1-2.3,10.1-5,15.2-7.5c0.9-0.5,1.2-1.2,1.2-2.2c0-2.4,0-4.8-0.1-7.1c0-2,0-4.1,0-6.1
				c0-0.6,0-1.2,0.4-1.8c0.9-0.8,1.7-0.1,2.4,0.3c4.8,2.4,9.7,4.8,14.5,7.2c0.4,0.2,0.7,0.1,1.1-0.1c4.7-2.5,9.5-4.8,14.2-7.1
				c1.3-0.6,1.9-1.5,1.8-2.9c-0.1-2.3,0-4.5-0.1-6.8c0-1.9,0-3.7,0-5.6C122,263.3,122,262.5,122.6,262z"/>
			<path id="XMLID_201_" class="st4" d="M139.6,114.6c0.4,0.6,0.2,1.2,0.2,1.8c0,10.3,0,20.5,0,30.8c0,0.7,0.1,1.5-0.3,2.1
				c-0.4,0.5-0.9,0.8-1.5,1c-4.6,2.3-9.2,4.6-13.8,6.9c-0.6,0.3-1.1,0.7-1.9,0.4c-0.7-1.9-0.2-3.8-0.3-5.8c-0.1-2-0.1-2-1.8-1.1
				c-9.8,4.9-19.7,9.7-29.5,14.8c-5.9,3-11.8,6-17.7,8.9c-0.7,0.3-1.5,1.3-2.3,0c-0.4-2.2-0.2-4.4-0.2-6.6c0-3.2-0.2-6.5,0.1-9.7
				c0.3-1.1,1.3-1.5,2.2-1.9c10.4-5.2,20.8-10.3,31.1-15.6c5.4-2.8,10.8-5.5,16.2-8.2c0.7-0.3,1.3-0.9,2.2-0.6
				c0.6,0.5,0.5,1.2,0.5,1.8c0,1.3,0,2.7,0,4c0,1.8,0.1,1.8,1.6,1c3.5-1.7,7.1-3.5,10.6-5.3c4.5-2.3,3.8-1.2,3.9-6.3
				c0.1-4-0.2-8.1,0.2-12.1C139.3,114.9,139.4,114.7,139.6,114.6z"/>
			<path id="XMLID_200_" class="st4" d="M122.5,201c0,5.4,0,10.7,0.1,16.1c0,1-0.4,1.5-1.2,1.9c-4.7,2.3-9.4,4.7-14.1,7
				c-0.6,0.3-1.1,0.7-1.7,1c-0.5,0.6-1.2,1-1.9,1.4c-5.1,2.6-10.2,5.2-15.4,7.7c-4.9,2.2-9.6,4.8-14.4,7.1c-0.5,0.3-1.1,0.6-1.6,0.8
				c-0.6,0.2-1.1,0.3-1.4-0.4c-0.4-2.6-0.2-5.2-0.2-7.8c0-2.8-0.2-5.7,0.1-8.5c0.2-0.8,0.9-1.1,1.5-1.4
				c16.1-8.2,32.2-16.3,48.4-24.4C121.3,201.2,121.8,200.8,122.5,201z"/>
			<path id="XMLID_199_" class="st5" d="M122.5,201c-11.5,5.8-23.1,11.6-34.6,17.4c-5.5,2.8-11.1,5.6-16.6,8.4
				c-0.1-0.1-0.2-0.1-0.2-0.2c-0.4-0.8-0.3-1.6-0.3-2.4c0-4.8,0-9.5,0-14.3c0-0.2,0.1-0.4,0.2-0.5c3.3-1.8,6.7-3.4,10.1-5.1
				c13.1-6.5,26.1-13.3,39.2-19.8c0.7-0.4,1.4-1,2.3-0.7C122.5,189.5,122.5,195.2,122.5,201z"/>
			<path id="XMLID_198_" class="st4" d="M122.5,183.7c-16.4,8.3-32.8,16.5-49.3,24.8c-0.6,0.3-1.2,0.8-2,0.8
				c-0.5-0.5-0.5-1.1-0.5-1.7c0-4.6,0-9.2,0-13.8c0-0.5,0.1-1,0.3-1.5c0.4-0.7,1.1-1.1,1.8-1.4c16.2-8.1,32.3-16.2,48.5-24.2
				c0.5-0.3,1.2-0.9,1.6,0.1c0.1,2.7,0.6,5.5-0.3,8.2C122.5,177.9,122.5,180.8,122.5,183.7z"/>
			<path id="XMLID_197_" class="st6" d="M36.9,279c0-2.8-0.1-5.5-0.1-8.3c0-5.2,0.1-10.4,0.1-15.6c0-9.4,0-18.7,0-28.1
				c0.6-0.4,1.2,0,1.7,0.3c4.6,2.6,9.5,4.8,14.2,7.3c0.7,0.4,1.4,0.8,1.5,1.7c0.1,1.1,0.1,2.2,0.1,3.3c0,11.8,0,23.5,0,35.3
				c0,1.1,0,2.1,0.2,3.1c0.2,0.4,0.2,0.8,0.1,1.2c-0.1,2.2,0,4.3-0.1,6.5c-0.1,1.7-0.6,2.1-2.1,1.4c-5.1-2.4-10.1-5-15.2-7.6
				C37.2,279.3,37.1,279.1,36.9,279z"/>
			<path id="XMLID_196_" class="st7" d="M53.9,235.7c-2.6-1.6-5.4-2.8-8.1-4.2c-2.9-1.5-5.9-3-8.9-4.5c-2.8-1.4-5.6-2.9-8.4-4.3
				c-0.1-0.9,0.7-1.1,1.3-1.5c1.5-0.8,3-1.6,4.6-2.3c1.6-0.6,2.1-1.7,2-3.3c-0.1-1.9-0.3-3.9,0.2-5.8c0.1-0.2,0.2-0.3,0.4-0.3
				c0.8-0.1,1.4,0.3,2,0.6c4.1,2,8.1,4.1,12.1,6.2c6,3.1,12.1,6.1,18.1,9.1c0.6,0.3,1.3,0.6,1.8,1.2c0,0,0.1,0.1,0.1,0.1
				c0,5.8,0,11.5-0.1,17.3c-0.1,0-0.1,0.1-0.2,0.1c-0.6,0.1-1.1-0.2-1.6-0.4c-4.7-2.4-9.5-4.7-14.2-7.1
				C54.7,236.4,54.2,236.1,53.9,235.7z"/>
			<path id="XMLID_195_" class="st8" d="M88.2,235.7c5.5-2.9,11.2-5.4,16.7-8.5c0.2-0.1,0.4-0.1,0.6-0.2c0,7.9,0,15.7,0,23.6
				c0,0.7-0.1,1.3,0.2,2c0,0.2-0.1,0.3-0.2,0.4c-3.4,2-7.1,3.6-10.6,5.4c-1.8,0.9-3.5,1.8-5.3,2.7c-0.6,0.3-1.4,0.8-1.7-0.4
				c-0.3-1.7-0.1-3.3-0.1-5c0-5.9,0-11.7,0-17.6C87.7,237.3,87.6,236.4,88.2,235.7z"/>
			<path id="XMLID_194_" class="st4" d="M2.8,45.4c0,0.1,0.1,0.2,0.1,0.3c0.7,0.9,0.4,1.9,0.4,2.9c0,26.5,0,53,0,79.6
				c0,2.7,0,2.8,2.5,1.4c4.3-2.3,8.7-4.6,13.2-6.7c0.2-0.1,0.4-0.1,0.5-0.1c0.6,0,1.2,0.3,1.7,0.6c4.6,2.3,9.2,4.6,13.8,6.9
				c0.6,0.3,1.4,0.5,1.6,1.3c-0.1,0.8-0.7,1.1-1.3,1.4c-4.8,2.4-9.5,4.8-14.3,7.2c-0.5,0.3-1.1,0.5-1.8,0.4c-4-1.7-7.9-3.9-11.8-5.8
				c-1.3-0.6-2.6-1.3-3.8-1.9c-0.6,0.5-0.4,1.1-0.4,1.6c0,4.2,0,8.3,0,12.5c0,0.7,0.1,1.4-0.3,2.1c-0.1,0.2-0.3,0.2-0.5,0.2
				c0-6.3,0-12.7,0-19c0-27.6,0-55.3,0-82.9C2.6,46.8,2.3,46,2.8,45.4z"/>
			<path id="XMLID_193_" class="st7" d="M2.6,149.4c0.1,0,0.2,0,0.3,0c0.1,0.1,0.1,0.2,0.2,0.2c0.3,0.6,0.3,1.2,0.3,1.8
				c0,5,0,10,0,15c-0.1,5,0,10-0.1,15c0,1.5,0.5,2.3,1.8,3c4.5,2.2,9.1,4.4,13.5,6.8c0.5,0.3,1.1,0.5,1.4,1.1
				c0.1,0.2,0.2,0.4,0.2,0.6c0.1,5.3,0.2,10.6-0.1,16c-0.6,1.3-1.5,0.5-2.2,0.2c-3.8-1.9-7.6-3.8-11.4-5.7c-1.3-0.7-2.8-1.1-3.8-2.3
				c-0.4-0.4-0.2-1-0.2-1.4C2.6,182.9,2.6,166.1,2.6,149.4z"/>
			<path id="XMLID_192_" class="st3" d="M105.7,252.6c5.7-2.7,11.4-5.4,17.1-8.1c0.5-0.3,1-0.4,1.6-0.1c5.3,2.7,10.5,5.3,15.8,7.9
				c0.1,0,0.1,0.2,0.4,0.5c-6,2.8-12,5.7-18,8.5c-0.7,0.3-1.2-0.1-1.7-0.4c-2.5-1.3-5.1-2.5-7.5-3.8c-2.3-1-4.5-2.2-6.7-3.3
				c-0.5-0.2-1.1-0.4-1.1-1.1C105.6,252.7,105.7,252.7,105.7,252.6z"/>
			<path id="XMLID_191_" class="st9" d="M2.8,201c5.1,2.5,10.3,5.1,15.4,7.6c0.5,0.3,1,0.7,1.7,0.7c0.2,0.1,0.3,0.3,0.4,0.5
				c0.4,3.5,0.1,7,0.2,10.4c0,1.4,0,2.9,0,4.3c0,0.7,0,1.5-0.5,2c-3-1.1-5.8-2.8-8.7-4.2c-2.4-1.2-4.7-2.4-7.2-3.5
				c-0.9-0.4-1.3-1-1.3-2.1C2.8,211.6,2.8,206.3,2.8,201z"/>
			<path id="XMLID_190_" class="st10" d="M122.5,175c0-2.9,0-5.8,0-8.7c-0.4-0.3-0.5-0.8-0.5-1.2c-0.1-2-0.1-4.1,0-6.1
				c0-0.5,0.1-1,0.5-1.3c5.3-2.7,10.7-5.4,16-8c0.3-0.1,0.6-0.2,0.9-0.3c0,5.2,0,10.4,0,15.7c0,1.1-0.4,1.6-1.3,2
				C133,169.6,127.8,172.3,122.5,175z"/>
			<path id="XMLID_189_" class="st4" d="M122.5,106c5.7-2.9,11.4-5.7,17-8.6c0,5.7,0,11.5,0.1,17.2c0,0-0.1,0.1-0.1,0.1
				c-1,1-2.2,1.5-3.4,2.1c-3.9,2.1-7.9,4-11.9,5.9c-0.7,0.3-1.5,1-2.1-0.3c-0.3-5.1-0.1-10.2-0.1-15.3
				C122,106.8,122.2,106.3,122.5,106z"/>
			<path id="XMLID_188_" class="st10" d="M19.8,226.6c0-5.7,0-11.3,0-17c0.3-0.5,0.7-0.8,1.2-1.1c4.7-2.4,9.5-4.7,14.2-7.2
				c0.6-0.3,1.4-1,2,0.1c0.2,2.3,0.1,4.6,0.1,7c0,0.5-0.1,0.9-0.4,1.2c0,2.3-0.1,4.7,0,7c0.1,1.2-0.4,1.7-1.4,2.3
				c-2.3,1.2-4.9,2.1-7,3.7c-1.8,0.2-3,1.5-4.6,2.1C22.5,225.3,21.3,226.3,19.8,226.6z"/>
			<path id="XMLID_187_" class="st8" d="M113.5,256.7c3,1.5,6,3.1,9,4.6c0,0.1,0,0.2,0,0.4c-0.3,0.4-0.7,0.7-1.2,0.9
				c-4.9,2.4-9.8,4.9-14.7,7.4c-0.3,0.1-0.6,0.3-0.9,0.3c-0.2,0-0.3,0-0.5,0c-2.9-1.2-5.7-2.6-8.3-4.2c-0.1-0.2-0.1-0.3-0.1-0.5
				c0.4-0.7,1.1-0.9,1.7-1.2C103.5,261.9,108.6,259.4,113.5,256.7z"/>
			<path id="XMLID_186_" class="st6" d="M105.5,270c5.2-2.6,10.5-5.3,15.7-7.9c0.4-0.2,0.8-0.3,1.2-0.4c0,0.1,0,0.2,0.1,0.3
				c0,2.7-0.1,5.4-0.1,8.1c-0.2,0.4-0.5,0.7-0.9,0.9c-4.8,2.4-9.7,4.9-14.5,7.2c-0.6,0.3-1.4,0.7-1.8-0.3c-0.3-2.2-0.1-4.5-0.1-6.7
				C105.1,270.8,105.2,270.4,105.5,270z"/>
			<path id="XMLID_185_" class="st11" d="M36.6,131.7c-5-2.5-10-5.1-15-7.6c-0.6-0.3-1.1-0.7-1.7-1c-1.8-1.6-3.5-3.4-5-4.9
				c1.4,1.5,3.2,3.1,4.7,4.9c-5.5,2.8-11,5.7-16.7,8.7c0-0.9,0-1.5,0-2.1c0-26.9,0-53.7,0-80.6c0-1.1,0-2.2,0.1-3.3
				c4.3,1.8,8.4,4,12.5,6.1c5.8,3.1,11.8,5.9,17.7,8.9c6.9,3.5,13.8,7,20.8,10.5c0.5,0.5,0.5,1.2,0.5,1.9
				c-0.3,10.2,0.6,20.4,0.4,30.6c-0.1,5,0.1,10,0,15c-0.1,6.5-0.4,13.1-0.3,19.6c0,0.4,0,0.9-0.1,1.3c-0.4,1.2-1.2,0.7-1.9,0.4
				c-4.1-2-8.2-4-12.2-6.1c-1-0.5-1.9-1.1-2.9-1.6C37,132.2,36.8,131.9,36.6,131.7z"/>
			<path id="XMLID_184_" class="st2" d="M53.9,140.3c0-0.1,0-0.2,0-0.3c0.2-16.6,0.6-33.2,0.2-49.7C54,84,54,77.6,53.9,71.3
				c0.1,0,0.2,0,0.3,0c0.5,0.5,0.5,1.2,0.5,1.8c0,2.1,0.1,4.3,0,6.4c0,2.2,0,4.4,0,6.7c0,1.1,0.3,1.4,1.4,0.9c2-1,4.1-2.1,6.1-3.1
				c0.2-0.1,0.4-0.2,0.7-0.3c2.2-1,4.4-2.2,6.6-3.2c0.6-0.3,1.1-0.8,1.9-0.5l0,0c0.5,0.5,0.5,1.2,0.5,1.9c0,10.8,0.1,21.6,0,32.4
				c0.1,3,0.1,6,0,9c0,2.7,0.2,5.4-0.1,8c-0.1,0.3-0.2,0.5-0.4,0.8c-0.2,0.2-0.4,0.4-0.6,0.5c-5.2,2.7-10.3,5.2-15.6,7.8
				c-0.3,0.1-0.6,0.2-1,0.1C54,140.4,53.9,140.4,53.9,140.3z"/>
			<path id="XMLID_183_" class="st12" d="M54.2,79.9c0-2.8,0-5.7,0-8.5c2.9-1.4,5.7-2.9,8.6-4.3c0.7,0.5,0.6,1.3,0.6,2
				c0,2.1,0.1,4.2,0,6.3c0.1,2.3,0,4.5,0,6.8c0,0.7,0,1.3-0.5,1.9c-0.1,0.1-0.2,0.2-0.3,0.3c-0.8-0.8-0.4-1.9-0.5-2.9
				c-0.1-1.3,0-2.6,0-3.8c0-0.9-0.3-1.1-1.1-0.7c-1.6,0.9-3.3,1.6-4.9,2.5C55.6,79.8,55,80.4,54.2,79.9z"/>
			<path id="XMLID_182_" class="st13" d="M62.9,75.4c0-2.8-0.1-5.6-0.1-8.3c2.7-1.4,5.4-2.8,8.1-4.1c0.7,1.2,0.2,2.4,0.3,3.7
				c0.1,1.6,0,3.2,0,4.7c-2.4,1.8-5,3-7.7,4.2C63.3,75.6,63,75.5,62.9,75.4z"/>
			<path id="XMLID_181_" class="st10" d="M71.2,114.4c0-11.5,0-22.9,0-34.4c16.5-8.3,33-16.6,49.5-24.9c1.8-0.9,1.8-0.9,1.8,1.1
				c0,10.8,0,21.7,0,32.5c-0.4,0.7-1.1,1-1.8,1.4c-5,2.5-10.1,5-15.1,7.6c-2.8,1.2-5.4,2.9-8.2,4.2c-8.1,4.2-16.3,8.2-24.5,12.3
				C72.4,114.4,71.9,114.8,71.2,114.4z"/>
			<path id="XMLID_180_" class="st5" d="M70.9,132c0.1-0.1,0.2-0.2,0.4-0.3c0.2-0.5,0.7-0.8,1.2-1.1c1.9-0.9,3.7-1.9,5.6-2.8
				c0.6-0.3,1.3-0.7,1.8,0.2c0.3,4.5,0.1,9.1,0.2,13.6c0,0.7-0.2,1.3,0.2,1.9c0.7,0.4,1.2-0.1,1.7-0.4c9.9-5,19.8-9.9,29.8-14.9
				c1.3-0.6,1.8-1.4,1.8-2.8c-0.1-5,0.1-10-0.1-15c0-0.2,0-0.3,0.1-0.5c2.7-1.6,5.7-2.7,8.4-4.4c0.2,0,0.3,0,0.5,0.1
				c0.1,0.1,0.2,0.2,0.2,0.3c0,5.7,0,11.3,0,17c0.4,0.5,0.5,1.1,0.5,1.7c0,1.8,0,3.6,0,5.4c0,0.7,0,1.5-0.8,1.8
				c-16.3,8.2-32.6,16.4-48.9,24.7c-0.7,0.3-1.4,0.7-2.1,1.1c-0.1-0.1-0.2-0.2-0.2-0.2c-0.4-0.7-0.3-1.4-0.3-2.1
				c0-7.2,0-14.4,0-21.6C70.7,133.2,70.7,132.6,70.9,132z"/>
			<path id="XMLID_179_" class="st11" d="M122.3,105.7c-0.1,0-0.3,0-0.4,0c-0.7,0.2-1.2-0.2-1.7-0.4c-4.3-2.2-8.7-4.3-13-6.5
				c-0.7-0.3-1.5-0.6-1.6-1.5c5.7-2.9,11.3-5.7,17-8.6c0,5.1,0,10.2,0,15.2C122.5,104.5,122.7,105.2,122.3,105.7z"/>
			<path id="XMLID_178_" class="st12" d="M62.9,75.4c2.8-1.4,5.5-2.7,8.3-4.1c0,2.9,0,5.8,0.1,8.7c-2.8,1.3-5.6,2.7-8.3,4
				C62.9,81.1,62.9,78.3,62.9,75.4z"/>
			<path id="XMLID_177_" class="st14" d="M36.9,279c0.7-0.2,1.2,0.3,1.7,0.5c4.7,2.3,9.3,4.7,14,7c1.2,0.6,1.6,0.5,1.6-0.9
				c0-2.2-0.2-4.4,0.1-6.6c0.3-0.2,0.6-0.2,0.9-0.1c2.4,1.1,4.8,2.3,7.1,3.6c0.2,0.1,0.4,0.4,0.5,0.6c0.4,2.1,0.2,4.2,0.2,6.3
				c0,1.3,0.4,2.1,1.6,2.6c1.7,0.8,3.4,1.9,5.1,2.7c0.7,0.3,1.4,0.7,1.6,1.6c0.2,2.1,0.1,4.2,0,6.3c0,0.6,0.1,1.4-0.9,1.5
				c-7.6-3.8-15.3-7.6-22.9-11.4c-3.2-1.6-6.3-3.2-9.5-4.8c-0.9-0.4-1.2-0.9-1.2-1.9C37,283.7,36.9,281.3,36.9,279z"/>
			<path id="XMLID_176_" class="st15" d="M96.8,265.7c0,0.1,0,0.2,0.1,0.3c0.8,1.6,0.5,3.4,0.3,5c-0.2,2.3,0.7,3.5,2.8,4.4
				c1.9,0.8,3.8,1.5,5.3,2.9c0.1,0.2,0.2,0.4,0.2,0.5c0.2,2.2,0.1,4.4,0.1,6.6c0,0.5,0,1.1-0.5,1.5c-5.1-2.5-10.2-5-15.3-7.5
				c-0.4-0.2-0.9-0.4-1.3-0.6c-0.3-0.1-0.6-0.1-0.9-0.2c-2.7-1.4-5.3-2.6-8-4c-2.5-0.9-4.8-2.2-7.2-3.4c-0.7-0.3-1.3-0.8-1.6-1.6
				c-0.3-2.5-0.3-5,0-7.6c0.7-1.2,1.6-0.4,2.3-0.1c4.4,2.1,8.7,4.3,13.1,6.5c0.5,0.3,1,0.7,1.7,0.5c0.4-1.9,0.1-3.7,0.2-5.6
				c0.1-2,0.5-2.3,2.3-1.3C92.5,263.3,95,264,96.8,265.7z"/>
			<path id="XMLID_175_" class="st6" d="M87.9,278.4c0.3,0,0.5,0.2,0.7,0.5c-0.7,1.3-0.2,2.7-0.3,4c-0.1,1.5,0,3,0,4.4
				c-0.2,0.4-0.5,0.7-0.9,0.9c-5.3,2.6-10.5,5.4-16,7.9c-0.2,0-0.3-0.1-0.4-0.2c-2-1-3.9-2.3-6-3.1c-1.9-0.8-2.5-1.9-2.3-3.9
				c0.1-2,0.2-4-0.1-6c0.1-0.1,0.3-0.1,0.5-0.1c2.4,0.9,4.6,2.2,6.8,3.3c1,0.5,1.9,0.5,3,0C77.7,283.4,82.8,280.9,87.9,278.4z"/>
			<path id="XMLID_174_" class="st16" d="M105.6,278.4c4.8-2.4,9.7-4.8,14.5-7.2c0.8-0.4,1.6-0.8,2.4-1.1c0,2.5,0,5.1,0.1,7.6
				c0,0.7-0.2,1.1-0.9,1.4c-5.3,2.6-10.5,5.3-15.8,7.9c-0.8-0.1-0.5-0.7-0.5-1.1c0-2.3,0-4.6,0-6.9
				C105.4,278.8,105.4,278.6,105.6,278.4z"/>
			<path id="XMLID_173_" class="st17" d="M71.2,295.9c5.7-2.9,11.3-5.7,17-8.6c0,2.5,0,5.1,0.1,7.6c0,0.6-0.2,1-0.8,1.3
				c-5.3,2.7-10.7,5.4-16,8c-0.1,0-0.2,0-0.3,0C70.9,301.5,71,298.7,71.2,295.9z"/>
			<path id="XMLID_172_" class="st18" d="M105.5,278.6c0,2.3,0,4.5,0,6.8c0,0.5-0.2,1.1,0.3,1.6c-0.2,0.2-0.4,0.4-0.7,0
				c0-2.8,0-5.6,0-8.4C105.3,278.5,105.4,278.5,105.5,278.6z"/>
			<path id="XMLID_171_" class="st19" d="M71.2,295.9c0,2.8,0,5.6,0,8.4c-0.3,0.1-0.6,0-0.8-0.3c0.6-0.4,0.4-1.1,0.4-1.7
				c0-2.2,0-4.3,0.1-6.5C71,295.9,71.1,295.9,71.2,295.9z"/>
			<path id="XMLID_170_" class="st5" d="M122.6,157.7c0,2.9,0,5.8-0.1,8.6c-0.4,0.3-0.8,0.6-1.3,0.8c-16.6,8.3-33.1,16.6-49.7,24.9
				c-0.2,0.1-0.4,0-0.5-0.2c-0.3-0.5-0.3-1-0.3-1.5c0-4.6,0-9.2,0-13.8c0-0.4,0-0.8,0.2-1.1c0.1-0.2,0.2-0.4,0.4-0.5
				c16.4-8.2,32.8-16.5,49.2-24.7c2.2-1.1,2.1-1.3,2.1,1.3C122.5,153.6,122.6,155.6,122.6,157.7z"/>
			<path id="XMLID_169_" class="st7" d="M71.2,157.7c0,5.7,0,11.5,0,17.2c0,0-0.1,0.1-0.1,0.1c-0.9,0.2-1.5-0.4-2.2-0.7
				c-9.7-4.8-19.5-9.7-29.1-14.7c-0.3-0.2-0.7-0.3-1-0.5c-0.8-0.5-1.2-0.2-1.2,0.7c0,1.6,0,3.2,0,4.8c0,0.5,0,1-0.3,1.4
				c-0.4,0.4-0.6,0.1-0.7-0.2c-0.4-1.4-0.2-2.7-0.2-4.1c0-4,0-8.1,0-12.1c0-0.3,0-0.6,0.2-0.8c2.9-1.6,5.7-3.4,8.9-4.4
				c0.6,0.1,1.1,0.4,1.7,0.7c7.4,3.7,14.7,7.4,22.1,11c0.7,0.3,1.4,0.6,1.9,1.3C71.2,157.6,71.2,157.7,71.2,157.7z"/>
			<path id="XMLID_168_" class="st7" d="M122.2,132c0.7-1.8,0.2-3.7,0.3-5.5c0.1-1.1,0-2.3,0-3.4c4.8-2.1,9.4-4.6,14.1-7
				c0.9-0.5,1.8-1.1,2.8-1.3c0,5.3,0,10.6,0.1,16c0,0.9-0.4,1.4-1.2,1.7c-4.9,2.4-9.7,4.8-14.5,7.3c-1.2,0.6-1.4,0.3-1.3-0.9
				c0.1-1.8,0-3.5,0-5.3C122.5,133,122.7,132.4,122.2,132z"/>
			<path id="XMLID_167_" class="st20" d="M88.1,269.9c-5.1-2.6-10.3-5.2-15.4-7.7c-0.5-0.2-0.9-0.7-1.5-0.6
				c-0.6-0.6-0.5-1.4-0.5-2.2c0-4.4,0-8.8,0-13.3c0-0.8,0-1.6,0.5-2.2c0,0,0,0,0,0c5.1-2.6,10.2-5.1,15.4-7.7c0.5-0.3,1-0.7,1.7-0.7
				c0,8.6,0,17.2,0,25.8C88.4,264.3,88.6,267.1,88.1,269.9z"/>
			<path id="XMLID_166_" class="st7" d="M71.2,192c0.1,0,0.2,0,0.4,0c-0.3,0.5-0.3,1-0.3,1.6c0,5.2,0,10.5,0,15.7
				c-0.1,0-0.2,0-0.3,0c-0.9,0.3-1.5-0.3-2.2-0.6c-9.5-4.7-19-9.5-28.5-14.3c-0.2-0.1-0.5-0.3-0.7-0.4c-1.6-0.8-1.8-0.7-1.8,1.1
				c0,4.1,0,8.2,0,12.3c0,0.8,0.2,1.6-0.4,2.2c-0.1,0-0.2,0-0.3,0c0-2.9-0.1-5.7-0.1-8.6c-0.4-0.5-0.4-1.1-0.4-1.7
				c0-5.2-0.1-10.4,0-15.5c0.1-2.8-0.4-5.6,0.3-8.3c0.6-0.7,1.3-0.4,2,0c8.4,4.3,17,8.3,25.3,12.8C66.3,189.5,68.9,190.5,71.2,192z"
				/>
			<path id="XMLID_165_" class="st21" d="M37.2,209.7c0-5.2,0-10.3,0-15.5c0-1.4,0.3-1.6,1.6-1c10.7,5.4,21.4,10.8,32.2,16.1
				c0.2,0.5,0.3,0.9,0.3,1.4c0,5.3,0,10.5,0,15.8c-0.6,0.1-1-0.3-1.5-0.6C58.8,220.6,48,215.1,37.2,209.7z"/>
			<path id="XMLID_164_" class="st10" d="M71.2,244c0,5.9,0,11.8,0,17.6c0,2.8,0,5.6,0,8.3c-0.2,0.6-0.7,0.8-1.2,1.1
				c-4.6,2.3-9.3,4.7-13.9,7c-0.5,0.2-1,0.6-1.6,0.3c-1.1-0.3-0.6-1.2-0.6-1.8c0-13.6,0-27.3,0-40.9c3.3,1.3,6.3,3.1,9.4,4.6
				C65.9,241.4,68.4,243,71.2,244z"/>
			<path id="XMLID_163_" class="st17" d="M54.5,278.3c5.6-2.8,11.1-5.6,16.7-8.3c2.8,1.6,5.6,3.1,8.6,4.3c-1.2,1.4-3.1,1.9-4.6,2.8
				c-3.6,2-7.3,3.7-10.9,5.5c-0.4,0.2-0.9,0.4-1.4,0.4c-0.1,0-0.3,0-0.4,0c-2.7-1.3-5.4-2.6-8.2-4C54.4,278.8,54.4,278.6,54.5,278.3
				z"/>
			<path id="XMLID_162_" class="st16" d="M88.1,269.9c0-2.8,0.1-5.7,0.1-8.5c5.8-2.9,11.5-5.8,17.3-8.8c2.7,1.3,5.3,2.7,8,4
				c0.2,0.9-0.7,0.9-1.2,1.1c-5.2,2.6-10.3,5.3-15.5,7.9c-2.7-1.3-5.4-2.5-8.3-3.9c0,2.3,0,4.4,0,6.5
				C88.5,268.8,88.8,269.5,88.1,269.9z"/>
			<path id="XMLID_161_" class="st5" d="M36.9,149c-0.1,0.1-0.2,0.2-0.3,0.3c-0.1,0.7-0.8,0.9-1.3,1.2c-4.6,2.3-9.2,4.6-13.8,6.9
				c-0.5,0.3-1.1,0.7-1.7,0.3c-0.1-0.2-0.2-0.3-0.3-0.5c-0.2-5.6-0.3-11.2,0-16.8c2.4-0.8,4.6-2.2,6.9-3.3c2.9-1.4,5.8-2.9,8.7-4.4
				c0.5-0.3,1.2-0.4,1.5-1c0.2,0.1,0.4,0.2,0.6,0.3c0.3,0.9,0.2,1.9,0.2,2.8c0,4,0,7.9,0,11.9C37.4,147.5,37.5,148.3,36.9,149z"/>
			<path id="XMLID_160_" class="st21" d="M19.5,140.4c0.3,0.4,0.3,0.9,0.3,1.4c0,5.3,0,10.5,0,15.8c-0.7,0.4-1.2-0.1-1.7-0.3
				c-4.6-2.3-9.3-4.6-13.9-6.9c-0.5-0.2-1-0.5-1.3-1c0,0,0,0,0,0c0-5.7,0-11.4,0-17.4C8.5,134.8,14,137.6,19.5,140.4z"/>
			<path id="XMLID_159_" class="st22" d="M19.6,123c-1.9-2.1-3.8-4.2-5.7-6.2c0,0,0,0,0,0c1.5,1.5,3.1,3,4.5,4.6
				c0.5,0.6,1.7,0.5,1.5,1.6C19.8,123,19.7,123,19.6,123z"/>
			<path id="XMLID_158_" class="st4" d="M36.9,183.7c0,5.8-0.1,11.6-0.1,17.3c-5.6,2.9-11.3,5.7-16.9,8.6c0-0.1,0-0.2,0-0.3
				c0-5.8,0-11.5,0-17.3c0-0.1,0.1-0.1,0.1-0.2c1.3-1,2.9-1.6,4.4-2.4c3.5-1.8,7-3.5,10.5-5.2C35.5,183.9,36.1,183.4,36.9,183.7z"/>
			<path id="XMLID_157_" class="st7" d="M2.9,149.3c4.8,2.4,9.7,4.8,14.5,7.1c0.8,0.4,1.6,0.7,2.4,1.1c0,0,0.1,0.1,0.1,0.1
				c0.4,0.3,0.5,0.8,0.5,1.2c0,5.2,0.2,10.3-0.1,15.5c-0.2,0.7-0.7,0.8-1.3,0.5c-5.4-2.7-10.9-5.1-16-8.2
				C2.9,160.9,2.9,155.1,2.9,149.3z"/>
			<path id="XMLID_156_" class="st21" d="M2.9,166.8c0.7-0.1,1.1,0.3,1.7,0.6c5.1,2.5,10.2,5.1,15.3,7.6c0.1,0.1,0.1,0.2,0.2,0.3
				c0.3,0.6,0.3,1.2,0.3,1.8c0,4.3,0,8.6,0,13c0,0.7,0,1.4-0.5,2.1c0,0,0,0,0,0c-1.2,0-2-0.9-3-1.4c-4.2-2.1-8.4-4.2-12.7-6.3
				c-1-0.5-1.4-1-1.4-2.2C2.9,177.1,2.9,171.9,2.9,166.8z"/>
			<path id="XMLID_155_" class="st20" d="M105.2,278.4c-2.5-1.2-5-2.5-7.6-3.7c-0.6-0.3-0.8-0.7-0.8-1.3c0-2.5,0.1-5,0.1-7.4
				c2.8,1.3,5.5,2.7,8.3,4C105.4,272.8,105.5,275.6,105.2,278.4z"/>
			<path id="XMLID_154_" class="st23" d="M105.2,278.4c0-2.8,0-5.6,0-8.4c0.1,0,0.2,0,0.4,0c0,2.8,0,5.6,0,8.4c0,0.1,0,0.2-0.1,0.2
				c0,0-0.1,0-0.1,0s-0.1,0-0.1,0C105.2,278.6,105.2,278.5,105.2,278.4z"/>
			<path id="XMLID_153_" class="st4" d="M36.9,149c0-5.1,0-10.2,0-15.3c0-0.6-0.2-1.2,0.3-1.8c5.6,2.8,11.1,5.6,16.7,8.4
				c0,0,0,0,0,0c0.1,0.2,0,0.5-0.2,0.6c-2.6,1.4-5.1,3.1-8.1,3.8C42.7,146.2,39.8,147.6,36.9,149z"/>
			<path id="XMLID_152_" class="st24" d="M79.9,144.7c-0.6-0.5-0.3-1.1-0.4-1.7c0-5.1-0.1-10.2-0.1-15.4c-2.8-1.2-5.7-2.5-8.2-4.2
				c0-3,0-6,0-9c2-1,4.1-1.9,6.1-3c6.6-3.3,13.3-6.7,19.9-10c4.8,2.4,9.7,4.9,14.5,7.3c0.7,0.3,1.5,0.5,1.8,1.4c0,0.1,0,0.2,0,0.3
				c-0.1,1-1,1.1-1.7,1.4c-8.3,4.2-16.7,8.4-25,12.5c-1.7,0.8-3.3,1.9-5,2.7c-1.2,0.5-1.6,1.3-1.6,2.6c0.1,4.3,0,8.5,0,12.8
				C80.3,143.2,80.4,144,79.9,144.7z"/>
			<path id="XMLID_151_" class="st21" d="M45.6,144.7c2.7-1.6,5.7-2.6,8.2-4.4c2.5-0.8,4.7-2.2,7-3.3c3.4-1.6,6.7-3.3,10.1-5
				c0.3,0.3,0.3,0.7,0.3,1.1c0,8.2,0,16.3,0,24.5C62.6,153.4,54,149.2,45.6,144.7z"/>
			<path id="XMLID_150_" class="st25" d="M54.2,79.9c2.7-1.3,5.4-2.7,8.4-4.2c0,3,0,5.8,0,8.6c-2.4,1.2-4.8,2.4-7.2,3.7
				c-0.9,0.5-1.2,0.3-1.2-0.8C54.2,84.8,54.2,82.3,54.2,79.9z"/>
			<path id="XMLID_149_" class="st21" d="M71.2,123.4c2.8,1.2,5.7,2.5,8.2,4.2c-2.7,1.4-5.5,2.7-8.2,4.1
				C71.2,128.9,71.2,126.1,71.2,123.4z"/>
			<path id="XMLID_148_" class="st21" d="M113.5,110c-5-2.5-10-5-15-7.6c-0.5-0.3-1.2-0.3-1.3-1.1c2.8-1.4,5.5-2.7,8.3-4.1
				c1.9,1.4,4.2,2.2,6.3,3.3c3.3,1.7,6.7,3.4,10.1,5.1c-0.1,0.2-0.1,0.4-0.2,0.4C119,107.5,116.5,109.2,113.5,110z"/>
			<path id="XMLID_41_" class="st26" d="M82.5,80.2c0,0.3,0,0.5,0.1,0.8c0.1,5.2,0.1,5.2-4.7,7.2c-0.7,0.3-1,0.3-1-0.6
				c0-0.1,0-0.2,0-0.3C76.8,82.4,76.8,82.4,82.5,80.2z"/>
			<path id="XMLID_40_" class="st27" d="M111.2,71.2c0-0.4,0-0.6,0-0.8c-0.1-5-0.1-5,4.6-7.1c1-0.4,1.1-0.1,1.1,0.7
				C117,68.8,116.8,69.1,111.2,71.2z"/>
			<path id="XMLID_39_" class="st10" d="M79.9,144.7c0-5.4,0-10.8-0.1-16.1c0-1.1,0.7-1.4,1.4-1.7c10.2-5.1,20.4-10.3,30.6-15.4
				c0.6-0.3,1.1-0.7,1.7-1c0.6,0.3,0.4,0.9,0.4,1.4c0,4.8,0,9.7,0,14.5c0,1-0.4,1.6-1.3,2C101.7,133.7,90.8,139.2,79.9,144.7z"/>
			<path id="XMLID_38_" class="st28" d="M62.8,283c5.7-2.9,11.3-5.8,17-8.7c2.7,1.4,5.4,2.7,8.1,4.1c0,0.6-0.6,0.7-1,1
				c-4.8,2.5-9.6,4.9-14.4,7.4c-0.9,0.5-1.6,0.5-2.4,0C67.6,285.4,65.1,284.5,62.8,283z"/>
			<path id="XMLID_37_" class="st21" d="M71.2,192c-2.8-0.7-5.2-2.4-7.8-3.6c-8.7-4.4-17.3-8.9-26.2-13c-0.5-0.2-0.7-0.5-0.8-1
				c-0.1-2.6-0.4-5.2,0.2-7.7c0.1-0.1,0.1-0.2,0.2-0.2c0.7-2.2,0.2-4.4,0.3-6.6c0.1-1.9,0-1.9,1.8-1.1c10.4,5.2,20.8,10.5,31.2,15.8
				c0.3,0.2,0.7,0.4,1,0.6C71.2,180.7,71.2,186.3,71.2,192z"/>
			<path id="XMLID_36_" class="st4" d="M19.9,175c0-5.8,0-11.5,0-17.3c5.5-2.8,11.1-5.6,16.6-8.4c0.6,0.5,0.3,1.2,0.3,1.9
				c0,5.1,0,10.1,0,15.2c0,0,0,0,0,0c-0.3,0.5-0.7,0.8-1.2,1.1c-4.8,2.2-9.3,4.9-14,7.2C21.1,174.8,20.6,175.3,19.9,175L19.9,175z"
				/>
			<path id="XMLID_35_" class="st5" d="M19.9,175c5.7-2.9,11.3-5.7,17-8.6c0,2.4,0,4.8,0,7.2c0,0.6,0,1.2,0.3,1.7
				c-0.7,0.9-0.3,2-0.3,3c-0.1,1.8,0,3.6,0,5.4c-5.1,2.5-10.2,5.1-15.3,7.6c-0.5,0.3-1.1,0.5-1.7,0.7
				C19.9,186.3,19.9,180.7,19.9,175z"/>
		</g>
	</g>
</g>
<g id="Layer_3">
	<circle id="XMLID_8_" class="st29" cx="102.5" cy="102.5" r="100"/>
</g>
<g id="Layer_1">
	<g id="XMLID_3_">
		<path id="XMLID_147_" class="st30" d="M197.6,5c2.7,1.1,3.6,3.1,3.5,5.9c0,9.5,0.1,19,0,28.4c0,5.8-2.6,10.2-7.6,13.2
			c-2.2,1.3-4.4,2.6-6.7,3.8c-0.8,0.5-1.1,0.8-0.7,1.8c1.1,2.9,2.1,5.9,3.2,8.9c0.7,1.9,0.3,2.4-1.6,2.2c-6.2-0.6-12.5-1.3-18.7-2
			c-0.7-0.1-1.2,0.1-1.8,0.4c-4.7,2.7-9.4,5.4-14,8.1c-2.2,1.3-4.3,1.6-6.5,0c-0.9-0.9-1.3-2-1.2-3.2c0-2.6,0-5.1,0-7.7
			c0-2.1-0.1-4.2,0-6.4c0.5-1.6,1.6-2.8,3-3.6c3-1.8,6.1-3.6,9.2-5.3c2.5-1.4,4.3-3.3,5.3-5.9c0.4-1.1,0.7-2.2,0.7-3.3
			c0-5,0-10,0-15c0-0.6-0.1-1.3,0.2-1.9c0.6-0.9,1.7-1.2,2.6-1.7c8.8-5.1,17.6-10.2,26.4-15.3c0.2-0.1,0.3-0.2,0.5-0.2
			c0.5-0.1,0.9-0.3,1.2-0.6C195.4,4.9,196.5,4.8,197.6,5z"/>
		<path id="XMLID_146_" class="st31" d="M164.1,23.3c0,5.4-0.1,10.9,0,16.3c0,4.5-2,7.9-5.8,10.1c-3.2,1.8-6.3,3.7-9.5,5.4
			c-1.3,0.7-2,1.9-2.8,3.1c-0.1,0.2-0.2,0.4-0.3,0.6c-0.6,1.3-1.7,2.3-2.5,3.4c-0.7,0.9-1,1.8-1,2.9c0,1.2,0,2.4,0,3.5
			c0,0.5,0.1,1-0.5,1.3c0-2,0-4,0-6c-0.1,0-0.2-0.1-0.3-0.1c-0.8,0.9-1.5,1.9-2.3,2.8c-2,2.5-3.9,4.9-5.9,7.4
			c-0.3,0.4-0.5,0.9-1.1,1c-0.3-0.4-0.4-0.8-0.3-1.3c0.6-3.2,1.6-6.3,2.3-9.6c-1.4,0.5-2.5,1.3-3.6,1.9c-0.5,0.2-0.9,0.7-1.5,0.4
			c-1.7,1.1-3.4,1.5-5.1-0.1c-0.3-0.4-0.6-0.8-0.6-1.3c-0.1-3.2,0-6.4,0-9.6c0-0.6,0-1.2-0.1-1.8c-0.2-4.1-0.3-8.3,0-12.4
			c0.3-3.6,2.1-6.5,5.2-8.4c10.1-6,20.4-11.7,30.5-17.7c0.9-0.3,1.8-0.7,2.8-0.5c1.8,0.7,2.6,2.1,2.5,4
			C164.7,20.2,164.7,21.7,164.1,23.3z"/>
		<path id="XMLID_139_" class="st32" d="M123.6,65.4c0.1,0.4,0.2,0.7,0.3,1.1c-1.2-0.4-2.3-1.2-3.3-1.8c-1-0.6-1.3-1.7-1.3-2.9
			c0-7.6-0.2-15.2,0-22.8c0.1-3.5,1.9-6.4,5.1-8.3c1.7,0.2,2.9,1.4,4.2,2.2c-0.6,0.8-1.6,1.3-2.3,2.1c-2,2.1-2.8,4.7-2.9,7.5
			c-0.1,3.7,0,7.4,0,11.1c0.3,3.3,0.1,6.5,0.1,9.8C123.5,64.1,123.4,64.7,123.6,65.4z"/>
		<path id="XMLID_138_" class="st33" d="M128.6,32.9c-1-0.2-1.9-0.8-2.8-1.4c-0.5-0.3-0.9-0.6-1.5-0.9c3.4-2.2,6.9-4.1,10.4-6.1
			c6.2-3.6,12.4-7.2,18.6-10.8c0.3-0.2,0.6-0.3,1-0.5c0.6-0.3,1.2-0.2,1.7,0.2c0.9,0.6,2.1,0.9,2.8,1.8c-1.4,1.2-3,2-4.5,2.9
			c-2.1,1.2-4.1,2.4-6.3,3.6c-3.1,1.7-6.2,3.5-9.2,5.3c-3.1,1.8-6.4,3.4-9.4,5.5C129.2,32.8,128.9,32.8,128.6,32.9z"/>
		<path id="XMLID_137_" class="st34" d="M164.1,23.3c0-1.6,0-3.1,0-4.7c8.4-4.8,16.8-9.7,25.2-14.5c2-1.2,4-1.8,6.2-0.4
			c0.7,0.4,1.4,0.8,2.1,1.3c-1,0.4-2.2,0.2-3,1.1c-0.4,0.2-0.8,0.2-1.1,0.5c-2.5,1.4-4.9,2.8-7.4,4.2c-4.1,2.3-8.2,4.7-12.3,7.1
			c-3.1,1.8-6.1,3.6-9.1,5.3C164.5,23.2,164.3,23.2,164.1,23.3z"/>
		<path id="XMLID_136_" class="st35" d="M141.7,70c0-1.8,0.1-3.6,0-5.3c0-0.9,0.2-1.6,0.8-2.3c1.1-1.3,2.1-2.5,3.1-3.8
			c0.4,2.1,0.1,4.2,0.2,6.2c0.1,2.7-0.2,5.3,0.1,8c-0.2,1.1,0.6,2,0.8,3c-0.7-0.4-1.5-0.9-2.2-1.3C142.6,73.6,141.7,72,141.7,70z"/>
		<path id="XMLID_135_" class="st32" d="M129,66.5c1.6-0.9,3.2-1.8,4.8-2.7c0.2-0.1,0.4-0.4,0.7-0.2c0.1,0.1,0.1,0.4,0.1,0.6
			c-0.8,3.1-1.6,6.2-2.4,9.3c-0.5,0.4,0.1,1-0.3,1.4c-0.1,0-0.2,0-0.3-0.1c-4.1-2.1-4.1-2.1-3-6.6C128.8,67.8,128.9,67.2,129,66.5z"
			/>
		<path id="XMLID_131_" class="st36" d="M158.8,15.4c-0.9-0.2-1.6-0.7-2.4-1.1c-0.7-0.4-1.3-0.8-2.1-0.8c1.5-1.1,3.1-1.3,4.8-0.2
			c0.8,0.5,1.6,1,2.4,1.5C160.7,15,159.8,15.2,158.8,15.4z"/>
		<path id="XMLID_123_" class="st37" d="M131.9,75c0.3-0.4-0.8-1.1,0.3-1.4c0,0.5,0,0.9,0,1.4C132,75.2,132,75.2,131.9,75z"/>
		<path id="XMLID_121_" class="st38" d="M145.9,72.8c-0.5-0.7-0.2-1.6-0.2-2.4c0-1.9,0-3.7,0-5.6c0.1-0.1,0.2-0.1,0.2,0
			C145.9,67.5,145.9,70.2,145.9,72.8z"/>
		<path id="XMLID_120_" class="st39" d="M145.9,64.8c-0.1,0-0.2,0-0.2,0c0-2.1,0-4.2-0.1-6.3c0.1-0.1,0.2-0.2,0.3-0.3
			C145.9,60.4,145.9,62.6,145.9,64.8z"/>
		<path id="XMLID_119_" class="st40" d="M193.5,6.5c0.2-0.5,0.6-0.6,1.1-0.5C194.3,6.4,193.9,6.5,193.5,6.5z"/>
		<path id="XMLID_118_" class="st41" d="M150.5,37.9c0.2-2.3,1.3-4.2,3.3-5.4c0.7-0.4,1.5-0.7,2.3-0.2c0.8,0.5,1.1,1.4,1,2.3
			c-0.2,2.2-1.2,4-3,5.3c-0.8,0.5-1.7,0.8-2.6,0.4C150.6,39.8,150.5,38.9,150.5,37.9z"/>
		<path id="XMLID_117_" class="st41" d="M130.4,49.6c0.2-2.3,1.2-4.2,3.2-5.4c0.7-0.4,1.5-0.7,2.3-0.2c0.7,0.4,0.9,1.2,0.9,2
			c-0.1,2.5-1.3,4.3-3.3,5.7c-0.7,0.4-1.4,0.6-2.2,0.2C130.5,51.4,130.4,50.5,130.4,49.6z"/>
		<path id="XMLID_116_" class="st41" d="M147,40.3c-0.3,2.4-1.3,4.2-3.3,5.5c-0.8,0.5-1.7,0.6-2.5,0.1c-0.7-0.5-0.9-1.3-0.8-2.2
			c0.2-2.2,1.3-3.9,3-5.2c0.7-0.5,1.5-0.9,2.4-0.4C146.8,38.6,147,39.5,147,40.3z"/>
		<path id="XMLID_115_" class="st42" d="M123.6,65.4c-0.5-0.4-0.4-1.1-0.4-1.5c0.2-3.4,0-6.9,0.1-10.3c0.4,0.4,0.3,0.9,0.3,1.4
			C123.6,58.5,123.6,61.9,123.6,65.4z"/>
	</g>
	<g id="XMLID_2_">
		<path id="XMLID_141_" class="st43" d="M-89.1,56.6c-0.4,0.3-0.9,0.4-0.9-0.3c0-0.8-0.2-1.6,0.1-2.4c0.9-1.9,1.7-3.8,2.6-5.7
			c0.3-0.8,0.8-1.1,1.5-0.6c1.6,1.4,3,1,4.7-0.1c3.9-2.4,7.9-4.6,11.8-6.9c1.1-0.7,2.3-0.7,3.5-0.5c1.1,0.2,1.3,0.9,0.9,2
			c-0.1,0.2-0.2,0.3-0.4,0.5c-0.1,0.1-0.2,0.2-0.4,0.3c-4.2,2.5-8.5,4.9-12.7,7.4c-0.4,0.2-1.1,0.3-1.1,0.9c0,0.6,0.8,0.3,1.1,0.6
			c1.1,0.9,1.3,1.8,0.7,3c-0.6-1.5-0.6-1.5-2.3-1.2c-2.8,0.4-5.5,0.8-8.3,1.3C-89.5,55.1-89.6,55.4-89.1,56.6z"/>
		<path id="XMLID_140_" class="st43" d="M-88.9,36.3c0.1-0.8,0.9-0.6,1.3-0.7C-84,35-80.5,34.5-77,34c0.7-0.1,0.7-0.1,0.5,0.7
			c-0.6,2.2-1.9,4.2-2.7,6.3c-0.1,0.3-0.3,0.5-0.7,0.6c-1.1-0.1-1.9-1.1-3-1.3c-2.1,0.8-4,2.2-6,3.3c-3.1,1.7-6,3.5-9.1,5.2
			c-0.6,0.3-1.2,0.3-1.9,0.3c-0.1,0-0.2,0-0.3,0c-0.2,0-0.5-0.2-0.7-0.2c-0.4,0.1-0.2,0.7-0.6,0.9c-0.4-0.7-0.3-1.5-0.4-2.3
			c-0.1-0.8,0.7-1.1,1.3-1.5c4.2-2.4,8.4-4.9,12.5-7.3c0.4-0.3,1.2-0.1,1.2-0.7c0-0.4-0.7-0.5-1-0.8C-88.2,36.9-88.6,36.8-88.9,36.3
			z"/>
		<path id="XMLID_134_" class="st44" d="M-97.8,48.5c5-3,10-6,15.1-8.7c0.3,0.6,0.5,1.2,0,1.8c-4.7,2.7-9.4,5.4-14,8
			c-0.3,0.2-0.7,0.3-1,0.5C-98.3,49.6-98.2,49.1-97.8,48.5z"/>
		<path id="XMLID_133_" class="st44" d="M-78.3,51.8c-0.3,0.1-0.7,0.2-1,0c-0.3-0.2-0.7-0.2-0.8-0.6c0-0.4,0.4-0.5,0.6-0.6
			c4.6-2.6,9.2-5.3,13.9-7.9c0.5,0.6,0.3,1.1,0,1.7c-4.1,2.4-8.2,4.8-12.3,7.2C-78,51.6-78.1,51.7-78.3,51.8z"/>
		<path id="XMLID_132_" class="st45" d="M-89.1,56.6c-0.8,0-0.7-0.5-0.7-1c0-0.6,0.4-0.8,0.9-0.9c2.2-0.3,4.4-0.6,6.5-1
			c1.1-0.2,2.3-0.3,3.4-0.5c1.4-0.2,1.4-0.3,1.4,1.2c0,0.2,0,0.3,0,0.5C-81.5,55.4-85.3,56-89.1,56.6z"/>
		<path id="XMLID_130_" class="st46" d="M-79.9,41.5c1-1.2,1.4-2.8,2.1-4.1c0.5-0.9,0.8-1.9,1.4-2.7c0.1,1-0.1,1.8-0.6,2.7
			c-0.8,1.6-1.5,3.3-2.3,5c-0.1,0.3-0.1,0.8-0.6,0.8C-80.3,42.6-80.4,42.1-79.9,41.5z"/>
		<path id="XMLID_129_" class="st47" d="M-79.9,41.5c0,0.6,0,1.1,0,1.7c-1-0.3-1.9-1-2.8-1.5c0-0.6,0-1.2,0-1.8
			C-81.8,40.4-80.9,41-79.9,41.5z"/>
		<path id="XMLID_128_" class="st48" d="M-88.9,36.3c0.9,0.5,1.8,1,2.9,1.6c-0.7,0.5-1.1,1.1-2,0.8C-89.2,38.3-88.9,37.2-88.9,36.3z
			"/>
		<path id="XMLID_127_" class="st49" d="M-97.8,48.5c0,0.6,0,1.1,0,1.7c-0.8,0.4-1.5,0.7-2.4,0.3c0-0.1,0-0.1,0-0.2
			c0-0.5-0.1-1,0.3-1.5C-99.2,48.8-98.5,48.8-97.8,48.5z"/>
		<path id="XMLID_126_" class="st50" d="M-100.9,48.5c0.2,0.1,0.5,0.2,0.7,0.3c0.2,0.5,0.2,1.1,0,1.6c0,0-0.1,0.1-0.1,0.1
			c-0.2-0.1-0.5,0-0.7-0.3C-101.2,49.6-101.3,49.1-100.9,48.5z"/>
		<path id="XMLID_125_" class="st51" d="M-100.9,48.5c0,0.6,0,1.1,0,1.7c-0.2-0.2-0.3-0.3-0.5-0.5c0-0.4,0-0.8,0-1.1
			C-101.3,48.2-101.1,48.3-100.9,48.5z"/>
		<path id="XMLID_124_" class="st52" d="M-65.3,42.4c0.2-0.1,0.3-0.2,0.5-0.2c-0.1,0.6,0.3,1.4-0.5,1.9
			C-65.5,43.5-65.5,43-65.3,42.4z"/>
		<path id="XMLID_107_" class="st53" d="M-100.2,50.4c0-0.5,0-1.1,0-1.6c0.1,0,0.1,0,0.2,0C-100,49.3-99.7,49.9-100.2,50.4z"/>
	</g>
	<g id="XMLID_1_">
		<path id="XMLID_145_" class="st54" d="M-147.6-51.1c-0.5-1.3-0.1-2.4,1.4-3.3c3.5-2,6.9-3.9,10.4-5.9c5-2.9,10-5.7,15.1-8.6
			c3.1-1.8,6.3-1.8,9.5,0c8.1,4.7,16.1,9.4,24.1,14.2c7,4.1,13.9,8.3,20.8,12.4c2.7,1.6,5.4,3.2,8.1,4.8c0.9,0.5,1.4,1.3,1.4,2.3
			c0.1,1.2,0.1,2.5,0.1,3.8c0,0.2-0.2,0.3-0.4,0.4c0,0-0.1-0.1-0.1-0.1c-0.4-0.7-0.1-1.4-0.2-2.1c0,0-0.1-0.1-0.1-0.1
			c0,0-0.1,0-0.1,0c-1.4,1.2-3,2-4.6,2.9c-7.2,4.1-14.4,8.1-21.6,12.2c-3.2,1.9-6.5,1.9-9.7,0c-12-7.1-24.1-14.2-36.1-21.4
			c-5.3-3.1-10.6-6.3-15.9-9.3C-146.5-49.5-147.3-50.1-147.6-51.1z"/>
		<path id="XMLID_142_" class="st55" d="M-147.6-51.1c1.6,2.1,4.1,3,6.2,4.3c5.5,3.3,11.1,6.6,16.7,9.8c7.7,4.5,15.4,9.1,23,13.6
			c2.7,1.6,5.4,3.2,8.1,4.8c3.2,1.9,6.3,1.9,9.6,0.1c4.8-2.7,9.5-5.4,14.3-8.1c3.6-2.1,7.3-4.1,10.9-6.2c0.4-0.2,0.7-0.6,1.1-0.9
			c0.6,0.3,0.3,0.9,0.3,1.3c0.1,0.4-0.1,0.8,0.1,1.2c0,0,0.1,0,0.1,0c0.3,2.1-0.8,3.2-2.5,4.1c-8,4.5-16,9-23.9,13.6
			c-3.6,2.1-7,2-10.6-0.2c-10-6-20.1-12-30.2-17.9c-7-4.1-14-8.3-21-12.4c-1.5-0.9-2.5-2-2.2-3.9C-147.5-48.9-147.6-50-147.6-51.1z"
			/>
		<path id="XMLID_114_" class="st56" d="M-94.8-22.7c-0.8,0.1-1.4-0.2-2-0.6c-14.4-8.5-28.7-17-43.1-25.5c-1.7-1-1.7-1.6,0-2.6
			c8.4-4.8,16.8-9.5,25.2-14.3c1.4-0.8,2.7-0.8,4,0C-96.4-57-81.9-48.5-67.5-40c1.5,0.9,1.5,1.5,0,2.4c-8.5,4.8-17,9.6-25.5,14.5
			C-93.6-22.8-94.2-22.6-94.8-22.7z"/>
		<path id="XMLID_113_" class="st57" d="M-77.7-24.7c-1.1,0-2.1-0.2-2.8-1c-0.6-0.6-0.7-1.3,0-1.7c2.2-1.4,4.4-3.2,7.1-3.6
			c1.2-0.2,2.3,0,3.2,1c0.5,0.5,0.6,1.2,0,1.5C-72.5-26.9-74.8-25.2-77.7-24.7z"/>
		<path id="XMLID_112_" class="st58" d="M-133.7-57c-0.4-0.2-1-0.1-1.2-0.7c-0.1-0.5,0.4-0.6,0.7-0.8c2.3-1.3,4.5-2.6,6.8-3.9
			c0.3-0.2,0.7-0.4,1.1-0.4c0.5,0,1,0.1,1.2,0.5c0.2,0.6-0.4,0.7-0.7,0.9c-2.2,1.3-4.4,2.5-6.6,3.8C-132.8-57.3-133.3-57.2-133.7-57
			z"/>
		<path id="XMLID_111_" class="st59" d="M-57.2-31.1c-0.5-0.8,0.1-1.8-0.4-2.6c0.2-0.3,0.4-0.6,0.5,0.1
			C-57.1-32.8-57.2-32-57.2-31.1z"/>
		<path id="XMLID_106_" class="st60" d="M-83.2-44c-6.4,3.7-12.5,7.2-18.7,10.8c-2.1,1.2-2.1,1.2-3.9-0.4c-1-0.9-1.9-1.8-2.6-2.9
			c-0.6-1-0.9-2-0.5-3.1c0.6-1.6,1.1-1.9,2.8-1.7c1.5,0.2,3.1,0.3,4.9,0.5c-1.2-1.2-1.9-2.6-3.9-2.3c0.7-0.8,1.5-1.1,2.2-1.5
			c0.2-0.1,0.4-0.1,0.5,0.1c0.8,1.7,2.7,1.2,4.1,1.9c-0.3-0.8-0.5-1.7-0.9-2.5c-0.4-0.9-0.1-1.2,0.8-1.4c2.8-0.6,5.6-0.6,8.4,0.1
			C-87.8-45.8-85.6-45.1-83.2-44z"/>
		<path id="XMLID_105_" class="st60" d="M-109.5-43.1c-2.1-0.1-4.2-0.4-5.9-1.9c-1.7-1.5-1.7-3.2,0.1-4.6c1.9-1.5,4.1-1.8,6.4-1.7
			c2,0.1,3.9,0.5,5.4,1.9c1.5,1.4,1.5,2.8,0,4.2C-105.2-43.5-107.3-43.3-109.5-43.1z"/>
	</g>
	<g id="XMLID_4_">
		<path id="XMLID_144_" class="st61" d="M373-29.8c-1.1-2.2-2.9-2.8-5.2-2.4c-14.6,2.5-29.3,4.9-43.9,7.6c-4.5,0.8-7.6,3.8-9.2,8.1
			c-7.7,21.1-15.5,42.1-23.2,63.2c-2.6,7.2-5.3,14.4-8,21.6c-0.9,2.4-1,4.5,1,6.4c1.8,1.7,2.9,4,5,5.5c-0.1-1.4-1.3-2.1-2-3.1
			c-0.4-0.6-1-1.1-1.5-1.9c6.5-0.7,12.7-2,19-3.1c8.7-1.6,17.5-3,26.2-4.6c4.8-0.9,8.4-3.7,10.1-8.4c8.6-23.4,17.2-46.8,25.8-70.2
			c1.8-4.9,3.8-9.8,5.6-14.8C373.1-27.2,373.4-28.5,373-29.8z"/>
		<path id="XMLID_143_" class="st62" d="M373-29.8c-0.6,4.6-2.8,8.6-4.3,12.9c-3,8.1-5.9,16.1-8.9,24.2c-3.1,8.3-6.1,16.7-9.2,25
			c-2.7,7.3-5.3,14.5-8,21.8c-1,2.6-1.5,5.4-3.3,7.8c-2.8,3.7-6.6,5.1-11,5.7c-8.1,1.2-16.3,2.6-24.4,4.2
			c-5.4,1.1-10.9,1.9-16.3,2.8c-0.8,0.1-1.6-0.1-2.8-0.1c1.7,2.1,3.2,3.9,4.7,5.7c1.2,0.8,2.4,0.6,3.7,0.4
			c14.5-2.5,28.9-4.9,43.4-7.4c4.4-0.8,7.7-3.5,9.2-7.7c10.6-28.6,21-57.2,31.5-85.7c0.8-2.1,0.8-4-1-5.7
			C375.1-27.2,374.1-28.6,373-29.8z"/>
		<path id="XMLID_110_" class="st63" d="M318.5-14.9c-0.8,0.7-1.3,1.6-1.7,2.6c-8.5,23.1-17,46.3-25.5,69.4
			c-0.2,0.4-0.3,0.9-0.5,1.3c-0.6,1.9-0.1,2.6,2,2.3c3.5-0.5,6.9-1.2,10.4-1.8c10.8-1.8,21.6-3.7,32.4-5.5c2.6-0.4,4.1-1.7,5-4.1
			c8.4-23.1,16.9-46.1,25.4-69.1c1.4-3.8,1.1-4.2-2.9-3.5c-13.9,2.4-27.8,4.7-41.7,7.1C320.3-16,319.3-15.6,318.5-14.9z"/>
		<path id="XMLID_109_" class="st64" d="M318.2,65.7c0.9-1,1.9-1.9,2.1-3.4c0.2-1.3-0.4-2.4-1.7-2.2c-3.9,0.5-8,0.4-11.5,2.6
			c-1.4,0.8-2.4,2.1-2.8,3.8c-0.2,1.2,0.2,2.3,1.5,2.2c4.1-0.4,8.3-0.5,12-2.7C318,65.9,318.1,65.7,318.2,65.7z"/>
		<path id="XMLID_108_" class="st65" d="M351.4-24.1c0.4-0.6,1.1-1.1,0.8-1.8c-0.3-0.9-1.2-0.5-1.8-0.4c-3.7,0.6-7.4,1.3-11.1,1.9
			c-1.1,0.2-2.1,0.6-2.7,1.6c-0.4,0.8-0.3,1.5,0.7,1.4c4.4-0.7,8.9-1.3,13.3-2.4C350.9-23.8,351.1-24,351.4-24.1z"/>
		<path id="XMLID_104_" class="st66" d="M329.8,19.6c-0.5-3.2-0.3-4,1.8-6.1c-1.4-0.2-2.5,0.2-3.7,0.4c-0.4,0.1-0.6,0.3-0.5,0.7
			c0.6,2.4-1.5,3.7-2.5,5.4c-0.4,0.6-0.7-0.1-0.9-0.5c-0.4-1-0.8-1.9-1-2.9c-0.3-1.1-0.8-1.1-1.8-0.7c-3,1.4-5.7,3.4-7.9,5.8
			c-3,3.3-5.2,7.2-7.4,11.5c3.7-0.6,7.1-1.2,10.5-1.8c7.3-1.2,14.6-2.5,21.9-3.7c2.6-0.4,2.5-0.4,3-3.1c0.4-2.2,0.7-4.5,0.4-6.7
			c-0.3-2.6-2.2-4.4-4.7-4.8c-1-0.1-1.5,0.5-2,1.1C333.2,15.9,331.6,17.7,329.8,19.6z"/>
		<path id="XMLID_103_" class="st66" d="M328.6,0.3c-2,1.9-4,4.1-4.7,7.2c-0.7,3.2,1.1,5.4,4.3,5.4c3.6,0,6.4-1.8,8.9-4
			c2.1-1.8,3.8-4,4.3-6.9c0.6-3.2-1.1-5.4-4.4-5.3C334.5-3.3,331.4-2,328.6,0.3z"/>
	</g>
</g>
</svg>
