<?xml version="1.0" encoding="utf-8"?>
<!-- Generator: Adobe Illustrator 19.0.0, SVG Export Plug-In . SVG Version: 6.00 Build 0)  -->
<svg version="1.1" xmlns="http://www.w3.org/2000/svg" xmlns:xlink="http://www.w3.org/1999/xlink" x="0px" y="0px"
	 viewBox="0 0 205 205" style="enable-background:new 0 0 205 205;" xml:space="preserve">
<style type="text/css">
	.st0{clip-path:url(#XMLID_36_);}
	.st1{fill:#42200D;}
	.st2{fill:#EFCF81;}
	.st3{fill:#E5E5E5;}
	.st4{fill:#251206;}
	.st5{fill:#DFA563;}
	.st6{fill:#763917;}
	.st7{fill:#E0A969;}
	.st8{fill:#333333;}
	.st9{fill:#D0362B;}
	.st10{fill:#E87D75;}
	.st11{fill:#EFCF82;}
	.st12{fill:#E78575;}
	.st13{fill:#E1554A;}
	.st14{fill:#FEFEFE;}
	.st15{fill:#D93C31;}
	.st16{fill:#271407;}
	.st17{fill:#261306;}
	.st18{fill:#BC3026;}
	.st19{fill:#030303;}
	.st20{fill:#020202;}
	.st21{fill:#D69255;}
	.st22{fill:#E9BC5F;}
	.st23{fill:#E1A631;}
	.st24{fill:#666666;}
	.st25{fill:#5B4F47;}
	.st26{fill:#746359;}
	.st27{fill:#50140F;}
	.st28{fill:#827065;}
	.st29{fill:#8B7F78;}
	.st30{fill:#8B8078;}
	.st31{fill:#EECD80;}
	.st32{fill:#E46756;}
	.st33{fill:#603C39;}
	.st34{fill:#7D5D5B;}
	.st35{fill:#DB635A;}
	.st36{fill:#D29F68;}
	.st37{fill:#373635;}
	.st38{fill:none;stroke:#EAB618;stroke-width:3;stroke-miterlimit:10;}
	.st39{fill:#EA6154;}
	.st40{fill:#F3B22A;}
	.st41{fill:#EA9D2F;}
	.st42{fill:#F29525;}
	.st43{fill:#C4463B;}
	.st44{fill:#A9362E;}
	.st45{fill:#EA9E31;}
	.st46{fill:#F2B852;}
	.st47{fill:#CE6D65;}
	.st48{fill:#D5756C;}
	.st49{fill:#E2766C;}
	.st50{fill:#EEEEEE;}
	.st51{fill:#F3B742;}
	.st52{fill:#E2E3E5;}
	.st53{fill:#AEAEAE;}
	.st54{fill:#B1B1B1;}
	.st55{fill:#979797;}
	.st56{fill:#919191;}
	.st57{fill:#929292;}
	.st58{fill:#A5A5A5;}
	.st59{fill:#A2A2A2;}
	.st60{fill:#878787;}
	.st61{fill:#A3A3A3;}
	.st62{fill:#939393;}
	.st63{fill:#E3E2E4;}
	.st64{fill:#B3B5C8;}
	.st65{fill:#4990C7;}
	.st66{fill:#23295C;}
	.st67{fill:#242A5C;}
	.st68{fill:#ABADC0;}
	.st69{fill:#FCFDFD;}
	.st70{fill:#394E5E;}
	.st71{fill:#202F39;}
	.st72{fill:#85CEEF;}
	.st73{fill:#F7F8FB;}
	.st74{fill:#F5F7FA;}
	.st75{fill:#FCFEFD;}
</style>
<g id="Layer_2">
	<g id="XMLID_7_">
		<defs>
			<circle id="XMLID_6_" cx="102.5" cy="102.5" r="100"/>
		</defs>
		<clipPath id="XMLID_36_">
			<use xlink:href="#XMLID_6_"  style="overflow:visible;"/>
		</clipPath>
		<g id="XMLID_5_" class="st0">
			<path id="XMLID_201_" class="st1" d="M12.8,94.8c-0.2,0.2-0.4,0.8-0.7,0.2c-0.2-0.4-0.1-1-0.1-1.5c0-23.8,0-47.5,0-71.3
				c0-1.4,0.4-2.1,1.6-2.7c20-10.4,40.1-20.9,60.1-31.4c0.9-0.5,1.6-0.7,2.7-0.1c17,9,34.1,17.9,51.2,26.8c0.3,0.1,0.5,0.3,0.8,0.5
				c0.1,1-0.8,1.2-1.4,1.5c-2.7,1.7-5.6,3-8.5,4.5c-12.6,6.5-25.1,13.2-37.7,19.7c-4.4,2.2-8.7,4.6-13.1,6.9
				c-0.8,0.4-1.5,0.9-2.4,0.8c-2.8-1.2-5.6-2.6-8.3-4.1C43,37.4,28.9,30,14.7,22.7c-0.3-0.1-0.6-0.3-0.8-0.4c-0.7-0.4-1-0.1-1,0.6
				c0,0.4,0,0.9,0,1.3c0,22.7,0,45.5,0,68.2C12.9,93.2,12.9,94,12.8,94.8z"/>
			<path id="XMLID_200_" class="st2" d="M126,31.9c0,17.6,0,35.2,0,52.8c0,0.2,0.1,0.5,0.1,0.7c0.2,1,0.1,1.9,0.1,2.9
				c0.1,3.4,0,6.8,0,10.1c0,0.7,0,1.4-0.3,2c-1.4,1.5-3.4,2.2-5.1,3.1c-7.6,3.9-15.1,8-22.7,11.8c-2,0.9-3.9,2.2-5.9,3.1
				c-7.6,3.9-15.2,7.9-22.8,11.9c-0.7,0.3-1.3,0.8-2.1,0.4c-0.6-0.4-0.6-1.1-0.6-1.8c0-0.2,0-0.5,0-0.7c0-13.4,0-26.7,0-40.1
				c0-0.6,0-1.2-0.1-1.8c-0.1-0.5-0.3-1.1-0.3-1.6c0-8.8-0.2-17.7,0-26.5c0.1-1,0.8-1.4,1.6-1.9c6-3.1,12.2-5.8,18.2-8.9
				c0.9-0.5,1.8-0.6,2.6,0.1c2.8,2.2,6.2,3.2,9.5,4.4c2.2,0.8,2.3,0.9,2.4,3.3c0,1-0.4,2.1,0.4,3c1.5-0.1,2.5-1.5,4-1.4
				c1.2,0.6,1.1,1.8,1.4,2.8c0.2,0.6,0.3,1.3,0.5,2.2c1.1-2.5,2.2-4.7,3.3-7c0.5-1,1-1.8,2-2.3c0.4-0.2,0.9-0.5,1.3-0.6
				c2.9-0.8,3.8-2.8,3.5-5.7c-0.1-1.1-0.5-1.5-1.4-1.7c-0.3-0.3-0.2-0.7,0-1c1.4-2.5,2.2-5.2,3.7-7.6
				C120.9,33.5,123.3,32.5,126,31.9z"/>
			<path id="XMLID_199_" class="st3" d="M125.7,151.1c0,15.5,0,31.1-0.1,46.6c0,1.4,0.5,2.1,1.7,2.7c10.8,5.5,21.6,11.1,32.4,16.7
				c3.1,1.6,6.1,3.2,9.3,4.9c-0.8,0.8-1.7,1.3-2.6,1.8c-9.3,4.9-18.7,9.7-28,14.6c-10.3,5.4-20.6,10.8-30.9,16.2
				c-7.3,3.8-14.6,7.7-21.9,11.5c-5.6,2.9-11.3,5.9-16.8,8.9c-0.8,0.4-1.3,0.4-2,0c-14.4-7.5-28.7-15-43.1-22.5
				c-3.6-1.9-7.2-3.8-10.8-5.7C2.5,241.5-7.7,236.2-18,230.9c-0.4-0.2-0.8-0.3-1-0.9c12-6.3,24.1-12.6,36.1-18.9
				c0.1,0.1,0.2,0.2,0.2,0.3c0.1,2.8,1.8,5.4,1.4,8.3c-0.2,5.2,0.3,10.3-0.3,15.5c-0.1,1.2,0.7,1.6,1.6,2c3.9,2,7.9,4,11.8,6
				c6.4,3.3,12.7,6.6,19.1,9.8c5.1,2.6,10.2,5.3,15.3,7.9c0.4,0.2,0.8,0.3,1.2,0.1c8.3-4.4,16.4-8.9,24.7-13.3
				c1-0.5,1.4-1.2,1.3-2.4c-0.2-2.6-0.1-5.2-0.1-7.8c0-0.7-0.1-1.4,0.6-1.8c1-0.2,1.8,0.4,2.6,0.8c2.9,1.6,5.8,3,8.7,4.6
				c0.3,0.4,0.5,0.3,0.7-0.1c7.4-4.3,14.9-8.2,22.4-12.1c2.6-1.3,3.8-2.7,3.7-5.8c-0.2-4.9-0.5-9.8-0.5-14.7c0-1-0.8-1.3-1.5-1.7
				c-1.5-0.9-3-1.6-4.5-2.5c-0.6-0.4-1.3-0.7-1.1-1.7c0.5-3.2,0.2-6.3,0.2-9.5c0-1.5,0-3,0-4.6c-0.1-10-0.1-20,0-30
				c0-2.2-0.1-4.3,0.1-6.5c0-0.2,0.1-0.4,0.3-0.6C125.3,151,125.4,151,125.7,151.1z"/>
			<path id="XMLID_198_" class="st4" d="M12.8,94.8c-0.6-0.4-0.4-1.1-0.4-1.7c0-23.6,0-47.2,0-70.8c0-0.4,0.1-0.8,0.1-1.4
				c6.1,3.2,12.2,6.3,18.2,9.5c3.2,1.7,6.4,3.4,9.6,5.1c8.3,4.4,16.7,8.7,25.1,13c0.1,0.1,0.2,0,0.4,0.1c0.6,0.5,0.5,1.2,0.5,1.9
				c0,2.4,0.1,4.7-0.1,7.1c-0.1,0.9-0.5,1.6-1,2.4c-5.6,8.5-11.3,16.9-16.9,25.4c-0.1,0.2-0.3,0.4-0.4,0.6c-1,1.2-1.6,1.2-2.4-0.1
				c-1.2-1.8-2.2-3.7-3.3-5.6c-0.9-1.5-1.9-3-2.7-4.6c-0.6-1.2-1.2-1.3-2.3-0.4c-5.9,4.9-11.8,9.9-17.7,14.8
				c-0.8,0.7-1.6,1.6-2.7,1.8C15.4,92.8,14.1,93.8,12.8,94.8z"/>
			<path id="XMLID_197_" class="st5" d="M16.8,91.8c4.9-4.2,9.9-8.3,14.8-12.5c1.8-1.5,3.8-3,5.5-4.6c1.4-1.3,1.9-0.9,2.7,0.6
				c2.1,3.9,4.4,7.7,6.8,11.8c6.5-9.7,12.8-19.2,19.1-28.8c0.2-0.4,0.5-0.8,1-0.5c0,8.8,0,17.5,0,26.3c0,0.8-0.1,1.6,0.3,2.3
				c-0.3,0.5-0.2,1-0.2,1.4c0,13.2,0,26.4,0,39.7c0,0.5-0.1,1,0.2,1.4c0,0.1,0,0.3,0,0.4c-0.4,0.5,0.2,1.4-0.7,1.7
				c-0.8,0.1-1.4-0.3-2.1-0.6c-6.1-3.3-12.2-6.4-18.3-9.6c-7.3-3.8-14.5-7.7-22-11.4c-0.3-0.1-0.5-0.3-0.7-0.6
				c-1.5-1.5-3.6-2-5.4-3.1c-0.9-0.5-1.3-1.1-1.3-2.1C16.8,99.6,16.8,95.7,16.8,91.8z"/>
			<path id="XMLID_196_" class="st6" d="M66.7,57.7c-0.3,0.2-0.7,0.3-1,0.5c0-3.2,0-6.4,0-9.7c12.2-6.3,24.3-12.7,36.5-19
				c8.4-4.4,16.9-8.9,25.3-13.4c0.3-0.2,0.6-0.4,0.9-0.7c0.7,0.2,0.6,0.8,0.6,1.4c0,4.1,0,8.2,0,12.3c0,1-0.4,1.4-1.2,1.8
				c-0.6,0.3-1.2,0.7-1.8,1c-1.6,0.8-3.1,1.7-4.7,2.5c-0.8,0.4-1.2,1-1.5,1.8c-1.4,2.7-2.5,5.6-4.1,8.2c0.5,0.8,0,1.4-0.3,2
				c-1.1,2.2-2.1,4.3-2.9,6.6c-0.8,0.5-1.3,1.2-1.7,2c-1.2,2.6-2.4,5.1-3.8,7.8c-1.1-2-0.7-4.3-2-6c-0.7-1.9-1.1-3.9-1.6-5.9
				c-0.7-3.4-1.8-6.7-2.2-10.2c0.5,4-0.7,8-0.2,12c0.2,2.1,0.3,4.1,0,6.2c-0.7,0.6-0.8,0.1-0.8-0.5c0-1.4-0.1-2.7,0-4.1
				c0.1-1-0.4-1.4-1.2-1.6c-3.7-1.2-7.5-2.3-10.7-4.9c-0.4-0.4-0.8-0.4-1.3-0.1C80.2,51.1,73.4,54.4,66.7,57.7z"/>
			<path id="XMLID_195_" class="st7" d="M17.3,196.9c0.7-3.8-1.3-5.6-4.6-6.6c-0.6-0.2-1.1-0.7-1.6-0.9c-3.1-0.9-3.7-2.9-3.6-5.9
				c0.2-12.8,0.1-25.6,0.1-38.4c0-0.7,0.1-1.5,0.1-2.2c0.6-0.4,1.2,0,1.7,0.3c6.8,3.3,13.3,7.2,20.1,10.5c0.1,0.2,0.2,0.4,0.2,0.6
				c-0.1,13.5,0,27,0,40.5c0,1,0.1,2.1-0.2,3.1c-0.5,1.3-1.4,0.7-2.1,0.4c-2.5-1.1-4.7-2.6-7.2-3.8c-1.9-0.9-1.9-0.9-2.1,1.1
				C17.9,196.1,18.1,196.8,17.3,196.9z"/>
			<path id="XMLID_194_" class="st8" d="M17.3,196.9c0.5-1.2-0.1-2.6,0.4-3.9c3.9,1.6,7.4,4.1,11.4,5.5c1.1-1.2,2.7-1.7,4.1-2.5
				c5.1-2.7,10.2-5.4,15.4-8c0.3-0.1,0.6-0.2,0.9-0.2c3.4,1.1,6.4,2.8,9.4,4.7c0.1,0.2,0.2,0.4,0.3,0.6c0.4,1.8,0.5,3.5,0.5,5.3
				c0,7,0,14,0,21.1c0,1,0.1,2-0.3,2.9c-0.8,1-1.7,0.3-2.5,0c-4.1-2-8.2-4.2-12.3-6.4c-3.6-1.9-7.3-3.8-11-5.7
				c-4.8-2.5-9.5-5.1-14.3-7.4c-0.8-0.4-1.6-0.8-1.9-1.6C17.2,199.7,17.2,198.3,17.3,196.9z"/>
			<path id="XMLID_193_" class="st9" d="M23.4,108.8c2.1,0.4,3.8,1.6,5.7,2.6c11.5,6,23.1,12,34.6,18c0.3,0.2,0.6,0.4,0.9,0.6
				c-0.4,1.5-1.9,1.6-3,2.3c-0.8,0.6-1.9,0.7-2.3,1.9c-0.2,0.8-0.1,1.6-0.1,2.4c0,15.2,0,30.4,0,45.6c0,1,0.2,2-0.3,2.9
				c-0.3,0.3-0.6,0.5-1,0.4c-2.7-1.1-5.5-1.9-7.6-4.2c-0.4-0.9-0.3-1.8-0.3-2.7c0-7.5-0.1-15,0-22.6c0.1-10.2-0.7-20.4-0.5-30.6
				c-0.3-0.7-1-0.9-1.6-1.2c-5.8-3-11.6-5.9-17.3-9.1c-1.3-0.7-2.3-0.5-3.5,0.2c-2.5,1.6-5.2,2.8-7.9,4.1c-1.7,0.8-1.9,0.7-1.8-1.2
				c0.1-2.1-0.3-4.2,0.2-6.2C19.5,110.8,21.5,109.8,23.4,108.8z"/>
			<path id="XMLID_192_" class="st7" d="M17.2,201.1c13.8,7.2,27.6,14.3,41.4,21.5c0.2,0.1,0.3,0.3,0.4,0.5
				c0.3,4.1,0.1,8.1,0.1,12.2c0,1.5-0.7,1.8-2.1,1.2c-1.6-0.7-3.1-1.6-4.7-2.2c-4-1.4-7.5-3.7-11.2-5.7c-3-1.6-6.2-3-9.2-4.7
				c-3.7-2.1-7.5-4-11.3-5.9c-1.3-0.6-1.6-0.6-1.7,0.8c0,0.4,0.1,1-0.7,1c0.4-3-1.8-5.7-1.2-8.8C17.2,207.7,17.2,204.4,17.2,201.1z"
				/>
			<path id="XMLID_191_" class="st10" d="M17.6,111.9c0,2.5,0,4.9,0,7.7c3-1.5,6-2.8,8.6-4.5c2.1-1.3,3.6-1.1,5.7,0
				c5.9,3.3,11.9,6.2,17.9,9.3c0.2,0.9-0.5,1.2-1,1.5c-6.2,3.3-12.4,6.6-18.6,9.9c-0.3,0.2-0.7,0.3-1.1,0.3c-0.7,0-1.3-0.4-1.9-0.7
				c-5.7-3.2-11.7-5.9-17.5-8.9c-0.7-0.4-1.8-0.6-1.8-1.8c1.9-1.5,4.1-2.5,6.3-3.3c2.6-1,3.3-2.5,3.1-5.1
				C17.1,114.8,16.7,113.3,17.6,111.9z"/>
			<path id="XMLID_190_" class="st9" d="M7.9,124.7c2.7,2.3,5.9,3.4,9,5c4.1,2,8.1,4.2,12.1,6.2c0.7,0.6,0.6,1.5,0.6,2.2
				c0,4.4,0,8.8,0,13.3c0,0.8,0,1.6-0.6,2.3c-4-1.6-7.8-3.7-11.6-5.8c-3.2-1.8-6.4-3.5-9.8-5c0-5.8-0.1-11.6-0.1-17.4
				C7.5,125.2,7.6,124.9,7.9,124.7z"/>
			<path id="XMLID_189_" class="st11" d="M125.7,151.1c-0.1,0-0.2,0-0.3,0c-0.8-0.6-0.7-1.4-0.7-2.2c0-13.5,0-27,0-40.6
				c0-0.7,0-1.4,0.3-2c0.7-1.1,1.9-1.5,3-2c0.2-0.1,0.4,0,0.6,0.1c0,14.6,0,29.2,0.1,43.8c0,0.9-0.3,1.4-1.1,1.7
				C126.9,150.3,126.1,150.5,125.7,151.1z"/>
			<path id="XMLID_188_" class="st12" d="M128.5,104.4c-0.1,0-0.2,0-0.2,0c-0.7-0.7-0.6-1.6-0.6-2.4c0-3.9-0.1-7.9,0-11.8
				c0-1.6-0.4-2.2-2-2.1c0-0.9-0.4-1.9,0.3-2.7c2,0.5,2.7,1.7,2.6,3.9C128.4,94.4,128.5,99.4,128.5,104.4z"/>
			<path id="XMLID_187_" class="st13" d="M125.7,105.9c-0.3,0.5-0.4,1-0.4,1.6c0,14.3,0,28.7,0,43c0,0.2,0,0.4,0.1,0.5
				c0,0.1-0.1,0.2-0.2,0.2c-0.3,0.6-0.8,0.9-1.4,1.2c-6.7,3.3-13.2,6.9-19.9,10.3c-14.1,7.3-28.2,14.7-42.4,22
				c-0.8,0.4-1.6,1.1-2.6,0.4c-0.4-0.5-0.2-1.1-0.2-1.6c0-16.3,0-32.6,0-48.8c0-0.5-0.1-1,0.2-1.4c1.7-1.3,3.9-1.9,5.6-3.3
				c0.6,0.3,1.2,0.5,1.8,0.8c0.4,0.2,0.8,0.1,1.1,0.1c7.5-3.9,15-7.8,22.4-11.7c0.7-0.3,1.3-0.6,2-0.9c1.2,0.4,1.9,1.5,2.8,2.3
				c1.1,1,1.4,1,1.8-0.4c0.5-1.6,1-3.3,1.3-4.9c9.1-4.8,18.3-9.5,27.4-14.3C126.2,102.4,125.8,104.2,125.7,105.9z"/>
			<path id="XMLID_186_" class="st4" d="M92.4,56.8c0,2.1,0,3.8,0,5.5c0,0.6-0.1,1-0.7,1.4c-5.1,2.6-10.2,5.2-15.7,8
				c0-2.2,0-4.1,0-5.9c0-0.5,0.2-0.8,0.7-1C81.8,62.2,86.9,59.6,92.4,56.8z"/>
			<path id="XMLID_185_" class="st14" d="M106.9,69.2c0.6-1.2,0.3-2.5,0.2-3.8c-0.1-1.1,0.3-1.5,1.2-1.9c1.3-0.6,2.5-1.2,4.1-2
				c0,3.9,0,7.6,0,11.2c0,0.6-0.4,0.8-0.9,1.1c-2.3,1.2-4.7,2.4-7,3.7c-0.9,0.5-1.4,0.3-1.3-0.8c0.1-1.8-0.3-3.7,0.2-5.5
				C104.2,70,105.4,69.3,106.9,69.2z"/>
			<path id="XMLID_184_" class="st14" d="M86.7,75.2c1.5-1.2,3.3-1.8,5.3-3c0,2.8-0.2,5.4,0.1,7.9c0.4,3.1-0.6,5-3.6,5.9
				c-1.6,0.5-3.1,1.5-4.6,2.3c-0.6,0.3-1.1,0.6-1.1-0.4c0.1-2-0.3-4.1,0.2-6.1c0.2-0.8,1-1.1,1.6-1.4c1.3-0.5,1.7-1.4,1.7-2.8
				C86.2,76.9,86.2,76,86.7,75.2z"/>
			<path id="XMLID_183_" class="st15" d="M125.7,105.9c-0.8-1.7-0.2-3.4-0.4-5.1c0.6-0.5,0.4-1.3,0.4-1.9c0-3.6,0.1-7.1,0.1-10.7
				c2.5-1.3,2.5-1.3,2.5,1.6c0,4.9,0,9.8,0.1,14.7C127.5,105.1,126.6,105.6,125.7,105.9z"/>
			<path id="XMLID_182_" class="st16" d="M100.9,58.9c-0.9-2-0.2-4.2-0.4-6.2c0.7-1.3,1.8-1.9,3.3-1.6c0.3,2,1.4,3.8,1.1,5.9
				C103.6,57.6,102.2,58.3,100.9,58.9z"/>
			<path id="XMLID_181_" class="st17" d="M112.4,53.1c-0.9-0.6-0.1-1.1,0.1-1.6c1-2.4,2.1-4.7,3.2-7c0.5,0,1.1,0.1,1.9-0.5
				c0,2.1,0,3.9,0,5.7c0,0.7-0.3,1-0.9,1.2C115.3,51.6,113.8,52.4,112.4,53.1z"/>
			<path id="XMLID_180_" class="st18" d="M97.8,115.1c0.7,0.5,0.2,1.1,0,1.7c-0.4,1.4-0.8,2.8-1.2,4.2c-0.3,0.9-0.7,1.5-1.6,0.5
				c-1-1.1-2.1-2.2-3.2-3.3C93.9,117.2,95.9,116.1,97.8,115.1z"/>
			<path id="XMLID_179_" class="st19" d="M86.7,75.2c0.7,3.3-0.2,5.7-3.7,6.7c-0.7-1.4-0.2-2.9-0.3-4.3c0-0.7,0.7-0.7,1.2-1
				C84.8,76.2,85.8,75.7,86.7,75.2z"/>
			<path id="XMLID_178_" class="st20" d="M106.9,69.2c-1.2,0.7-2.4,1.3-3.5,2c-1.4-2.8-0.2-5.5,2.7-6.2c0.9-0.2,0.8,0.3,0.8,0.8
				C106.9,66.8,106.9,68,106.9,69.2z"/>
			<path id="XMLID_177_" class="st21" d="M67.1,128.8c-0.6-0.5-0.3-1.2-0.3-1.7c0-13,0-26,0-39.1c0-0.6-0.2-1.2,0.3-1.7
				C67.1,100.5,67.1,114.7,67.1,128.8z"/>
			<path id="XMLID_176_" class="st22" d="M98.2,86.6c0.8-0.4,1.6-0.9,2.5-1.2c0.9-0.4,1.7,0.1,2.1,0.7c0.3,0.6-0.6,0.7-1.1,0.9
				c-0.7,0.4-0.9,0.9-0.9,1.6c0,0.6,0.1,1.2,0,1.8c-0.1,0.7,0.6,1.9-0.6,2.1c-1.1,0.2-2.7-1.4-2.7-2.5c0.1-1.2-0.4-2.5,0.4-3.6
				c0.6,0.8,0.4,1.7,0.5,2.6c0,0.6,0.1,1.2,0.6,1.7c0.5,0.4,0.9,0.4,1-0.3c0.1-1.1,0.2-2.3-1.1-3C98.5,87.4,98.1,87.2,98.2,86.6z"/>
			<path id="XMLID_175_" class="st23" d="M98.2,86.6c1.6,0.8,2.7,1.8,2.2,3.8c-0.1,0.6,0.4,1.6-0.6,1.5c-0.8-0.1-1.9-0.4-1.9-1.6
				c0-1.2,0-2.5,0-3.7C98,86.7,98.1,86.6,98.2,86.6z"/>
			<path id="XMLID_174_" class="st21" d="M67.5,130.8c-0.4,0.4-0.8,0.4-1.1-0.1c0.6-0.3,0.2-1.1,0.7-1.5
				C67.2,129.8,67,130.4,67.5,130.8z"/>
			<path id="XMLID_173_" class="st24" d="M58.6,222.9c0-0.1,0-0.2,0-0.3c0.6-0.5,0.4-1.3,0.4-1.9c0-7.9,0-15.9,0-23.8
				c0-1.5-0.2-2.9-0.3-4.4c0.2-0.3,0.5-0.6,0.7-0.8c3.4-2,7-3.7,10.5-5.5c11.4-5.8,22.6-11.8,34-17.6c6.5-3.3,13-6.8,19.5-10.1
				c0.6-0.3,1.1-0.9,1.8-0.4c0,10.1,0,20.2,0.1,30.3c-0.3,0.5-0.7,0.8-1.2,1.1c-8.2,4.3-16.4,8.4-24.5,12.8c-0.5,0.3-1,0.5-1.6,0.5
				c-0.3,0-0.5-0.2-0.6-0.5c-0.1-0.9,0.6-2.3-0.3-2.7c-0.8-0.4-1.7,0.8-2.5,1.2c-0.2,0.1-0.3,0.2-0.5,0.3c-0.4,0.2-0.8,0.3-1.2,0.5
				c-2.3,0.9-4.5,1.9-3.9,5c0.1,0.5-0.2,0.9-0.6,1.3c-3.8,2.3-7.8,4.2-11.7,6.3c-5.8,3-11.6,6.3-17.6,9
				C58.9,223.1,58.8,223,58.6,222.9z"/>
			<path id="XMLID_172_" class="st25" d="M18.4,219.8c0.6-3.2,0.5-3.1,3.3-1.8c9.7,4.8,19.2,10,28.8,15c0.5,0.3,1,0.4,1.5,0.6
				c2.1,1.2,4.2,2.2,6.4,3.2c2.4,1.2,4.8,2.4,7.3,3.6c0.7,0.3,1.4,0.6,1.6,1.5c0.2,6,0.1,11.9,0.1,17.9c0,0.6,0.1,1.4-0.9,1.6
				c-15.7-8.1-31.5-16.2-47.2-24.2c-0.9-0.5-1.2-1-1.1-2C18.2,230,18.3,224.9,18.4,219.8z"/>
			<path id="XMLID_171_" class="st26" d="M94.2,235.8c-0.7,0.4-0.4,1.1-0.4,1.7c0,2.8,0.1,5.7,0.2,8.5c0,0.7,0,1.2-0.7,1.5
				c-8.7,4.7-17.4,9.3-26.2,14c-0.4-1-0.2-2.1-0.2-3.1c0-5.5,0-10.9,0-16.4c-0.1-1.1,0.8-1.3,1.5-1.6c2.9-1.5,5.8-3,8.7-4.5
				c4.7-2.4,9.3-5.2,14-7.5c0.8-0.4,1.6-1.2,2.5-0.2C94,230.8,94.2,233.3,94.2,235.8z"/>
			<path id="XMLID_170_" class="st26" d="M131.9,208.1c0.2,6,0.4,12.1,0.7,18.1c0,0.6-0.2,0.9-0.7,1.2c-8.7,4.7-17.5,9.4-26.2,14
				c-0.4-0.5-0.5-1.1-0.5-1.7c0-5.9-0.1-11.8,0.1-17.7c0.1-0.7,0.7-1.1,1.3-1.4c7.8-4.1,15.6-8.1,23.4-12.1
				C130.5,208.3,131.1,207.8,131.9,208.1z"/>
			<path id="XMLID_169_" class="st27" d="M125.2,158.1c-12.8,6.6-25.5,13.3-38.3,19.9c-9.2,4.8-18.4,9.5-27.5,14.3
				c-0.7-0.1-0.8-0.7-0.8-1.3c0-1.7-0.2-3.4,0.1-5.2c0.2-0.5,0.7-0.4,1.1-0.7c6.5-3.3,12.9-6.6,19.4-10
				c15.1-7.8,30.2-15.7,45.3-23.5c0.3-0.1,0.6-0.2,0.9-0.3C125.2,153.6,125.2,155.8,125.2,158.1z"/>
			<path id="XMLID_168_" class="st2" d="M97.9,202.6c9.1-4.8,18.2-9.7,27.4-14.2c0,4.3,0,8.6,0,12.9c0,0.7,0,1.4-0.8,1.7
				c-1.4,1.7-3.5,2.3-5.3,3.2c-6.4,3.4-12.8,6.7-19.3,10.1c-0.8,0.4-1.7,1.3-2.5-0.2c-0.4-4.1-0.2-8.1-0.1-12.2
				C97.3,203.4,97.5,202.9,97.9,202.6z"/>
			<path id="XMLID_167_" class="st25" d="M94.2,235.8c-1-2.5-0.7-5.1-0.8-7.7c-1.6-1.5-3.7-2.3-5.6-3.5c-0.8-0.4-2-0.6-1.7-2
				c1.8-1,2.2-2.5,2.1-4.5c-0.1-1.6-0.3-3.2,0.2-4.7c0.7-0.8,1.4-0.3,2,0c4.7,2.3,9.5,4.6,14.1,7.2c0.5,0.3,1.1,0.6,1,1.4
				c0,5.9,0,11.8,0,17.6c0,0.6,0.2,1.2-0.2,1.8C101.5,239.8,97.8,237.8,94.2,235.8z"/>
			<path id="XMLID_166_" class="st28" d="M105.2,221.4c-4.6-2.3-9.1-4.6-13.7-6.9c-0.9-0.5-1.8-1.1-2.8-1.3
				c-0.4-0.3-0.4-0.7-0.2-1.1c0.4-0.5,0.9-0.3,1.4-0.1c2.7,1.5,5.6,2.6,8.1,4.5c4.5-1.9,8.6-4.4,12.9-6.5c4.6-2.3,9.1-4.7,13.7-7.1
				c2.1,1.2,4.3,2.4,6.4,3.6c0.6,0.3,1.2,0.7,0.9,1.5c-8.1,4.2-16.2,8.4-24.3,12.5c-0.6,0.3-1.2,0.5-1.9,0.8
				C105.5,221.6,105.4,221.6,105.2,221.4z"/>
			<path id="XMLID_165_" class="st29" d="M67.2,241.4c0,6.7,0,13.4,0,20.1c-0.3,0.3-0.5,0.2-0.8-0.1c0.4-0.3,0.4-0.7,0.4-1.2
				c0-6.3,0-12.6,0-18.8C66.9,241.3,67,241.3,67.2,241.4z"/>
			<path id="XMLID_164_" class="st30" d="M105.2,221.4c0.1,0,0.3,0,0.4,0c0,6.7,0,13.3,0,20c-0.1,0.2-0.2,0.3-0.4,0
				C105.3,234.8,105.2,228.1,105.2,221.4z"/>
			<path id="XMLID_163_" class="st31" d="M103.8,51.1c-1.1,0.5-2.2,1.1-3.3,1.6c-0.5-0.2-0.4-0.7-0.4-1.1c0.2-3.8,0.5-7.7,1-11.5
				C102,43.7,102.9,47.4,103.8,51.1z"/>
			<path id="XMLID_162_" class="st2" d="M49.4,188.1c-6.1,3.2-12.2,6.3-18.3,9.5c-0.6,0.3-1.2,0.8-2,0.9c0-14.2,0-28.4,0-42.6
				c0-0.7-0.1-1.5,0.4-2.1c0.3-0.8,1-1.1,1.6-1.4c5.6-2.8,11-5.7,16.5-8.6c0.2-0.1,0.4-0.2,0.7-0.3c1.9-0.8,2.1-0.7,2.1,1.3
				c0,11.5,0,23,0,34.5c0,0.8-0.1,1.6,0.2,2.4c0.4,1.6,0.2,3.2,0.2,4.9C50.6,187.2,50.3,187.9,49.4,188.1z"/>
			<path id="XMLID_161_" class="st32" d="M50.2,181.5c0-0.8-0.1-1.6-0.1-2.4c0-11.3,0-22.6,0-33.9c0-0.7,0-1.3,0-2.3
				c-7.1,3.7-13.9,7.2-20.7,10.8c-0.1,0-0.3,0-0.4,0c0-5.9,0-11.8,0-17.8c6.5-3.4,12.9-6.8,19.4-10.3c0.6-0.3,1.1-0.6,1.3-1.2
				c0.6,0.4,0.4,1,0.4,1.5c0.1,10.7,0.3,21.4,0.3,32.1c0.1,7,0,14,0,21c0,0.8-0.1,1.6,0.4,2.3C50.6,181.6,50.4,181.6,50.2,181.5z"/>
			<path id="XMLID_160_" class="st33" d="M50.2,181.5c0.2,0,0.4,0,0.6,0c2.3,1.5,4.8,2.7,7.4,3.7c0.4,0.1,0.6,0.3,0.6,0.7
				c0,1.7,0,3.4,0,5.1c0,0.6,0.2,1.2-0.5,1.6c-3-1.4-5.8-3.3-8.9-4.4c0.7-0.4,0.8-1.1,0.8-1.9C50.2,184.6,50.2,183,50.2,181.5z"/>
			<path id="XMLID_159_" class="st34" d="M58.3,192.5c0.7-2.3,0.2-4.6,0.3-6.9c0.1-0.2,0.3-0.2,0.4,0c0.1,2.2-0.4,4.5,0.3,6.7
				c-0.2,0.1-0.5,0.2-0.7,0.3C58.5,192.5,58.4,192.5,58.3,192.5z"/>
			<path id="XMLID_158_" class="st35" d="M59,185.6c-0.1,0-0.3,0-0.4,0c-0.1-0.1-0.3-0.3-0.4-0.4c0.8-0.6,0.4-1.5,0.4-2.2
				c0-15.8,0-31.7,0-47.5c0-0.7-0.3-1.5,0.4-2.1c0,16.6,0,33.2,0,49.9c0,0.7-0.5,1.7,0.7,2C59.5,185.3,59.3,185.4,59,185.6z"/>
			<path id="XMLID_157_" class="st36" d="M58.2,237c-2.1-1.1-4.4-1.9-6.3-3.4c1.9,0.5,3.6,1.6,5.3,2.5c1.1,0.5,1.4,0.3,1.4-0.9
				c0-4.1,0-8.2,0-12.3c0.1,0,0.3,0,0.4,0c0.4,0.4,0.5,1,0.5,1.5c0.1,3.7,0.1,7.5,0,11.2c0,0.4-0.1,0.8-0.3,1.2
				C58.9,237.2,58.6,237.2,58.2,237z"/>
			<path id="XMLID_156_" class="st2" d="M59,236.9c0-4.7,0-9.4,0-14c3-1.6,6-3.3,9.1-4.9c6.7-3.5,13.4-6.9,20.1-10.4
				c1.2,1,1.4,2.5,0.4,4.5c0,0.4,0,0.7,0,1.1c0,1.8-0.2,3.5,0,5.3c0.2,2.2-0.3,3.8-2.6,4.4c-0.4,0.8-1.1,1.1-1.8,1.5
				c-7.9,4-15.7,8.2-23.6,12.3C60.2,237,59.6,237.4,59,236.9z"/>
			<path id="XMLID_155_" class="st7" d="M88.6,212.2c-0.3-1.5,0.5-3.1-0.4-4.5c0.5-0.6,0.5-1.3,0.4-1.9c-0.4-2,0.5-3.2,2.4-3.8
				c1.1-0.4,2-1.2,3.2-1.3c1.3,0.1,2.4,0.6,3.3,1.7c0.1,0.1,0.3,0.2,0.4,0.3c0,4.7,0,9.3,0,14c-2.4-0.8-4.5-2.1-6.7-3.3
				C90.3,212.9,89.6,212.3,88.6,212.2z"/>
			<path id="XMLID_154_" class="st37" d="M97.5,202.2c-1.1-0.6-2.2-1.1-3.3-1.7c0.2-0.4,0.6-0.7,1-0.8c0.9-0.3,1.8-1.7,2.4-1
				C98.2,199.6,98.2,201.1,97.5,202.2z"/>
			<path id="XMLID_153_" class="st28" d="M59,236.9c3.1-1.6,6.3-3.1,9.4-4.7c5.9-3.1,11.8-6.1,17.7-9.2c1.9,1.5,4.2,2.3,6.3,3.6
				c0.6,0.4,1.2,0.6,1,1.5c-2.6,1.1-5.1,2.6-7.7,3.9c-6.1,3.2-12.2,6.7-18.6,9.4c-0.1,0-0.3,0-0.4,0c-2.9-1.3-5.9-2.5-8.5-4.4
				C58.5,237,58.8,237,59,236.9z"/>
		</g>
	</g>
</g>
<g id="Layer_3">
	<circle id="XMLID_8_" class="st38" cx="102.5" cy="102.5" r="100"/>
</g>
<g id="Layer_1">
	<g id="XMLID_3_">
		<path id="XMLID_147_" class="st39" d="M-44.4,66.7c2.3,0.9,3,2.7,3,5c0,8.1,0.1,16.2,0,24.4c0,4.9-2.3,8.7-6.5,11.3
			c-1.9,1.1-3.8,2.2-5.7,3.3c-0.7,0.4-0.9,0.7-0.6,1.5c1,2.5,1.8,5.1,2.7,7.6c0.6,1.6,0.2,2.1-1.4,1.9c-5.3-0.5-10.7-1.1-16-1.7
			c-0.6-0.1-1.1,0.1-1.5,0.3c-4,2.3-8,4.6-12,7c-1.9,1.1-3.7,1.4-5.6,0c-0.7-0.8-1.1-1.7-1-2.8c0-2.2,0-4.4,0-6.6c0-1.8,0-3.6,0-5.5
			c0.5-1.4,1.3-2.4,2.6-3.1c2.6-1.5,5.2-3.1,7.9-4.5c2.1-1.2,3.7-2.8,4.5-5c0.4-0.9,0.6-1.9,0.6-2.9c0-4.3,0-8.6,0-12.8
			c0-0.5-0.1-1.1,0.1-1.6c0.5-0.8,1.5-1,2.2-1.5c7.5-4.4,15.1-8.7,22.6-13.1c0.1-0.1,0.3-0.1,0.4-0.2c0.4-0.1,0.7-0.2,1-0.5
			C-46.2,66.7-45.3,66.6-44.4,66.7z"/>
		<path id="XMLID_146_" class="st40" d="M-73,82.5c0,4.7-0.1,9.3,0,14c0,3.9-1.7,6.7-5,8.7c-2.7,1.6-5.4,3.1-8.1,4.7
			c-1.1,0.6-1.7,1.6-2.4,2.6c-0.1,0.1-0.2,0.3-0.2,0.5c-0.6,1.1-1.4,1.9-2.2,2.9c-0.6,0.7-0.9,1.5-0.8,2.5c0,1,0,2,0,3
			c0,0.4,0.1,0.9-0.4,1.1c0-1.7,0-3.4,0-5.1c-0.1,0-0.2-0.1-0.3-0.1c-0.6,0.8-1.3,1.6-1.9,2.4c-1.7,2.1-3.3,4.2-5,6.3
			c-0.3,0.3-0.4,0.8-0.9,0.8c-0.3-0.3-0.3-0.7-0.2-1.1c0.6-2.7,1.4-5.4,2-8.2c-1.2,0.5-2.1,1.1-3.1,1.6c-0.4,0.2-0.8,0.6-1.3,0.4
			c-1.5,0.9-2.9,1.3-4.4-0.1c-0.2-0.3-0.5-0.7-0.5-1.1c-0.1-2.7,0-5.5,0-8.2c0-0.5,0-1-0.1-1.5c-0.2-3.6-0.3-7.1,0-10.7
			c0.2-3.1,1.8-5.5,4.4-7.2c8.7-5.1,17.5-10,26.1-15.2c0.8-0.3,1.5-0.6,2.4-0.5c1.5,0.6,2.2,1.8,2.2,3.4
			C-72.5,79.8-72.5,81.1-73,82.5z"/>
		<path id="XMLID_139_" class="st41" d="M-107.7,118.5c0.1,0.3,0.2,0.6,0.2,0.9c-1-0.3-1.9-1-2.9-1.6c-0.9-0.6-1.1-1.5-1.1-2.5
			c0-6.5-0.1-13,0-19.5c0.1-3,1.6-5.5,4.4-7.1c1.5,0.1,2.5,1.2,3.6,1.9c-0.6,0.7-1.3,1.1-2,1.8c-1.7,1.8-2.4,4-2.5,6.4
			c-0.1,3.2,0,6.3,0,9.5c0.2,2.8,0.1,5.6,0.1,8.4C-107.8,117.4-107.9,117.9-107.7,118.5z"/>
		<path id="XMLID_138_" class="st42" d="M-103.5,90.7c-0.9-0.2-1.7-0.7-2.4-1.2c-0.4-0.3-0.8-0.5-1.2-0.7c2.9-1.9,5.9-3.5,8.9-5.2
			c5.3-3.1,10.6-6.1,15.9-9.2c0.3-0.2,0.6-0.3,0.8-0.4c0.5-0.2,1-0.1,1.4,0.2c0.8,0.5,1.8,0.8,2.4,1.5c-1.2,1-2.6,1.7-3.9,2.5
			c-1.8,1.1-3.6,2.1-5.4,3c-2.7,1.4-5.3,3-7.9,4.5c-2.7,1.6-5.5,2.9-8,4.7C-102.9,90.6-103.2,90.6-103.5,90.7z"/>
		<path id="XMLID_137_" class="st43" d="M-73,82.5c0-1.3,0-2.7,0-4c7.2-4.1,14.4-8.3,21.6-12.4c1.7-1,3.4-1.6,5.3-0.4
			c0.6,0.4,1.2,0.7,1.8,1.1c-0.9,0.3-1.9,0.2-2.6,0.9c-0.3,0.2-0.7,0.2-0.9,0.5c-2.1,1.2-4.2,2.4-6.3,3.6c-3.5,2-7.1,4-10.6,6
			c-2.6,1.5-5.2,3-7.8,4.6C-72.7,82.4-72.9,82.4-73,82.5z"/>
		<path id="XMLID_136_" class="st44" d="M-92.2,122.4c0-1.5,0.1-3,0-4.6c0-0.8,0.2-1.4,0.7-1.9c0.9-1.1,1.8-2.2,2.7-3.3
			c0.3,1.8,0.1,3.6,0.1,5.3c0.1,2.3-0.1,4.6,0.1,6.9c-0.2,1,0.5,1.7,0.7,2.5c-0.6-0.4-1.2-0.8-1.9-1.1
			C-91.4,125.5-92.2,124.2-92.2,122.4z"/>
		<path id="XMLID_135_" class="st41" d="M-103.1,119.5c1.4-0.8,2.7-1.5,4.1-2.3c0.2-0.1,0.4-0.4,0.6-0.1c0.1,0.1,0.1,0.4,0.1,0.5
			c-0.7,2.7-1.4,5.3-2.1,8c-0.4,0.3,0.1,0.8-0.2,1.2c-0.1,0-0.2,0-0.2-0.1c-3.5-1.8-3.5-1.8-2.5-5.6
			C-103.3,120.5-103.2,120-103.1,119.5z"/>
		<path id="XMLID_131_" class="st45" d="M-77.6,75.7c-0.8-0.2-1.4-0.6-2-1c-0.6-0.3-1.1-0.7-1.8-0.7c1.3-1,2.7-1.1,4.1-0.2
			c0.7,0.4,1.4,0.8,2.1,1.3C-76,75.4-76.8,75.5-77.6,75.7z"/>
		<path id="XMLID_123_" class="st46" d="M-100.6,126.7c0.2-0.4-0.7-0.9,0.2-1.2c0,0.4,0,0.8,0,1.2
			C-100.5,126.9-100.6,126.9-100.6,126.7z"/>
		<path id="XMLID_121_" class="st47" d="M-88.6,124.9c-0.5-0.6-0.2-1.4-0.2-2c0-1.6,0-3.2,0-4.8c0.1-0.1,0.1-0.1,0.2,0
			C-88.6,120.3-88.6,122.6-88.6,124.9z"/>
		<path id="XMLID_120_" class="st48" d="M-88.6,118c-0.1,0-0.1,0-0.2,0c0-1.8,0-3.6,0-5.4c0.1-0.1,0.2-0.2,0.3-0.3
			C-88.6,114.3-88.6,116.1-88.6,118z"/>
		<path id="XMLID_119_" class="st49" d="M-47.9,68.1c0.2-0.4,0.5-0.5,0.9-0.5C-47.2,68-47.5,68.1-47.9,68.1z"/>
		<path id="XMLID_118_" class="st50" d="M-84.7,95c0.2-2,1.1-3.6,2.8-4.6c0.6-0.4,1.3-0.6,2-0.2c0.7,0.4,0.9,1.2,0.8,1.9
			c-0.2,1.9-1,3.4-2.6,4.5c-0.7,0.5-1.5,0.7-2.2,0.3C-84.6,96.6-84.7,95.8-84.7,95z"/>
		<path id="XMLID_117_" class="st50" d="M-101.9,105c0.1-2,1.1-3.6,2.8-4.6c0.6-0.4,1.3-0.6,2-0.2c0.6,0.4,0.8,1,0.8,1.7
			c-0.1,2.1-1.1,3.7-2.8,4.9c-0.6,0.4-1.2,0.5-1.9,0.1C-101.8,106.5-101.9,105.8-101.9,105z"/>
		<path id="XMLID_116_" class="st50" d="M-87.7,97c-0.3,2-1.1,3.6-2.8,4.7c-0.7,0.4-1.5,0.5-2.1,0.1c-0.6-0.4-0.8-1.1-0.7-1.9
			c0.2-1.9,1.1-3.3,2.6-4.4c0.6-0.4,1.3-0.8,2.1-0.3C-87.9,95.6-87.7,96.3-87.7,97z"/>
		<path id="XMLID_115_" class="st51" d="M-107.7,118.5c-0.4-0.4-0.3-0.9-0.3-1.3c0.2-2.9,0-5.9,0.1-8.8c0.4,0.3,0.2,0.8,0.2,1.2
			C-107.7,112.6-107.7,115.5-107.7,118.5z"/>
	</g>
	<g id="XMLID_2_">
		<path id="XMLID_141_" class="st52" d="M-89.1,56.6c-0.4,0.3-0.9,0.4-0.9-0.3c0-0.8-0.2-1.6,0.1-2.4c0.9-1.9,1.7-3.8,2.6-5.7
			c0.3-0.8,0.8-1.1,1.5-0.6c1.6,1.4,3,1,4.7-0.1c3.9-2.4,7.9-4.6,11.8-6.9c1.1-0.7,2.3-0.7,3.5-0.5c1.1,0.2,1.3,0.9,0.9,2
			c-0.1,0.2-0.2,0.3-0.4,0.5c-0.1,0.1-0.2,0.2-0.4,0.3c-4.2,2.5-8.5,4.9-12.7,7.4c-0.4,0.2-1.1,0.3-1.1,0.9c0,0.6,0.8,0.3,1.1,0.6
			c1.1,0.9,1.3,1.8,0.7,3c-0.6-1.5-0.6-1.5-2.3-1.2c-2.8,0.4-5.5,0.8-8.3,1.3C-89.5,55.1-89.6,55.4-89.1,56.6z"/>
		<path id="XMLID_140_" class="st52" d="M-88.9,36.3c0.1-0.8,0.9-0.6,1.3-0.7C-84,35-80.5,34.5-77,34c0.7-0.1,0.7-0.1,0.5,0.7
			c-0.6,2.2-1.9,4.2-2.7,6.3c-0.1,0.3-0.3,0.5-0.7,0.6c-1.1-0.1-1.9-1.1-3-1.3c-2.1,0.8-4,2.2-6,3.3c-3.1,1.7-6,3.5-9.1,5.2
			c-0.6,0.3-1.2,0.3-1.9,0.3c-0.1,0-0.2,0-0.3,0c-0.2,0-0.5-0.2-0.7-0.2c-0.4,0.1-0.2,0.7-0.6,0.9c-0.4-0.7-0.3-1.5-0.4-2.3
			c-0.1-0.8,0.7-1.1,1.3-1.5c4.2-2.4,8.4-4.9,12.5-7.3c0.4-0.3,1.2-0.1,1.2-0.7c0-0.4-0.7-0.5-1-0.8C-88.2,36.9-88.6,36.8-88.9,36.3
			z"/>
		<path id="XMLID_134_" class="st53" d="M-97.8,48.5c5-3,10-6,15.1-8.7c0.3,0.6,0.5,1.2,0,1.8c-4.7,2.7-9.4,5.4-14,8
			c-0.3,0.2-0.7,0.3-1,0.5C-98.3,49.6-98.2,49.1-97.8,48.5z"/>
		<path id="XMLID_133_" class="st53" d="M-78.3,51.8c-0.3,0.1-0.7,0.2-1,0c-0.3-0.2-0.7-0.2-0.8-0.6c0-0.4,0.4-0.5,0.6-0.6
			c4.6-2.6,9.2-5.3,13.9-7.9c0.5,0.6,0.3,1.1,0,1.7c-4.1,2.4-8.2,4.8-12.3,7.2C-78,51.6-78.1,51.7-78.3,51.8z"/>
		<path id="XMLID_132_" class="st54" d="M-89.1,56.6c-0.8,0-0.7-0.5-0.7-1c0-0.6,0.4-0.8,0.9-0.9c2.2-0.3,4.4-0.6,6.5-1
			c1.1-0.2,2.3-0.3,3.4-0.5c1.4-0.2,1.4-0.3,1.4,1.2c0,0.2,0,0.3,0,0.5C-81.5,55.4-85.3,56-89.1,56.6z"/>
		<path id="XMLID_130_" class="st55" d="M-79.9,41.5c1-1.2,1.4-2.8,2.1-4.1c0.5-0.9,0.8-1.9,1.4-2.7c0.1,1-0.1,1.8-0.6,2.7
			c-0.8,1.6-1.5,3.3-2.3,5c-0.1,0.3-0.1,0.8-0.6,0.8C-80.3,42.6-80.4,42.1-79.9,41.5z"/>
		<path id="XMLID_129_" class="st56" d="M-79.9,41.5c0,0.6,0,1.1,0,1.7c-1-0.3-1.9-1-2.8-1.5c0-0.6,0-1.2,0-1.8
			C-81.8,40.4-80.9,41-79.9,41.5z"/>
		<path id="XMLID_128_" class="st57" d="M-88.9,36.3c0.9,0.5,1.8,1,2.9,1.6c-0.7,0.5-1.1,1.1-2,0.8C-89.2,38.3-88.9,37.2-88.9,36.3z
			"/>
		<path id="XMLID_127_" class="st58" d="M-97.8,48.5c0,0.6,0,1.1,0,1.7c-0.8,0.4-1.5,0.7-2.4,0.3c0-0.1,0-0.1,0-0.2
			c0-0.5-0.1-1,0.3-1.5C-99.2,48.8-98.5,48.8-97.8,48.5z"/>
		<path id="XMLID_126_" class="st59" d="M-100.9,48.5c0.2,0.1,0.5,0.2,0.7,0.3c0.2,0.5,0.2,1.1,0,1.6c0,0-0.1,0.1-0.1,0.1
			c-0.2-0.1-0.5,0-0.7-0.3C-101.2,49.6-101.3,49.1-100.9,48.5z"/>
		<path id="XMLID_125_" class="st60" d="M-100.9,48.5c0,0.6,0,1.1,0,1.7c-0.2-0.2-0.3-0.3-0.5-0.5c0-0.4,0-0.8,0-1.1
			C-101.3,48.2-101.1,48.3-100.9,48.5z"/>
		<path id="XMLID_124_" class="st61" d="M-65.3,42.4c0.2-0.1,0.3-0.2,0.5-0.2c-0.1,0.6,0.3,1.4-0.5,1.9
			C-65.5,43.5-65.5,43-65.3,42.4z"/>
		<path id="XMLID_107_" class="st62" d="M-100.2,50.4c0-0.5,0-1.1,0-1.6c0.1,0,0.1,0,0.2,0C-100,49.3-99.7,49.9-100.2,50.4z"/>
	</g>
	<g id="XMLID_1_">
		<path id="XMLID_145_" class="st63" d="M-147.6-51.1c-0.5-1.3-0.1-2.4,1.4-3.3c3.5-2,6.9-3.9,10.4-5.9c5-2.9,10-5.7,15.1-8.6
			c3.1-1.8,6.3-1.8,9.5,0c8.1,4.7,16.1,9.4,24.1,14.2c7,4.1,13.9,8.3,20.8,12.4c2.7,1.6,5.4,3.2,8.1,4.8c0.9,0.5,1.4,1.3,1.4,2.3
			c0.1,1.2,0.1,2.5,0.1,3.8c0,0.2-0.2,0.3-0.4,0.4c0,0-0.1-0.1-0.1-0.1c-0.4-0.7-0.1-1.4-0.2-2.1c0,0-0.1-0.1-0.1-0.1
			c0,0-0.1,0-0.1,0c-1.4,1.2-3,2-4.6,2.9c-7.2,4.1-14.4,8.1-21.6,12.2c-3.2,1.9-6.5,1.9-9.7,0c-12-7.1-24.1-14.2-36.1-21.4
			c-5.3-3.1-10.6-6.3-15.9-9.3C-146.5-49.5-147.3-50.1-147.6-51.1z"/>
		<path id="XMLID_142_" class="st64" d="M-147.6-51.1c1.6,2.1,4.1,3,6.2,4.3c5.5,3.3,11.1,6.6,16.7,9.8c7.7,4.5,15.4,9.1,23,13.6
			c2.7,1.6,5.4,3.2,8.1,4.8c3.2,1.9,6.3,1.9,9.6,0.1c4.8-2.7,9.5-5.4,14.3-8.1c3.6-2.1,7.3-4.1,10.9-6.2c0.4-0.2,0.7-0.6,1.1-0.9
			c0.6,0.3,0.3,0.9,0.3,1.3c0.1,0.4-0.1,0.8,0.1,1.2c0,0,0.1,0,0.1,0c0.3,2.1-0.8,3.2-2.5,4.1c-8,4.5-16,9-23.9,13.6
			c-3.6,2.1-7,2-10.6-0.2c-10-6-20.1-12-30.2-17.9c-7-4.1-14-8.3-21-12.4c-1.5-0.9-2.5-2-2.2-3.9C-147.5-48.9-147.6-50-147.6-51.1z"
			/>
		<path id="XMLID_114_" class="st65" d="M-94.8-22.7c-0.8,0.1-1.4-0.2-2-0.6c-14.4-8.5-28.7-17-43.1-25.5c-1.7-1-1.7-1.6,0-2.6
			c8.4-4.8,16.8-9.5,25.2-14.3c1.4-0.8,2.7-0.8,4,0C-96.4-57-81.9-48.5-67.5-40c1.5,0.9,1.5,1.5,0,2.4c-8.5,4.8-17,9.6-25.5,14.5
			C-93.6-22.8-94.2-22.6-94.8-22.7z"/>
		<path id="XMLID_113_" class="st66" d="M-77.7-24.7c-1.1,0-2.1-0.2-2.8-1c-0.6-0.6-0.7-1.3,0-1.7c2.2-1.4,4.4-3.2,7.1-3.6
			c1.2-0.2,2.3,0,3.2,1c0.5,0.5,0.6,1.2,0,1.5C-72.5-26.9-74.8-25.2-77.7-24.7z"/>
		<path id="XMLID_112_" class="st67" d="M-133.7-57c-0.4-0.2-1-0.1-1.2-0.7c-0.1-0.5,0.4-0.6,0.7-0.8c2.3-1.3,4.5-2.6,6.8-3.9
			c0.3-0.2,0.7-0.4,1.1-0.4c0.5,0,1,0.1,1.2,0.5c0.2,0.6-0.4,0.7-0.7,0.9c-2.2,1.3-4.4,2.5-6.6,3.8C-132.8-57.3-133.3-57.2-133.7-57
			z"/>
		<path id="XMLID_111_" class="st68" d="M-57.2-31.1c-0.5-0.8,0.1-1.8-0.4-2.6c0.2-0.3,0.4-0.6,0.5,0.1
			C-57.1-32.8-57.2-32-57.2-31.1z"/>
		<path id="XMLID_106_" class="st69" d="M-83.2-44c-6.4,3.7-12.5,7.2-18.7,10.8c-2.1,1.2-2.1,1.2-3.9-0.4c-1-0.9-1.9-1.8-2.6-2.9
			c-0.6-1-0.9-2-0.5-3.1c0.6-1.6,1.1-1.9,2.8-1.7c1.5,0.2,3.1,0.3,4.9,0.5c-1.2-1.2-1.9-2.6-3.9-2.3c0.7-0.8,1.5-1.1,2.2-1.5
			c0.2-0.1,0.4-0.1,0.5,0.1c0.8,1.7,2.7,1.2,4.1,1.9c-0.3-0.8-0.5-1.7-0.9-2.5c-0.4-0.9-0.1-1.2,0.8-1.4c2.8-0.6,5.6-0.6,8.4,0.1
			C-87.8-45.8-85.6-45.1-83.2-44z"/>
		<path id="XMLID_105_" class="st69" d="M-109.5-43.1c-2.1-0.1-4.2-0.4-5.9-1.9c-1.7-1.5-1.7-3.2,0.1-4.6c1.9-1.5,4.1-1.8,6.4-1.7
			c2,0.1,3.9,0.5,5.4,1.9c1.5,1.4,1.5,2.8,0,4.2C-105.2-43.5-107.3-43.3-109.5-43.1z"/>
	</g>
	<g id="XMLID_4_">
		<path id="XMLID_144_" class="st70" d="M198,6.3c-1.1-2.2-2.9-2.8-5.2-2.4c-14.6,2.5-29.3,4.9-43.9,7.6c-4.5,0.8-7.6,3.8-9.2,8.1
			c-7.7,21.1-15.5,42.1-23.2,63.2c-2.6,7.2-5.3,14.4-8,21.6c-0.9,2.4-1,4.5,1,6.4c1.8,1.7,2.9,4,5,5.5c-0.1-1.4-1.3-2.1-2-3.1
			c-0.4-0.6-1-1.1-1.5-1.9c6.5-0.7,12.7-2,19-3.1c8.7-1.6,17.5-3,26.2-4.6c4.8-0.9,8.4-3.7,10.1-8.4c8.6-23.4,17.2-46.8,25.8-70.2
			c1.8-4.9,3.8-9.8,5.6-14.8C198.1,8.9,198.4,7.7,198,6.3z"/>
		<path id="XMLID_143_" class="st71" d="M198,6.3c-0.6,4.6-2.8,8.6-4.3,12.9c-3,8.1-5.9,16.1-8.9,24.2c-3.1,8.3-6.1,16.7-9.2,25
			c-2.7,7.3-5.3,14.5-8,21.8c-1,2.6-1.5,5.4-3.3,7.8c-2.8,3.7-6.6,5.1-11,5.7c-8.1,1.2-16.3,2.6-24.4,4.2
			c-5.4,1.1-10.9,1.9-16.3,2.8c-0.8,0.1-1.6-0.1-2.8-0.1c1.7,2.1,3.2,3.9,4.7,5.7c1.2,0.8,2.4,0.6,3.7,0.4
			c14.5-2.5,28.9-4.9,43.4-7.4c4.4-0.8,7.7-3.5,9.2-7.7c10.6-28.6,21-57.2,31.5-85.7c0.8-2.1,0.8-4-1-5.7
			C200.1,8.9,199.1,7.6,198,6.3z"/>
		<path id="XMLID_110_" class="st72" d="M143.5,21.3c-0.8,0.7-1.3,1.6-1.7,2.6c-8.5,23.1-17,46.3-25.5,69.4
			c-0.2,0.4-0.3,0.9-0.5,1.3c-0.6,1.9-0.1,2.6,2,2.3c3.5-0.5,6.9-1.2,10.4-1.8c10.8-1.8,21.6-3.7,32.4-5.5c2.6-0.4,4.1-1.7,5-4.1
			c8.4-23.1,16.9-46.1,25.4-69.1c1.4-3.8,1.1-4.2-2.9-3.5c-13.9,2.4-27.8,4.7-41.7,7.1C145.3,20.2,144.3,20.5,143.5,21.3z"/>
		<path id="XMLID_109_" class="st73" d="M143.2,101.8c0.9-1,1.9-1.9,2.1-3.4c0.2-1.3-0.4-2.4-1.7-2.2c-3.9,0.5-8,0.4-11.5,2.6
			c-1.4,0.8-2.4,2.1-2.8,3.8c-0.2,1.2,0.2,2.3,1.5,2.2c4.1-0.4,8.3-0.5,12-2.7C143,102,143.1,101.9,143.2,101.8z"/>
		<path id="XMLID_108_" class="st74" d="M176.4,12c0.4-0.6,1.1-1.1,0.8-1.8c-0.3-0.9-1.2-0.5-1.8-0.4c-3.7,0.6-7.4,1.3-11.1,1.9
			c-1.1,0.2-2.1,0.6-2.7,1.6c-0.4,0.8-0.3,1.5,0.7,1.4c4.4-0.7,8.9-1.3,13.3-2.4C175.9,12.3,176.1,12.1,176.4,12z"/>
		<path id="XMLID_104_" class="st75" d="M154.8,55.7c-0.5-3.2-0.3-4,1.8-6.1c-1.4-0.2-2.5,0.2-3.7,0.4c-0.4,0.1-0.6,0.3-0.5,0.7
			c0.6,2.4-1.5,3.7-2.5,5.4c-0.4,0.6-0.7-0.1-0.9-0.5c-0.4-1-0.8-1.9-1-2.9c-0.3-1.1-0.8-1.1-1.8-0.7c-3,1.4-5.7,3.4-7.9,5.8
			c-3,3.3-5.2,7.2-7.4,11.5c3.7-0.6,7.1-1.2,10.5-1.8c7.3-1.2,14.6-2.5,21.9-3.7c2.6-0.4,2.5-0.4,3-3.1c0.4-2.2,0.7-4.5,0.4-6.7
			c-0.3-2.6-2.2-4.4-4.7-4.8c-1-0.1-1.5,0.5-2,1.1C158.2,52,156.6,53.8,154.8,55.7z"/>
		<path id="XMLID_103_" class="st75" d="M153.6,36.4c-2,1.9-4,4.1-4.7,7.2c-0.7,3.2,1.1,5.4,4.3,5.4c3.6,0,6.4-1.8,8.9-4
			c2.1-1.8,3.8-4,4.3-6.9c0.6-3.2-1.1-5.4-4.4-5.3C159.5,32.8,156.4,34.1,153.6,36.4z"/>
	</g>
</g>
</svg>
