<?xml version="1.0" encoding="utf-8"?>
<!-- Generator: Adobe Illustrator 19.0.0, SVG Export Plug-In . SVG Version: 6.00 Build 0)  -->
<svg version="1.1" xmlns="http://www.w3.org/2000/svg" xmlns:xlink="http://www.w3.org/1999/xlink" x="0px" y="0px"
	 viewBox="0 0 205 205" style="enable-background:new 0 0 205 205;" xml:space="preserve">
<style type="text/css">
	.st0{clip-path:url(#XMLID_255_);}
	.st1{fill:#CCCCCC;}
	.st2{fill-rule:evenodd;clip-rule:evenodd;fill:#EA556D;}
	.st3{fill-rule:evenodd;clip-rule:evenodd;fill:#E6E7E9;}
	.st4{fill:#ABABAB;}
	.st5{fill:#F4F0EE;}
	.st6{fill-rule:evenodd;clip-rule:evenodd;fill:#FFFFFF;}
	.st7{fill:#D7D7D8;}
	.st8{fill:#FFFDFA;}
	.st9{fill:#595959;}
	.st10{fill:#999999;}
	.st11{fill:#BFBFBF;}
	.st12{fill:#020202;}
	.st13{fill-rule:evenodd;clip-rule:evenodd;fill:#DD0344;}
	.st14{fill-rule:evenodd;clip-rule:evenodd;fill:#F3A9B4;}
	.st15{fill:none;stroke:#EAB618;stroke-width:3;stroke-miterlimit:10;}
	.st16{fill:#E2E3E5;}
	.st17{fill:#AEAEAE;}
	.st18{fill:#B1B1B1;}
	.st19{fill:#979797;}
	.st20{fill:#919191;}
	.st21{fill:#929292;}
	.st22{fill:#A5A5A5;}
	.st23{fill:#A2A2A2;}
	.st24{fill:#878787;}
	.st25{fill:#A3A3A3;}
	.st26{fill:#939393;}
	.st27{fill:#E3E2E4;}
	.st28{fill:#B3B5C8;}
	.st29{fill:#4990C7;}
	.st30{fill:#23295C;}
	.st31{fill:#242A5C;}
	.st32{fill:#ABADC0;}
	.st33{fill:#FCFDFD;}
	.st34{fill:#394E5E;}
	.st35{fill:#202F39;}
	.st36{fill:#85CEEF;}
	.st37{fill:#F7F8FB;}
	.st38{fill:#F5F7FA;}
	.st39{fill:#FCFEFD;}
	.st40{fill:#88898A;}
	.st41{fill:#E4E5E8;}
	.st42{fill:#9C9D9E;}
	.st43{clip-path:url(#XMLID_256_);fill:#999999;}
	.st44{clip-path:url(#XMLID_257_);fill:#BFBFBF;}
	.st45{fill:#FAFBFD;}
	.st46{fill:#EA556D;}
	.st47{clip-path:url(#XMLID_258_);fill:#BFBFBF;}
	.st48{clip-path:url(#XMLID_259_);fill:#999999;}
	.st49{fill:#F1F2F2;}
	.st50{fill:#FADBA8;}
	.st51{fill:#E49D5F;}
	.st52{fill:#797979;}
	.st53{fill:#E85582;}
	.st54{fill:#DD0144;}
	.st55{fill:#E4756E;}
	.st56{fill:#F4A582;}
	.st57{fill:#F4A8B5;}
	.st58{fill:#FAD754;}
	.st59{fill:#DC1185;}
	.st60{fill:#F3AED5;}
	.st61{fill:#F09600;}
	.st62{fill:#F8C300;}
	.st63{fill:#696969;}
	.st64{fill:#959595;}
	.st65{fill:none;stroke:#000000;stroke-width:1.6167;stroke-linejoin:round;stroke-miterlimit:10;}
	.st66{fill-rule:evenodd;clip-rule:evenodd;}
	.st67{fill-rule:evenodd;clip-rule:evenodd;fill:#FCBD6D;}
	.st68{fill-rule:evenodd;clip-rule:evenodd;fill:#E49D5F;}
	.st69{fill-rule:evenodd;clip-rule:evenodd;fill:#2C2C32;}
	.st70{fill-rule:evenodd;clip-rule:evenodd;fill:#68696C;}
	.st71{fill-rule:evenodd;clip-rule:evenodd;fill:#403C43;}
	.st72{fill-rule:evenodd;clip-rule:evenodd;fill:#55545B;}
</style>
<g id="Layer_2">
	<g id="XMLID_7_">
		<defs>
			<circle id="XMLID_6_" cx="102.5" cy="102.5" r="100"/>
		</defs>
		<clipPath id="XMLID_255_">
			<use xlink:href="#XMLID_6_"  style="overflow:visible;"/>
		</clipPath>
		<g id="XMLID_185_" class="st0">
			<g id="XMLID_244_">
				<polygon id="XMLID_242_" class="st1" points="29.3,187.8 -9.7,210.2 29.3,232.6 68.3,210.2 				"/>
				<polygon id="XMLID_241_" class="st1" points="70.2,211.2 31.2,233.6 70.2,256 109.2,233.6 				"/>
				<polygon id="XMLID_240_" class="st1" points="31,187 70,209.4 109,187 70,164.6 				"/>
				<polygon id="XMLID_239_" class="st1" points="71.9,210.3 110.9,232.8 149.9,210.3 110.9,187.9 				"/>
				<polygon id="XMLID_238_" class="st1" points="71.2,163.1 110.2,185.5 149.2,163.1 110.2,140.7 				"/>
				<polygon id="XMLID_237_" class="st1" points="112.2,186.5 151.2,208.9 190.2,186.5 151.2,164.1 				"/>
				<polygon id="XMLID_236_" class="st2" points="-9.9,210.1 -9.4,24.9 111.4,-46.6 111.4,140.1 				"/>
				<polygon id="XMLID_235_" class="st3" points="23.2,98.6 23.2,29.5 85.6,-7.1 85.6,62.3 				"/>
				<polygon id="XMLID_234_" class="st4" points="61.6,142.3 23,120 23,137.8 61.6,160.1 				"/>
				<polygon id="XMLID_233_" class="st5" points="45.2,128.4 61.6,137.8 105.9,112.3 87.7,103.9 				"/>
				<polygon id="XMLID_232_" class="st6" points="85.1,84.3 23.2,119.9 33.1,121.5 87.5,90.2 				"/>
				<polygon id="XMLID_231_" class="st4" points="87.7,103.9 105.9,112.3 115.7,106.6 87,90.1 87,103.5 				"/>
				<polygon id="XMLID_230_" class="st1" points="66.8,101.8 66.6,101.9 66.4,102 32.9,121.3 45.7,128.6 87.6,103.8 87,90.1 
					67,101.6 67,101.7 				"/>
				<polygon id="XMLID_229_" class="st7" points="61.6,160.1 123.4,124.5 123.4,106.6 61.6,142.3 				"/>
				<polygon id="XMLID_228_" class="st8" points="123.4,106.6 84.8,84.3 87,90.1 115.7,106.6 105.9,112.3 61.6,137.8 45.2,128.4 
					44.5,128 32.9,121.3 23,120 61.6,142.3 				"/>
				<polygon id="XMLID_227_" class="st9" points="52,91.4 70.4,101.2 70.5,109.2 65.9,106.8 66,104.3 52.1,97 				"/>
				<polygon id="XMLID_226_" class="st10" points="70.5,109.2 74.9,106.1 74.9,98 70.4,101.2 				"/>
				<polygon id="XMLID_225_" class="st11" points="70.4,101.2 74.9,98 56.4,88.2 52,91.4 				"/>
				<polygon id="XMLID_224_" class="st9" points="51.8,83.6 63,90.2 63.1,93.1 51.9,86.5 				"/>
				<polygon id="XMLID_223_" class="st10" points="63.1,93.1 65.3,91.5 65.3,88.5 63,90.2 				"/>
				<polygon id="XMLID_222_" class="st11" points="63,90.2 65.3,88.5 54.1,82 51.8,83.6 				"/>
				<g id="XMLID_245_">
					<path id="XMLID_246_" class="st12" d="M37,30.1c-1.1,2.5-4,9.4-4.3,17.2l-2.4,1.4c0.2-7.2,3.2-14.5,4.2-16.7l-5.9,3.3l0-3.1
						l8.3-4.7V30.1z"/>
					<path id="XMLID_248_" class="st12" d="M41.5,33.1L39,34.5v-3.6l2.5-1.4V33.1z M41.5,42.2L39,43.7V40l2.5-1.4V42.2z"/>
					<path id="XMLID_251_" class="st12" d="M44.1,26.1l0.3-0.2c2.2-1.3,2.8-3.4,2.9-4.7l1.9-1.1v17.7l-2.3,1.3V26.9l-2.8,1.6V26.1z"
						/>
					<path id="XMLID_253_" class="st12" d="M55.1,23.8c0.4-0.7,1-1.5,2.1-2.2c1.6-0.9,3.6-0.4,3.6,3.7c0,2.4-0.8,6.8-4.3,8.8
						c-1.8,1.1-3.7,0.5-3.8-3l2.3-1.3c0.1,1.4,0.6,2.1,1.6,1.5c1.1-0.6,1.8-2.4,1.8-4.3c0-1.6-0.5-2.9-1.7-2.2
						c-0.3,0.2-1.1,0.7-1.6,2.2L53,28l0.8-10.2l6.5-3.7V17l-4.8,2.7L55.1,23.8z"/>
				</g>
				<polygon id="XMLID_220_" class="st13" points="-10,209.5 -24.3,199.8 -24.3,16.6 -9.3,25.1 				"/>
				<polygon id="XMLID_219_" class="st14" points="-24.1,16.7 -9.2,25.1 111.4,-46.5 96.3,-53.7 				"/>
			</g>
		</g>
	</g>
</g>
<g id="Layer_3">
	<circle id="XMLID_8_" class="st15" cx="102.5" cy="102.5" r="100"/>
</g>
<g id="Layer_1">
	<g id="XMLID_2_">
		<path id="XMLID_141_" class="st16" d="M-89.1,56.6c-0.4,0.3-0.9,0.4-0.9-0.3c0-0.8-0.2-1.6,0.1-2.4c0.9-1.9,1.7-3.8,2.6-5.7
			c0.3-0.8,0.8-1.1,1.5-0.6c1.6,1.4,3,1,4.7-0.1c3.9-2.4,7.9-4.6,11.8-6.9c1.1-0.7,2.3-0.7,3.5-0.5c1.1,0.2,1.3,0.9,0.9,2
			c-0.1,0.2-0.2,0.3-0.4,0.5c-0.1,0.1-0.2,0.2-0.4,0.3c-4.2,2.5-8.5,4.9-12.7,7.4c-0.4,0.2-1.1,0.3-1.1,0.9c0,0.6,0.8,0.3,1.1,0.6
			c1.1,0.9,1.3,1.8,0.7,3c-0.6-1.5-0.6-1.5-2.3-1.2c-2.8,0.4-5.5,0.8-8.3,1.3C-89.5,55.1-89.6,55.4-89.1,56.6z"/>
		<path id="XMLID_140_" class="st16" d="M-88.9,36.3c0.1-0.8,0.9-0.6,1.3-0.7C-84,35-80.5,34.5-77,34c0.7-0.1,0.7-0.1,0.5,0.7
			c-0.6,2.2-1.9,4.2-2.7,6.3c-0.1,0.3-0.3,0.5-0.7,0.6c-1.1-0.1-1.9-1.1-3-1.3c-2.1,0.8-4,2.2-6,3.3c-3.1,1.7-6,3.5-9.1,5.2
			c-0.6,0.3-1.2,0.3-1.9,0.3c-0.1,0-0.2,0-0.3,0c-0.2,0-0.5-0.2-0.7-0.2c-0.4,0.1-0.2,0.7-0.6,0.9c-0.4-0.7-0.3-1.5-0.4-2.3
			c-0.1-0.8,0.7-1.1,1.3-1.5c4.2-2.4,8.4-4.9,12.5-7.3c0.4-0.3,1.2-0.1,1.2-0.7c0-0.4-0.7-0.5-1-0.8C-88.2,36.9-88.6,36.8-88.9,36.3
			z"/>
		<path id="XMLID_134_" class="st17" d="M-97.8,48.5c5-3,10-6,15.1-8.7c0.3,0.6,0.5,1.2,0,1.8c-4.7,2.7-9.4,5.4-14,8
			c-0.3,0.2-0.7,0.3-1,0.5C-98.3,49.6-98.2,49.1-97.8,48.5z"/>
		<path id="XMLID_133_" class="st17" d="M-78.3,51.8c-0.3,0.1-0.7,0.2-1,0c-0.3-0.2-0.7-0.2-0.8-0.6c0-0.4,0.4-0.5,0.6-0.6
			c4.6-2.6,9.2-5.3,13.9-7.9c0.5,0.6,0.3,1.1,0,1.7c-4.1,2.4-8.2,4.8-12.3,7.2C-78,51.6-78.1,51.7-78.3,51.8z"/>
		<path id="XMLID_132_" class="st18" d="M-89.1,56.6c-0.8,0-0.7-0.5-0.7-1c0-0.6,0.4-0.8,0.9-0.9c2.2-0.3,4.4-0.6,6.5-1
			c1.1-0.2,2.3-0.3,3.4-0.5c1.4-0.2,1.4-0.3,1.4,1.2c0,0.2,0,0.3,0,0.5C-81.5,55.4-85.3,56-89.1,56.6z"/>
		<path id="XMLID_130_" class="st19" d="M-79.9,41.5c1-1.2,1.4-2.8,2.1-4.1c0.5-0.9,0.8-1.9,1.4-2.7c0.1,1-0.1,1.8-0.6,2.7
			c-0.8,1.6-1.5,3.3-2.3,5c-0.1,0.3-0.1,0.8-0.6,0.8C-80.3,42.6-80.4,42.1-79.9,41.5z"/>
		<path id="XMLID_129_" class="st20" d="M-79.9,41.5c0,0.6,0,1.1,0,1.7c-1-0.3-1.9-1-2.8-1.5c0-0.6,0-1.2,0-1.8
			C-81.8,40.4-80.9,41-79.9,41.5z"/>
		<path id="XMLID_128_" class="st21" d="M-88.9,36.3c0.9,0.5,1.8,1,2.9,1.6c-0.7,0.5-1.1,1.1-2,0.8C-89.2,38.3-88.9,37.2-88.9,36.3z
			"/>
		<path id="XMLID_127_" class="st22" d="M-97.8,48.5c0,0.6,0,1.1,0,1.7c-0.8,0.4-1.5,0.7-2.4,0.3c0-0.1,0-0.1,0-0.2
			c0-0.5-0.1-1,0.3-1.5C-99.2,48.8-98.5,48.8-97.8,48.5z"/>
		<path id="XMLID_126_" class="st23" d="M-100.9,48.5c0.2,0.1,0.5,0.2,0.7,0.3c0.2,0.5,0.2,1.1,0,1.6c0,0-0.1,0.1-0.1,0.1
			c-0.2-0.1-0.5,0-0.7-0.3C-101.2,49.6-101.3,49.1-100.9,48.5z"/>
		<path id="XMLID_125_" class="st24" d="M-100.9,48.5c0,0.6,0,1.1,0,1.7c-0.2-0.2-0.3-0.3-0.5-0.5c0-0.4,0-0.8,0-1.1
			C-101.3,48.2-101.1,48.3-100.9,48.5z"/>
		<path id="XMLID_124_" class="st25" d="M-65.3,42.4c0.2-0.1,0.3-0.2,0.5-0.2c-0.1,0.6,0.3,1.4-0.5,1.9
			C-65.5,43.5-65.5,43-65.3,42.4z"/>
		<path id="XMLID_107_" class="st26" d="M-100.2,50.4c0-0.5,0-1.1,0-1.6c0.1,0,0.1,0,0.2,0C-100,49.3-99.7,49.9-100.2,50.4z"/>
	</g>
	<g id="XMLID_1_">
		<path id="XMLID_145_" class="st27" d="M-147.6-51.1c-0.5-1.3-0.1-2.4,1.4-3.3c3.5-2,6.9-3.9,10.4-5.9c5-2.9,10-5.7,15.1-8.6
			c3.1-1.8,6.3-1.8,9.5,0c8.1,4.7,16.1,9.4,24.1,14.2c7,4.1,13.9,8.3,20.8,12.4c2.7,1.6,5.4,3.2,8.1,4.8c0.9,0.5,1.4,1.3,1.4,2.3
			c0.1,1.2,0.1,2.5,0.1,3.8c0,0.2-0.2,0.3-0.4,0.4c0,0-0.1-0.1-0.1-0.1c-0.4-0.7-0.1-1.4-0.2-2.1c0,0-0.1-0.1-0.1-0.1
			c0,0-0.1,0-0.1,0c-1.4,1.2-3,2-4.6,2.9c-7.2,4.1-14.4,8.1-21.6,12.2c-3.2,1.9-6.5,1.9-9.7,0c-12-7.1-24.1-14.2-36.1-21.4
			c-5.3-3.1-10.6-6.3-15.9-9.3C-146.5-49.5-147.3-50.1-147.6-51.1z"/>
		<path id="XMLID_142_" class="st28" d="M-147.6-51.1c1.6,2.1,4.1,3,6.2,4.3c5.5,3.3,11.1,6.6,16.7,9.8c7.7,4.5,15.4,9.1,23,13.6
			c2.7,1.6,5.4,3.2,8.1,4.8c3.2,1.9,6.3,1.9,9.6,0.1c4.8-2.7,9.5-5.4,14.3-8.1c3.6-2.1,7.3-4.1,10.9-6.2c0.4-0.2,0.7-0.6,1.1-0.9
			c0.6,0.3,0.3,0.9,0.3,1.3c0.1,0.4-0.1,0.8,0.1,1.2c0,0,0.1,0,0.1,0c0.3,2.1-0.8,3.2-2.5,4.1c-8,4.5-16,9-23.9,13.6
			c-3.6,2.1-7,2-10.6-0.2c-10-6-20.1-12-30.2-17.9c-7-4.1-14-8.3-21-12.4c-1.5-0.9-2.5-2-2.2-3.9C-147.5-48.9-147.6-50-147.6-51.1z"
			/>
		<path id="XMLID_114_" class="st29" d="M-94.8-22.7c-0.8,0.1-1.4-0.2-2-0.6c-14.4-8.5-28.7-17-43.1-25.5c-1.7-1-1.7-1.6,0-2.6
			c8.4-4.8,16.8-9.5,25.2-14.3c1.4-0.8,2.7-0.8,4,0C-96.4-57-81.9-48.5-67.5-40c1.5,0.9,1.5,1.5,0,2.4c-8.5,4.8-17,9.6-25.5,14.5
			C-93.6-22.8-94.2-22.6-94.8-22.7z"/>
		<path id="XMLID_113_" class="st30" d="M-77.7-24.7c-1.1,0-2.1-0.2-2.8-1c-0.6-0.6-0.7-1.3,0-1.7c2.2-1.4,4.4-3.2,7.1-3.6
			c1.2-0.2,2.3,0,3.2,1c0.5,0.5,0.6,1.2,0,1.5C-72.5-26.9-74.8-25.2-77.7-24.7z"/>
		<path id="XMLID_112_" class="st31" d="M-133.7-57c-0.4-0.2-1-0.1-1.2-0.7c-0.1-0.5,0.4-0.6,0.7-0.8c2.3-1.3,4.5-2.6,6.8-3.9
			c0.3-0.2,0.7-0.4,1.1-0.4c0.5,0,1,0.1,1.2,0.5c0.2,0.6-0.4,0.7-0.7,0.9c-2.2,1.3-4.4,2.5-6.6,3.8C-132.8-57.3-133.3-57.2-133.7-57
			z"/>
		<path id="XMLID_111_" class="st32" d="M-57.2-31.1c-0.5-0.8,0.1-1.8-0.4-2.6c0.2-0.3,0.4-0.6,0.5,0.1
			C-57.1-32.8-57.2-32-57.2-31.1z"/>
		<path id="XMLID_106_" class="st33" d="M-83.2-44c-6.4,3.7-12.5,7.2-18.7,10.8c-2.1,1.2-2.1,1.2-3.9-0.4c-1-0.9-1.9-1.8-2.6-2.9
			c-0.6-1-0.9-2-0.5-3.1c0.6-1.6,1.1-1.9,2.8-1.7c1.5,0.2,3.1,0.3,4.9,0.5c-1.2-1.2-1.9-2.6-3.9-2.3c0.7-0.8,1.5-1.1,2.2-1.5
			c0.2-0.1,0.4-0.1,0.5,0.1c0.8,1.7,2.7,1.2,4.1,1.9c-0.3-0.8-0.5-1.7-0.9-2.5c-0.4-0.9-0.1-1.2,0.8-1.4c2.8-0.6,5.6-0.6,8.4,0.1
			C-87.8-45.8-85.6-45.1-83.2-44z"/>
		<path id="XMLID_105_" class="st33" d="M-109.5-43.1c-2.1-0.1-4.2-0.4-5.9-1.9c-1.7-1.5-1.7-3.2,0.1-4.6c1.9-1.5,4.1-1.8,6.4-1.7
			c2,0.1,3.9,0.5,5.4,1.9c1.5,1.4,1.5,2.8,0,4.2C-105.2-43.5-107.3-43.3-109.5-43.1z"/>
	</g>
	<g id="XMLID_4_">
		<path id="XMLID_144_" class="st34" d="M373-29.8c-1.1-2.2-2.9-2.8-5.2-2.4c-14.6,2.5-29.3,4.9-43.9,7.6c-4.5,0.8-7.6,3.8-9.2,8.1
			c-7.7,21.1-15.5,42.1-23.2,63.2c-2.6,7.2-5.3,14.4-8,21.6c-0.9,2.4-1,4.5,1,6.4c1.8,1.7,2.9,4,5,5.5c-0.1-1.4-1.3-2.1-2-3.1
			c-0.4-0.6-1-1.1-1.5-1.9c6.5-0.7,12.7-2,19-3.1c8.7-1.6,17.5-3,26.2-4.6c4.8-0.9,8.4-3.7,10.1-8.4c8.6-23.4,17.2-46.8,25.8-70.2
			c1.8-4.9,3.8-9.8,5.6-14.8C373.1-27.2,373.4-28.5,373-29.8z"/>
		<path id="XMLID_143_" class="st35" d="M373-29.8c-0.6,4.6-2.8,8.6-4.3,12.9c-3,8.1-5.9,16.1-8.9,24.2c-3.1,8.3-6.1,16.7-9.2,25
			c-2.7,7.3-5.3,14.5-8,21.8c-1,2.6-1.5,5.4-3.3,7.8c-2.8,3.7-6.6,5.1-11,5.7c-8.1,1.2-16.3,2.6-24.4,4.2
			c-5.4,1.1-10.9,1.9-16.3,2.8c-0.8,0.1-1.6-0.1-2.8-0.1c1.7,2.1,3.2,3.9,4.7,5.7c1.2,0.8,2.4,0.6,3.7,0.4
			c14.5-2.5,28.9-4.9,43.4-7.4c4.4-0.8,7.7-3.5,9.2-7.7c10.6-28.6,21-57.2,31.5-85.7c0.8-2.1,0.8-4-1-5.7
			C375.1-27.2,374.1-28.6,373-29.8z"/>
		<path id="XMLID_110_" class="st36" d="M318.5-14.9c-0.8,0.7-1.3,1.6-1.7,2.6c-8.5,23.1-17,46.3-25.5,69.4
			c-0.2,0.4-0.3,0.9-0.5,1.3c-0.6,1.9-0.1,2.6,2,2.3c3.5-0.5,6.9-1.2,10.4-1.8c10.8-1.8,21.6-3.7,32.4-5.5c2.6-0.4,4.1-1.7,5-4.1
			c8.4-23.1,16.9-46.1,25.4-69.1c1.4-3.8,1.1-4.2-2.9-3.5c-13.9,2.4-27.8,4.7-41.7,7.1C320.3-16,319.3-15.6,318.5-14.9z"/>
		<path id="XMLID_109_" class="st37" d="M318.2,65.7c0.9-1,1.9-1.9,2.1-3.4c0.2-1.3-0.4-2.4-1.7-2.2c-3.9,0.5-8,0.4-11.5,2.6
			c-1.4,0.8-2.4,2.1-2.8,3.8c-0.2,1.2,0.2,2.3,1.5,2.2c4.1-0.4,8.3-0.5,12-2.7C318,65.9,318.1,65.7,318.2,65.7z"/>
		<path id="XMLID_108_" class="st38" d="M351.4-24.1c0.4-0.6,1.1-1.1,0.8-1.8c-0.3-0.9-1.2-0.5-1.8-0.4c-3.7,0.6-7.4,1.3-11.1,1.9
			c-1.1,0.2-2.1,0.6-2.7,1.6c-0.4,0.8-0.3,1.5,0.7,1.4c4.4-0.7,8.9-1.3,13.3-2.4C350.9-23.8,351.1-24,351.4-24.1z"/>
		<path id="XMLID_104_" class="st39" d="M329.8,19.6c-0.5-3.2-0.3-4,1.8-6.1c-1.4-0.2-2.5,0.2-3.7,0.4c-0.4,0.1-0.6,0.3-0.5,0.7
			c0.6,2.4-1.5,3.7-2.5,5.4c-0.4,0.6-0.7-0.1-0.9-0.5c-0.4-1-0.8-1.9-1-2.9c-0.3-1.1-0.8-1.1-1.8-0.7c-3,1.4-5.7,3.4-7.9,5.8
			c-3,3.3-5.2,7.2-7.4,11.5c3.7-0.6,7.1-1.2,10.5-1.8c7.3-1.2,14.6-2.5,21.9-3.7c2.6-0.4,2.5-0.4,3-3.1c0.4-2.2,0.7-4.5,0.4-6.7
			c-0.3-2.6-2.2-4.4-4.7-4.8c-1-0.1-1.5,0.5-2,1.1C333.2,15.9,331.6,17.7,329.8,19.6z"/>
		<path id="XMLID_103_" class="st39" d="M328.6,0.3c-2,1.9-4,4.1-4.7,7.2c-0.7,3.2,1.1,5.4,4.3,5.4c3.6,0,6.4-1.8,8.9-4
			c2.1-1.8,3.8-4,4.3-6.9c0.6-3.2-1.1-5.4-4.4-5.3C334.5-3.3,331.4-2,328.6,0.3z"/>
	</g>
	<g id="XMLID_3_">
		<path id="XMLID_218_" class="st40" d="M-204.1,127.4c0.7-0.4,1.7-0.4,2.4,0c0.2,0.1,0.3,0.2,0.4,0.3c0.3-0.4,0.1-0.8-0.4-1.1
			c-0.7-0.4-1.7-0.4-2.4,0c-0.5,0.3-0.6,0.7-0.4,1.1C-204.4,127.6-204.3,127.5-204.1,127.4"/>
		<path id="XMLID_217_" class="st40" d="M-211.6,129.1C-211.6,129.1-211.7,129.1-211.6,129.1c-0.2-0.1-0.2-0.2-0.3-0.2
			c0,0-0.1-0.1-0.1-0.1c-0.1-0.1-0.1-0.1-0.2-0.2c0,0-0.1-0.1-0.1-0.1c0-0.1-0.1-0.1-0.1-0.2c0,0,0-0.1-0.1-0.1
			c0-0.1-0.1-0.1-0.1-0.2c0,0,0-0.1-0.1-0.1c0,0,0-0.1-0.1-0.1c0,0,0-0.1,0-0.1c0,0,0-0.1,0-0.1c0,0,0-0.1,0-0.1c0,0,0-0.1,0-0.1
			c0,0,0,0,0,0c0,0.5,0,1,0,1.4c0,0.7,0.5,1.5,1.5,2l0-1.4C-211.4,129.3-211.5,129.2-211.6,129.1"/>
		<path id="XMLID_216_" class="st10" d="M-186.3,143.9C-186.3,143.8-186.3,143.8-186.3,143.9l-7.6-4.5l-17.4-10l0,1.4l25,14.4
			L-186.3,143.9C-186.3,143.9-186.3,143.9-186.3,143.9"/>
		<path id="XMLID_212_" class="st41" d="M-212.7,127.6c0,0,0,0.1,0,0.1c0,0,0,0.1,0,0.1c0,0.1,0,0.1,0.1,0.1c0,0,0,0.1,0.1,0.1
			c0,0.1,0.1,0.1,0.1,0.2c0,0,0,0.1,0.1,0.1c0,0.1,0.1,0.1,0.1,0.2c0,0,0.1,0.1,0.1,0.1c0,0.1,0.1,0.1,0.2,0.2c0,0,0.1,0.1,0.1,0.1
			c0.1,0.1,0.1,0.1,0.2,0.2c0,0,0.1,0,0.1,0.1c0.1,0.1,0.2,0.1,0.3,0.2l17.4,10l7.6,4.4c0-0.7,0.5-1.4,1.4-1.9l9.5-5.5l-24-13.9
			c-1.9-1.1-5.1-1.1-7,0l-4.9,2.8c-1,0.6-1.4,1.3-1.4,2c0,0,0,0.1,0,0.1C-212.7,127.5-212.7,127.6-212.7,127.6 M-198.9,129.6
			c0.7-0.4,1.7-0.4,2.4,0c0.7,0.4,0.7,1,0,1.4c-0.7,0.4-1.7,0.4-2.4,0C-199.6,130.6-199.6,130-198.9,129.6 M-204.1,126.6
			c0.7-0.4,1.7-0.4,2.4,0c0.7,0.4,0.7,1,0,1.4c-0.7,0.4-1.7,0.4-2.4,0C-204.8,127.6-204.8,127-204.1,126.6"/>
		<path id="XMLID_211_" class="st41" d="M-212.6,128c0,0,0-0.1-0.1-0.1C-212.6,127.9-212.6,128-212.6,128"/>
		<path id="XMLID_210_" class="st41" d="M-212,128.8c-0.1-0.1-0.1-0.1-0.2-0.2C-212.1,128.7-212.1,128.8-212,128.8"/>
		<path id="XMLID_209_" class="st41" d="M-212.7,127.8c0,0,0-0.1,0-0.1C-212.7,127.7-212.7,127.7-212.7,127.8"/>
		<path id="XMLID_208_" class="st41" d="M-211.7,129.1c-0.1-0.1-0.1-0.1-0.2-0.2C-211.8,129-211.8,129-211.7,129.1"/>
		<path id="XMLID_207_" class="st41" d="M-212.2,128.6c0-0.1-0.1-0.1-0.1-0.2C-212.3,128.5-212.3,128.5-212.2,128.6"/>
		<path id="XMLID_206_" class="st41" d="M-212.4,128.3c0,0-0.1-0.1-0.1-0.1C-212.5,128.2-212.5,128.3-212.4,128.3"/>
		<path id="XMLID_205_" class="st41" d="M-211.6,129.1c0.1,0.1,0.2,0.1,0.3,0.2C-211.4,129.3-211.5,129.2-211.6,129.1"/>
		<path id="XMLID_204_" class="st41" d="M-212.7,127.5c0,0,0-0.1,0-0.1C-212.7,127.4-212.7,127.4-212.7,127.5"/>
		<path id="XMLID_203_" class="st41" d="M-211.3,129.4l17.4,10L-211.3,129.4z"/>
		<path id="XMLID_202_" class="st40" d="M-198.9,130.3c0.7-0.4,1.7-0.4,2.4,0c0.2,0.1,0.3,0.2,0.4,0.3c0.3-0.4,0.1-0.8-0.4-1.1
			c-0.7-0.4-1.7-0.4-2.4,0c-0.5,0.3-0.6,0.7-0.4,1.1C-199.2,130.5-199.1,130.4-198.9,130.3"/>
		<path id="XMLID_201_" class="st42" d="M-187.3,145.3C-187.3,145.3-187.3,145.3-187.3,145.3C-187.3,145.3-187.3,145.3-187.3,145.3"
			/>
		<g id="XMLID_198_">
			<defs>
				<path id="XMLID_199_" d="M-188.3,148.1c0,0.7,0.5,1.5,1.5,2l0-4.9c-1-0.6-1.5-1.3-1.5-2L-188.3,148.1z"/>
			</defs>
			<clipPath id="XMLID_256_">
				<use xlink:href="#XMLID_199_"  style="overflow:visible;"/>
			</clipPath>
			<path id="XMLID_200_" class="st43" d="M-186.8,145.2l0,4.9c-1-0.6-1.5-1.3-1.5-2l0-4.9C-188.3,143.9-187.8,144.7-186.8,145.2"/>
		</g>
		<polygon id="XMLID_197_" class="st10" points="-170.6,154.6 -170.6,159.4 -187,150 -187,145.1 		"/>
		<path id="XMLID_196_" class="st10" d="M-163.7,154.5l0,4.9c-0.9,0.6-2.3,0.8-3.5,0.8l0-4.9C-166,155.4-164.6,155.1-163.7,154.5"/>
		<path id="XMLID_195_" class="st10" d="M-167.1,155.4l0,4.9c-1.3,0-2.6-0.3-3.6-0.8l0-4.9C-169.7,155.1-168.4,155.4-167.1,155.4"/>
		<g id="XMLID_191_">
			<defs>
				<path id="XMLID_192_" d="M-151.9,147.7l0,4.9c1-0.6,1.4-1.3,1.4-2c0-1.6,0-3.3,0-4.9C-150.5,146.4-151,147.1-151.9,147.7z"/>
			</defs>
			<clipPath id="XMLID_257_">
				<use xlink:href="#XMLID_192_"  style="overflow:visible;"/>
			</clipPath>
			<path id="XMLID_194_" class="st44" d="M-150.5,145.7l0,4.9c0,0.4-0.1,0.8-0.4,1.1l0-4.9C-150.6,146.4-150.5,146-150.5,145.7"/>
			<path id="XMLID_193_" class="st44" d="M-150.9,146.8l0,4.9c-0.2,0.3-0.6,0.6-1,0.9l0-4.9C-151.5,147.4-151.1,147.1-150.9,146.8"
				/>
		</g>
		<polygon id="XMLID_190_" class="st11" points="-151.9,147.7 -151.9,152.6 -163.7,159.4 -163.7,154.5 		"/>
		<path id="XMLID_189_" class="st45" d="M-151.9,143.6c1.9,1.1,1.9,2.9,0,4.1l-11.8,6.9c-1.9,1.1-5.1,1.1-7,0l-16.1-9.3
			c-1.9-1.1-1.9-2.9,0-4.1l11.8-6.8c1.9-1.1,5.1-1.1,7,0L-151.9,143.6z"/>
		<path id="XMLID_188_" class="st46" d="M-167.2,154.1c-1.1,0-2.1-0.2-2.9-0.7l-16.1-9.3c-0.5-0.3-0.8-0.7-0.8-1
			c0-0.3,0.3-0.6,0.8-0.9l11.8-6.8c0.7-0.4,1.8-0.7,2.9-0.7c1.1,0,2.1,0.2,2.9,0.7l16.1,9.3c0.5,0.3,0.8,0.7,0.8,1
			c0,0.3-0.3,0.6-0.8,0.9l-11.8,6.8C-165.1,153.9-166.1,154.1-167.2,154.1"/>
		<g id="XMLID_147_">
			<defs>
				<path id="XMLID_184_" d="M-125.8,169.1l0,1.4c1-0.6,1.4-1.3,1.4-2l0-1.4C-124.3,167.8-124.8,168.6-125.8,169.1z"/>
			</defs>
			<clipPath id="XMLID_258_">
				<use xlink:href="#XMLID_184_"  style="overflow:visible;"/>
			</clipPath>
			<path id="XMLID_187_" class="st47" d="M-124.3,167.1l0,1.4c0,0.4-0.1,0.8-0.4,1.1l0-1.4C-124.5,167.9-124.3,167.5-124.3,167.1"/>
			<path id="XMLID_186_" class="st47" d="M-124.7,168.2l0,1.4c-0.2,0.3-0.6,0.6-1,0.9l0-1.4C-125.3,168.9-125,168.6-124.7,168.2"/>
		</g>
		<polygon id="XMLID_146_" class="st11" points="-125.8,169.1 -125.8,170.5 -130.6,173.4 -130.6,172 		"/>
		<polygon id="XMLID_139_" class="st10" points="-137.6,172 -137.6,173.4 -163.7,158.3 -163.7,156.9 		"/>
		<g id="XMLID_135_">
			<defs>
				<path id="XMLID_136_" d="M-137.6,172l0,1.4c1.9,1.1,5.1,1.1,7,0l0-1.4C-132.6,173.1-135.7,173.1-137.6,172z"/>
			</defs>
			<clipPath id="XMLID_259_">
				<use xlink:href="#XMLID_136_"  style="overflow:visible;"/>
			</clipPath>
			<path id="XMLID_138_" class="st48" d="M-130.6,172l0,1.4c-0.9,0.6-2.2,0.8-3.4,0.8l0-1.4C-132.8,172.8-131.6,172.5-130.6,172"/>
			<path id="XMLID_137_" class="st48" d="M-134.1,172.8l0,1.4c-1.3,0-2.6-0.3-3.6-0.8l0-1.4C-136.7,172.5-135.4,172.8-134.1,172.8"
				/>
		</g>
		<path id="XMLID_131_" class="st41" d="M-125.8,165.1l-25.9-15l-11.9,6.8l26,15c1.9,1.1,5.1,1.1,7,0l4.9-2.8
			C-123.8,168-123.8,166.2-125.8,165.1"/>
		<path id="XMLID_123_" class="st46" d="M-160.9,141.3c0.8,0.4,0.8,1.1,0,1.6l-12,7c-0.8,0.4-2,0.4-2.7,0l-4.4-2.5
			c-0.8-0.4-0.8-1.1,0-1.6l12-7c0.8-0.4,2-0.4,2.7,0L-160.9,141.3z"/>
		<path id="XMLID_119_" class="st49" d="M-178.6,145.9l2.3-1.3c0.7-0.4,1.8-0.8,3.3,0c1.7,1,0.9,1.6,0.1,1.9c-0.3,0.2-1,0.5-1.1,0.5
			l1.9,1.1l-1.4,0.8L-178.6,145.9z M-174.2,146c0.3-0.2,0.2-0.3-0.2-0.5c-0.4-0.2-0.6-0.2-0.9-0.1l-0.8,0.5l1.1,0.6L-174.2,146z"/>
		<path id="XMLID_116_" class="st49" d="M-173.3,142.9l1.6-0.9l6.8,2.1l-1.4,0.8l-1.2-0.3l-1.4,0.8l0.6,0.7l-1.4,0.8L-173.3,142.9z
			 M-169,144l-1.8-0.6l1,1.1L-169,144z"/>
		<polygon id="XMLID_115_" class="st49" points="-169.4,140.6 -166.3,141.5 -167.9,139.7 -166.3,138.9 -164.2,142 -162.8,142.8 
			-164.2,143.6 -165.6,142.8 -170.9,141.5 		"/>
	</g>
	<g id="XMLID_243_">
		<polygon id="XMLID_183_" class="st50" points="143,123.3 134,132.4 134,146 143,150.5 		"/>
		<polygon id="XMLID_182_" class="st51" points="143,123.3 152,118.8 152,150.5 143,155 		"/>
		<polygon id="XMLID_181_" class="st51" points="134,155 152,146 152,150.5 134,159.5 		"/>
		<polygon id="XMLID_180_" points="134,159.5 152,150.5 152,155 134,164.1 		"/>
		<polygon id="XMLID_179_" points="138.5,161.8 143,159.5 143,150.5 138.5,152.7 		"/>
		<polygon id="XMLID_178_" class="st50" points="134,155 125.1,150.5 134,145.9 143,150.5 		"/>
		<polygon id="XMLID_177_" class="st52" points="143,150.5 134,145.9 129.6,148.2 138.5,152.7 		"/>
		<polygon id="XMLID_176_" class="st51" points="125.1,150.5 134,155 134,164.1 125.1,159.5 		"/>
		<polygon id="XMLID_175_" class="st52" points="125.1,155 134,159.5 134,164.1 125.1,159.5 		"/>
		<polygon id="XMLID_174_" class="st50" points="161,132.4 152,141.4 152,155 161,159.5 		"/>
		<polygon id="XMLID_173_" class="st51" points="161,132.4 169.9,127.8 169.9,159.5 161,164.1 		"/>
		<polygon id="XMLID_172_" class="st51" points="152,164.1 169.9,155 169.9,159.6 152,168.6 		"/>
		<polygon id="XMLID_171_" points="152,168.6 169.9,159.6 169.9,164.1 152,173.1 		"/>
		<polygon id="XMLID_170_" points="156.5,170.9 161,168.6 161,159.5 156.5,161.8 		"/>
		<polygon id="XMLID_169_" class="st50" points="152,164.1 143,159.5 152,155 161,159.5 		"/>
		<polygon id="XMLID_168_" class="st52" points="161,159.5 152,155 147.5,157.3 156.5,161.8 		"/>
		<polygon id="XMLID_167_" class="st51" points="143,159.5 152,164.1 152,173.1 143,168.6 		"/>
		<polygon id="XMLID_166_" class="st52" points="143,164.1 152,168.6 152,173.1 143,168.6 		"/>
		<polygon id="XMLID_165_" class="st53" points="116.1,91.6 116.1,73.5 125.1,73.5 125.1,96.1 		"/>
		<polygon id="XMLID_164_" class="st54" points="152,82.5 152,141.4 178.9,127.9 178.9,69 		"/>
		<polygon id="XMLID_163_" class="st53" points="152,105.2 178.9,91.7 178.9,82.6 152,96.1 		"/>
		<polygon id="XMLID_162_" class="st53" points="152,141.4 178.9,127.9 178.9,118.8 152,132.4 		"/>
		<polygon id="XMLID_161_" class="st53" points="152,123.3 178.9,109.8 178.9,100.7 152,114.3 		"/>
		<polygon id="XMLID_160_" class="st46" points="178.9,87.1 169.9,82.5 169.9,118.8 178.9,123.3 		"/>
		<polygon id="XMLID_159_" class="st46" points="178.9,87.1 169.9,82.5 169.9,118.8 178.9,123.3 		"/>
		<polygon id="XMLID_158_" class="st54" points="178.9,87.1 187.9,82.5 187.9,118.8 178.9,123.3 		"/>
		<polygon id="XMLID_157_" class="st54" points="178.9,87.1 187.9,82.5 187.9,118.8 178.9,123.3 		"/>
		<polygon id="XMLID_156_" class="st54" points="178.9,87.1 187.9,82.5 187.9,118.8 178.9,123.3 		"/>
		<polygon id="XMLID_155_" class="st46" points="152,82.6 152,141.4 125.1,127.9 125.1,69 		"/>
		<polyline id="XMLID_154_" class="st54" points="125.1,69 152,55.4 178.9,69 152,82.6 		"/>
		<polyline id="XMLID_153_" class="st55" points="129.6,71.3 152,59.9 169.9,69 147.5,80.3 		"/>
		<polygon id="XMLID_152_" class="st50" points="152,33.4 125.1,19.9 125.1,60 152,73.5 		"/>
		<polygon id="XMLID_151_" class="st50" points="178.9,123.3 169.9,118.8 169.9,127.8 178.9,132.4 		"/>
		<polygon id="XMLID_150_" class="st50" points="178.9,123.3 169.9,118.8 169.9,127.8 178.9,132.4 		"/>
		<polygon id="XMLID_149_" class="st50" points="178.9,123.3 169.9,118.8 169.9,127.8 178.9,132.4 		"/>
		<polygon id="XMLID_148_" class="st50" points="178.9,123.3 169.9,118.8 169.9,127.8 178.9,132.4 		"/>
		<polygon id="XMLID_122_" class="st56" points="178.9,123.3 187.9,118.8 187.9,127.8 178.9,132.4 		"/>
		<polygon id="XMLID_102_" class="st56" points="178.9,123.3 187.9,118.8 187.9,127.8 178.9,132.4 		"/>
		<polygon id="XMLID_101_" class="st56" points="178.9,123.3 187.9,118.8 187.9,127.8 178.9,132.4 		"/>
		<polygon id="XMLID_100_" class="st56" points="178.9,123.3 187.9,118.8 187.9,127.8 178.9,132.4 		"/>
		<polygon id="XMLID_99_" class="st51" points="178.9,123.3 187.9,118.8 187.9,127.8 178.9,132.4 		"/>
		<polygon id="XMLID_98_" class="st50" points="138.5,84.8 143,78 134,73.5 		"/>
		<polygon id="XMLID_97_" class="st50" points="147.5,89.4 129.6,80.3 129.6,71.3 147.5,80.3 		"/>
		<polygon id="XMLID_96_" class="st57" points="152,123.3 125.1,109.8 125.1,100.7 152,114.3 		"/>
		<polygon id="XMLID_95_" class="st57" points="152,141.4 125.1,127.9 125.1,118.8 152,132.4 		"/>
		<polygon id="XMLID_94_" class="st57" points="152,105.2 125.1,91.7 125.1,82.6 152,96.1 		"/>
		<polygon id="XMLID_93_" class="st57" points="169.9,91.6 161,87.1 161,78 169.9,82.6 		"/>
		<polygon id="XMLID_92_" class="st57" points="178.9,105.2 169.9,100.7 169.9,91.6 178.9,96.1 		"/>
		<polygon id="XMLID_91_" class="st57" points="178.9,123.3 169.9,118.8 169.9,109.7 178.9,114.2 		"/>
		<polygon id="XMLID_90_" class="st57" points="178.9,123.3 169.9,118.8 169.9,109.7 178.9,114.2 		"/>
		<polygon id="XMLID_89_" class="st57" points="178.9,123.3 169.9,118.8 169.9,109.7 178.9,114.2 		"/>
		<polygon id="XMLID_88_" class="st57" points="116.1,73.5 125.1,78 125.1,69 116.1,64.4 		"/>
		<polygon id="XMLID_87_" class="st57" points="116.1,91.6 125.1,96.1 125.1,87.1 116.1,82.6 		"/>
		<polygon id="XMLID_86_" class="st58" points="152,33.4 125.1,19.9 125.1,28.9 152,42.5 		"/>
		<polygon id="XMLID_85_" class="st59" points="156.5,40.2 152,37.9 152,33.4 156.5,35.7 		"/>
		<polygon id="XMLID_84_" class="st60" points="161,42.4 156.5,40.2 156.5,35.7 161,37.9 		"/>
		<polygon id="XMLID_83_" class="st60" points="156.5,44.7 152,42.5 152,37.9 156.5,40.2 		"/>
		<polygon id="XMLID_82_" class="st59" points="161,47 156.5,44.7 156.5,40.2 161,42.4 		"/>
		<polygon id="XMLID_81_" class="st61" points="178.9,78 161,87.1 161,37.9 187.9,24.3 		"/>
		<polygon id="XMLID_80_" class="st62" points="143,1.7 116.1,15.3 161,37.9 187.9,24.3 		"/>
		<polygon id="XMLID_79_" class="st58" points="161,87.1 152,82.6 152,42.5 161,47 		"/>
		<polygon id="XMLID_78_" class="st61" points="187.9,82.5 177.5,77.3 187.9,69 		"/>
		<polygon id="XMLID_77_" class="st58" points="116.1,15.3 116.1,64.5 125.1,69 125.1,19.9 		"/>
		<polygon id="XMLID_76_" class="st61" points="125.1,59.9 125.1,69 134,64.4 		"/>
		<polygon id="XMLID_75_" class="st57" points="178.9,87.1 169.9,82.5 178.9,78 187.9,82.5 		"/>
		<polygon id="XMLID_74_" class="st57" points="178.9,87.1 169.9,82.5 178.9,78 187.9,82.5 		"/>
		<polygon id="XMLID_73_" class="st57" points="178.9,87.1 169.9,82.5 178.9,78 187.9,82.5 		"/>
		<polygon id="XMLID_72_" class="st62" points="143,1.7 116.1,15.3 161,37.9 187.9,24.3 		"/>
		<polygon id="XMLID_71_" class="st61" points="187.9,24.3 187.9,69.3 178.5,78.4 		"/>
		<polygon id="XMLID_70_" class="st51" points="101.1,98.5 101.2,108.1 109.3,103.8 109.1,94.3 		"/>
		<polygon id="XMLID_69_" points="159.6,119.4 159.8,131 172.6,124.3 172.5,112.7 		"/>
		<polygon id="XMLID_68_" class="st63" points="159.6,119.4 156.9,118 169.7,111.3 172.5,112.7 		"/>
		<polygon id="XMLID_67_" class="st64" points="159.6,119.4 159.8,131 157,129.5 156.9,118 		"/>
		<polygon id="XMLID_66_" class="st50" points="101.1,98.5 93,94.3 101,90 109.1,94.3 		"/>
		<polygon id="XMLID_65_" class="st54" points="124.9,85.9 125.1,95.4 117,99.7 116.9,90.2 		"/>
		<polygon id="XMLID_64_" class="st53" points="117,90.2 117.1,99.7 109.1,103.9 109,94.4 		"/>
		<polygon id="XMLID_63_" class="st46" points="124.9,85.9 116.8,81.6 108.8,85.9 116.9,90.2 		"/>
		<polygon id="XMLID_62_" class="st57" points="117,90.2 108.9,85.9 100.8,90.1 109,94.4 		"/>
		<polygon id="XMLID_61_" class="st50" points="101.1,98.5 101.2,108.1 93.1,103.8 93,94.3 		"/>
		<path id="XMLID_60_" class="st65" d="M133.6,64.3c-1.3,2.2-2.5,5-2.4,8c0.1,4.1,17.3,41.9,20.8,45.5c1.4,1.4,5,4.1,5.9,4.1"/>
		<polygon id="XMLID_59_" class="st46" points="178.9,87.1 169.9,82.5 169.9,118.8 178.9,123.3 		"/>
		<polygon id="XMLID_58_" class="st50" points="178.9,123.3 169.9,118.8 169.9,127.8 178.9,132.4 		"/>
		<polygon id="XMLID_57_" class="st57" points="178.9,105.2 169.9,100.7 169.9,91.6 178.9,96.1 		"/>
		<polygon id="XMLID_56_" class="st57" points="178.9,123.3 169.9,118.8 169.9,109.7 178.9,114.2 		"/>
		<polygon id="XMLID_55_" class="st53" points="178.9,105.2 187.9,100.7 187.9,91.6 178.9,96.1 		"/>
		<polygon id="XMLID_54_" class="st53" points="178.9,105.2 187.9,100.7 187.9,91.6 178.9,96.1 		"/>
		<polygon id="XMLID_53_" class="st53" points="178.9,105.2 187.9,100.7 187.9,91.6 178.9,96.1 		"/>
		<polygon id="XMLID_52_" class="st53" points="178.9,105.2 187.9,100.7 187.9,91.6 178.9,96.1 		"/>
		<polygon id="XMLID_51_" class="st53" points="178.9,123.3 187.9,118.8 187.9,109.7 178.9,114.2 		"/>
		<polygon id="XMLID_50_" class="st53" points="178.9,123.3 187.9,118.8 187.9,109.7 178.9,114.2 		"/>
		<polygon id="XMLID_49_" class="st53" points="178.9,123.3 187.9,118.8 187.9,109.7 178.9,114.2 		"/>
		<polygon id="XMLID_48_" class="st53" points="178.9,123.3 187.9,118.8 187.9,109.7 178.9,114.2 		"/>
		<polygon id="XMLID_47_" class="st53" points="178.9,123.3 187.9,118.8 187.9,109.7 178.9,114.2 		"/>
		<polygon id="XMLID_46_" class="st6" points="135.1,43.3 135,50.4 129.8,47.8 129.8,40.7 		"/>
		<polygon id="XMLID_45_" class="st66" points="135.2,46.3 132.9,45.2 132.9,42.4 135.2,43.5 		"/>
		<polygon id="XMLID_44_" class="st6" points="146.5,49 146.5,56.2 141.2,53.6 141.3,46.5 		"/>
		<polygon id="XMLID_43_" class="st66" points="146.6,52.1 144.3,50.9 144.3,48.1 146.6,49.2 		"/>
		<polygon id="XMLID_42_" class="st67" points="136.7,56.4 134.8,55.3 134.8,52.4 136.7,53.5 136.7,54.1 		"/>
		<polygon id="XMLID_41_" class="st67" points="138.4,52.5 136.7,53.5 134.8,52.4 136.4,51.4 		"/>
		<polygon id="XMLID_40_" class="st68" points="136.7,53.5 138.4,52.5 138.4,53.2 138.4,54.8 138.4,55.5 136.7,56.4 		"/>
		<path id="XMLID_39_" class="st69" d="M181.7,49.7c-2.8-3.2-8-2.6-11.6,1.3c-3.6,3.9-4.2,9.6-1.4,12.8c2.8,3.2,8,2.6,11.6-1.3
			C183.9,58.6,184.5,52.8,181.7,49.7z"/>
		<path id="XMLID_38_" class="st66" d="M181.7,49.7c-2.8-3.2-8-2.6-11.6,1.3c-3.6,3.9-4.2,9.6-1.4,12.8c2.8,3.2,8,2.6,11.6-1.3
			C183.9,58.6,184.5,52.8,181.7,49.7z"/>
		<path id="XMLID_37_" class="st70" d="M180.3,48.5l-4.1-2.6c0,0-6-2.7-10.9,5.3l3.3,1.8C168.6,53,173.2,45.6,180.3,48.5z"/>
		<path id="XMLID_36_" class="st71" d="M170.5,65l-4.2-2.4c0,0-5.3-3.9-0.6-12.1l3.1,2C168.9,52.6,164.5,60.1,170.5,65z"/>
		<polygon id="XMLID_35_" class="st69" points="170.4,57.3 170.4,33.1 125.4,10.4 122.6,11.9 122.5,5.7 173.2,29.9 173.2,58.4 		"/>
		<polygon id="XMLID_5_" class="st72" points="177.8,28.4 177.8,56 173.1,58.4 173,30.6 122.7,5.8 127.8,4.3 		"/>
	</g>
</g>
</svg>
