<?xml version="1.0" encoding="utf-8"?>
<!-- Generator: Adobe Illustrator 19.0.0, SVG Export Plug-In . SVG Version: 6.00 Build 0)  -->
<svg version="1.1" xmlns="http://www.w3.org/2000/svg" xmlns:xlink="http://www.w3.org/1999/xlink" x="0px" y="0px"
	 viewBox="0 0 205 205" style="enable-background:new 0 0 205 205;" xml:space="preserve">
<style type="text/css">
	.st0{clip-path:url(#XMLID_249_);}
	.st1{fill:#ABABAB;}
	.st2{fill:#55545B;}
	.st3{fill:#797979;}
	.st4{fill:#959497;}
	.st5{fill:#BDC2C7;}
	.st6{fill-rule:evenodd;clip-rule:evenodd;fill:#FADBA8;}
	.st7{fill-rule:evenodd;clip-rule:evenodd;fill:#773911;}
	.st8{fill-rule:evenodd;clip-rule:evenodd;fill:#A44E18;}
	.st9{fill-rule:evenodd;clip-rule:evenodd;fill:#E76652;}
	.st10{fill-rule:evenodd;clip-rule:evenodd;fill:#80CEFF;}
	.st11{fill-rule:evenodd;clip-rule:evenodd;fill:#C1E2FF;}
	.st12{fill-rule:evenodd;clip-rule:evenodd;fill:#FFFFFF;}
	.st13{fill-rule:evenodd;clip-rule:evenodd;fill:#3DB4FF;}
	.st14{fill-rule:evenodd;clip-rule:evenodd;fill:#477FA9;}
	.st15{fill-rule:evenodd;clip-rule:evenodd;fill:#255675;}
	.st16{fill-rule:evenodd;clip-rule:evenodd;fill:#FCBD6D;}
	.st17{fill-rule:evenodd;clip-rule:evenodd;fill:#E49D5F;}
	.st18{fill-rule:evenodd;clip-rule:evenodd;fill:#251205;}
	.st19{fill-rule:evenodd;clip-rule:evenodd;}
	.st20{fill:#696969;}
	.st21{fill:#959595;}
	.st22{fill-rule:evenodd;clip-rule:evenodd;fill:#797979;}
	.st23{fill:none;stroke:#EAB618;stroke-width:3;stroke-miterlimit:10;}
	.st24{fill:#E2E3E5;}
	.st25{fill:#AEAEAE;}
	.st26{fill:#B1B1B1;}
	.st27{fill:#979797;}
	.st28{fill:#919191;}
	.st29{fill:#929292;}
	.st30{fill:#A5A5A5;}
	.st31{fill:#A2A2A2;}
	.st32{fill:#878787;}
	.st33{fill:#A3A3A3;}
	.st34{fill:#939393;}
	.st35{fill:#E3E2E4;}
	.st36{fill:#B3B5C8;}
	.st37{fill:#4990C7;}
	.st38{fill:#23295C;}
	.st39{fill:#242A5C;}
	.st40{fill:#ABADC0;}
	.st41{fill:#FCFDFD;}
	.st42{fill:#394E5E;}
	.st43{fill:#202F39;}
	.st44{fill:#85CEEF;}
	.st45{fill:#F7F8FB;}
	.st46{fill:#F5F7FA;}
	.st47{fill:#FCFEFD;}
	.st48{fill:#88898A;}
	.st49{fill:#999999;}
	.st50{fill:#E4E5E8;}
	.st51{fill:#9C9D9E;}
	.st52{clip-path:url(#XMLID_250_);fill:#999999;}
	.st53{clip-path:url(#XMLID_251_);fill:#BFBFBF;}
	.st54{fill:#BFBFBF;}
	.st55{fill:#FAFBFD;}
	.st56{fill:#EA556D;}
	.st57{clip-path:url(#XMLID_252_);fill:#BFBFBF;}
	.st58{clip-path:url(#XMLID_253_);fill:#999999;}
	.st59{fill:#F1F2F2;}
	.st60{fill:#80CEFF;}
	.st61{fill:#666666;}
</style>
<g id="Layer_2">
	<g id="XMLID_7_">
		<defs>
			<circle id="XMLID_6_" cx="102.5" cy="102.5" r="100"/>
		</defs>
		<clipPath id="XMLID_249_">
			<use xlink:href="#XMLID_6_"  style="overflow:visible;"/>
		</clipPath>
		<g id="XMLID_5_" class="st0">
			<g id="XMLID_223_">
				<polygon id="XMLID_246_" class="st1" points="11.9,90.7 -1.6,99.1 -4.3,100.7 4.8,106.3 13.8,100.7 				"/>
				<polygon id="XMLID_245_" class="st2" points="10.5,83.1 11.4,88.1 11.9,90.7 13.8,100.7 15.9,111.4 30.5,120.5 24.1,87 				"/>
				<polygon id="XMLID_244_" class="st3" points="4.8,106.3 4.8,115.7 13.8,110.1 15.9,111.4 13.8,100.7 				"/>
				<polygon id="XMLID_243_" class="st4" points="-3.4,161.5 -3.4,173.1 2,176.4 2,155.8 -3.4,152.5 -3.4,156.9 				"/>
				<polygon id="XMLID_242_" class="st5" points="10.1,171.4 10.1,160.8 2,155.8 2,176.4 				"/>
				<polygon id="XMLID_241_" class="st4" points="67.3,205 67.3,216.6 72.7,219.9 72.7,199.3 67.3,196 67.3,200.4 				"/>
				<polygon id="XMLID_240_" class="st5" points="80.8,214.9 80.8,204.3 72.7,199.3 72.7,219.9 				"/>
				<polygon id="XMLID_239_" class="st4" points="212,114.1 212,125.6 217.4,129 217.4,108.4 212,105.1 212,109.5 				"/>
				<polygon id="XMLID_238_" class="st5" points="225.5,124 225.5,113.4 217.4,108.4 217.4,129 				"/>
				<polygon id="XMLID_237_" class="st4" points="91.9,45.1 102.4,99.6 166.5,60 170.2,57.8 166.2,36.8 163.7,24.1 161,9.7 
					159.8,3.3 				"/>
				<polygon id="XMLID_236_" class="st4" points="24.1,87 30.5,120.5 49.6,132.2 98.7,101.9 102.4,99.6 91.9,45.1 				"/>
				<polygon id="XMLID_235_" class="st1" points="114.4,18.9 99,28.4 83.7,37.9 78.2,41.2 91.9,45.1 159.8,3.3 146.1,-0.6 
					145.1,-0.1 129.8,9.4 				"/>
				<polygon id="XMLID_234_" class="st1" points="68.3,47.3 53,56.8 37.6,66.3 22.2,75.8 10.5,83.1 24.1,87 91.9,45.1 78.2,41.2 
									"/>
				<polygon id="XMLID_233_" class="st1" points="150.7,134 98.7,101.9 49.6,132.2 81.6,152 81.6,175 82.9,175.8 				"/>
				<polygon id="XMLID_232_" class="st4" points="30.5,120.5 15.9,111.4 13.8,110.1 4.8,115.7 72.6,157.5 81.6,152 49.6,132.2 				
					"/>
				<polygon id="XMLID_231_" class="st1" points="102.4,99.6 98.7,101.9 150.7,134 218.5,92.1 217.2,91.4 166.5,60 				"/>
				<polygon id="XMLID_230_" class="st2" points="4.8,106.3 -4.3,100.7 -4.3,116.3 -4.3,135.3 -4.3,154.3 -4.3,162.4 -2.7,163.4 
					-0.4,164.8 71.1,208.9 72.6,209.8 72.6,157.5 4.8,115.7 				"/>
				<polygon id="XMLID_229_" class="st4" points="150.7,151.5 218.5,109.6 218.5,92.1 150.7,134 				"/>
				<polygon id="XMLID_228_" class="st4" points="82.9,175.8 82.9,193.3 150.7,151.5 150.7,134 				"/>
				<polygon id="XMLID_227_" class="st2" points="81.6,175 81.6,192.5 82.9,193.3 82.9,175.8 				"/>
				<polygon id="XMLID_226_" class="st1" points="166.2,36.8 217.2,68.3 226.3,62.7 163.7,24.1 				"/>
				<polygon id="XMLID_225_" class="st2" points="170.2,57.8 166.5,60 217.2,91.4 217.2,68.3 166.2,36.8 				"/>
				<polygon id="XMLID_224_" class="st3" points="226.3,69 226.3,62.7 217.2,68.3 217.2,91.4 218.5,92.1 218.5,109.6 150.7,151.5 
					82.9,193.3 81.6,192.5 81.6,152 72.6,157.5 72.6,209.8 74.9,208.4 79.2,205.8 94.5,196.3 109.9,186.8 125.3,177.3 140.6,167.8 
					156,158.4 171.4,148.9 186.7,139.4 202.1,129.9 217.5,120.4 222.4,117.4 224,116.4 226.3,115 				"/>
			</g>
			<g id="XMLID_247_">
				<polygon id="XMLID_222_" class="st6" points="52.4,90.5 59.5,77.6 52.4,64.9 89.1,64.9 96.2,77.6 89.1,90.5 				"/>
				<polygon id="XMLID_221_" class="st7" points="143.2,78.7 127.3,107.6 140,107.9 156,78.7 				"/>
				<polygon id="XMLID_220_" class="st8" points="127.3,107.6 143.2,78.7 134.5,62.8 134,62.8 117.6,91 				"/>
				<polygon id="XMLID_219_" class="st7" points="134.5,62.8 143.2,78.7 156,78.7 146.7,62.5 				"/>
				<polygon id="XMLID_185_" class="st7" points="156.3,102 140.2,131.4 153.1,131.7 169.4,102 				"/>
				<polygon id="XMLID_183_" class="st8" points="156.3,102 147.5,85.8 147.1,85.8 130.3,114.5 139.8,131.4 140.2,131.4 				"/>
				<polygon id="XMLID_182_" class="st7" points="147.5,85.8 156.3,102 169.4,102 159.9,85.5 				"/>
				<polygon id="XMLID_181_" class="st9" points="59.5,77.6 52.4,90.5 40.9,90.5 48.1,77.6 				"/>
				<polygon id="XMLID_180_" class="st10" points="82,64.9 89,77.6 48.1,77.6 40.9,64.9 				"/>
				<polygon id="XMLID_179_" class="st11" points="48.1,77.6 40.9,90.5 34,77.6 40.9,64.9 				"/>
				<polygon id="XMLID_178_" class="st6" points="60.1,87.7 57.2,82.3 63.8,84.1 				"/>
				<polygon id="XMLID_177_" class="st10" points="95.1,66.8 117.1,106.5 70.6,106.5 60.1,87.7 63.8,84.1 57.2,82.3 48.6,66.8 				
					"/>
				
					<ellipse id="XMLID_176_" transform="matrix(-0.9323 -0.3616 0.3616 -0.9323 102.817 187.9956)" class="st12" cx="69" cy="84.4" rx="1.3" ry="0.9"/>
				
					<ellipse id="XMLID_175_" transform="matrix(-0.9323 -0.3616 0.3616 -0.9323 118.0155 190.8394)" class="st12" cx="76.9" cy="84.4" rx="1.3" ry="0.9"/>
				
					<ellipse id="XMLID_174_" transform="matrix(-0.9323 -0.3616 0.3616 -0.9323 133.2119 193.6828)" class="st12" cx="84.7" cy="84.4" rx="1.3" ry="0.9"/>
				
					<ellipse id="XMLID_173_" transform="matrix(-0.9324 -0.3616 0.3616 -0.9324 148.4094 196.5256)" class="st12" cx="92.6" cy="84.4" rx="1.3" ry="0.9"/>
				<polygon id="XMLID_172_" class="st13" points="117.1,106.5 103.4,131.4 56.9,131.4 56.9,131.3 34.9,91.4 48.6,66.8 57.2,82.3 
					60.1,87.7 70.6,106.5 				"/>
				<polygon id="XMLID_171_" class="st14" points="116.6,106.5 94.6,66.8 113.9,66.8 135.9,106.5 				"/>
				<polygon id="XMLID_170_" class="st15" points="116.6,106.5 136.8,106.5 123,131.4 102.9,131.4 				"/>
				<polygon id="XMLID_169_" class="st16" points="53.3,122.8 66.7,98.6 51,70.2 37.6,94.4 				"/>
				<path id="XMLID_166_" class="st14" d="M127.5,88.7h14.4l9.9,17.8h-17.4l-9.9-17.8H127.5z M138.9,83.2h-17.4l-9.1-16.5h17.4
					L138.9,83.2z"/>
				<path id="XMLID_163_" class="st15" d="M122,131.4l13.8-24.9h16L138,131.4H122z M138.9,83.2l-3.1,5.5h-12.6l-3.1-5.5H138.9z"/>
				<polygon id="XMLID_162_" class="st6" points="21.7,101.5 33.5,101.5 68.9,101.5 49.4,66.3 2.3,66.3 				"/>
				<polygon id="XMLID_161_" class="st16" points="5.1,131.5 21.7,101.5 2.3,66.3 -14.4,96.3 				"/>
				<polygon id="XMLID_160_" class="st17" points="21.7,101.5 5.1,131.5 16.9,131.5 45.7,131.5 52.3,131.5 68.9,101.5 				"/>
				<polygon id="XMLID_159_" class="st12" points="33.1,79.9 40.7,79.8 37.6,74.3 30,74.3 				"/>
				<path id="XMLID_156_" class="st18" d="M24.6,81.6h4.1l-5.6-10.4L19,71.3L24.6,81.6z M31.2,86.3h-4.1l5.3,9.9l4.1-0.2L31.2,86.3z
					"/>
				<polygon id="XMLID_155_" class="st7" points="3.8,133.6 15.4,112.3 37.6,112.8 31,118.4 43.9,131.8 				"/>
				<polygon id="XMLID_154_" class="st8" points="-3.5,76 15.6,112.2 4.1,133.8 -15.2,96.6 				"/>
				<polygon id="XMLID_153_" class="st8" points="10.2,104.2 -1.6,81.4 6.9,73.7 16.8,73.6 9.9,79.7 				"/>
				<polygon id="XMLID_152_" class="st16" points="50.1,81.3 49,79.3 45.8,79.3 47,81.3 47.7,81.3 				"/>
				<polygon id="XMLID_151_" class="st16" points="46,83.1 47,81.3 45.8,79.3 44.9,81 				"/>
				<polygon id="XMLID_150_" class="st17" points="47,81.3 46,83.1 46.7,83.1 48.4,83.1 49.1,83.1 50.1,81.3 				"/>
				<polygon id="XMLID_149_" class="st19" points="36.4,80 35,77.6 32,77.6 33.3,80 				"/>
				<polygon id="XMLID_148_" class="st12" points="40,92.1 47.6,92 44.5,86.4 36.9,86.5 				"/>
				<polygon id="XMLID_122_" class="st19" points="43.2,92.1 41.8,89.7 38.8,89.7 40.1,92.1 				"/>
				<polygon id="XMLID_102_" points="107.8,108.4 135.7,108.7 119.5,138.9 91.6,138.6 				"/>
				<polygon id="XMLID_101_" class="st20" points="107.8,108.4 104.3,101.9 88.1,132.1 91.6,138.6 				"/>
				<polygon id="XMLID_100_" class="st21" points="107.7,108.4 135.7,108.7 132.2,102.3 104.3,101.9 				"/>
				<polygon id="XMLID_99_" class="st17" points="91.9,124.4 120.4,124.4 113.3,137.2 84.8,137.2 				"/>
				<polygon id="XMLID_98_" class="st6" points="93.1,111.7 113.3,111.7 120.4,124.4 100.1,124.4 				"/>
				<polygon id="XMLID_97_" class="st10" points="104.1,111.7 111.1,124.4 72.3,124.4 65.1,111.7 				"/>
				<polygon id="XMLID_96_" class="st11" points="72.3,124.4 65.1,137.2 58.2,124.4 65.1,111.7 				"/>
				<polygon id="XMLID_95_" class="st13" points="65.1,137.2 72.3,124.4 111.1,124.4 104.1,137.2 				"/>
				<polygon id="XMLID_94_" class="st22" points="55.8,77.9 110.7,107.5 108.5,103 53,72.9 				"/>
			</g>
		</g>
	</g>
</g>
<g id="Layer_3">
	<circle id="XMLID_8_" class="st23" cx="102.5" cy="102.5" r="100"/>
</g>
<g id="Layer_1">
	<g id="XMLID_2_">
		<path id="XMLID_141_" class="st24" d="M-89.1,56.6c-0.4,0.3-0.9,0.4-0.9-0.3c0-0.8-0.2-1.6,0.1-2.4c0.9-1.9,1.7-3.8,2.6-5.7
			c0.3-0.8,0.8-1.1,1.5-0.6c1.6,1.4,3,1,4.7-0.1c3.9-2.4,7.9-4.6,11.8-6.9c1.1-0.7,2.3-0.7,3.5-0.5c1.1,0.2,1.3,0.9,0.9,2
			c-0.1,0.2-0.2,0.3-0.4,0.5c-0.1,0.1-0.2,0.2-0.4,0.3c-4.2,2.5-8.5,4.9-12.7,7.4c-0.4,0.2-1.1,0.3-1.1,0.9c0,0.6,0.8,0.3,1.1,0.6
			c1.1,0.9,1.3,1.8,0.7,3c-0.6-1.5-0.6-1.5-2.3-1.2c-2.8,0.4-5.5,0.8-8.3,1.3C-89.5,55.1-89.6,55.4-89.1,56.6z"/>
		<path id="XMLID_140_" class="st24" d="M-88.9,36.3c0.1-0.8,0.9-0.6,1.3-0.7C-84,35-80.5,34.5-77,34c0.7-0.1,0.7-0.1,0.5,0.7
			c-0.6,2.2-1.9,4.2-2.7,6.3c-0.1,0.3-0.3,0.5-0.7,0.6c-1.1-0.1-1.9-1.1-3-1.3c-2.1,0.8-4,2.2-6,3.3c-3.1,1.7-6,3.5-9.1,5.2
			c-0.6,0.3-1.2,0.3-1.9,0.3c-0.1,0-0.2,0-0.3,0c-0.2,0-0.5-0.2-0.7-0.2c-0.4,0.1-0.2,0.7-0.6,0.9c-0.4-0.7-0.3-1.5-0.4-2.3
			c-0.1-0.8,0.7-1.1,1.3-1.5c4.2-2.4,8.4-4.9,12.5-7.3c0.4-0.3,1.2-0.1,1.2-0.7c0-0.4-0.7-0.5-1-0.8C-88.2,36.9-88.6,36.8-88.9,36.3
			z"/>
		<path id="XMLID_134_" class="st25" d="M-97.8,48.5c5-3,10-6,15.1-8.7c0.3,0.6,0.5,1.2,0,1.8c-4.7,2.7-9.4,5.4-14,8
			c-0.3,0.2-0.7,0.3-1,0.5C-98.3,49.6-98.2,49.1-97.8,48.5z"/>
		<path id="XMLID_133_" class="st25" d="M-78.3,51.8c-0.3,0.1-0.7,0.2-1,0c-0.3-0.2-0.7-0.2-0.8-0.6c0-0.4,0.4-0.5,0.6-0.6
			c4.6-2.6,9.2-5.3,13.9-7.9c0.5,0.6,0.3,1.1,0,1.7c-4.1,2.4-8.2,4.8-12.3,7.2C-78,51.6-78.1,51.7-78.3,51.8z"/>
		<path id="XMLID_132_" class="st26" d="M-89.1,56.6c-0.8,0-0.7-0.5-0.7-1c0-0.6,0.4-0.8,0.9-0.9c2.2-0.3,4.4-0.6,6.5-1
			c1.1-0.2,2.3-0.3,3.4-0.5c1.4-0.2,1.4-0.3,1.4,1.2c0,0.2,0,0.3,0,0.5C-81.5,55.4-85.3,56-89.1,56.6z"/>
		<path id="XMLID_130_" class="st27" d="M-79.9,41.5c1-1.2,1.4-2.8,2.1-4.1c0.5-0.9,0.8-1.9,1.4-2.7c0.1,1-0.1,1.8-0.6,2.7
			c-0.8,1.6-1.5,3.3-2.3,5c-0.1,0.3-0.1,0.8-0.6,0.8C-80.3,42.6-80.4,42.1-79.9,41.5z"/>
		<path id="XMLID_129_" class="st28" d="M-79.9,41.5c0,0.6,0,1.1,0,1.7c-1-0.3-1.9-1-2.8-1.5c0-0.6,0-1.2,0-1.8
			C-81.8,40.4-80.9,41-79.9,41.5z"/>
		<path id="XMLID_128_" class="st29" d="M-88.9,36.3c0.9,0.5,1.8,1,2.9,1.6c-0.7,0.5-1.1,1.1-2,0.8C-89.2,38.3-88.9,37.2-88.9,36.3z
			"/>
		<path id="XMLID_127_" class="st30" d="M-97.8,48.5c0,0.6,0,1.1,0,1.7c-0.8,0.4-1.5,0.7-2.4,0.3c0-0.1,0-0.1,0-0.2
			c0-0.5-0.1-1,0.3-1.5C-99.2,48.8-98.5,48.8-97.8,48.5z"/>
		<path id="XMLID_126_" class="st31" d="M-100.9,48.5c0.2,0.1,0.5,0.2,0.7,0.3c0.2,0.5,0.2,1.1,0,1.6c0,0-0.1,0.1-0.1,0.1
			c-0.2-0.1-0.5,0-0.7-0.3C-101.2,49.6-101.3,49.1-100.9,48.5z"/>
		<path id="XMLID_125_" class="st32" d="M-100.9,48.5c0,0.6,0,1.1,0,1.7c-0.2-0.2-0.3-0.3-0.5-0.5c0-0.4,0-0.8,0-1.1
			C-101.3,48.2-101.1,48.3-100.9,48.5z"/>
		<path id="XMLID_124_" class="st33" d="M-65.3,42.4c0.2-0.1,0.3-0.2,0.5-0.2c-0.1,0.6,0.3,1.4-0.5,1.9
			C-65.5,43.5-65.5,43-65.3,42.4z"/>
		<path id="XMLID_107_" class="st34" d="M-100.2,50.4c0-0.5,0-1.1,0-1.6c0.1,0,0.1,0,0.2,0C-100,49.3-99.7,49.9-100.2,50.4z"/>
	</g>
	<g id="XMLID_1_">
		<path id="XMLID_145_" class="st35" d="M-147.6-51.1c-0.5-1.3-0.1-2.4,1.4-3.3c3.5-2,6.9-3.9,10.4-5.9c5-2.9,10-5.7,15.1-8.6
			c3.1-1.8,6.3-1.8,9.5,0c8.1,4.7,16.1,9.4,24.1,14.2c7,4.1,13.9,8.3,20.8,12.4c2.7,1.6,5.4,3.2,8.1,4.8c0.9,0.5,1.4,1.3,1.4,2.3
			c0.1,1.2,0.1,2.5,0.1,3.8c0,0.2-0.2,0.3-0.4,0.4c0,0-0.1-0.1-0.1-0.1c-0.4-0.7-0.1-1.4-0.2-2.1c0,0-0.1-0.1-0.1-0.1
			c0,0-0.1,0-0.1,0c-1.4,1.2-3,2-4.6,2.9c-7.2,4.1-14.4,8.1-21.6,12.2c-3.2,1.9-6.5,1.9-9.7,0c-12-7.1-24.1-14.2-36.1-21.4
			c-5.3-3.1-10.6-6.3-15.9-9.3C-146.5-49.5-147.3-50.1-147.6-51.1z"/>
		<path id="XMLID_142_" class="st36" d="M-147.6-51.1c1.6,2.1,4.1,3,6.2,4.3c5.5,3.3,11.1,6.6,16.7,9.8c7.7,4.5,15.4,9.1,23,13.6
			c2.7,1.6,5.4,3.2,8.1,4.8c3.2,1.9,6.3,1.9,9.6,0.1c4.8-2.7,9.5-5.4,14.3-8.1c3.6-2.1,7.3-4.1,10.9-6.2c0.4-0.2,0.7-0.6,1.1-0.9
			c0.6,0.3,0.3,0.9,0.3,1.3c0.1,0.4-0.1,0.8,0.1,1.2c0,0,0.1,0,0.1,0c0.3,2.1-0.8,3.2-2.5,4.1c-8,4.5-16,9-23.9,13.6
			c-3.6,2.1-7,2-10.6-0.2c-10-6-20.1-12-30.2-17.9c-7-4.1-14-8.3-21-12.4c-1.5-0.9-2.5-2-2.2-3.9C-147.5-48.9-147.6-50-147.6-51.1z"
			/>
		<path id="XMLID_114_" class="st37" d="M-94.8-22.7c-0.8,0.1-1.4-0.2-2-0.6c-14.4-8.5-28.7-17-43.1-25.5c-1.7-1-1.7-1.6,0-2.6
			c8.4-4.8,16.8-9.5,25.2-14.3c1.4-0.8,2.7-0.8,4,0C-96.4-57-81.9-48.5-67.5-40c1.5,0.9,1.5,1.5,0,2.4c-8.5,4.8-17,9.6-25.5,14.5
			C-93.6-22.8-94.2-22.6-94.8-22.7z"/>
		<path id="XMLID_113_" class="st38" d="M-77.7-24.7c-1.1,0-2.1-0.2-2.8-1c-0.6-0.6-0.7-1.3,0-1.7c2.2-1.4,4.4-3.2,7.1-3.6
			c1.2-0.2,2.3,0,3.2,1c0.5,0.5,0.6,1.2,0,1.5C-72.5-26.9-74.8-25.2-77.7-24.7z"/>
		<path id="XMLID_112_" class="st39" d="M-133.7-57c-0.4-0.2-1-0.1-1.2-0.7c-0.1-0.5,0.4-0.6,0.7-0.8c2.3-1.3,4.5-2.6,6.8-3.9
			c0.3-0.2,0.7-0.4,1.1-0.4c0.5,0,1,0.1,1.2,0.5c0.2,0.6-0.4,0.7-0.7,0.9c-2.2,1.3-4.4,2.5-6.6,3.8C-132.8-57.3-133.3-57.2-133.7-57
			z"/>
		<path id="XMLID_111_" class="st40" d="M-57.2-31.1c-0.5-0.8,0.1-1.8-0.4-2.6c0.2-0.3,0.4-0.6,0.5,0.1
			C-57.1-32.8-57.2-32-57.2-31.1z"/>
		<path id="XMLID_106_" class="st41" d="M-83.2-44c-6.4,3.7-12.5,7.2-18.7,10.8c-2.1,1.2-2.1,1.2-3.9-0.4c-1-0.9-1.9-1.8-2.6-2.9
			c-0.6-1-0.9-2-0.5-3.1c0.6-1.6,1.1-1.9,2.8-1.7c1.5,0.2,3.1,0.3,4.9,0.5c-1.2-1.2-1.9-2.6-3.9-2.3c0.7-0.8,1.5-1.1,2.2-1.5
			c0.2-0.1,0.4-0.1,0.5,0.1c0.8,1.7,2.7,1.2,4.1,1.9c-0.3-0.8-0.5-1.7-0.9-2.5c-0.4-0.9-0.1-1.2,0.8-1.4c2.8-0.6,5.6-0.6,8.4,0.1
			C-87.8-45.8-85.6-45.1-83.2-44z"/>
		<path id="XMLID_105_" class="st41" d="M-109.5-43.1c-2.1-0.1-4.2-0.4-5.9-1.9c-1.7-1.5-1.7-3.2,0.1-4.6c1.9-1.5,4.1-1.8,6.4-1.7
			c2,0.1,3.9,0.5,5.4,1.9c1.5,1.4,1.5,2.8,0,4.2C-105.2-43.5-107.3-43.3-109.5-43.1z"/>
	</g>
	<g id="XMLID_4_">
		<path id="XMLID_144_" class="st42" d="M475-161.7c-1.1-2.2-2.9-2.8-5.2-2.4c-14.6,2.5-29.3,4.9-43.9,7.6c-4.5,0.8-7.6,3.8-9.2,8.1
			c-7.7,21.1-15.5,42.1-23.2,63.2c-2.6,7.2-5.3,14.4-8,21.6c-0.9,2.4-1,4.5,1,6.4c1.8,1.7,2.9,4,5,5.5c-0.1-1.4-1.3-2.1-2-3.1
			c-0.4-0.6-1-1.1-1.5-1.9c6.5-0.7,12.7-2,19-3.1c8.7-1.6,17.5-3,26.2-4.6c4.8-0.9,8.4-3.7,10.1-8.4c8.6-23.4,17.2-46.8,25.8-70.2
			c1.8-4.9,3.8-9.8,5.6-14.8C475.1-159.1,475.4-160.3,475-161.7z"/>
		<path id="XMLID_143_" class="st43" d="M475-161.7c-0.6,4.6-2.8,8.6-4.3,12.9c-3,8.1-5.9,16.1-8.9,24.2c-3.1,8.3-6.1,16.7-9.2,25
			c-2.7,7.3-5.3,14.5-8,21.8c-1,2.6-1.5,5.4-3.3,7.8c-2.8,3.7-6.6,5.1-11,5.7c-8.1,1.2-16.3,2.6-24.4,4.2
			c-5.4,1.1-10.9,1.9-16.3,2.8c-0.8,0.1-1.6-0.1-2.8-0.1c1.7,2.1,3.2,3.9,4.7,5.7c1.2,0.8,2.4,0.6,3.7,0.4
			c14.5-2.5,28.9-4.9,43.4-7.4c4.4-0.8,7.7-3.5,9.2-7.7c10.6-28.6,21-57.2,31.5-85.7c0.8-2.1,0.8-4-1-5.7
			C477.1-159,476.1-160.4,475-161.7z"/>
		<path id="XMLID_110_" class="st44" d="M420.5-146.7c-0.8,0.7-1.3,1.6-1.7,2.6c-8.5,23.1-17,46.3-25.5,69.4
			c-0.2,0.4-0.3,0.9-0.5,1.3c-0.6,1.9-0.1,2.6,2,2.3c3.5-0.5,6.9-1.2,10.4-1.8c10.8-1.8,21.6-3.7,32.4-5.5c2.6-0.4,4.1-1.7,5-4.1
			c8.4-23.1,16.9-46.1,25.4-69.1c1.4-3.8,1.1-4.2-2.9-3.5c-13.9,2.4-27.8,4.7-41.7,7.1C422.3-147.8,421.3-147.5,420.5-146.7z"/>
		<path id="XMLID_109_" class="st45" d="M420.2-66.2c0.9-1,1.9-1.9,2.1-3.4c0.2-1.3-0.4-2.4-1.7-2.2c-3.9,0.5-8,0.4-11.5,2.6
			c-1.4,0.8-2.4,2.1-2.8,3.8c-0.2,1.2,0.2,2.3,1.5,2.2c4.1-0.4,8.3-0.5,12-2.7C420-66,420.1-66.1,420.2-66.2z"/>
		<path id="XMLID_108_" class="st46" d="M453.4-156c0.4-0.6,1.1-1.1,0.8-1.8c-0.3-0.9-1.2-0.5-1.8-0.4c-3.7,0.6-7.4,1.3-11.1,1.9
			c-1.1,0.2-2.1,0.6-2.7,1.6c-0.4,0.8-0.3,1.5,0.7,1.4c4.4-0.7,8.9-1.3,13.3-2.4C452.9-155.7,453.1-155.8,453.4-156z"/>
		<path id="XMLID_104_" class="st47" d="M431.8-112.2c-0.5-3.2-0.3-4,1.8-6.1c-1.4-0.2-2.5,0.2-3.7,0.4c-0.4,0.1-0.6,0.3-0.5,0.7
			c0.6,2.4-1.5,3.7-2.5,5.4c-0.4,0.6-0.7-0.1-0.9-0.5c-0.4-1-0.8-1.9-1-2.9c-0.3-1.1-0.8-1.1-1.8-0.7c-3,1.4-5.7,3.4-7.9,5.8
			c-3,3.3-5.2,7.2-7.4,11.5c3.7-0.6,7.1-1.2,10.5-1.8c7.3-1.2,14.6-2.5,21.9-3.7c2.6-0.4,2.5-0.4,3-3.1c0.4-2.2,0.7-4.5,0.4-6.7
			c-0.3-2.6-2.2-4.4-4.7-4.8c-1-0.1-1.5,0.5-2,1.1C435.2-115.9,433.6-114.2,431.8-112.2z"/>
		<path id="XMLID_103_" class="st47" d="M430.6-131.5c-2,1.9-4,4.1-4.7,7.2c-0.7,3.2,1.1,5.4,4.3,5.4c3.6,0,6.4-1.8,8.9-4
			c2.1-1.8,3.8-4,4.3-6.9c0.6-3.2-1.1-5.4-4.4-5.3C436.5-135.2,433.4-133.8,430.6-131.5z"/>
	</g>
	<g id="XMLID_3_">
		<path id="XMLID_218_" class="st48" d="M-204.1,127.4c0.7-0.4,1.7-0.4,2.4,0c0.2,0.1,0.3,0.2,0.4,0.3c0.3-0.4,0.1-0.8-0.4-1.1
			c-0.7-0.4-1.7-0.4-2.4,0c-0.5,0.3-0.6,0.7-0.4,1.1C-204.4,127.6-204.3,127.5-204.1,127.4"/>
		<path id="XMLID_217_" class="st48" d="M-211.6,129.1C-211.6,129.1-211.7,129.1-211.6,129.1c-0.2-0.1-0.2-0.2-0.3-0.2
			c0,0-0.1-0.1-0.1-0.1c-0.1-0.1-0.1-0.1-0.2-0.2c0,0-0.1-0.1-0.1-0.1c0-0.1-0.1-0.1-0.1-0.2c0,0,0-0.1-0.1-0.1
			c0-0.1-0.1-0.1-0.1-0.2c0,0,0-0.1-0.1-0.1c0,0,0-0.1-0.1-0.1c0,0,0-0.1,0-0.1c0,0,0-0.1,0-0.1c0,0,0-0.1,0-0.1c0,0,0-0.1,0-0.1
			c0,0,0,0,0,0c0,0.5,0,1,0,1.4c0,0.7,0.5,1.5,1.5,2l0-1.4C-211.4,129.3-211.5,129.2-211.6,129.1"/>
		<path id="XMLID_216_" class="st49" d="M-186.3,143.9C-186.3,143.8-186.3,143.8-186.3,143.9l-7.6-4.5l-17.4-10l0,1.4l25,14.4
			L-186.3,143.9C-186.3,143.9-186.3,143.9-186.3,143.9"/>
		<path id="XMLID_212_" class="st50" d="M-212.7,127.6c0,0,0,0.1,0,0.1c0,0,0,0.1,0,0.1c0,0.1,0,0.1,0.1,0.1c0,0,0,0.1,0.1,0.1
			c0,0.1,0.1,0.1,0.1,0.2c0,0,0,0.1,0.1,0.1c0,0.1,0.1,0.1,0.1,0.2c0,0,0.1,0.1,0.1,0.1c0,0.1,0.1,0.1,0.2,0.2c0,0,0.1,0.1,0.1,0.1
			c0.1,0.1,0.1,0.1,0.2,0.2c0,0,0.1,0,0.1,0.1c0.1,0.1,0.2,0.1,0.3,0.2l17.4,10l7.6,4.4c0-0.7,0.5-1.4,1.4-1.9l9.5-5.5l-24-13.9
			c-1.9-1.1-5.1-1.1-7,0l-4.9,2.8c-1,0.6-1.4,1.3-1.4,2c0,0,0,0.1,0,0.1C-212.7,127.5-212.7,127.6-212.7,127.6 M-198.9,129.6
			c0.7-0.4,1.7-0.4,2.4,0c0.7,0.4,0.7,1,0,1.4c-0.7,0.4-1.7,0.4-2.4,0C-199.6,130.6-199.6,130-198.9,129.6 M-204.1,126.6
			c0.7-0.4,1.7-0.4,2.4,0c0.7,0.4,0.7,1,0,1.4c-0.7,0.4-1.7,0.4-2.4,0C-204.8,127.6-204.8,127-204.1,126.6"/>
		<path id="XMLID_211_" class="st50" d="M-212.6,128c0,0,0-0.1-0.1-0.1C-212.6,127.9-212.6,128-212.6,128"/>
		<path id="XMLID_210_" class="st50" d="M-212,128.8c-0.1-0.1-0.1-0.1-0.2-0.2C-212.1,128.7-212.1,128.8-212,128.8"/>
		<path id="XMLID_209_" class="st50" d="M-212.7,127.8c0,0,0-0.1,0-0.1C-212.7,127.7-212.7,127.7-212.7,127.8"/>
		<path id="XMLID_208_" class="st50" d="M-211.7,129.1c-0.1-0.1-0.1-0.1-0.2-0.2C-211.8,129-211.8,129-211.7,129.1"/>
		<path id="XMLID_207_" class="st50" d="M-212.2,128.6c0-0.1-0.1-0.1-0.1-0.2C-212.3,128.5-212.3,128.5-212.2,128.6"/>
		<path id="XMLID_206_" class="st50" d="M-212.4,128.3c0,0-0.1-0.1-0.1-0.1C-212.5,128.2-212.5,128.3-212.4,128.3"/>
		<path id="XMLID_205_" class="st50" d="M-211.6,129.1c0.1,0.1,0.2,0.1,0.3,0.2C-211.4,129.3-211.5,129.2-211.6,129.1"/>
		<path id="XMLID_204_" class="st50" d="M-212.7,127.5c0,0,0-0.1,0-0.1C-212.7,127.4-212.7,127.4-212.7,127.5"/>
		<path id="XMLID_203_" class="st50" d="M-211.3,129.4l17.4,10L-211.3,129.4z"/>
		<path id="XMLID_202_" class="st48" d="M-198.9,130.3c0.7-0.4,1.7-0.4,2.4,0c0.2,0.1,0.3,0.2,0.4,0.3c0.3-0.4,0.1-0.8-0.4-1.1
			c-0.7-0.4-1.7-0.4-2.4,0c-0.5,0.3-0.6,0.7-0.4,1.1C-199.2,130.5-199.1,130.4-198.9,130.3"/>
		<path id="XMLID_201_" class="st51" d="M-187.3,145.3C-187.3,145.3-187.3,145.3-187.3,145.3C-187.3,145.3-187.3,145.3-187.3,145.3"
			/>
		<g id="XMLID_198_">
			<defs>
				<path id="XMLID_199_" d="M-188.3,148.1c0,0.7,0.5,1.5,1.5,2l0-4.9c-1-0.6-1.5-1.3-1.5-2L-188.3,148.1z"/>
			</defs>
			<clipPath id="XMLID_250_">
				<use xlink:href="#XMLID_199_"  style="overflow:visible;"/>
			</clipPath>
			<path id="XMLID_200_" class="st52" d="M-186.8,145.2l0,4.9c-1-0.6-1.5-1.3-1.5-2l0-4.9C-188.3,143.9-187.8,144.7-186.8,145.2"/>
		</g>
		<polygon id="XMLID_197_" class="st49" points="-170.6,154.6 -170.6,159.4 -187,150 -187,145.1 		"/>
		<path id="XMLID_196_" class="st49" d="M-163.7,154.5l0,4.9c-0.9,0.6-2.3,0.8-3.5,0.8l0-4.9C-166,155.4-164.6,155.1-163.7,154.5"/>
		<path id="XMLID_195_" class="st49" d="M-167.1,155.4l0,4.9c-1.3,0-2.6-0.3-3.6-0.8l0-4.9C-169.7,155.1-168.4,155.4-167.1,155.4"/>
		<g id="XMLID_191_">
			<defs>
				<path id="XMLID_192_" d="M-151.9,147.7l0,4.9c1-0.6,1.4-1.3,1.4-2c0-1.6,0-3.3,0-4.9C-150.5,146.4-151,147.1-151.9,147.7z"/>
			</defs>
			<clipPath id="XMLID_251_">
				<use xlink:href="#XMLID_192_"  style="overflow:visible;"/>
			</clipPath>
			<path id="XMLID_194_" class="st53" d="M-150.5,145.7l0,4.9c0,0.4-0.1,0.8-0.4,1.1l0-4.9C-150.6,146.4-150.5,146-150.5,145.7"/>
			<path id="XMLID_193_" class="st53" d="M-150.9,146.8l0,4.9c-0.2,0.3-0.6,0.6-1,0.9l0-4.9C-151.5,147.4-151.1,147.1-150.9,146.8"
				/>
		</g>
		<polygon id="XMLID_190_" class="st54" points="-151.9,147.7 -151.9,152.6 -163.7,159.4 -163.7,154.5 		"/>
		<path id="XMLID_189_" class="st55" d="M-151.9,143.6c1.9,1.1,1.9,2.9,0,4.1l-11.8,6.9c-1.9,1.1-5.1,1.1-7,0l-16.1-9.3
			c-1.9-1.1-1.9-2.9,0-4.1l11.8-6.8c1.9-1.1,5.1-1.1,7,0L-151.9,143.6z"/>
		<path id="XMLID_188_" class="st56" d="M-167.2,154.1c-1.1,0-2.1-0.2-2.9-0.7l-16.1-9.3c-0.5-0.3-0.8-0.7-0.8-1
			c0-0.3,0.3-0.6,0.8-0.9l11.8-6.8c0.7-0.4,1.8-0.7,2.9-0.7c1.1,0,2.1,0.2,2.9,0.7l16.1,9.3c0.5,0.3,0.8,0.7,0.8,1
			c0,0.3-0.3,0.6-0.8,0.9l-11.8,6.8C-165.1,153.9-166.1,154.1-167.2,154.1"/>
		<g id="XMLID_147_">
			<defs>
				<path id="XMLID_184_" d="M-125.8,169.1l0,1.4c1-0.6,1.4-1.3,1.4-2l0-1.4C-124.3,167.8-124.8,168.6-125.8,169.1z"/>
			</defs>
			<clipPath id="XMLID_252_">
				<use xlink:href="#XMLID_184_"  style="overflow:visible;"/>
			</clipPath>
			<path id="XMLID_187_" class="st57" d="M-124.3,167.1l0,1.4c0,0.4-0.1,0.8-0.4,1.1l0-1.4C-124.5,167.9-124.3,167.5-124.3,167.1"/>
			<path id="XMLID_186_" class="st57" d="M-124.7,168.2l0,1.4c-0.2,0.3-0.6,0.6-1,0.9l0-1.4C-125.3,168.9-125,168.6-124.7,168.2"/>
		</g>
		<polygon id="XMLID_146_" class="st54" points="-125.8,169.1 -125.8,170.5 -130.6,173.4 -130.6,172 		"/>
		<polygon id="XMLID_139_" class="st49" points="-137.6,172 -137.6,173.4 -163.7,158.3 -163.7,156.9 		"/>
		<g id="XMLID_135_">
			<defs>
				<path id="XMLID_136_" d="M-137.6,172l0,1.4c1.9,1.1,5.1,1.1,7,0l0-1.4C-132.6,173.1-135.7,173.1-137.6,172z"/>
			</defs>
			<clipPath id="XMLID_253_">
				<use xlink:href="#XMLID_136_"  style="overflow:visible;"/>
			</clipPath>
			<path id="XMLID_138_" class="st58" d="M-130.6,172l0,1.4c-0.9,0.6-2.2,0.8-3.4,0.8l0-1.4C-132.8,172.8-131.6,172.5-130.6,172"/>
			<path id="XMLID_137_" class="st58" d="M-134.1,172.8l0,1.4c-1.3,0-2.6-0.3-3.6-0.8l0-1.4C-136.7,172.5-135.4,172.8-134.1,172.8"
				/>
		</g>
		<path id="XMLID_131_" class="st50" d="M-125.8,165.1l-25.9-15l-11.9,6.8l26,15c1.9,1.1,5.1,1.1,7,0l4.9-2.8
			C-123.8,168-123.8,166.2-125.8,165.1"/>
		<path id="XMLID_123_" class="st56" d="M-160.9,141.3c0.8,0.4,0.8,1.1,0,1.6l-12,7c-0.8,0.4-2,0.4-2.7,0l-4.4-2.5
			c-0.8-0.4-0.8-1.1,0-1.6l12-7c0.8-0.4,2-0.4,2.7,0L-160.9,141.3z"/>
		<path id="XMLID_119_" class="st59" d="M-178.6,145.9l2.3-1.3c0.7-0.4,1.8-0.8,3.3,0c1.7,1,0.9,1.6,0.1,1.9c-0.3,0.2-1,0.5-1.1,0.5
			l1.9,1.1l-1.4,0.8L-178.6,145.9z M-174.2,146c0.3-0.2,0.2-0.3-0.2-0.5c-0.4-0.2-0.6-0.2-0.9-0.1l-0.8,0.5l1.1,0.6L-174.2,146z"/>
		<path id="XMLID_116_" class="st59" d="M-173.3,142.9l1.6-0.9l6.8,2.1l-1.4,0.8l-1.2-0.3l-1.4,0.8l0.6,0.7l-1.4,0.8L-173.3,142.9z
			 M-169,144l-1.8-0.6l1,1.1L-169,144z"/>
		<polygon id="XMLID_115_" class="st59" points="-169.4,140.6 -166.3,141.5 -167.9,139.7 -166.3,138.9 -164.2,142 -162.8,142.8 
			-164.2,143.6 -165.6,142.8 -170.9,141.5 		"/>
	</g>
	<g id="XMLID_35_">
		<polygon id="XMLID_86_" class="st6" points="329.4,65.8 340.7,71.9 351.7,65.8 351.7,97.8 340.7,104 329.4,97.8 		"/>
		<polygon id="XMLID_85_" class="st7" points="339.7,145 314.4,131.2 314.2,142.3 339.7,156.3 		"/>
		<polygon id="XMLID_84_" class="st8" points="314.4,131.2 339.7,145 353.6,137.5 353.6,137.1 329,122.7 		"/>
		<polygon id="XMLID_83_" class="st7" points="353.6,137.5 339.7,145 339.7,156.3 353.9,148.1 		"/>
		<polygon id="XMLID_82_" class="st7" points="319.4,156.6 293.7,142.5 293.4,153.7 319.4,168 		"/>
		<polygon id="XMLID_81_" class="st8" points="319.4,156.6 333.5,148.9 333.5,148.5 308.4,133.8 293.7,142.1 293.7,142.5 		"/>
		<polygon id="XMLID_80_" class="st7" points="333.5,148.9 319.4,156.6 319.4,168 333.8,159.7 		"/>
		<polygon id="XMLID_79_" class="st9" points="340.7,71.9 329.4,65.8 329.4,55.8 340.7,62 		"/>
		<polygon id="XMLID_78_" class="st10" points="351.8,91.6 340.7,97.8 340.7,62 351.8,55.8 		"/>
		<polygon id="XMLID_77_" class="st11" points="340.7,62 329.4,55.8 340.7,49.7 351.7,55.8 		"/>
		<polygon id="XMLID_76_" class="st6" points="331.9,72.5 336.5,70 335,75.8 		"/>
		<polygon id="XMLID_75_" class="st10" points="350.1,103.1 315.4,122.2 315.4,81.7 331.9,72.5 335,75.8 336.5,70 350.1,62.4 		"/>
		
			<ellipse id="XMLID_74_" transform="matrix(0.3616 -0.9323 0.9323 0.3616 138.8766 363.3603)" class="st12" cx="334.8" cy="80.3" rx="1.1" ry="0.8"/>
		
			<ellipse id="XMLID_73_" transform="matrix(0.3616 -0.9323 0.9323 0.3616 132.4713 367.7463)" class="st12" cx="334.8" cy="87.1" rx="1.1" ry="0.8"/>
		
			<ellipse id="XMLID_72_" transform="matrix(0.3616 -0.9323 0.9323 0.3616 126.067 372.1318)" class="st12" cx="334.8" cy="94" rx="1.1" ry="0.8"/>
		
			<ellipse id="XMLID_71_" transform="matrix(0.3616 -0.9324 0.9324 0.3616 119.6655 376.5194)" class="st12" cx="334.8" cy="100.9" rx="1.1" ry="0.8"/>
		<polygon id="XMLID_70_" class="st13" points="315.4,122.2 293.7,110.3 293.7,69.8 293.8,69.8 328.6,50.5 350.1,62.4 336.5,70 
			331.9,72.5 315.4,81.7 		"/>
		<polygon id="XMLID_69_" class="st14" points="315.4,121.8 350.1,102.6 350.1,119.5 315.4,138.7 		"/>
		<polygon id="XMLID_68_" class="st15" points="315.4,121.8 315.4,139.5 293.7,127.4 293.7,109.9 		"/>
		<polygon id="XMLID_67_" class="st16" points="301.2,66.6 322.4,78.3 347.1,64.6 326,52.9 		"/>
		<path id="XMLID_64_" class="st14" d="M331,131.4V144l-15.5,8.6v-15.2l15.5-8.6V131.4z M335.8,141.3v-15.2l14.4-8v15.2L335.8,141.3
			z"/>
		<path id="XMLID_61_" class="st15" d="M293.7,126.6l21.7,12v14l-21.7-12V126.6z M335.8,141.3l-4.8-2.7v-11l4.8-2.7V141.3z"/>
		<polygon id="XMLID_60_" class="st6" points="319.8,39 319.8,49.3 319.8,80.2 350.5,63.2 350.5,22 		"/>
		<polygon id="XMLID_59_" class="st16" points="293.6,24.5 319.8,39 350.5,22 324.3,7.4 		"/>
		<polygon id="XMLID_58_" class="st17" points="319.8,39 293.6,24.5 293.6,34.8 293.6,59.9 293.6,65.7 319.8,80.2 		"/>
		<polygon id="XMLID_57_" class="st12" points="338.7,48.9 338.7,55.5 343.6,52.8 343.5,46.2 		"/>
		<path id="XMLID_54_" class="st18" d="M337.2,41.5v3.6l9.1-4.9l-0.1-3.6L337.2,41.5z M333.1,47.3v-3.6l-8.6,4.6l0.2,3.6L333.1,47.3
			z"/>
		<polygon id="XMLID_53_" class="st7" points="291.7,23.3 310.3,33.5 309.9,52.8 305,47.1 293.3,58.3 		"/>
		<polygon id="XMLID_52_" class="st8" points="342.1,17 310.4,33.6 291.6,23.6 324.1,6.8 		"/>
		<polygon id="XMLID_51_" class="st8" points="317.5,28.9 337.3,18.6 344,26 344.1,34.7 338.9,28.7 		"/>
		<polygon id="XMLID_50_" class="st16" points="337.4,63.8 339.2,62.8 339.2,60.1 337.4,61.1 337.4,61.7 		"/>
		<polygon id="XMLID_49_" class="st16" points="335.9,60.2 337.4,61.1 339.2,60.1 337.7,59.2 		"/>
		<polygon id="XMLID_48_" class="st17" points="337.4,61.1 335.9,60.2 335.9,60.8 335.9,62.3 335.9,62.9 337.4,63.8 		"/>
		<polygon id="XMLID_47_" class="st19" points="338.6,51.8 340.7,50.6 340.7,47.9 338.6,49.1 		"/>
		<polygon id="XMLID_46_" class="st12" points="328,54.9 328.1,61.6 333,58.9 332.9,52.2 		"/>
		<polygon id="XMLID_45_" class="st19" points="328,57.7 330.1,56.5 330.1,53.9 328,55 		"/>
		<polygon id="XMLID_44_" points="313.8,114.1 313.5,138.5 287.1,124.4 287.4,100 		"/>
		<polygon id="XMLID_43_" class="st20" points="313.8,114.1 319.4,111.1 293,97 287.4,100 		"/>
		<polygon id="XMLID_42_" class="st21" points="313.8,114.1 313.5,138.5 319.1,135.4 319.4,111.1 		"/>
		<polygon id="XMLID_41_" class="st17" points="299.8,100.3 299.8,125.2 288.6,119 288.6,94.1 		"/>
		<polygon id="XMLID_40_" class="st6" points="310.9,101.3 310.9,119 299.8,125.2 299.8,107.5 		"/>
		<polygon id="XMLID_39_" class="st10" points="310.9,110.9 299.8,117.1 299.8,83.2 310.9,76.9 		"/>
		<polygon id="XMLID_38_" class="st11" points="299.8,83.2 288.6,76.9 299.8,70.8 310.9,76.9 		"/>
		<polygon id="XMLID_37_" class="st13" points="288.6,76.9 299.8,83.2 299.8,117.1 288.6,110.9 		"/>
		<polygon id="XMLID_36_" class="st22" points="340.5,68.8 314.6,116.7 318.5,114.8 344.8,66.3 		"/>
	</g>
	<g id="XMLID_87_">
		<path id="XMLID_93_" d="M207.8-137.1l0.6,1c-0.9,0-1.8,0-2.8,0c-0.2,0-0.4,0.1-0.6,0.4L183.9-99c-0.3,0.5-0.3,1.5,0,2l23.2,40
			c0.2,0.3,0.4,0.4,0.6,0.4c1.2,0,2.5,0,3.7,0c0.2,0,0.4-0.1,0.6-0.4l7-12.1c0.1,0.1,0.3,0.2,0.5,0.2l1.7,0l-9.3,16.1
			c-0.6,1.1-1.5,1.7-2.3,1.7c1.2,0,2.5,0,3.7,0c0.8,0,1.7-0.6,2.3-1.7l20.1-34.8c1.3-2.2,2.1-4.4,0.8-6.6l-24.9-42.8
			c-0.6-1.1-1.5-1.6-2.3-1.6c-1.2,0-2.5,0-3.7,0C206.4-138.7,207.2-138.2,207.8-137.1"/>
		<path id="XMLID_92_" class="st60" d="M208.3-57.1l0.8-1.4l0-0.1l0.3-0.5l0.5-0.9l0.2-0.3l2.5-4.4l3.2-5.5v0l4.4-7.7l0.8-1.3
			l0.6-1.1l0.6-1.1v0l3.8-6.5l1-1.7v0l0.6-1.1v0l0.2-0.4v0l1.5-2.6c0.3-0.6,0.3-1.5,0-2l-1.9-3.3l-1.5-2.5l-1.4-2.5l-0.2-0.3
			l-0.8-1.4l-2.2-3.7l-1.7-2.9l-1.4-2.4l-1.5-2.5l-2-3.4l-0.2-0.4l-0.5-0.8l-1-1.7l-1.2-2l-0.3-0.5l-0.6-1.1l-0.5-0.8l-0.5-0.9
			l-0.2-0.4l-1.8-3.1l-1-1.6l-0.1-0.2l-0.1-0.1l0,0l-0.7-1.3c-0.3-0.5-0.8-0.5-1.2,0l-5,8.7l-0.1,0.2l-0.1,0.2l-3.2,5.6l-0.8,1.4
			L192-113v0l-0.3,0.6l-2.6,4.6l-0.4,0.7l0,0l-4.5,7.7l-0.2,0.3l-0.1,0.2c0,0.1-0.1,0.1-0.1,0.2c-0.1,0.2-0.1,0.5-0.1,0.8
			c0,0.4,0.1,0.7,0.2,1l2.4,4.1l1.5,2.5l0.9,1.5v0l0.8,1.4l1.1,1.8l0.2,0.3l2.8,4.7l0.3,0.6l3,5.1l0.3,0.4l0.5,0.8v0l0.5,0.9
			l0.1,0.2l0.3,0.4l0.6,0.9l3,5.1l1.1,1.9l2.3,4l1,1.7l0.2,0.4l0.6,1C207.4-56.5,207.9-56.5,208.3-57.1"/>
		<path id="XMLID_88_" class="st61" d="M207.8-137.1l24.9,42.8c1.3,2.2,0.5,4.4-0.8,6.6l-20.1,34.8c-1.3,2.2-3.4,2.2-4.7,0
			l-24.1-41.4c-1.3-2.2-1.3-5.8,0-8l20.1-34.8C204.4-139.3,206.5-139.3,207.8-137.1 M222.2-76c-0.5-0.9-1.3-0.9-1.8,0l-1.9,3.2
			c-0.5,0.9-0.5,2.3,0,3.2c0.5,0.9,1.3,0.9,1.8,0l1.9-3.2C222.7-73.7,222.7-75.2,222.2-76 M206.2-135.7c-0.3-0.5-0.8-0.5-1.2,0
			L183.9-99c-0.3,0.5-0.3,1.5,0,2l23.2,40c0.3,0.5,0.9,0.5,1.2,0l21.2-36.7c0.3-0.6,0.3-1.5,0-2L206.2-135.7z"/>
	</g>
</g>
</svg>
