<?xml version="1.0" encoding="utf-8"?>
<!-- Generator: Adobe Illustrator 19.0.0, SVG Export Plug-In . SVG Version: 6.00 Build 0)  -->
<svg version="1.1" id="Layer_1" xmlns="http://www.w3.org/2000/svg" xmlns:xlink="http://www.w3.org/1999/xlink" x="0px" y="0px"
	 viewBox="0 0 200 200" style="enable-background:new 0 0 200 200;" xml:space="preserve">
<style type="text/css">
	.st0{fill:#F6C12C;}
	.st1{fill:#F8D55F;}
	.st2{fill:#ECEDEF;}
	.st3{fill:#F2A8B5;}
	.st4{fill:#E7576F;}
	.st5{fill:#F1A484;}
	.st6{fill:#E55782;}
	.st7{fill:#F8C7A9;}
	.st8{fill:#F1A485;}
	.st9{fill:#F8D9AA;}
	.st10{fill:#ED9425;}
	.st11{fill:#F1AED3;}
	.st12{fill:#D91D85;}
	.st13{fill:#6F020A;}
	.st14{fill:#530103;}
	.st15{fill:#8A030A;}
	.st16{fill:#A50613;}
	.st17{fill:#A34B47;}
	.st18{fill:#851F24;}
	.st19{fill:#F19484;}
	.st20{fill:#DA0E47;}
	.st21{fill:#EFA03E;}
	.st22{fill:#EFB09E;}
	.st23{fill:#E17670;}
	.st24{fill:#D91E84;}
	.st25{fill:#020101;}
	.st26{fill:#010101;}
	.st27{fill:#FBE9AB;}
	.st28{fill:#333333;}
</style>
<g id="XMLID_1_">
	<path id="XMLID_204_" class="st0" d="M63,23.8c0.2-0.3,0.5-0.3,0.7-0.5c14.6-7.3,29.2-14.7,43.7-22c0.6-0.3,1.1-0.3,1.7,0
		c8.5,4.3,17.1,8.6,25.6,13c0.2,0.1,0.6,0.2,0.7,0.5c-0.3,0.3-0.6,0.5-1,0.7c-3.2,1.6-6.4,3.1-9.5,4.8c-6.2,3.2-12.5,6.3-18.7,9.5
		c-2.3,1.2-4.7,2.3-7,3.6c-1.4,0.8-2.8,1.4-4.2,2.2c-1.6,0.7-3,1.6-4.7,2.2c-0.1,0-0.2,0-0.3,0c-2.3-1-4.5-2.1-6.7-3.3
		c-3.7-2-7.5-3.8-11.3-5.7c-2.8-1.4-5.6-2.9-8.4-4.3c-0.2-0.1-0.4-0.2-0.6-0.4C63,24,63,23.9,63,23.8z"/>
	<path id="XMLID_203_" class="st1" d="M99.1,33.1c7.4-3.7,14.8-7.5,22.2-11.2c4.4-2.2,8.9-4.5,13.3-6.7c0.3-0.1,0.6-0.2,0.9-0.4
		c0,0.2,0,0.5,0,0.7c0,11.8,0,23.6,0,35.4c0,0.2,0,0.4,0,0.5c-0.2,0.3-0.4,0.4-0.7,0.6c-2.5,1.2-5,2.6-7.5,3.9
		c-0.3,0.1-0.6,0.3-0.9,0.2c-0.1-0.1-0.2-0.2-0.2-0.4c0-2.9,0-5.8,0-8.6c0-5.7,0-11.3,0-17c0-1.1-0.1-1.1-1-0.6
		c-5.8,2.9-11.6,5.7-17.3,8.7c-2.5,1.3-5,2.5-7.5,3.8c-0.4,0.2-0.7,0.4-1.2,0.4c-0.1-0.1-0.2-0.1-0.2-0.2c-0.2-1.5-0.1-2.9-0.1-4.4
		C99,36.1,98.9,34.6,99.1,33.1z"/>
	<path id="XMLID_202_" class="st2" d="M126.5,138.7c2.9,1.5,5.8,3,8.9,4.6c-1.2,0.7-2.3,1.3-3.4,1.8c-5.7,2.9-11.5,5.7-17.1,8.6
		c-6.3,3.3-12.7,6.3-19,9.6c-1.6,0.8-3.3,1.6-4.9,2.5c-0.6,0.3-1.1,0.3-1.7,0c-2.5-1.5-5.3-2.7-7.9-4c-0.5-0.3-0.9-0.3-1.4,0
		c-2.4,1.2-4.9,2.5-7.3,3.7c-0.4,0.2-0.8,0.3-1.2,0.1c-2.7-1.4-5.4-2.7-8.1-4c-0.1-0.1-0.3-0.1-0.3-0.3c2.8-1.4,5.6-2.9,8.5-4.4
		c-2.9-1.5-5.7-2.9-8.8-4.4c6.2-3.1,12.2-6.1,18.2-9.1c0.3,0.3,0.3,0.7,0.3,1c0,1,0,2.1,0,3.1c-0.1,1.2,0,2.3,0,3.5
		c0,0.8,0.3,1.2,1,1.5c5.6,2.7,11.1,5.5,16.6,8.3c0.2,0.1,0.3,0.1,0.5,0.1c2.7-1.2,5.4-2.7,8.1-4c0.5-0.2,0.6-0.6,0.6-1.2
		c0-1.3,0-2.5,0-3.8c0-1.1,0-2.2,0-3.3c0-0.3,0-0.6,0.2-0.9c0.5-0.4,0.9-0.1,1.3,0.1c2.6,1.3,5.1,2.6,7.7,3.8
		c0.2,0.1,0.4,0.1,0.6-0.1c2.5-1.3,5-2.5,7.5-3.8c0.7-0.3,1-0.8,1-1.6c-0.1-1.2,0-2.4,0-3.6c0-1,0-2,0-3
		C126.2,139.3,126.2,139,126.5,138.7z"/>
	<path id="XMLID_201_" class="st3" d="M135.6,60.5c0.2,0.3,0.1,0.6,0.1,0.9c0,5.4,0,10.9,0,16.3c0,0.4,0.1,0.8-0.2,1.1
		c-0.2,0.3-0.5,0.4-0.8,0.6c-2.4,1.2-4.9,2.4-7.3,3.6c-0.3,0.1-0.6,0.4-1,0.2c-0.4-1-0.1-2-0.2-3.1c0-1,0-1.1-1-0.6
		c-5.2,2.6-10.4,5.2-15.6,7.8c-3.1,1.6-6.2,3.2-9.4,4.7c-0.4,0.2-0.8,0.7-1.2,0c-0.2-1.2-0.1-2.3-0.1-3.5c0-1.7-0.1-3.4,0.1-5.2
		c0.2-0.6,0.7-0.8,1.2-1c5.5-2.8,11-5.5,16.5-8.3c2.9-1.5,5.7-2.9,8.6-4.4c0.4-0.2,0.7-0.5,1.2-0.3c0.3,0.3,0.3,0.6,0.3,1
		c0,0.7,0,1.4,0,2.1c0,0.9,0,1,0.8,0.6c1.9-0.9,3.7-1.9,5.6-2.8c2.4-1.2,2-0.6,2.1-3.4c0-2.1-0.1-4.3,0.1-6.4
		C135.4,60.6,135.5,60.6,135.6,60.5z"/>
	<path id="XMLID_200_" class="st3" d="M126.5,106.3c0,2.8,0,5.7,0,8.5c0,0.5-0.2,0.8-0.7,1c-2.5,1.2-5,2.5-7.5,3.7
		c-0.3,0.2-0.6,0.3-0.9,0.5c-0.3,0.3-0.6,0.5-1,0.7c-2.7,1.4-5.4,2.8-8.1,4.1c-2.6,1.2-5.1,2.5-7.6,3.8c-0.3,0.1-0.6,0.3-0.9,0.4
		c-0.3,0.1-0.6,0.2-0.7-0.2c-0.2-1.4-0.1-2.8-0.1-4.1c0-1.5-0.1-3,0.1-4.5c0.1-0.4,0.5-0.6,0.8-0.7c8.5-4.3,17.1-8.7,25.7-12.9
		C125.9,106.4,126.1,106.2,126.5,106.3z"/>
	<path id="XMLID_199_" class="st4" d="M126.5,106.3c-6.1,3.1-12.2,6.1-18.4,9.2c-2.9,1.5-5.9,3-8.8,4.4c0,0-0.1-0.1-0.1-0.1
		c-0.2-0.4-0.2-0.9-0.2-1.3c0-2.5,0-5.1,0-7.6c0-0.1,0-0.2,0.1-0.3c1.8-0.9,3.6-1.8,5.4-2.7c7-3.4,13.8-7.1,20.8-10.5
		c0.4-0.2,0.7-0.5,1.2-0.4C126.5,100.2,126.5,103.3,126.5,106.3z"/>
	<path id="XMLID_198_" class="st3" d="M126.5,97.2c-8.7,4.4-17.4,8.8-26.1,13.1c-0.3,0.2-0.6,0.4-1,0.4c-0.2-0.3-0.3-0.6-0.3-0.9
		c0-2.4,0-4.9,0-7.3c0-0.3,0-0.5,0.2-0.8c0.2-0.4,0.6-0.6,0.9-0.8c8.6-4.3,17.1-8.6,25.7-12.9c0.3-0.1,0.6-0.5,0.9,0.1
		c0.1,1.5,0.3,2.9-0.2,4.4C126.5,94.1,126.5,95.6,126.5,97.2z"/>
	<path id="XMLID_197_" class="st5" d="M81.1,147.7c0-1.5,0-2.9,0-4.4c0-2.8,0-5.5,0-8.3c0-5,0-9.9,0-14.9c0.3-0.2,0.6,0,0.9,0.1
		c2.5,1.4,5,2.6,7.5,3.9c0.4,0.2,0.7,0.4,0.8,0.9c0.1,0.6,0,1.2,0,1.8c0,6.2,0,12.5,0,18.7c0,0.6,0,1.1,0.1,1.7
		c0.1,0.2,0.1,0.4,0.1,0.6c0,1.1,0,2.3,0,3.4c0,0.9-0.3,1.1-1.1,0.7c-2.7-1.3-5.4-2.7-8-4C81.3,147.9,81.2,147.8,81.1,147.7z"/>
	<path id="XMLID_196_" class="st6" d="M90.1,124.7c-1.4-0.9-2.9-1.5-4.3-2.2c-1.6-0.8-3.1-1.6-4.7-2.4c-1.5-0.8-3-1.5-4.5-2.3
		c0-0.5,0.4-0.6,0.7-0.8c0.8-0.4,1.6-0.9,2.4-1.2c0.8-0.3,1.1-0.9,1.1-1.8c0-1-0.2-2,0.1-3.1c0-0.1,0.1-0.1,0.2-0.2
		c0.4-0.1,0.7,0.2,1.1,0.3c2.2,1.1,4.3,2.2,6.4,3.3c3.2,1.7,6.4,3.2,9.6,4.8c0.3,0.2,0.7,0.3,1,0.6c0,0,0.1,0.1,0.1,0.1
		c0,3.1,0,6.1,0,9.2c0,0-0.1,0.1-0.1,0.1c-0.3,0.1-0.6-0.1-0.8-0.2c-2.5-1.2-5-2.5-7.5-3.8C90.5,125.1,90.3,124.9,90.1,124.7z"/>
	<path id="XMLID_195_" class="st7" d="M108.3,124.7c2.9-1.5,5.9-2.9,8.8-4.5c0.1-0.1,0.2-0.1,0.3-0.1c0,4.2,0,8.3,0,12.5
		c0,0.3-0.1,0.7,0.1,1c0,0.1-0.1,0.2-0.1,0.2c-1.8,1.1-3.7,1.9-5.6,2.9c-0.9,0.5-1.9,1-2.8,1.4c-0.3,0.2-0.7,0.4-0.9-0.2
		c-0.1-0.9-0.1-1.8-0.1-2.6c0-3.1,0-6.2,0-9.3C108,125.6,108,125.1,108.3,124.7z"/>
	<path id="XMLID_194_" class="st3" d="M63,23.8c0,0.1,0,0.1,0.1,0.2c0.3,0.5,0.2,1,0.2,1.5c0,14.1,0,28.1,0,42.2
		c0,1.4,0,1.5,1.3,0.8c2.3-1.2,4.6-2.4,7-3.5c0.1,0,0.2-0.1,0.3-0.1c0.3,0,0.6,0.2,0.9,0.3c2.4,1.2,4.9,2.4,7.3,3.7
		c0.3,0.2,0.7,0.3,0.8,0.7c0,0.4-0.4,0.6-0.7,0.7c-2.5,1.3-5.1,2.5-7.6,3.8c-0.3,0.1-0.6,0.3-0.9,0.2c-2.1-0.9-4.2-2-6.3-3
		c-0.7-0.3-1.4-0.7-2-1c-0.3,0.3-0.2,0.6-0.2,0.8c0,2.2,0,4.4,0,6.6c0,0.4,0,0.8-0.1,1.1c-0.1,0.1-0.1,0.1-0.2,0.1
		c0-3.4,0-6.7,0-10.1c0-14.7,0-29.3,0-44C62.9,24.5,62.8,24.2,63,23.8z"/>
	<path id="XMLID_193_" class="st6" d="M62.9,78.9c0.1,0,0.1,0,0.2,0c0,0,0.1,0.1,0.1,0.1c0.2,0.3,0.2,0.6,0.2,0.9c0,2.6,0,5.3,0,7.9
		c0,2.6,0,5.3,0,7.9c0,0.8,0.3,1.2,1,1.6c2.4,1.2,4.8,2.3,7.2,3.6c0.3,0.2,0.6,0.3,0.8,0.6c0,0.1,0.1,0.2,0.1,0.3
		c0,2.8,0.1,5.6,0,8.5c-0.3,0.7-0.8,0.3-1.2,0.1c-2-1-4-2-6.1-3c-0.7-0.4-1.5-0.6-2-1.2c-0.2-0.2-0.1-0.5-0.1-0.8
		C62.9,96.7,62.9,87.8,62.9,78.9z"/>
	<path id="XMLID_192_" class="st2" d="M117.6,133.7c3-1.4,6.1-2.9,9.1-4.3c0.3-0.1,0.5-0.2,0.8,0c2.8,1.4,5.6,2.8,8.4,4.2
		c0,0,0.1,0.1,0.2,0.3c-3.2,1.5-6.4,3-9.5,4.5c-0.4,0.2-0.6-0.1-0.9-0.2c-1.3-0.7-2.7-1.3-4-2c-1.2-0.5-2.4-1.2-3.6-1.8
		c-0.2-0.1-0.6-0.2-0.6-0.6C117.5,133.7,117.6,133.7,117.6,133.7z"/>
	<path id="XMLID_191_" class="st8" d="M63,106.3c2.7,1.3,5.4,2.7,8.2,4c0.3,0.1,0.5,0.4,0.9,0.4c0.1,0.1,0.2,0.2,0.2,0.3
		c0.2,1.8,0,3.7,0.1,5.5c0,0.8,0,1.5,0,2.3c0,0.4,0,0.8-0.3,1.1c-1.6-0.6-3.1-1.5-4.6-2.2c-1.3-0.6-2.5-1.3-3.8-1.9
		c-0.5-0.2-0.7-0.5-0.7-1.1C63,111.9,63,109.1,63,106.3z"/>
	<path id="XMLID_190_" class="st9" d="M126.5,92.5c0-1.5,0-3.1,0-4.6c-0.2-0.2-0.2-0.4-0.3-0.6c0-1.1,0-2.2,0-3.2
		c0-0.3,0.1-0.5,0.3-0.7c2.8-1.4,5.7-2.8,8.5-4.3c0.2-0.1,0.3-0.1,0.5-0.2c0,2.8,0,5.5,0,8.3c0,0.6-0.2,0.8-0.7,1.1
		C132.1,89.7,129.3,91.1,126.5,92.5z"/>
	<path id="XMLID_189_" class="st3" d="M126.5,55.9c3-1.5,6-3,9-4.6c0,3,0,6.1,0,9.1c0,0,0,0-0.1,0.1c-0.5,0.5-1.2,0.8-1.8,1.1
		c-2.1,1.1-4.2,2.1-6.3,3.2c-0.4,0.2-0.8,0.5-1.1-0.1c-0.2-2.7-0.1-5.4-0.1-8.1C126.3,56.4,126.3,56.1,126.5,55.9z"/>
	<path id="XMLID_188_" class="st9" d="M72.1,119.9c0-3,0-6,0-9c0.1-0.3,0.4-0.4,0.6-0.6c2.5-1.3,5-2.5,7.5-3.8
		c0.3-0.2,0.7-0.5,1,0.1c0.1,1.2,0,2.5,0.1,3.7c0,0.2-0.1,0.5-0.2,0.7c0,1.2-0.1,2.5,0,3.7c0,0.6-0.2,0.9-0.8,1.2
		c-1.2,0.6-2.6,1.1-3.7,2c-0.9,0.1-1.6,0.8-2.4,1.1C73.5,119.2,72.9,119.7,72.1,119.9z"/>
	<path id="XMLID_187_" class="st7" d="M121.7,135.9c1.6,0.8,3.2,1.6,4.8,2.5c0,0.1,0,0.1,0,0.2c-0.2,0.2-0.4,0.4-0.6,0.5
		c-2.6,1.3-5.2,2.6-7.8,3.9c-0.2,0.1-0.3,0.1-0.5,0.2c-0.1,0-0.2,0-0.3,0c-1.5-0.6-3-1.4-4.4-2.2c0-0.1,0-0.2,0-0.3
		c0.2-0.4,0.6-0.5,0.9-0.6C116.4,138.6,119.1,137.3,121.7,135.9z"/>
	<path id="XMLID_186_" class="st5" d="M117.5,142.9c2.8-1.4,5.6-2.8,8.3-4.2c0.2-0.1,0.4-0.2,0.7-0.2c0,0.1,0,0.1,0,0.2
		c0,1.4,0,2.9,0,4.3c-0.1,0.2-0.3,0.4-0.5,0.5c-2.6,1.3-5.1,2.6-7.7,3.8c-0.3,0.2-0.7,0.4-1-0.2c-0.1-1.2,0-2.4-0.1-3.6
		C117.3,143.3,117.3,143.1,117.5,142.9z"/>
	<path id="XMLID_185_" class="st10" d="M80.9,69.6c-2.7-1.4-5.3-2.7-8-4.1c-0.3-0.2-0.6-0.3-0.9-0.5c-1-0.8-1.8-1.8-2.7-2.6
		c0.8,0.8,1.7,1.6,2.5,2.6c-2.9,1.5-5.8,3-8.9,4.6c0-0.5,0-0.8,0-1.1c0-14.2,0-28.5,0-42.7c0-0.6,0-1.2,0-1.8
		c2.3,0.9,4.5,2.1,6.6,3.3c3.1,1.6,6.2,3.1,9.4,4.7c3.7,1.9,7.3,3.7,11,5.6c0.3,0.3,0.3,0.6,0.3,1c-0.1,5.4,0.3,10.8,0.2,16.2
		c-0.1,2.6,0,5.3,0,7.9c-0.1,3.5-0.2,6.9-0.2,10.4c0,0.2,0,0.5-0.1,0.7c-0.2,0.6-0.6,0.4-1,0.2c-2.2-1.1-4.3-2.1-6.5-3.2
		c-0.5-0.3-1-0.6-1.5-0.8C81.2,69.8,81,69.7,80.9,69.6z"/>
	<path id="XMLID_184_" class="st1" d="M90.1,74.1c0-0.1,0-0.1,0-0.2c0.1-8.8,0.3-17.6,0.1-26.4c-0.1-3.3,0-6.7-0.1-10
		c0.1,0,0.1,0,0.2,0c0.3,0.3,0.3,0.6,0.3,1c0,1.1,0,2.3,0,3.4c0,1.2,0,2.4,0,3.5c0,0.6,0.2,0.7,0.7,0.5c1.1-0.6,2.2-1.1,3.2-1.6
		c0.1-0.1,0.2-0.1,0.4-0.2c1.2-0.6,2.3-1.2,3.5-1.7c0.3-0.1,0.6-0.4,1-0.2l0,0c0.3,0.3,0.3,0.6,0.3,1c0,5.7,0,11.4,0,17.2
		c0,1.6,0,3.2,0,4.8c0,1.4,0.1,2.8-0.1,4.3c0,0.1-0.1,0.3-0.2,0.4C99.2,69.9,99.1,70,99,70c-2.7,1.4-5.5,2.8-8.2,4.1
		c-0.2,0.1-0.3,0.1-0.5,0.1C90.2,74.2,90.1,74.2,90.1,74.1z"/>
	<path id="XMLID_183_" class="st11" d="M90.3,42.1c0-1.5,0-3,0-4.5c1.5-0.8,3-1.5,4.6-2.3c0.3,0.3,0.3,0.7,0.3,1.1
		c0,1.1,0,2.2,0,3.3c0.1,1.2,0,2.4,0,3.6c0,0.4,0,0.7-0.3,1c-0.1,0-0.1,0.1-0.2,0.1c-0.4-0.4-0.2-1-0.3-1.5c0-0.7,0-1.4,0-2
		c0-0.5-0.1-0.6-0.6-0.4c-0.9,0.5-1.7,0.9-2.6,1.3C91,42.1,90.7,42.4,90.3,42.1z"/>
	<path id="XMLID_182_" class="st12" d="M94.9,39.7c0-1.5,0-2.9,0-4.4c1.4-0.7,2.9-1.5,4.3-2.2c0.4,0.6,0.1,1.3,0.2,1.9
		c0,0.8,0,1.7,0,2.5c-1.2,0.9-2.7,1.6-4.1,2.2C95.1,39.8,95,39.8,94.9,39.7z"/>
	<path id="XMLID_181_" class="st9" d="M99.3,60.4c0-6.1,0-12.1,0-18.2c8.8-4.4,17.5-8.8,26.3-13.2c1-0.5,1-0.5,1,0.6
		c0,5.7,0,11.5,0,17.2c-0.2,0.4-0.6,0.5-1,0.7c-2.7,1.3-5.3,2.7-8,4c-1.5,0.6-2.9,1.6-4.4,2.2c-4.3,2.2-8.7,4.3-13,6.5
		C99.9,60.4,99.6,60.6,99.3,60.4z"/>
	<path id="XMLID_180_" class="st4" d="M99.1,69.7c0.1-0.1,0.1-0.1,0.2-0.2c0.1-0.3,0.4-0.4,0.6-0.6c1-0.5,2-1,3-1.5
		c0.3-0.2,0.7-0.4,1,0.1c0.2,2.4,0,4.8,0.1,7.2c0,0.3-0.1,0.7,0.1,1c0.4,0.2,0.6-0.1,0.9-0.2c5.3-2.6,10.5-5.3,15.8-7.9
		c0.7-0.3,0.9-0.8,0.9-1.5c-0.1-2.6,0-5.3-0.1-7.9c0-0.1,0-0.2,0.1-0.3c1.4-0.8,3-1.4,4.4-2.3c0.1,0,0.2,0,0.2,0.1
		c0,0.1,0.1,0.1,0.1,0.2c0,3,0,6,0,9c0.2,0.3,0.3,0.6,0.3,0.9c0,1,0,1.9,0,2.9c0,0.4,0,0.8-0.4,1c-8.6,4.4-17.3,8.7-25.9,13.1
		c-0.4,0.2-0.7,0.4-1.1,0.6c0,0-0.1-0.1-0.1-0.1C99,82.9,99,82.5,99,82.1c0-3.8,0-7.6,0-11.4C99,70.4,99,70.1,99.1,69.7z"/>
	<path id="XMLID_179_" class="st10" d="M126.4,55.8c-0.1,0-0.1,0-0.2,0c-0.4,0.1-0.6-0.1-0.9-0.2c-2.3-1.2-4.6-2.3-6.9-3.5
		c-0.4-0.2-0.8-0.3-0.9-0.8c3-1.5,6-3,9-4.6c0,2.7,0,5.4,0,8.1C126.5,55.2,126.6,55.5,126.4,55.8z"/>
	<path id="XMLID_178_" class="st11" d="M94.9,39.7c1.5-0.7,2.9-1.4,4.4-2.2c0,1.5,0,3.1,0,4.6c-1.5,0.7-2.9,1.4-4.4,2.1
		C94.9,42.8,94.9,41.2,94.9,39.7z"/>
	<path id="XMLID_177_" class="st13" d="M81.1,147.7c0.4-0.1,0.6,0.1,0.9,0.3c2.5,1.2,4.9,2.5,7.4,3.7c0.6,0.3,0.8,0.3,0.8-0.5
		c0-1.2-0.1-2.3,0.1-3.5c0.2-0.1,0.3-0.1,0.5,0c1.3,0.6,2.5,1.2,3.8,1.9c0.1,0.1,0.2,0.2,0.3,0.3c0.2,1.1,0.1,2.2,0.1,3.3
		c0,0.7,0.2,1.1,0.8,1.4c0.9,0.4,1.8,1,2.7,1.4c0.4,0.2,0.7,0.4,0.8,0.8c0.1,1.1,0,2.2,0,3.3c0,0.3,0.1,0.7-0.5,0.8
		c-4-2-8.1-4-12.1-6.1c-1.7-0.8-3.4-1.7-5-2.5c-0.5-0.2-0.6-0.5-0.6-1C81.1,150.1,81.1,148.9,81.1,147.7z"/>
	<path id="XMLID_176_" class="st14" d="M112.9,140.6c0,0.1,0,0.1,0,0.2c0.4,0.9,0.3,1.8,0.2,2.7c-0.1,1.2,0.4,1.9,1.5,2.3
		c1,0.4,2,0.8,2.8,1.6c0.1,0.1,0.1,0.2,0.1,0.3c0.1,1.2,0,2.3,0,3.5c0,0.3,0,0.6-0.2,0.8c-2.7-1.3-5.4-2.7-8.1-4
		c-0.2-0.1-0.5-0.2-0.7-0.3c-0.2,0-0.3,0-0.5-0.1c-1.4-0.7-2.8-1.4-4.2-2.1c-1.3-0.5-2.6-1.2-3.8-1.8c-0.4-0.2-0.7-0.4-0.9-0.8
		c-0.1-1.3-0.1-2.7,0-4c0.4-0.7,0.8-0.2,1.2,0c2.3,1.1,4.6,2.3,6.9,3.4c0.3,0.1,0.5,0.4,0.9,0.3c0.2-1,0.1-2,0.1-3
		c0-1.1,0.3-1.2,1.2-0.7C110.6,139.3,111.9,139.7,112.9,140.6z"/>
	<path id="XMLID_175_" class="st5" d="M108.1,147.4c0.2,0,0.3,0.1,0.4,0.3c-0.4,0.7-0.1,1.4-0.2,2.1c0,0.8,0,1.6,0,2.3
		c-0.1,0.2-0.3,0.4-0.5,0.5c-2.8,1.4-5.6,2.9-8.5,4.2c-0.1,0-0.2,0-0.2-0.1c-1.1-0.6-2.1-1.2-3.2-1.6c-1-0.4-1.3-1-1.2-2.1
		c0.1-1,0.1-2.1-0.1-3.2c0.1,0,0.2-0.1,0.2-0.1c1.3,0.5,2.4,1.2,3.6,1.8c0.6,0.3,1,0.3,1.6,0C102.7,150,105.4,148.7,108.1,147.4z"/>
	<path id="XMLID_174_" class="st15" d="M117.5,147.4c2.6-1.3,5.1-2.6,7.7-3.8c0.4-0.2,0.8-0.4,1.3-0.6c0,1.3,0,2.7,0,4
		c0,0.4-0.1,0.6-0.5,0.7c-2.8,1.4-5.6,2.8-8.4,4.2c-0.4-0.1-0.2-0.4-0.2-0.6c0-1.2,0-2.4,0-3.7C117.4,147.6,117.4,147.5,117.5,147.4
		z"/>
	<path id="XMLID_173_" class="st16" d="M99.3,156.7c3-1.5,6-3,9-4.5c0,1.4,0,2.7,0.1,4.1c0,0.3-0.1,0.5-0.4,0.7
		c-2.8,1.4-5.7,2.8-8.5,4.3c0,0-0.1,0-0.2,0C99.1,159.6,99.2,158.1,99.3,156.7z"/>
	<path id="XMLID_172_" class="st17" d="M117.5,147.5c0,1.2,0,2.4,0,3.6c0,0.3-0.1,0.6,0.2,0.8c-0.1,0.1-0.2,0.2-0.4,0
		c0-1.5,0-3,0-4.4C117.4,147.4,117.4,147.4,117.5,147.5z"/>
	<path id="XMLID_171_" class="st18" d="M99.3,156.7c0,1.5,0,3,0,4.5c-0.2,0-0.3,0-0.4-0.1c0.3-0.2,0.2-0.6,0.2-0.9
		c0-1.1,0-2.3,0-3.4C99.2,156.6,99.2,156.6,99.3,156.7z"/>
	<path id="XMLID_170_" class="st4" d="M126.5,83.4c0,1.5,0,3.1,0,4.6c-0.2,0.1-0.4,0.3-0.7,0.4c-8.8,4.4-17.6,8.8-26.4,13.2
		c-0.1,0-0.2,0-0.3-0.1c-0.1-0.2-0.2-0.5-0.2-0.8c0-2.4,0-4.9,0-7.3c0-0.2,0-0.4,0.1-0.6c0-0.1,0.1-0.2,0.2-0.3
		c8.7-4.4,17.4-8.7,26.1-13.1c1.1-0.6,1.1-0.7,1.1,0.7C126.5,81.2,126.5,82.3,126.5,83.4z"/>
	<path id="XMLID_169_" class="st6" d="M99.3,83.4c0,3,0,6.1,0,9.1c0,0,0,0-0.1,0.1c-0.5,0.1-0.8-0.2-1.1-0.4
		c-5.2-2.6-10.3-5.1-15.4-7.8c-0.2-0.1-0.4-0.2-0.6-0.3c-0.4-0.2-0.6-0.1-0.6,0.4c0,0.9,0,1.7,0,2.6c0,0.3,0,0.5-0.2,0.8
		c-0.2,0.2-0.3,0-0.4-0.1c-0.2-0.7-0.1-1.5-0.1-2.2c0-2.1,0-4.3,0-6.4c0-0.2,0-0.3,0.1-0.4c1.6-0.8,3-1.8,4.7-2.3
		c0.3,0.1,0.6,0.2,0.9,0.4c3.9,2,7.8,3.9,11.7,5.9C98.6,82.8,99,82.9,99.3,83.4C99.3,83.3,99.3,83.3,99.3,83.4z"/>
	<path id="XMLID_168_" class="st6" d="M126.3,69.7c0.4-1,0.1-2,0.2-2.9c0-0.6,0-1.2,0-1.8c2.6-1.1,5-2.4,7.5-3.7
		c0.5-0.2,0.9-0.6,1.5-0.7c0,2.8,0,5.6,0,8.5c0,0.5-0.2,0.7-0.6,0.9c-2.6,1.3-5.2,2.6-7.7,3.9c-0.6,0.3-0.7,0.1-0.7-0.5
		c0-0.9,0-1.9,0-2.8C126.5,70.3,126.6,70,126.3,69.7z"/>
	<path id="XMLID_167_" class="st19" d="M108.3,142.9c-2.7-1.4-5.4-2.7-8.2-4.1c-0.3-0.1-0.5-0.3-0.8-0.3c-0.3-0.3-0.3-0.8-0.3-1.2
		c0-2.3,0-4.7,0-7c0-0.4,0-0.8,0.3-1.2c0,0,0,0,0,0c2.7-1.4,5.4-2.7,8.1-4.1c0.3-0.1,0.6-0.3,0.9-0.4c0,4.6,0,9.1,0,13.7
		C108.4,139.9,108.5,141.4,108.3,142.9z"/>
	<path id="XMLID_166_" class="st6" d="M99.3,101.5c0.1,0,0.1,0,0.2,0c-0.2,0.3-0.2,0.5-0.2,0.8c0,2.8,0,5.6,0,8.3
		c-0.1,0-0.1,0-0.2,0c-0.5,0.2-0.8-0.1-1.1-0.3c-5.1-2.5-10.1-5-15.1-7.6c-0.1-0.1-0.3-0.1-0.4-0.2c-0.9-0.4-0.9-0.4-0.9,0.6
		c0,2.2,0,4.3,0,6.5c0,0.4,0.1,0.8-0.2,1.2c0,0-0.1,0-0.1,0c0-1.5-0.1-3-0.1-4.6c-0.2-0.3-0.2-0.6-0.2-0.9c0-2.7,0-5.5,0-8.2
		c0.1-1.5-0.2-3,0.2-4.4c0.3-0.4,0.7-0.2,1,0c4.5,2.3,9,4.4,13.4,6.8C96.7,100.2,98.1,100.8,99.3,101.5z"/>
	<path id="XMLID_165_" class="st20" d="M81.3,110.9c0-2.7,0-5.5,0-8.2c0-0.8,0.2-0.8,0.8-0.5c5.7,2.9,11.4,5.7,17,8.5
		c0.1,0.2,0.2,0.5,0.2,0.8c0,2.8,0,5.6,0,8.4c-0.3,0-0.6-0.2-0.8-0.3C92.7,116.7,87,113.8,81.3,110.9z"/>
	<path id="XMLID_164_" class="st9" d="M99.3,129.1c0,3.1,0,6.2,0,9.4c0,1.5,0,3,0,4.4c-0.1,0.3-0.4,0.4-0.6,0.6
		c-2.5,1.2-4.9,2.5-7.4,3.7c-0.3,0.1-0.5,0.3-0.8,0.2c-0.6-0.1-0.3-0.6-0.3-1c0-7.2,0-14.5,0-21.7c1.7,0.7,3.3,1.6,5,2.4
		C96.5,127.8,97.8,128.6,99.3,129.1z"/>
	<path id="XMLID_163_" class="st16" d="M90.5,147.3c2.9-1.5,5.9-3,8.8-4.4c1.5,0.9,3,1.6,4.6,2.3c-0.7,0.8-1.6,1-2.5,1.5
		c-1.9,1.1-3.9,2-5.8,2.9c-0.2,0.1-0.5,0.2-0.8,0.2c-0.1,0-0.1,0-0.2,0c-1.4-0.7-2.9-1.4-4.3-2.1C90.4,147.6,90.4,147.4,90.5,147.3z
		"/>
	<path id="XMLID_162_" class="st15" d="M108.3,142.9c0-1.5,0-3,0.1-4.5c3.1-1.5,6.1-3.1,9.2-4.6c1.4,0.7,2.8,1.4,4.2,2.1
		c0.1,0.5-0.4,0.5-0.6,0.6c-2.7,1.4-5.5,2.8-8.2,4.2c-1.4-0.7-2.8-1.3-4.4-2.1c0,1.2,0,2.3,0,3.5
		C108.5,142.3,108.6,142.7,108.3,142.9z"/>
	<path id="XMLID_161_" class="st4" d="M81.1,78.8c-0.1,0-0.1,0.1-0.2,0.1c-0.1,0.4-0.4,0.5-0.7,0.6c-2.4,1.2-4.9,2.5-7.3,3.6
		c-0.3,0.1-0.6,0.3-0.9,0.2c-0.1-0.1-0.1-0.2-0.1-0.3c-0.1-3-0.2-5.9,0-8.9c1.3-0.4,2.4-1.2,3.6-1.7c1.6-0.8,3.1-1.5,4.6-2.3
		c0.3-0.1,0.6-0.2,0.8-0.5c0.1,0.1,0.2,0.1,0.3,0.2c0.2,0.5,0.1,1,0.1,1.5c0,2.1,0,4.2,0,6.3C81.4,77.9,81.4,78.4,81.1,78.8z"/>
	<path id="XMLID_160_" class="st20" d="M71.9,74.2c0.2,0.2,0.2,0.5,0.2,0.8c0,2.8,0,5.6,0,8.4c-0.3,0.2-0.6,0-0.9-0.2
		c-2.5-1.2-4.9-2.5-7.4-3.7c-0.3-0.1-0.5-0.3-0.7-0.5c0,0,0,0,0,0c0-3,0-6,0-9.2C66.1,71.2,69,72.7,71.9,74.2z"/>
	<path id="XMLID_159_" class="st21" d="M71.9,65c-1-1.1-2-2.2-3-3.3c0,0,0,0,0,0c0.8,0.8,1.6,1.6,2.4,2.4c0.3,0.3,0.9,0.3,0.8,0.9
		C72,65,72,65,71.9,65z"/>
	<path id="XMLID_158_" class="st3" d="M81.1,97.2c0,3.1,0,6.1,0,9.2c-3,1.5-6,3-9,4.6c0-0.1,0-0.1,0-0.2c0-3.1,0-6.1,0-9.2
		c0,0,0-0.1,0.1-0.1c0.7-0.5,1.5-0.9,2.3-1.2c1.8-0.9,3.7-1.9,5.6-2.8C80.4,97.3,80.7,97,81.1,97.2z"/>
	<path id="XMLID_157_" class="st6" d="M63.1,78.9c2.6,1.3,5.1,2.5,7.7,3.8c0.4,0.2,0.8,0.4,1.3,0.6c0,0,0,0.1,0,0.1
		c0.2,0.2,0.2,0.4,0.2,0.6c0,2.7,0.1,5.5-0.1,8.2c-0.1,0.4-0.4,0.4-0.7,0.3c-2.8-1.4-5.8-2.7-8.5-4.3C63.1,85.1,63.1,82,63.1,78.9z"
		/>
	<path id="XMLID_156_" class="st20" d="M63.1,88.2c0.4-0.1,0.6,0.2,0.9,0.3c2.7,1.3,5.4,2.7,8.1,4c0,0,0.1,0.1,0.1,0.1
		c0.2,0.3,0.2,0.6,0.2,0.9c0,2.3,0,4.6,0,6.9c0,0.4,0,0.8-0.3,1.1c0,0,0,0,0,0c-0.6,0-1.1-0.5-1.6-0.7c-2.2-1.1-4.5-2.3-6.7-3.3
		c-0.5-0.3-0.7-0.6-0.7-1.1C63.1,93.6,63.1,90.9,63.1,88.2z"/>
	<path id="XMLID_155_" class="st19" d="M117.3,147.4c-1.3-0.7-2.7-1.3-4-2c-0.3-0.2-0.4-0.4-0.4-0.7c0-1.3,0-2.6,0-3.9
		c1.5,0.7,2.9,1.4,4.4,2.1C117.5,144.4,117.5,145.9,117.3,147.4z"/>
	<path id="XMLID_154_" class="st22" d="M117.3,147.4c0-1.5,0-3,0-4.5c0.1,0,0.1,0,0.2,0c0,1.5,0,3,0,4.5c0,0,0,0.1,0,0.1
		c0,0-0.1,0-0.1,0s-0.1,0-0.1,0C117.3,147.5,117.3,147.4,117.3,147.4z"/>
	<path id="XMLID_153_" class="st3" d="M81.1,78.8c0-2.7,0-5.4,0-8.1c0-0.3-0.1-0.7,0.1-0.9c2.9,1.5,5.9,3,8.8,4.4c0,0,0,0,0,0
		c0,0.1,0,0.2-0.1,0.3c-1.4,0.7-2.7,1.6-4.3,2C84.2,77.2,82.6,78,81.1,78.8z"/>
	<path id="XMLID_152_" class="st23" d="M103.9,76.4c-0.3-0.2-0.2-0.6-0.2-0.9c0-2.7,0-5.4,0-8.1c-1.5-0.7-3-1.3-4.4-2.3
		c0-1.6,0-3.2,0-4.8c1.1-0.5,2.2-1,3.3-1.6c3.5-1.8,7-3.5,10.5-5.3c2.6,1.3,5.1,2.6,7.7,3.9c0.4,0.2,0.8,0.3,0.9,0.7
		c0,0.1,0,0.1,0,0.2c-0.1,0.5-0.5,0.6-0.9,0.8c-4.4,2.2-8.8,4.4-13.3,6.6c-0.9,0.4-1.7,1-2.6,1.4c-0.6,0.3-0.8,0.7-0.8,1.4
		c0,2.3,0,4.5,0,6.8C104.1,75.7,104.2,76.1,103.9,76.4z"/>
	<path id="XMLID_151_" class="st20" d="M85.7,76.5c1.4-0.8,3-1.4,4.4-2.3c1.3-0.4,2.5-1.2,3.7-1.8c1.8-0.9,3.6-1.8,5.3-2.6
		c0.2,0.2,0.2,0.4,0.2,0.6c0,4.3,0,8.7,0,13C94.7,81.1,90.2,78.9,85.7,76.5z"/>
	<path id="XMLID_150_" class="st24" d="M90.3,42.1c1.4-0.7,2.9-1.4,4.4-2.2c0,1.6,0,3.1,0,4.5c-1.3,0.6-2.6,1.3-3.8,1.9
		c-0.5,0.3-0.7,0.2-0.6-0.4C90.3,44.7,90.3,43.4,90.3,42.1z"/>
	<path id="XMLID_149_" class="st20" d="M99.3,65.1c1.5,0.6,3,1.3,4.4,2.3c-1.5,0.7-2.9,1.4-4.4,2.2C99.3,68.1,99.3,66.6,99.3,65.1z"
		/>
	<path id="XMLID_148_" class="st20" d="M121.7,58.1c-2.6-1.3-5.3-2.7-7.9-4c-0.3-0.1-0.7-0.2-0.7-0.6c1.5-0.7,2.9-1.5,4.4-2.2
		c1,0.7,2.2,1.2,3.3,1.8c1.8,0.9,3.6,1.8,5.3,2.7c0,0.1,0,0.2-0.1,0.2C124.6,56.8,123.3,57.6,121.7,58.1z"/>
	<path id="XMLID_147_" class="st25" d="M105.3,42.3c0,0.2,0,0.3,0,0.4c0,2.8,0,2.7-2.5,3.8c-0.4,0.2-0.5,0.1-0.5-0.3
		c0-0.1,0-0.1,0-0.2C102.3,43.5,102.3,43.5,105.3,42.3z"/>
	<path id="XMLID_146_" class="st26" d="M120.5,37.5c0-0.2,0-0.3,0-0.4c0-2.7,0-2.6,2.4-3.7c0.5-0.2,0.6-0.1,0.6,0.4
		C123.6,36.2,123.4,36.4,120.5,37.5z"/>
	<path id="XMLID_145_" class="st9" d="M103.9,76.4c0-2.9,0-5.7,0-8.6c0-0.6,0.4-0.7,0.8-0.9c5.4-2.7,10.8-5.4,16.2-8.2
		c0.3-0.2,0.6-0.3,0.9-0.5c0.3,0.2,0.2,0.5,0.2,0.7c0,2.6,0,5.1,0,7.7c0,0.6-0.2,0.8-0.7,1.1C115.5,70.6,109.7,73.5,103.9,76.4z"/>
	<path id="XMLID_144_" class="st27" d="M94.9,149.8c3-1.5,6-3.1,9-4.6c1.4,0.7,2.8,1.5,4.3,2.2c0,0.3-0.3,0.4-0.5,0.5
		c-2.6,1.3-5.1,2.6-7.7,3.9c-0.5,0.2-0.8,0.3-1.3,0C97.4,151.1,96,150.6,94.9,149.8z"/>
	<path id="XMLID_143_" class="st20" d="M99.3,101.5c-1.5-0.4-2.8-1.2-4.1-1.9c-4.6-2.3-9.2-4.7-13.9-6.9c-0.3-0.1-0.4-0.3-0.4-0.5
		c0-1.4-0.2-2.7,0.1-4.1c0,0,0.1-0.1,0.1-0.1c0.3-1.1,0.1-2.3,0.1-3.5c0-1,0-1,0.9-0.6c5.5,2.8,11,5.6,16.5,8.4
		c0.2,0.1,0.4,0.2,0.5,0.3C99.3,95.6,99.3,98.5,99.3,101.5z"/>
	<path id="XMLID_142_" class="st3" d="M72.1,92.5c0-3.1,0-6.1,0-9.2c2.9-1.5,5.9-3,8.8-4.5c0.3,0.3,0.2,0.7,0.2,1c0,2.7,0,5.4,0,8.1
		c0,0,0,0,0,0c-0.2,0.3-0.4,0.4-0.7,0.6c-2.5,1.2-4.9,2.6-7.4,3.8C72.7,92.5,72.4,92.7,72.1,92.5L72.1,92.5z"/>
	<path id="XMLID_141_" class="st4" d="M72.1,92.5c3-1.5,6-3,9-4.6c0,1.3,0,2.6,0,3.8c0,0.3,0,0.6,0.2,0.9c-0.4,0.5-0.2,1.1-0.2,1.6
		c0,1,0,1.9,0,2.9c-2.7,1.3-5.4,2.7-8.1,4c-0.3,0.1-0.6,0.2-0.9,0.4C72.1,98.6,72.1,95.5,72.1,92.5z"/>
</g>
<g id="XMLID_2_">
	<path id="XMLID_3_" class="st28" d="M60.5,176c0.2,0,0.3,0.1,0.4,0.2c0.1,0.1,0.2,0.3,0.2,0.4c0,0.2-0.1,0.3-0.2,0.4
		s-0.3,0.2-0.4,0.2h-3v8.4c0,0.2-0.1,0.3-0.2,0.4c-0.1,0.1-0.3,0.2-0.4,0.2c-0.2,0-0.3-0.1-0.4-0.2c-0.1-0.1-0.2-0.3-0.2-0.4v-8.4
		h-3c-0.2,0-0.3-0.1-0.4-0.2c-0.1-0.1-0.2-0.3-0.2-0.4c0-0.2,0.1-0.3,0.2-0.4c0.1-0.1,0.3-0.2,0.4-0.2H60.5z"/>
	<path id="XMLID_5_" class="st28" d="M69.1,185c0.2,0,0.3,0.1,0.4,0.2c0.1,0.1,0.2,0.3,0.2,0.4c0,0.2-0.1,0.3-0.2,0.4
		c-0.1,0.1-0.3,0.2-0.4,0.2h-6c-0.2,0-0.3-0.1-0.4-0.2s-0.2-0.3-0.2-0.4v-9c0-0.2,0.1-0.3,0.2-0.4s0.3-0.2,0.4-0.2h6
		c0.2,0,0.3,0.1,0.4,0.2c0.1,0.1,0.2,0.3,0.2,0.4c0,0.2-0.1,0.3-0.2,0.4c-0.1,0.1-0.3,0.2-0.4,0.2h-5.4v3.3h3.6
		c0.2,0,0.3,0.1,0.4,0.2c0.1,0.1,0.2,0.3,0.2,0.4s-0.1,0.3-0.2,0.4c-0.1,0.1-0.3,0.2-0.4,0.2h-3.6v3.3H69.1z"/>
	<path id="XMLID_7_" class="st28" d="M76.4,186.3c-0.7,0-1.4-0.1-2-0.4c-0.6-0.3-1.2-0.6-1.7-1.1c-0.5-0.5-0.8-1-1.1-1.7
		c-0.3-0.6-0.4-1.3-0.4-2c0-0.7,0.1-1.4,0.4-2c0.3-0.6,0.6-1.2,1.1-1.7c0.5-0.5,1-0.8,1.7-1.1s1.3-0.4,2-0.4c0.9,0,1.8,0.2,2.6,0.7
		c0.2,0.1,0.3,0.2,0.3,0.4s0,0.3-0.1,0.5c-0.1,0.2-0.2,0.3-0.4,0.3c-0.2,0-0.3,0-0.5-0.1c-0.3-0.2-0.6-0.3-0.9-0.4
		c-0.3-0.1-0.7-0.1-1-0.1c-0.6,0-1.1,0.1-1.5,0.3c-0.5,0.2-0.9,0.5-1.3,0.8c-0.4,0.4-0.6,0.8-0.8,1.3c-0.2,0.5-0.3,1-0.3,1.5
		c0,0.6,0.1,1.1,0.3,1.5c0.2,0.5,0.5,0.9,0.8,1.3c0.4,0.4,0.8,0.6,1.3,0.9c0.5,0.2,1,0.3,1.5,0.3c0.4,0,0.8-0.1,1.1-0.2
		s0.7-0.3,1-0.5c0.1-0.1,0.3-0.1,0.5-0.1s0.3,0.1,0.4,0.3c0.1,0.1,0.1,0.3,0.1,0.5c0,0.2-0.1,0.3-0.3,0.4
		C78.4,186,77.5,186.3,76.4,186.3z"/>
	<path id="XMLID_9_" class="st28" d="M81.6,175.9c0.2,0,0.3,0.1,0.4,0.2c0.1,0.1,0.2,0.3,0.2,0.4v9.1c0,0.2-0.1,0.3-0.2,0.4
		s-0.3,0.2-0.4,0.2c-0.2,0-0.3-0.1-0.4-0.2s-0.2-0.3-0.2-0.4v-9.1c0-0.2,0.1-0.3,0.2-0.4C81.2,176,81.4,175.9,81.6,175.9z M88,175.9
		c0.2,0,0.3,0.1,0.4,0.2c0.1,0.1,0.2,0.3,0.2,0.4v9.1c0,0.2-0.1,0.3-0.2,0.4s-0.3,0.2-0.4,0.2c-0.2,0-0.3-0.1-0.4-0.2
		s-0.2-0.3-0.2-0.4v-3.9h-4c-0.2,0-0.3-0.1-0.4-0.2c-0.1-0.1-0.2-0.3-0.2-0.4c0-0.2,0.1-0.3,0.2-0.4c0.1-0.1,0.3-0.2,0.4-0.2h4v-3.9
		c0-0.2,0.1-0.3,0.2-0.4C87.7,176,87.8,175.9,88,175.9z"/>
	<path id="XMLID_12_" class="st28" d="M105.2,186.3c-0.2,0-0.4-0.1-0.5-0.2l-5.8-7.7v7.3c0,0.2-0.1,0.3-0.2,0.4
		c-0.1,0.1-0.3,0.2-0.4,0.2c-0.2,0-0.3-0.1-0.4-0.2c-0.1-0.1-0.2-0.3-0.2-0.4v-9.1c0-0.1,0-0.2,0.1-0.3s0.2-0.2,0.3-0.2
		c0.1,0,0.2-0.1,0.4,0c0.1,0,0.2,0.1,0.3,0.2l5.8,7.7v-7.3c0-0.2,0.1-0.3,0.2-0.4c0.1-0.1,0.3-0.2,0.4-0.2s0.3,0.1,0.4,0.2
		s0.2,0.3,0.2,0.4v9.1c0,0.1,0,0.2-0.1,0.4s-0.2,0.2-0.3,0.2C105.3,186.3,105.3,186.3,105.2,186.3z"/>
	<path id="XMLID_14_" class="st28" d="M117.2,185.4c0.1,0.2,0.1,0.3,0,0.5c-0.1,0.2-0.2,0.3-0.3,0.3c-0.2,0.1-0.3,0.1-0.5,0
		c-0.2-0.1-0.3-0.2-0.3-0.3l-1.1-2.4h-2.8c-0.2,0-0.3-0.1-0.4-0.2c-0.1-0.1-0.2-0.3-0.2-0.4c0-0.2,0.1-0.3,0.2-0.4
		c0.1-0.1,0.3-0.2,0.4-0.2h2.2l-2-4.2l-3.5,7.8c-0.1,0.1-0.1,0.2-0.2,0.3s-0.2,0.1-0.3,0.1c-0.1,0-0.2,0-0.3,0
		c-0.2-0.1-0.3-0.2-0.3-0.3c-0.1-0.2-0.1-0.3,0-0.5l4-9c0-0.1,0.1-0.2,0.2-0.3c0.1-0.1,0.2-0.1,0.3-0.1c0.1,0,0.2,0,0.3,0.1
		c0.1,0.1,0.2,0.1,0.2,0.3L117.2,185.4z"/>
	<path id="XMLID_17_" class="st28" d="M123.8,176c0.2,0,0.3,0.1,0.4,0.2c0.1,0.1,0.2,0.3,0.2,0.4c0,0.2-0.1,0.3-0.2,0.4
		c-0.1,0.1-0.3,0.2-0.4,0.2h-3v8.4c0,0.2-0.1,0.3-0.2,0.4c-0.1,0.1-0.3,0.2-0.4,0.2c-0.2,0-0.3-0.1-0.4-0.2
		c-0.1-0.1-0.2-0.3-0.2-0.4v-8.4h-3c-0.2,0-0.3-0.1-0.4-0.2c-0.1-0.1-0.2-0.3-0.2-0.4c0-0.2,0.1-0.3,0.2-0.4
		c0.1-0.1,0.3-0.2,0.4-0.2H123.8z"/>
	<path id="XMLID_19_" class="st28" d="M126.9,186.3c-0.2,0-0.3-0.1-0.4-0.2s-0.2-0.3-0.2-0.4v-9.1c0-0.2,0.1-0.3,0.2-0.4
		c0.1-0.1,0.3-0.2,0.4-0.2c0.2,0,0.3,0.1,0.4,0.2c0.1,0.1,0.2,0.3,0.2,0.4v9.1c0,0.2-0.1,0.3-0.2,0.4
		C127.2,186.2,127.1,186.3,126.9,186.3z"/>
	<path id="XMLID_21_" class="st28" d="M133.9,186.3c-0.1,0-0.2,0-0.3-0.1c-0.1-0.1-0.2-0.2-0.2-0.3l-3.7-9.3c-0.1-0.2-0.1-0.3,0-0.5
		c0.1-0.1,0.2-0.3,0.3-0.3c0.2-0.1,0.3-0.1,0.5,0s0.3,0.2,0.3,0.3l3.1,7.8l3.1-7.8c0.1-0.2,0.2-0.3,0.3-0.3c0.1-0.1,0.3-0.1,0.5,0
		c0.2,0.1,0.3,0.2,0.3,0.3c0.1,0.1,0.1,0.3,0,0.5l-3.7,9.3C134.3,186.2,134.1,186.3,133.9,186.3z"/>
	<path id="XMLID_23_" class="st28" d="M146.2,185c0.2,0,0.3,0.1,0.4,0.2c0.1,0.1,0.2,0.3,0.2,0.4c0,0.2-0.1,0.3-0.2,0.4
		c-0.1,0.1-0.3,0.2-0.4,0.2h-6c-0.2,0-0.3-0.1-0.4-0.2s-0.2-0.3-0.2-0.4v-9c0-0.2,0.1-0.3,0.2-0.4s0.3-0.2,0.4-0.2h6
		c0.2,0,0.3,0.1,0.4,0.2c0.1,0.1,0.2,0.3,0.2,0.4c0,0.2-0.1,0.3-0.2,0.4c-0.1,0.1-0.3,0.2-0.4,0.2h-5.4v3.3h3.6
		c0.2,0,0.3,0.1,0.4,0.2s0.2,0.3,0.2,0.4s-0.1,0.3-0.2,0.4s-0.3,0.2-0.4,0.2h-3.6v3.3H146.2z"/>
</g>
</svg>
