<?xml version="1.0" encoding="utf-8"?>
<!-- Generator: Adobe Illustrator 19.0.0, SVG Export Plug-In . SVG Version: 6.00 Build 0)  -->
<svg version="1.1" id="Layer_1" xmlns="http://www.w3.org/2000/svg" xmlns:xlink="http://www.w3.org/1999/xlink" x="0px" y="0px"
	 viewBox="0 0 200 200" style="enable-background:new 0 0 200 200;" xml:space="preserve">
<style type="text/css">
	.st0{fill:#F6C12C;}
	.st1{fill:#F8D55F;}
	.st2{fill:#ECEDEF;}
	.st3{fill:#F2A8B5;}
	.st4{fill:#E7576F;}
	.st5{fill:#F1A484;}
	.st6{fill:#E55782;}
	.st7{fill:#F8C7A9;}
	.st8{fill:#F1A485;}
	.st9{fill:#F8D9AA;}
	.st10{fill:#ED9425;}
	.st11{fill:#F1AED3;}
	.st12{fill:#D91D85;}
	.st13{fill:#6F020A;}
	.st14{fill:#530103;}
	.st15{fill:#8A030A;}
	.st16{fill:#A50613;}
	.st17{fill:#A34B47;}
	.st18{fill:#851F24;}
	.st19{fill:#F19484;}
	.st20{fill:#DA0E47;}
	.st21{fill:#EFA03E;}
	.st22{fill:#EFB09E;}
	.st23{fill:#E17670;}
	.st24{fill:#D91E84;}
	.st25{fill:#020101;}
	.st26{fill:#010101;}
	.st27{fill:#FBE9AB;}
	.st28{fill:#333333;}
	.st29{fill:#FADBA8;}
	.st30{fill:#E49D5F;}
	.st31{fill:#797979;}
	.st32{fill:#E85582;}
	.st33{fill:#DD0144;}
	.st34{fill:#EA556D;}
	.st35{fill:#E4756E;}
	.st36{fill:#F4A582;}
	.st37{fill:#F4A8B5;}
	.st38{fill:#FAD754;}
	.st39{fill:#DC1185;}
	.st40{fill:#F3AED5;}
	.st41{fill:#F09600;}
	.st42{fill:#F8C300;}
	.st43{fill:#696969;}
	.st44{fill:#959595;}
	.st45{fill:none;stroke:#000000;stroke-width:1.5;stroke-linejoin:round;stroke-miterlimit:10;}
	.st46{fill-rule:evenodd;clip-rule:evenodd;fill:#FFFFFF;}
	.st47{fill-rule:evenodd;clip-rule:evenodd;}
	.st48{fill-rule:evenodd;clip-rule:evenodd;fill:#FCBD6D;}
	.st49{fill-rule:evenodd;clip-rule:evenodd;fill:#E49D5F;}
	.st50{fill-rule:evenodd;clip-rule:evenodd;fill:#2C2C32;}
	.st51{fill-rule:evenodd;clip-rule:evenodd;fill:#68696C;}
	.st52{fill-rule:evenodd;clip-rule:evenodd;fill:#403C43;}
	.st53{fill-rule:evenodd;clip-rule:evenodd;fill:#55545B;}
</style>
<g id="XMLID_1_">
	<path id="XMLID_204_" class="st0" d="M-197.3-35.9c0.2-0.3,0.5-0.3,0.7-0.5c14.6-7.3,29.2-14.7,43.7-22c0.6-0.3,1.1-0.3,1.7,0
		c8.5,4.3,17.1,8.6,25.6,13c0.2,0.1,0.6,0.2,0.7,0.5c-0.3,0.3-0.6,0.5-1,0.7c-3.2,1.6-6.4,3.1-9.5,4.8c-6.2,3.2-12.5,6.3-18.7,9.5
		c-2.3,1.2-4.7,2.3-7,3.6c-1.4,0.8-2.8,1.4-4.2,2.2c-1.6,0.7-3,1.6-4.7,2.2c-0.1,0-0.2,0-0.3,0c-2.3-1-4.5-2.1-6.7-3.3
		c-3.7-2-7.5-3.8-11.3-5.7c-2.8-1.4-5.6-2.9-8.4-4.3c-0.2-0.1-0.4-0.2-0.6-0.4C-197.4-35.8-197.4-35.9-197.3-35.9z"/>
	<path id="XMLID_203_" class="st1" d="M-161.2-26.6c7.4-3.7,14.8-7.5,22.2-11.2c4.4-2.2,8.9-4.5,13.3-6.7c0.3-0.1,0.6-0.2,0.9-0.4
		c0,0.2,0,0.5,0,0.7c0,11.8,0,23.6,0,35.4c0,0.2,0,0.4,0,0.5c-0.2,0.3-0.4,0.4-0.7,0.6c-2.5,1.2-5,2.6-7.5,3.9
		c-0.3,0.1-0.6,0.3-0.9,0.2c-0.1-0.1-0.2-0.2-0.2-0.4c0-2.9,0-5.8,0-8.6c0-5.7,0-11.3,0-17c0-1.1-0.1-1.1-1-0.6
		c-5.8,2.9-11.6,5.7-17.3,8.7c-2.5,1.3-5,2.5-7.5,3.8c-0.4,0.2-0.7,0.4-1.2,0.4c-0.1-0.1-0.2-0.1-0.2-0.2c-0.2-1.5-0.1-2.9-0.1-4.4
		C-161.3-23.7-161.4-25.2-161.2-26.6z"/>
	<path id="XMLID_202_" class="st2" d="M-133.8,78.9c2.9,1.5,5.8,3,8.9,4.6c-1.2,0.7-2.3,1.3-3.4,1.8c-5.7,2.9-11.5,5.7-17.1,8.6
		c-6.3,3.3-12.7,6.3-19,9.6c-1.6,0.8-3.3,1.6-4.9,2.5c-0.6,0.3-1.1,0.3-1.7,0c-2.5-1.5-5.3-2.7-7.9-4c-0.5-0.3-0.9-0.3-1.4,0
		c-2.4,1.2-4.9,2.5-7.3,3.7c-0.4,0.2-0.8,0.3-1.2,0.1c-2.7-1.4-5.4-2.7-8.1-4c-0.1-0.1-0.3-0.1-0.3-0.3c2.8-1.4,5.6-2.9,8.5-4.4
		c-2.9-1.5-5.7-2.9-8.8-4.4c6.2-3.1,12.2-6.1,18.2-9.1c0.3,0.3,0.3,0.7,0.3,1c0,1,0,2.1,0,3.1c-0.1,1.2,0,2.3,0,3.5
		c0,0.8,0.3,1.2,1,1.5c5.6,2.7,11.1,5.5,16.6,8.3c0.2,0.1,0.3,0.1,0.5,0.1c2.7-1.2,5.4-2.7,8.1-4c0.5-0.2,0.6-0.6,0.6-1.2
		c0-1.3,0-2.5,0-3.8c0-1.1,0-2.2,0-3.3c0-0.3,0-0.6,0.2-0.9c0.5-0.4,0.9-0.1,1.3,0.1c2.6,1.3,5.1,2.6,7.7,3.8
		c0.2,0.1,0.4,0.1,0.6-0.1c2.5-1.3,5-2.5,7.5-3.8c0.7-0.3,1-0.8,1-1.6c-0.1-1.2,0-2.4,0-3.6c0-1,0-2,0-3
		C-134.1,79.6-134.2,79.2-133.8,78.9z"/>
	<path id="XMLID_201_" class="st3" d="M-124.8,0.8c0.2,0.3,0.1,0.6,0.1,0.9c0,5.4,0,10.9,0,16.3c0,0.4,0.1,0.8-0.2,1.1
		c-0.2,0.3-0.5,0.4-0.8,0.6c-2.4,1.2-4.9,2.4-7.3,3.6c-0.3,0.1-0.6,0.4-1,0.2c-0.4-1-0.1-2-0.2-3.1c0-1,0-1.1-1-0.6
		c-5.2,2.6-10.4,5.2-15.6,7.8c-3.1,1.6-6.2,3.2-9.4,4.7c-0.4,0.2-0.8,0.7-1.2,0c-0.2-1.2-0.1-2.3-0.1-3.5c0-1.7-0.1-3.4,0.1-5.2
		c0.2-0.6,0.7-0.8,1.2-1c5.5-2.8,11-5.5,16.5-8.3c2.9-1.5,5.7-2.9,8.6-4.4c0.4-0.2,0.7-0.5,1.2-0.3c0.3,0.3,0.3,0.6,0.3,1
		c0,0.7,0,1.4,0,2.1c0,0.9,0,1,0.8,0.6c1.9-0.9,3.7-1.9,5.6-2.8c2.4-1.2,2-0.6,2.1-3.4c0-2.1-0.1-4.3,0.1-6.4
		C-125,0.9-124.9,0.8-124.8,0.8z"/>
	<path id="XMLID_200_" class="st3" d="M-133.9,46.6c0,2.8,0,5.7,0,8.5c0,0.5-0.2,0.8-0.7,1c-2.5,1.2-5,2.5-7.5,3.7
		c-0.3,0.2-0.6,0.3-0.9,0.5c-0.3,0.3-0.6,0.5-1,0.7c-2.7,1.4-5.4,2.8-8.1,4.1c-2.6,1.2-5.1,2.5-7.6,3.8c-0.3,0.1-0.6,0.3-0.9,0.4
		c-0.3,0.1-0.6,0.2-0.7-0.2c-0.2-1.4-0.1-2.8-0.1-4.1c0-1.5-0.1-3,0.1-4.5c0.1-0.4,0.5-0.6,0.8-0.7c8.5-4.3,17.1-8.7,25.7-12.9
		C-134.5,46.7-134.2,46.5-133.9,46.6z"/>
	<path id="XMLID_199_" class="st4" d="M-133.9,46.6c-6.1,3.1-12.2,6.1-18.4,9.2c-2.9,1.5-5.9,3-8.8,4.4c0,0-0.1-0.1-0.1-0.1
		c-0.2-0.4-0.2-0.9-0.2-1.3c0-2.5,0-5.1,0-7.6c0-0.1,0-0.2,0.1-0.3c1.8-0.9,3.6-1.8,5.4-2.7c7-3.4,13.8-7.1,20.8-10.5
		c0.4-0.2,0.7-0.5,1.2-0.4C-133.9,40.5-133.9,43.5-133.9,46.6z"/>
	<path id="XMLID_198_" class="st3" d="M-133.9,37.4c-8.7,4.4-17.4,8.8-26.1,13.1c-0.3,0.2-0.6,0.4-1,0.4c-0.2-0.3-0.3-0.6-0.3-0.9
		c0-2.4,0-4.9,0-7.3c0-0.3,0-0.5,0.2-0.8c0.2-0.4,0.6-0.6,0.9-0.8c8.6-4.3,17.1-8.6,25.7-12.9c0.3-0.1,0.6-0.5,0.9,0.1
		c0.1,1.5,0.3,2.9-0.2,4.4C-133.9,34.3-133.9,35.9-133.9,37.4z"/>
	<path id="XMLID_197_" class="st5" d="M-179.2,87.9c0-1.5,0-2.9,0-4.4c0-2.8,0-5.5,0-8.3c0-5,0-9.9,0-14.9c0.3-0.2,0.6,0,0.9,0.1
		c2.5,1.4,5,2.6,7.5,3.9c0.4,0.2,0.7,0.4,0.8,0.9c0.1,0.6,0,1.2,0,1.8c0,6.2,0,12.5,0,18.7c0,0.6,0,1.1,0.1,1.7
		c0.1,0.2,0.1,0.4,0.1,0.6c0,1.1,0,2.3,0,3.4c0,0.9-0.3,1.1-1.1,0.7c-2.7-1.3-5.4-2.7-8-4C-179.1,88.1-179.2,88-179.2,87.9z"/>
	<path id="XMLID_196_" class="st6" d="M-170.3,64.9c-1.4-0.9-2.9-1.5-4.3-2.2c-1.6-0.8-3.1-1.6-4.7-2.4c-1.5-0.8-3-1.5-4.5-2.3
		c0-0.5,0.4-0.6,0.7-0.8c0.8-0.4,1.6-0.9,2.4-1.2c0.8-0.3,1.1-0.9,1.1-1.8c0-1-0.2-2,0.1-3.1c0-0.1,0.1-0.1,0.2-0.2
		c0.4-0.1,0.7,0.2,1.1,0.3c2.2,1.1,4.3,2.2,6.4,3.3c3.2,1.7,6.4,3.2,9.6,4.8c0.3,0.2,0.7,0.3,1,0.6c0,0,0.1,0.1,0.1,0.1
		c0,3.1,0,6.1,0,9.2c0,0-0.1,0.1-0.1,0.1c-0.3,0.1-0.6-0.1-0.8-0.2c-2.5-1.2-5-2.5-7.5-3.8C-169.8,65.3-170.1,65.2-170.3,64.9z"/>
	<path id="XMLID_195_" class="st7" d="M-152,65c2.9-1.5,5.9-2.9,8.8-4.5c0.1-0.1,0.2-0.1,0.3-0.1c0,4.2,0,8.3,0,12.5
		c0,0.3-0.1,0.7,0.1,1c0,0.1-0.1,0.2-0.1,0.2c-1.8,1.1-3.7,1.9-5.6,2.9c-0.9,0.5-1.9,1-2.8,1.4c-0.3,0.2-0.7,0.4-0.9-0.2
		c-0.1-0.9-0.1-1.8-0.1-2.6c0-3.1,0-6.2,0-9.3C-152.3,65.8-152.4,65.4-152,65z"/>
	<path id="XMLID_194_" class="st3" d="M-197.3-35.9c0,0.1,0,0.1,0.1,0.2c0.3,0.5,0.2,1,0.2,1.5c0,14.1,0,28.1,0,42.2
		c0,1.4,0,1.5,1.3,0.8c2.3-1.2,4.6-2.4,7-3.5c0.1,0,0.2-0.1,0.3-0.1c0.3,0,0.6,0.2,0.9,0.3c2.4,1.2,4.9,2.4,7.3,3.7
		c0.3,0.2,0.7,0.3,0.8,0.7c0,0.4-0.4,0.6-0.7,0.7c-2.5,1.3-5.1,2.5-7.6,3.8c-0.3,0.1-0.6,0.3-0.9,0.2c-2.1-0.9-4.2-2-6.3-3
		c-0.7-0.3-1.4-0.7-2-1c-0.3,0.3-0.2,0.6-0.2,0.8c0,2.2,0,4.4,0,6.6c0,0.4,0,0.8-0.1,1.1c-0.1,0.1-0.1,0.1-0.2,0.1
		c0-3.4,0-6.7,0-10.1c0-14.7,0-29.3,0-44C-197.5-35.2-197.6-35.6-197.3-35.9z"/>
	<path id="XMLID_193_" class="st6" d="M-197.4,19.2c0.1,0,0.1,0,0.2,0c0,0,0.1,0.1,0.1,0.1c0.2,0.3,0.2,0.6,0.2,0.9
		c0,2.6,0,5.3,0,7.9c0,2.6,0,5.3,0,7.9c0,0.8,0.3,1.2,1,1.6c2.4,1.2,4.8,2.3,7.2,3.6c0.3,0.2,0.6,0.3,0.8,0.6c0,0.1,0.1,0.2,0.1,0.3
		c0,2.8,0.1,5.6,0,8.5c-0.3,0.7-0.8,0.3-1.2,0.1c-2-1-4-2-6.1-3c-0.7-0.4-1.5-0.6-2-1.2c-0.2-0.2-0.1-0.5-0.1-0.8
		C-197.5,37-197.5,28.1-197.4,19.2z"/>
	<path id="XMLID_192_" class="st2" d="M-142.8,73.9c3-1.4,6.1-2.9,9.1-4.3c0.3-0.1,0.5-0.2,0.8,0c2.8,1.4,5.6,2.8,8.4,4.2
		c0,0,0.1,0.1,0.2,0.3c-3.2,1.5-6.4,3-9.5,4.5c-0.4,0.2-0.6-0.1-0.9-0.2c-1.3-0.7-2.7-1.3-4-2c-1.2-0.5-2.4-1.2-3.6-1.8
		c-0.2-0.1-0.6-0.2-0.6-0.6C-142.8,74-142.8,74-142.8,73.9z"/>
	<path id="XMLID_191_" class="st8" d="M-197.3,46.6c2.7,1.3,5.4,2.7,8.2,4c0.3,0.1,0.5,0.4,0.9,0.4c0.1,0.1,0.2,0.2,0.2,0.3
		c0.2,1.8,0,3.7,0.1,5.5c0,0.8,0,1.5,0,2.3c0,0.4,0,0.8-0.3,1.1c-1.6-0.6-3.1-1.5-4.6-2.2c-1.3-0.6-2.5-1.3-3.8-1.9
		c-0.5-0.2-0.7-0.5-0.7-1.1C-197.3,52.2-197.3,49.4-197.3,46.6z"/>
	<path id="XMLID_190_" class="st9" d="M-133.8,32.8c0-1.5,0-3.1,0-4.6c-0.2-0.2-0.2-0.4-0.3-0.6c0-1.1,0-2.2,0-3.2
		c0-0.3,0.1-0.5,0.3-0.7c2.8-1.4,5.7-2.8,8.5-4.3c0.2-0.1,0.3-0.1,0.5-0.2c0,2.8,0,5.5,0,8.3c0,0.6-0.2,0.8-0.7,1.1
		C-128.3,29.9-131.1,31.4-133.8,32.8z"/>
	<path id="XMLID_189_" class="st3" d="M-133.9-3.8c3-1.5,6-3,9-4.6c0,3,0,6.1,0,9.1c0,0,0,0-0.1,0.1c-0.5,0.5-1.2,0.8-1.8,1.1
		c-2.1,1.1-4.2,2.1-6.3,3.2c-0.4,0.2-0.8,0.5-1.1-0.1c-0.2-2.7-0.1-5.4-0.1-8.1C-134.1-3.4-134-3.6-133.9-3.8z"/>
	<path id="XMLID_188_" class="st9" d="M-188.3,60.2c0-3,0-6,0-9c0.1-0.3,0.4-0.4,0.6-0.6c2.5-1.3,5-2.5,7.5-3.8
		c0.3-0.2,0.7-0.5,1,0.1c0.1,1.2,0,2.5,0.1,3.7c0,0.2-0.1,0.5-0.2,0.7c0,1.2-0.1,2.5,0,3.7c0,0.6-0.2,0.9-0.8,1.2
		c-1.2,0.6-2.6,1.1-3.7,2c-0.9,0.1-1.6,0.8-2.4,1.1C-186.9,59.5-187.5,60-188.3,60.2z"/>
	<path id="XMLID_187_" class="st7" d="M-138.6,76.1c1.6,0.8,3.2,1.6,4.8,2.5c0,0.1,0,0.1,0,0.2c-0.2,0.2-0.4,0.4-0.6,0.5
		c-2.6,1.3-5.2,2.6-7.8,3.9c-0.2,0.1-0.3,0.1-0.5,0.2c-0.1,0-0.2,0-0.3,0c-1.5-0.6-3-1.4-4.4-2.2c0-0.1,0-0.2,0-0.3
		c0.2-0.4,0.6-0.5,0.9-0.6C-143.9,78.9-141.3,77.5-138.6,76.1z"/>
	<path id="XMLID_186_" class="st5" d="M-142.9,83.2c2.8-1.4,5.6-2.8,8.3-4.2c0.2-0.1,0.4-0.2,0.7-0.2c0,0.1,0,0.1,0,0.2
		c0,1.4,0,2.9,0,4.3c-0.1,0.2-0.3,0.4-0.5,0.5c-2.6,1.3-5.1,2.6-7.7,3.8c-0.3,0.2-0.7,0.4-1-0.2c-0.1-1.2,0-2.4-0.1-3.6
		C-143.1,83.6-143,83.3-142.9,83.2z"/>
	<path id="XMLID_185_" class="st10" d="M-179.4,9.8c-2.7-1.4-5.3-2.7-8-4.1c-0.3-0.2-0.6-0.3-0.9-0.5c-1-0.8-1.8-1.8-2.7-2.6
		c0.8,0.8,1.7,1.6,2.5,2.6c-2.9,1.5-5.8,3-8.9,4.6c0-0.5,0-0.8,0-1.1c0-14.2,0-28.5,0-42.7c0-0.6,0-1.2,0-1.8
		c2.3,0.9,4.5,2.1,6.6,3.3c3.1,1.6,6.2,3.1,9.4,4.7c3.7,1.9,7.3,3.7,11,5.6c0.3,0.3,0.3,0.6,0.3,1c-0.1,5.4,0.3,10.8,0.2,16.2
		c-0.1,2.6,0,5.3,0,7.9c-0.1,3.5-0.2,6.9-0.2,10.4c0,0.2,0,0.5-0.1,0.7c-0.2,0.6-0.6,0.4-1,0.2c-2.2-1.1-4.3-2.1-6.5-3.2
		c-0.5-0.3-1-0.6-1.5-0.8C-179.2,10.1-179.3,10-179.4,9.8z"/>
	<path id="XMLID_184_" class="st1" d="M-170.3,14.4c0-0.1,0-0.1,0-0.2c0.1-8.8,0.3-17.6,0.1-26.4c-0.1-3.3,0-6.7-0.1-10
		c0.1,0,0.1,0,0.2,0c0.3,0.3,0.3,0.6,0.3,1c0,1.1,0,2.3,0,3.4c0,1.2,0,2.4,0,3.5c0,0.6,0.2,0.7,0.7,0.5c1.1-0.6,2.2-1.1,3.2-1.6
		c0.1-0.1,0.2-0.1,0.4-0.2c1.2-0.6,2.3-1.2,3.5-1.7c0.3-0.1,0.6-0.4,1-0.2l0,0c0.3,0.3,0.3,0.6,0.3,1c0,5.7,0,11.4,0,17.2
		c0,1.6,0,3.2,0,4.8c0,1.4,0.1,2.8-0.1,4.3c0,0.1-0.1,0.3-0.2,0.4c-0.1,0.1-0.2,0.2-0.3,0.3c-2.7,1.4-5.5,2.8-8.2,4.1
		c-0.2,0.1-0.3,0.1-0.5,0.1C-170.2,14.5-170.2,14.4-170.3,14.4z"/>
	<path id="XMLID_183_" class="st11" d="M-170.1-17.6c0-1.5,0-3,0-4.5c1.5-0.8,3-1.5,4.6-2.3c0.3,0.3,0.3,0.7,0.3,1.1
		c0,1.1,0,2.2,0,3.3c0.1,1.2,0,2.4,0,3.6c0,0.4,0,0.7-0.3,1c-0.1,0-0.1,0.1-0.2,0.1c-0.4-0.4-0.2-1-0.3-1.5c0-0.7,0-1.4,0-2
		c0-0.5-0.1-0.6-0.6-0.4c-0.9,0.5-1.7,0.9-2.6,1.3C-169.4-17.7-169.7-17.4-170.1-17.6z"/>
	<path id="XMLID_182_" class="st12" d="M-165.5-20c0-1.5,0-2.9,0-4.4c1.4-0.7,2.9-1.5,4.3-2.2c0.4,0.6,0.1,1.3,0.2,1.9
		c0,0.8,0,1.7,0,2.5c-1.2,0.9-2.7,1.6-4.1,2.2C-165.3-19.9-165.4-20-165.5-20z"/>
	<path id="XMLID_181_" class="st9" d="M-161.1,0.6c0-6.1,0-12.1,0-18.2c8.8-4.4,17.5-8.8,26.3-13.2c1-0.5,1-0.5,1,0.6
		c0,5.7,0,11.5,0,17.2c-0.2,0.4-0.6,0.5-1,0.7c-2.7,1.3-5.3,2.7-8,4c-1.5,0.6-2.9,1.6-4.4,2.2c-4.3,2.2-8.7,4.3-13,6.5
		C-160.4,0.6-160.7,0.9-161.1,0.6z"/>
	<path id="XMLID_180_" class="st4" d="M-161.2,10c0.1-0.1,0.1-0.1,0.2-0.2c0.1-0.3,0.4-0.4,0.6-0.6c1-0.5,2-1,3-1.5
		c0.3-0.2,0.7-0.4,1,0.1c0.2,2.4,0,4.8,0.1,7.2c0,0.3-0.1,0.7,0.1,1c0.4,0.2,0.6-0.1,0.9-0.2c5.3-2.6,10.5-5.3,15.8-7.9
		c0.7-0.3,0.9-0.8,0.9-1.5c-0.1-2.6,0-5.3-0.1-7.9c0-0.1,0-0.2,0.1-0.3c1.4-0.8,3-1.4,4.4-2.3c0.1,0,0.2,0,0.2,0.1
		c0,0.1,0.1,0.1,0.1,0.2c0,3,0,6,0,9c0.2,0.3,0.3,0.6,0.3,0.9c0,1,0,1.9,0,2.9c0,0.4,0,0.8-0.4,1c-8.6,4.4-17.3,8.7-25.9,13.1
		c-0.4,0.2-0.7,0.4-1.1,0.6c0,0-0.1-0.1-0.1-0.1c-0.2-0.4-0.2-0.7-0.2-1.1c0-3.8,0-7.6,0-11.4C-161.4,10.6-161.3,10.3-161.2,10z"/>
	<path id="XMLID_179_" class="st10" d="M-134-4c-0.1,0-0.1,0-0.2,0c-0.4,0.1-0.6-0.1-0.9-0.2c-2.3-1.2-4.6-2.3-6.9-3.5
		c-0.4-0.2-0.8-0.3-0.9-0.8c3-1.5,6-3,9-4.6c0,2.7,0,5.4,0,8.1C-133.9-4.6-133.8-4.2-134-4z"/>
	<path id="XMLID_178_" class="st11" d="M-165.5-20c1.5-0.7,2.9-1.4,4.4-2.2c0,1.5,0,3.1,0,4.6c-1.5,0.7-2.9,1.4-4.4,2.1
		C-165.5-17-165.5-18.5-165.5-20z"/>
	<path id="XMLID_177_" class="st13" d="M-179.2,87.9c0.4-0.1,0.6,0.1,0.9,0.3c2.5,1.2,4.9,2.5,7.4,3.7c0.6,0.3,0.8,0.3,0.8-0.5
		c0-1.2-0.1-2.3,0.1-3.5c0.2-0.1,0.3-0.1,0.5,0c1.3,0.6,2.5,1.2,3.8,1.9c0.1,0.1,0.2,0.2,0.3,0.3c0.2,1.1,0.1,2.2,0.1,3.3
		c0,0.7,0.2,1.1,0.8,1.4c0.9,0.4,1.8,1,2.7,1.4c0.4,0.2,0.7,0.4,0.8,0.8c0.1,1.1,0,2.2,0,3.3c0,0.3,0.1,0.7-0.5,0.8
		c-4-2-8.1-4-12.1-6.1c-1.7-0.8-3.4-1.7-5-2.5c-0.5-0.2-0.6-0.5-0.6-1C-179.2,90.4-179.2,89.2-179.2,87.9z"/>
	<path id="XMLID_176_" class="st14" d="M-147.5,80.9c0,0.1,0,0.1,0,0.2c0.4,0.9,0.3,1.8,0.2,2.7c-0.1,1.2,0.4,1.9,1.5,2.3
		c1,0.4,2,0.8,2.8,1.6c0.1,0.1,0.1,0.2,0.1,0.3c0.1,1.2,0,2.3,0,3.5c0,0.3,0,0.6-0.2,0.8c-2.7-1.3-5.4-2.7-8.1-4
		c-0.2-0.1-0.5-0.2-0.7-0.3c-0.2,0-0.3,0-0.5-0.1c-1.4-0.7-2.8-1.4-4.2-2.1c-1.3-0.5-2.6-1.2-3.8-1.8c-0.4-0.2-0.7-0.4-0.9-0.8
		c-0.1-1.3-0.1-2.7,0-4c0.4-0.7,0.8-0.2,1.2,0c2.3,1.1,4.6,2.3,6.9,3.4c0.3,0.1,0.5,0.4,0.9,0.3c0.2-1,0.1-2,0.1-3
		c0-1.1,0.3-1.2,1.2-0.7C-149.7,79.6-148.5,80-147.5,80.9z"/>
	<path id="XMLID_175_" class="st5" d="M-152.2,87.6c0.2,0,0.3,0.1,0.4,0.3c-0.4,0.7-0.1,1.4-0.2,2.1c0,0.8,0,1.6,0,2.3
		c-0.1,0.2-0.3,0.4-0.5,0.5c-2.8,1.4-5.6,2.9-8.5,4.2c-0.1,0-0.2,0-0.2-0.1c-1.1-0.6-2.1-1.2-3.2-1.6c-1-0.4-1.3-1-1.2-2.1
		c0.1-1,0.1-2.1-0.1-3.2c0.1,0,0.2-0.1,0.2-0.1c1.3,0.5,2.4,1.2,3.6,1.8c0.6,0.3,1,0.3,1.6,0C-157.6,90.3-154.9,88.9-152.2,87.6z"/>
	<path id="XMLID_174_" class="st15" d="M-142.8,87.6c2.6-1.3,5.1-2.6,7.7-3.8c0.4-0.2,0.8-0.4,1.3-0.6c0,1.3,0,2.7,0,4
		c0,0.4-0.1,0.6-0.5,0.7c-2.8,1.4-5.6,2.8-8.4,4.2c-0.4-0.1-0.2-0.4-0.2-0.6c0-1.2,0-2.4,0-3.7C-143,87.8-142.9,87.7-142.8,87.6z"/>
	<path id="XMLID_173_" class="st16" d="M-161.1,96.9c3-1.5,6-3,9-4.5c0,1.4,0,2.7,0.1,4.1c0,0.3-0.1,0.5-0.4,0.7
		c-2.8,1.4-5.7,2.8-8.5,4.3c0,0-0.1,0-0.2,0C-161.2,99.9-161.2,98.4-161.1,96.9z"/>
	<path id="XMLID_172_" class="st17" d="M-142.9,87.7c0,1.2,0,2.4,0,3.6c0,0.3-0.1,0.6,0.2,0.8c-0.1,0.1-0.2,0.2-0.4,0
		c0-1.5,0-3,0-4.4C-143,87.7-142.9,87.7-142.9,87.7z"/>
	<path id="XMLID_171_" class="st18" d="M-161.1,96.9c0,1.5,0,3,0,4.5c-0.2,0-0.3,0-0.4-0.1c0.3-0.2,0.2-0.6,0.2-0.9
		c0-1.1,0-2.3,0-3.4C-161.2,96.9-161.1,96.9-161.1,96.9z"/>
	<path id="XMLID_170_" class="st4" d="M-133.8,23.6c0,1.5,0,3.1,0,4.6c-0.2,0.1-0.4,0.3-0.7,0.4c-8.8,4.4-17.6,8.8-26.4,13.2
		c-0.1,0-0.2,0-0.3-0.1c-0.1-0.2-0.2-0.5-0.2-0.8c0-2.4,0-4.9,0-7.3c0-0.2,0-0.4,0.1-0.6c0-0.1,0.1-0.2,0.2-0.3
		c8.7-4.4,17.4-8.7,26.1-13.1c1.1-0.6,1.1-0.7,1.1,0.7C-133.9,21.4-133.8,22.5-133.8,23.6z"/>
	<path id="XMLID_169_" class="st6" d="M-161.1,23.6c0,3,0,6.1,0,9.1c0,0,0,0-0.1,0.1c-0.5,0.1-0.8-0.2-1.1-0.4
		c-5.2-2.6-10.3-5.1-15.4-7.8c-0.2-0.1-0.4-0.2-0.6-0.3c-0.4-0.2-0.6-0.1-0.6,0.4c0,0.9,0,1.7,0,2.6c0,0.3,0,0.5-0.2,0.8
		c-0.2,0.2-0.3,0-0.4-0.1c-0.2-0.7-0.1-1.5-0.1-2.2c0-2.1,0-4.3,0-6.4c0-0.2,0-0.3,0.1-0.4c1.6-0.8,3-1.8,4.7-2.3
		c0.3,0.1,0.6,0.2,0.9,0.4c3.9,2,7.8,3.9,11.7,5.9C-161.7,23-161.3,23.2-161.1,23.6C-161.1,23.6-161.1,23.6-161.1,23.6z"/>
	<path id="XMLID_168_" class="st6" d="M-134,10c0.4-1,0.1-2,0.2-2.9c0-0.6,0-1.2,0-1.8c2.6-1.1,5-2.4,7.5-3.7
		c0.5-0.2,0.9-0.6,1.5-0.7c0,2.8,0,5.6,0,8.5c0,0.5-0.2,0.7-0.6,0.9c-2.6,1.3-5.2,2.6-7.7,3.9c-0.6,0.3-0.7,0.1-0.7-0.5
		c0-0.9,0-1.9,0-2.8C-133.9,10.5-133.8,10.2-134,10z"/>
	<path id="XMLID_167_" class="st19" d="M-152.1,83.1c-2.7-1.4-5.4-2.7-8.2-4.1c-0.3-0.1-0.5-0.3-0.8-0.3c-0.3-0.3-0.3-0.8-0.3-1.2
		c0-2.3,0-4.7,0-7c0-0.4,0-0.8,0.3-1.2c0,0,0,0,0,0c2.7-1.4,5.4-2.7,8.1-4.1c0.3-0.1,0.6-0.3,0.9-0.4c0,4.6,0,9.1,0,13.7
		C-152,80.1-151.9,81.6-152.1,83.1z"/>
	<path id="XMLID_166_" class="st6" d="M-161.1,41.8c0.1,0,0.1,0,0.2,0c-0.2,0.3-0.2,0.5-0.2,0.8c0,2.8,0,5.6,0,8.3
		c-0.1,0-0.1,0-0.2,0c-0.5,0.2-0.8-0.1-1.1-0.3c-5.1-2.5-10.1-5-15.1-7.6c-0.1-0.1-0.3-0.1-0.4-0.2c-0.9-0.4-0.9-0.4-0.9,0.6
		c0,2.2,0,4.3,0,6.5c0,0.4,0.1,0.8-0.2,1.2c0,0-0.1,0-0.1,0c0-1.5-0.1-3-0.1-4.6c-0.2-0.3-0.2-0.6-0.2-0.9c0-2.7,0-5.5,0-8.2
		c0.1-1.5-0.2-3,0.2-4.4c0.3-0.4,0.7-0.2,1,0c4.5,2.3,9,4.4,13.4,6.8C-163.7,40.5-162.3,41-161.1,41.8z"/>
	<path id="XMLID_165_" class="st20" d="M-179.1,51.2c0-2.7,0-5.5,0-8.2c0-0.8,0.2-0.8,0.8-0.5c5.7,2.9,11.4,5.7,17,8.5
		c0.1,0.2,0.2,0.5,0.2,0.8c0,2.8,0,5.6,0,8.4c-0.3,0-0.6-0.2-0.8-0.3C-167.6,57-173.4,54.1-179.1,51.2z"/>
	<path id="XMLID_164_" class="st9" d="M-161.1,69.4c0,3.1,0,6.2,0,9.4c0,1.5,0,3,0,4.4c-0.1,0.3-0.4,0.4-0.6,0.6
		c-2.5,1.2-4.9,2.5-7.4,3.7c-0.3,0.1-0.5,0.3-0.8,0.2c-0.6-0.1-0.3-0.6-0.3-1c0-7.2,0-14.5,0-21.7c1.7,0.7,3.3,1.6,5,2.4
		C-163.9,68-162.5,68.8-161.1,69.4z"/>
	<path id="XMLID_163_" class="st16" d="M-169.9,87.6c2.9-1.5,5.9-3,8.8-4.4c1.5,0.9,3,1.6,4.6,2.3c-0.7,0.8-1.6,1-2.5,1.5
		c-1.9,1.1-3.9,2-5.8,2.9c-0.2,0.1-0.5,0.2-0.8,0.2c-0.1,0-0.1,0-0.2,0c-1.4-0.7-2.9-1.4-4.3-2.1C-170,87.8-170,87.7-169.9,87.6z"/>
	<path id="XMLID_162_" class="st15" d="M-152.1,83.1c0-1.5,0-3,0.1-4.5c3.1-1.5,6.1-3.1,9.2-4.6c1.4,0.7,2.8,1.4,4.2,2.1
		c0.1,0.5-0.4,0.5-0.6,0.6c-2.7,1.4-5.5,2.8-8.2,4.2c-1.4-0.7-2.8-1.3-4.4-2.1c0,1.2,0,2.3,0,3.5C-151.9,82.5-151.7,82.9-152.1,83.1
		z"/>
	<path id="XMLID_161_" class="st4" d="M-179.3,19c-0.1,0-0.1,0.1-0.2,0.1c-0.1,0.4-0.4,0.5-0.7,0.6c-2.4,1.2-4.9,2.5-7.3,3.6
		c-0.3,0.1-0.6,0.3-0.9,0.2c-0.1-0.1-0.1-0.2-0.1-0.3c-0.1-3-0.2-5.9,0-8.9c1.3-0.4,2.4-1.2,3.6-1.7c1.6-0.8,3.1-1.5,4.6-2.3
		c0.3-0.1,0.6-0.2,0.8-0.5c0.1,0.1,0.2,0.1,0.3,0.2c0.2,0.5,0.1,1,0.1,1.5c0,2.1,0,4.2,0,6.3C-179,18.2-179,18.6-179.3,19z"/>
	<path id="XMLID_160_" class="st20" d="M-188.5,14.4c0.2,0.2,0.2,0.5,0.2,0.8c0,2.8,0,5.6,0,8.4c-0.3,0.2-0.6,0-0.9-0.2
		c-2.5-1.2-4.9-2.5-7.4-3.7c-0.3-0.1-0.5-0.3-0.7-0.5c0,0,0,0,0,0c0-3,0-6,0-9.2C-194.3,11.5-191.4,13-188.5,14.4z"/>
	<path id="XMLID_159_" class="st21" d="M-188.4,5.2c-1-1.1-2-2.2-3-3.3c0,0,0,0,0,0c0.8,0.8,1.6,1.6,2.4,2.4
		c0.3,0.3,0.9,0.3,0.8,0.9C-188.3,5.2-188.4,5.2-188.4,5.2z"/>
	<path id="XMLID_158_" class="st3" d="M-179.3,37.4c0,3.1,0,6.1,0,9.2c-3,1.5-6,3-9,4.6c0-0.1,0-0.1,0-0.2c0-3.1,0-6.1,0-9.2
		c0,0,0-0.1,0.1-0.1c0.7-0.5,1.5-0.9,2.3-1.2c1.8-0.9,3.7-1.9,5.6-2.8C-180,37.5-179.7,37.2-179.3,37.4z"/>
	<path id="XMLID_157_" class="st6" d="M-197.3,19.2c2.6,1.3,5.1,2.5,7.7,3.8c0.4,0.2,0.8,0.4,1.3,0.6c0,0,0,0.1,0,0.1
		c0.2,0.2,0.2,0.4,0.2,0.6c0,2.7,0.1,5.5-0.1,8.2c-0.1,0.4-0.4,0.4-0.7,0.3c-2.8-1.4-5.8-2.7-8.5-4.3
		C-197.3,25.3-197.3,22.2-197.3,19.2z"/>
	<path id="XMLID_156_" class="st20" d="M-197.3,28.4c0.4-0.1,0.6,0.2,0.9,0.3c2.7,1.3,5.4,2.7,8.1,4c0,0,0.1,0.1,0.1,0.1
		c0.2,0.3,0.2,0.6,0.2,0.9c0,2.3,0,4.6,0,6.9c0,0.4,0,0.8-0.3,1.1c0,0,0,0,0,0c-0.6,0-1.1-0.5-1.6-0.7c-2.2-1.1-4.5-2.3-6.7-3.3
		c-0.5-0.3-0.7-0.6-0.7-1.1C-197.3,33.9-197.3,31.2-197.3,28.4z"/>
	<path id="XMLID_155_" class="st19" d="M-143.1,87.6c-1.3-0.7-2.7-1.3-4-2c-0.3-0.2-0.4-0.4-0.4-0.7c0-1.3,0-2.6,0-3.9
		c1.5,0.7,2.9,1.4,4.4,2.1C-142.9,84.7-142.9,86.1-143.1,87.6z"/>
	<path id="XMLID_154_" class="st22" d="M-143.1,87.6c0-1.5,0-3,0-4.5c0.1,0,0.1,0,0.2,0c0,1.5,0,3,0,4.5c0,0,0,0.1,0,0.1
		c0,0-0.1,0-0.1,0s-0.1,0-0.1,0C-143,87.7-143.1,87.7-143.1,87.6z"/>
	<path id="XMLID_153_" class="st3" d="M-179.3,19c0-2.7,0-5.4,0-8.1c0-0.3-0.1-0.7,0.1-0.9c2.9,1.5,5.9,3,8.8,4.4c0,0,0,0,0,0
		c0,0.1,0,0.2-0.1,0.3c-1.4,0.7-2.7,1.6-4.3,2C-176.2,17.5-177.7,18.3-179.3,19z"/>
	<path id="XMLID_152_" class="st23" d="M-156.5,16.7c-0.3-0.2-0.2-0.6-0.2-0.9c0-2.7,0-5.4,0-8.1c-1.5-0.7-3-1.3-4.4-2.3
		c0-1.6,0-3.2,0-4.8c1.1-0.5,2.2-1,3.3-1.6c3.5-1.8,7-3.5,10.5-5.3c2.6,1.3,5.1,2.6,7.7,3.9c0.4,0.2,0.8,0.3,0.9,0.7
		c0,0.1,0,0.1,0,0.2c-0.1,0.5-0.5,0.6-0.9,0.8c-4.4,2.2-8.8,4.4-13.3,6.6c-0.9,0.4-1.7,1-2.6,1.4c-0.6,0.3-0.8,0.7-0.8,1.4
		c0,2.3,0,4.5,0,6.8C-156.2,15.9-156.2,16.3-156.5,16.7z"/>
	<path id="XMLID_151_" class="st20" d="M-174.6,16.7c1.4-0.8,3-1.4,4.4-2.3c1.3-0.4,2.5-1.2,3.7-1.8c1.8-0.9,3.6-1.8,5.3-2.6
		c0.2,0.2,0.2,0.4,0.2,0.6c0,4.3,0,8.7,0,13C-165.6,21.3-170.2,19.1-174.6,16.7z"/>
	<path id="XMLID_150_" class="st24" d="M-170.1-17.6c1.4-0.7,2.9-1.4,4.4-2.2c0,1.6,0,3.1,0,4.5c-1.3,0.6-2.6,1.3-3.8,1.9
		c-0.5,0.3-0.7,0.2-0.6-0.4C-170.1-15.1-170.1-16.4-170.1-17.6z"/>
	<path id="XMLID_149_" class="st20" d="M-161.1,5.4c1.5,0.6,3,1.3,4.4,2.3c-1.5,0.7-2.9,1.4-4.4,2.2C-161,8.3-161.1,6.9-161.1,5.4z"
		/>
	<path id="XMLID_148_" class="st20" d="M-138.6-1.7c-2.6-1.3-5.3-2.7-7.9-4c-0.3-0.1-0.7-0.2-0.7-0.6c1.5-0.7,2.9-1.5,4.4-2.2
		c1,0.7,2.2,1.2,3.3,1.8c1.8,0.9,3.6,1.8,5.3,2.7c0,0.1,0,0.2-0.1,0.2C-135.7-3-137.1-2.1-138.6-1.7z"/>
	<path id="XMLID_147_" class="st25" d="M-155.1-17.5c0,0.2,0,0.3,0,0.4c0,2.8,0,2.7-2.5,3.8c-0.4,0.2-0.5,0.1-0.5-0.3
		c0-0.1,0-0.1,0-0.2C-158.1-16.3-158.1-16.3-155.1-17.5z"/>
	<path id="XMLID_146_" class="st26" d="M-139.9-22.3c0-0.2,0-0.3,0-0.4c0-2.7,0-2.6,2.4-3.7c0.5-0.2,0.6-0.1,0.6,0.4
		C-136.8-23.5-136.9-23.4-139.9-22.3z"/>
	<path id="XMLID_145_" class="st9" d="M-156.5,16.7c0-2.9,0-5.7,0-8.6c0-0.6,0.4-0.7,0.8-0.9c5.4-2.7,10.8-5.4,16.2-8.2
		c0.3-0.2,0.6-0.3,0.9-0.5c0.3,0.2,0.2,0.5,0.2,0.7c0,2.6,0,5.1,0,7.7c0,0.6-0.2,0.8-0.7,1.1C-144.9,10.9-150.7,13.8-156.5,16.7z"/>
	<path id="XMLID_144_" class="st27" d="M-165.5,90c3-1.5,6-3.1,9-4.6c1.4,0.7,2.8,1.5,4.3,2.2c0,0.3-0.3,0.4-0.5,0.5
		c-2.6,1.3-5.1,2.6-7.7,3.9c-0.5,0.2-0.8,0.3-1.3,0C-163,91.3-164.3,90.8-165.5,90z"/>
	<path id="XMLID_143_" class="st20" d="M-161.1,41.8c-1.5-0.4-2.8-1.2-4.1-1.9c-4.6-2.3-9.2-4.7-13.9-6.9c-0.3-0.1-0.4-0.3-0.4-0.5
		c0-1.4-0.2-2.7,0.1-4.1c0,0,0.1-0.1,0.1-0.1c0.3-1.1,0.1-2.3,0.1-3.5c0-1,0-1,0.9-0.6c5.5,2.8,11,5.6,16.5,8.4
		c0.2,0.1,0.4,0.2,0.5,0.3C-161.1,35.8-161.1,38.8-161.1,41.8z"/>
	<path id="XMLID_142_" class="st3" d="M-188.3,32.8c0-3.1,0-6.1,0-9.2c2.9-1.5,5.9-3,8.8-4.5c0.3,0.3,0.2,0.7,0.2,1
		c0,2.7,0,5.4,0,8.1c0,0,0,0,0,0c-0.2,0.3-0.4,0.4-0.7,0.6c-2.5,1.2-4.9,2.6-7.4,3.8C-187.6,32.7-187.9,32.9-188.3,32.8L-188.3,32.8
		z"/>
	<path id="XMLID_141_" class="st4" d="M-188.3,32.8c3-1.5,6-3,9-4.6c0,1.3,0,2.6,0,3.8c0,0.3,0,0.6,0.2,0.9
		c-0.4,0.5-0.2,1.1-0.2,1.6c0,1,0,1.9,0,2.9c-2.7,1.3-5.4,2.7-8.1,4c-0.3,0.1-0.6,0.2-0.9,0.4C-188.3,38.8-188.3,35.8-188.3,32.8z"
		/>
</g>
<g id="XMLID_2_">
	<path id="XMLID_3_" class="st28" d="M60.5,176c0.2,0,0.3,0.1,0.4,0.2c0.1,0.1,0.2,0.3,0.2,0.4c0,0.2-0.1,0.3-0.2,0.4
		s-0.3,0.2-0.4,0.2h-3v8.4c0,0.2-0.1,0.3-0.2,0.4c-0.1,0.1-0.3,0.2-0.4,0.2c-0.2,0-0.3-0.1-0.4-0.2c-0.1-0.1-0.2-0.3-0.2-0.4v-8.4
		h-3c-0.2,0-0.3-0.1-0.4-0.2c-0.1-0.1-0.2-0.3-0.2-0.4c0-0.2,0.1-0.3,0.2-0.4c0.1-0.1,0.3-0.2,0.4-0.2H60.5z"/>
	<path id="XMLID_5_" class="st28" d="M69.1,185c0.2,0,0.3,0.1,0.4,0.2c0.1,0.1,0.2,0.3,0.2,0.4c0,0.2-0.1,0.3-0.2,0.4
		c-0.1,0.1-0.3,0.2-0.4,0.2h-6c-0.2,0-0.3-0.1-0.4-0.2s-0.2-0.3-0.2-0.4v-9c0-0.2,0.1-0.3,0.2-0.4s0.3-0.2,0.4-0.2h6
		c0.2,0,0.3,0.1,0.4,0.2c0.1,0.1,0.2,0.3,0.2,0.4c0,0.2-0.1,0.3-0.2,0.4c-0.1,0.1-0.3,0.2-0.4,0.2h-5.4v3.3h3.6
		c0.2,0,0.3,0.1,0.4,0.2c0.1,0.1,0.2,0.3,0.2,0.4s-0.1,0.3-0.2,0.4c-0.1,0.1-0.3,0.2-0.4,0.2h-3.6v3.3H69.1z"/>
	<path id="XMLID_7_" class="st28" d="M76.4,186.3c-0.7,0-1.4-0.1-2-0.4c-0.6-0.3-1.2-0.6-1.7-1.1c-0.5-0.5-0.8-1-1.1-1.7
		c-0.3-0.6-0.4-1.3-0.4-2c0-0.7,0.1-1.4,0.4-2c0.3-0.6,0.6-1.2,1.1-1.7c0.5-0.5,1-0.8,1.7-1.1s1.3-0.4,2-0.4c0.9,0,1.8,0.2,2.6,0.7
		c0.2,0.1,0.3,0.2,0.3,0.4s0,0.3-0.1,0.5c-0.1,0.2-0.2,0.3-0.4,0.3c-0.2,0-0.3,0-0.5-0.1c-0.3-0.2-0.6-0.3-0.9-0.4
		c-0.3-0.1-0.7-0.1-1-0.1c-0.6,0-1.1,0.1-1.5,0.3c-0.5,0.2-0.9,0.5-1.3,0.8c-0.4,0.4-0.6,0.8-0.8,1.3c-0.2,0.5-0.3,1-0.3,1.5
		c0,0.6,0.1,1.1,0.3,1.5c0.2,0.5,0.5,0.9,0.8,1.3c0.4,0.4,0.8,0.6,1.3,0.9c0.5,0.2,1,0.3,1.5,0.3c0.4,0,0.8-0.1,1.1-0.2
		s0.7-0.3,1-0.5c0.1-0.1,0.3-0.1,0.5-0.1s0.3,0.1,0.4,0.3c0.1,0.1,0.1,0.3,0.1,0.5c0,0.2-0.1,0.3-0.3,0.4
		C78.4,186,77.5,186.3,76.4,186.3z"/>
	<path id="XMLID_9_" class="st28" d="M81.6,175.9c0.2,0,0.3,0.1,0.4,0.2c0.1,0.1,0.2,0.3,0.2,0.4v9.1c0,0.2-0.1,0.3-0.2,0.4
		s-0.3,0.2-0.4,0.2c-0.2,0-0.3-0.1-0.4-0.2s-0.2-0.3-0.2-0.4v-9.1c0-0.2,0.1-0.3,0.2-0.4C81.2,176,81.4,175.9,81.6,175.9z M88,175.9
		c0.2,0,0.3,0.1,0.4,0.2c0.1,0.1,0.2,0.3,0.2,0.4v9.1c0,0.2-0.1,0.3-0.2,0.4s-0.3,0.2-0.4,0.2c-0.2,0-0.3-0.1-0.4-0.2
		s-0.2-0.3-0.2-0.4v-3.9h-4c-0.2,0-0.3-0.1-0.4-0.2c-0.1-0.1-0.2-0.3-0.2-0.4c0-0.2,0.1-0.3,0.2-0.4c0.1-0.1,0.3-0.2,0.4-0.2h4v-3.9
		c0-0.2,0.1-0.3,0.2-0.4C87.7,176,87.8,175.9,88,175.9z"/>
	<path id="XMLID_12_" class="st28" d="M105.2,186.3c-0.2,0-0.4-0.1-0.5-0.2l-5.8-7.7v7.3c0,0.2-0.1,0.3-0.2,0.4
		c-0.1,0.1-0.3,0.2-0.4,0.2c-0.2,0-0.3-0.1-0.4-0.2c-0.1-0.1-0.2-0.3-0.2-0.4v-9.1c0-0.1,0-0.2,0.1-0.3s0.2-0.2,0.3-0.2
		c0.1,0,0.2-0.1,0.4,0c0.1,0,0.2,0.1,0.3,0.2l5.8,7.7v-7.3c0-0.2,0.1-0.3,0.2-0.4c0.1-0.1,0.3-0.2,0.4-0.2s0.3,0.1,0.4,0.2
		s0.2,0.3,0.2,0.4v9.1c0,0.1,0,0.2-0.1,0.4s-0.2,0.2-0.3,0.2C105.3,186.3,105.3,186.3,105.2,186.3z"/>
	<path id="XMLID_14_" class="st28" d="M117.2,185.4c0.1,0.2,0.1,0.3,0,0.5c-0.1,0.2-0.2,0.3-0.3,0.3c-0.2,0.1-0.3,0.1-0.5,0
		c-0.2-0.1-0.3-0.2-0.3-0.3l-1.1-2.4h-2.8c-0.2,0-0.3-0.1-0.4-0.2c-0.1-0.1-0.2-0.3-0.2-0.4c0-0.2,0.1-0.3,0.2-0.4
		c0.1-0.1,0.3-0.2,0.4-0.2h2.2l-2-4.2l-3.5,7.8c-0.1,0.1-0.1,0.2-0.2,0.3s-0.2,0.1-0.3,0.1c-0.1,0-0.2,0-0.3,0
		c-0.2-0.1-0.3-0.2-0.3-0.3c-0.1-0.2-0.1-0.3,0-0.5l4-9c0-0.1,0.1-0.2,0.2-0.3c0.1-0.1,0.2-0.1,0.3-0.1c0.1,0,0.2,0,0.3,0.1
		c0.1,0.1,0.2,0.1,0.2,0.3L117.2,185.4z"/>
	<path id="XMLID_17_" class="st28" d="M123.8,176c0.2,0,0.3,0.1,0.4,0.2c0.1,0.1,0.2,0.3,0.2,0.4c0,0.2-0.1,0.3-0.2,0.4
		c-0.1,0.1-0.3,0.2-0.4,0.2h-3v8.4c0,0.2-0.1,0.3-0.2,0.4c-0.1,0.1-0.3,0.2-0.4,0.2c-0.2,0-0.3-0.1-0.4-0.2
		c-0.1-0.1-0.2-0.3-0.2-0.4v-8.4h-3c-0.2,0-0.3-0.1-0.4-0.2c-0.1-0.1-0.2-0.3-0.2-0.4c0-0.2,0.1-0.3,0.2-0.4
		c0.1-0.1,0.3-0.2,0.4-0.2H123.8z"/>
	<path id="XMLID_19_" class="st28" d="M126.9,186.3c-0.2,0-0.3-0.1-0.4-0.2s-0.2-0.3-0.2-0.4v-9.1c0-0.2,0.1-0.3,0.2-0.4
		c0.1-0.1,0.3-0.2,0.4-0.2c0.2,0,0.3,0.1,0.4,0.2c0.1,0.1,0.2,0.3,0.2,0.4v9.1c0,0.2-0.1,0.3-0.2,0.4
		C127.2,186.2,127.1,186.3,126.9,186.3z"/>
	<path id="XMLID_21_" class="st28" d="M133.9,186.3c-0.1,0-0.2,0-0.3-0.1c-0.1-0.1-0.2-0.2-0.2-0.3l-3.7-9.3c-0.1-0.2-0.1-0.3,0-0.5
		c0.1-0.1,0.2-0.3,0.3-0.3c0.2-0.1,0.3-0.1,0.5,0s0.3,0.2,0.3,0.3l3.1,7.8l3.1-7.8c0.1-0.2,0.2-0.3,0.3-0.3c0.1-0.1,0.3-0.1,0.5,0
		c0.2,0.1,0.3,0.2,0.3,0.3c0.1,0.1,0.1,0.3,0,0.5l-3.7,9.3C134.3,186.2,134.1,186.3,133.9,186.3z"/>
	<path id="XMLID_23_" class="st28" d="M146.2,185c0.2,0,0.3,0.1,0.4,0.2c0.1,0.1,0.2,0.3,0.2,0.4c0,0.2-0.1,0.3-0.2,0.4
		c-0.1,0.1-0.3,0.2-0.4,0.2h-6c-0.2,0-0.3-0.1-0.4-0.2s-0.2-0.3-0.2-0.4v-9c0-0.2,0.1-0.3,0.2-0.4s0.3-0.2,0.4-0.2h6
		c0.2,0,0.3,0.1,0.4,0.2c0.1,0.1,0.2,0.3,0.2,0.4c0,0.2-0.1,0.3-0.2,0.4c-0.1,0.1-0.3,0.2-0.4,0.2h-5.4v3.3h3.6
		c0.2,0,0.3,0.1,0.4,0.2s0.2,0.3,0.2,0.4s-0.1,0.3-0.2,0.4s-0.3,0.2-0.4,0.2h-3.6v3.3H146.2z"/>
</g>
<g id="XMLID_25_">
	<polygon id="XMLID_131_" class="st29" points="97.6,123.3 105.9,131.7 105.9,144.3 97.6,148.5 	"/>
	<polygon id="XMLID_130_" class="st30" points="97.6,123.3 89.3,119.1 89.3,148.5 97.6,152.7 	"/>
	<polygon id="XMLID_129_" class="st30" points="105.9,152.7 89.3,144.3 89.3,148.5 105.9,156.9 	"/>
	<polygon id="XMLID_128_" points="105.9,156.9 89.3,148.5 89.3,152.7 105.9,161.1 	"/>
	<polygon id="XMLID_127_" points="101.8,159 97.6,156.9 97.6,148.5 101.8,150.6 	"/>
	<polygon id="XMLID_126_" class="st29" points="105.9,152.7 114.2,148.5 105.9,144.3 97.6,148.5 	"/>
	<polygon id="XMLID_125_" class="st31" points="97.6,148.5 105.9,144.3 110.1,146.4 101.8,150.6 	"/>
	<polygon id="XMLID_124_" class="st30" points="114.2,148.5 105.9,152.7 105.9,161.1 114.2,156.9 	"/>
	<polygon id="XMLID_123_" class="st31" points="114.2,152.7 105.9,156.9 105.9,161.1 114.2,156.9 	"/>
	<polygon id="XMLID_122_" class="st29" points="81,131.7 89.3,140.1 89.3,152.7 81,156.9 	"/>
	<polygon id="XMLID_121_" class="st30" points="81,131.7 72.6,127.5 72.6,156.9 81,161.1 	"/>
	<polygon id="XMLID_120_" class="st30" points="89.3,161.1 72.6,152.7 72.6,156.9 89.3,165.3 	"/>
	<polygon id="XMLID_119_" points="89.3,165.3 72.6,156.9 72.6,161.1 89.3,169.5 	"/>
	<polygon id="XMLID_118_" points="85.1,167.4 80.9,165.3 80.9,156.9 85.1,159 	"/>
	<polygon id="XMLID_117_" class="st29" points="89.3,161.1 97.6,156.9 89.3,152.7 81,156.9 	"/>
	<polygon id="XMLID_116_" class="st31" points="80.9,156.9 89.3,152.7 93.4,154.8 85.1,159 	"/>
	<polygon id="XMLID_115_" class="st30" points="97.6,156.9 89.3,161.1 89.3,169.5 97.6,165.3 	"/>
	<polygon id="XMLID_114_" class="st31" points="97.6,161.1 89.3,165.3 89.3,169.5 97.6,165.3 	"/>
	<polygon id="XMLID_113_" class="st32" points="122.6,93.9 122.6,77.1 114.3,77.1 114.3,98.1 	"/>
	<polygon id="XMLID_112_" class="st33" points="89.3,85.5 89.3,140.1 64.3,127.5 64.3,72.9 	"/>
	<polygon id="XMLID_111_" class="st32" points="89.3,106.5 64.3,93.9 64.3,85.5 89.3,98.1 	"/>
	<polygon id="XMLID_110_" class="st32" points="89.3,140.1 64.3,127.6 64.3,119.2 89.3,131.7 	"/>
	<polygon id="XMLID_109_" class="st32" points="89.3,123.3 64.3,110.8 64.3,102.3 89.3,114.9 	"/>
	<polygon id="XMLID_108_" class="st34" points="64.3,89.7 72.6,85.5 72.6,119.1 64.3,123.3 	"/>
	<polygon id="XMLID_107_" class="st34" points="64.3,89.7 72.6,85.5 72.6,119.1 64.3,123.3 	"/>
	<polygon id="XMLID_106_" class="st33" points="64.3,89.7 56,85.5 56,119.1 64.3,123.3 	"/>
	<polygon id="XMLID_105_" class="st33" points="64.3,89.7 56,85.5 56,119.1 64.3,123.3 	"/>
	<polygon id="XMLID_104_" class="st33" points="64.3,89.7 56,85.5 56,119.1 64.3,123.3 	"/>
	<polygon id="XMLID_103_" class="st34" points="89.3,85.5 89.3,140.1 114.2,127.6 114.2,72.9 	"/>
	<polyline id="XMLID_102_" class="st33" points="114.2,72.9 89.3,60.3 64.3,72.9 89.3,85.5 	"/>
	<polyline id="XMLID_101_" class="st35" points="110.1,75 89.3,64.5 72.6,72.9 93.4,83.4 	"/>
	<polygon id="XMLID_100_" class="st29" points="89.3,39.9 114.2,27.3 114.2,64.5 89.3,77.1 	"/>
	<polygon id="XMLID_99_" class="st29" points="64.3,123.3 72.6,119.1 72.6,127.5 64.3,131.7 	"/>
	<polygon id="XMLID_98_" class="st29" points="64.3,123.3 72.6,119.1 72.6,127.5 64.3,131.7 	"/>
	<polygon id="XMLID_97_" class="st29" points="64.3,123.3 72.6,119.1 72.6,127.5 64.3,131.7 	"/>
	<polygon id="XMLID_96_" class="st29" points="64.3,123.3 72.6,119.1 72.6,127.5 64.3,131.7 	"/>
	<polygon id="XMLID_95_" class="st36" points="64.3,123.3 56,119.1 56,127.5 64.3,131.7 	"/>
	<polygon id="XMLID_94_" class="st36" points="64.3,123.3 56,119.1 56,127.5 64.3,131.7 	"/>
	<polygon id="XMLID_93_" class="st36" points="64.3,123.3 56,119.1 56,127.5 64.3,131.7 	"/>
	<polygon id="XMLID_92_" class="st36" points="64.3,123.3 56,119.1 56,127.5 64.3,131.7 	"/>
	<polygon id="XMLID_91_" class="st30" points="64.3,123.3 56,119.1 56,127.5 64.3,131.7 	"/>
	<polygon id="XMLID_90_" class="st29" points="101.8,87.6 97.6,81.3 105.9,77.1 	"/>
	<polygon id="XMLID_89_" class="st29" points="93.4,91.8 110.1,83.4 110.1,75 93.4,83.4 	"/>
	<polygon id="XMLID_88_" class="st37" points="89.3,123.3 114.2,110.8 114.2,102.3 89.3,114.9 	"/>
	<polygon id="XMLID_87_" class="st37" points="89.3,140.1 114.2,127.6 114.2,119.2 89.3,131.7 	"/>
	<polygon id="XMLID_86_" class="st37" points="89.3,106.5 114.2,93.9 114.2,85.5 89.3,98.1 	"/>
	<polygon id="XMLID_85_" class="st37" points="72.6,93.9 80.9,89.7 80.9,81.3 72.6,85.5 	"/>
	<polygon id="XMLID_84_" class="st37" points="64.3,106.5 72.6,102.3 72.6,93.9 64.3,98.1 	"/>
	<polygon id="XMLID_83_" class="st37" points="64.3,123.3 72.6,119.1 72.6,110.7 64.3,114.9 	"/>
	<polygon id="XMLID_82_" class="st37" points="64.3,123.3 72.6,119.1 72.6,110.7 64.3,114.9 	"/>
	<polygon id="XMLID_81_" class="st37" points="64.3,123.3 72.6,119.1 72.6,110.7 64.3,114.9 	"/>
	<polygon id="XMLID_80_" class="st37" points="122.6,77.1 114.3,81.3 114.3,72.9 122.6,68.7 	"/>
	<polygon id="XMLID_79_" class="st37" points="122.6,93.9 114.3,98.1 114.3,89.7 122.6,85.5 	"/>
	<polygon id="XMLID_78_" class="st38" points="89.3,39.9 114.2,27.3 114.2,35.7 89.3,48.3 	"/>
	<polygon id="XMLID_77_" class="st39" points="85.1,46.2 89.3,44.1 89.3,39.9 85.1,42 	"/>
	<polygon id="XMLID_76_" class="st40" points="81,48.3 85.1,46.2 85.1,42 81,44.1 	"/>
	<polygon id="XMLID_75_" class="st40" points="85.1,50.4 89.3,48.3 89.3,44.1 85.1,46.2 	"/>
	<polygon id="XMLID_74_" class="st39" points="81,52.5 85.1,50.4 85.1,46.2 81,48.3 	"/>
	<polygon id="XMLID_73_" class="st41" points="64.3,81.3 81,89.7 81,44.1 56,31.4 	"/>
	<polygon id="XMLID_72_" class="st42" points="97.6,10.5 122.6,23.1 81,44.1 56,31.4 	"/>
	<polygon id="XMLID_71_" class="st38" points="81,89.7 89.3,85.5 89.3,48.3 81,52.5 	"/>
	<polygon id="XMLID_70_" class="st41" points="56,85.5 65.6,80.6 56,72.9 	"/>
	<polygon id="XMLID_69_" class="st38" points="122.6,23.1 122.6,68.7 114.3,72.9 114.3,27.3 	"/>
	<polygon id="XMLID_68_" class="st41" points="114.2,64.5 114.2,72.9 105.9,68.7 	"/>
	<polygon id="XMLID_67_" class="st37" points="64.3,89.7 72.6,85.5 64.3,81.3 56,85.5 	"/>
	<polygon id="XMLID_66_" class="st37" points="64.3,89.7 72.6,85.5 64.3,81.3 56,85.5 	"/>
	<polygon id="XMLID_65_" class="st37" points="64.3,89.7 72.6,85.5 64.3,81.3 56,85.5 	"/>
	<polygon id="XMLID_64_" class="st42" points="97.6,10.5 122.6,23.1 81,44.1 56,31.4 	"/>
	<polygon id="XMLID_63_" class="st41" points="56,31.4 56,73.2 64.7,81.7 	"/>
	<polygon id="XMLID_62_" class="st30" points="136.5,100.3 136.4,109.2 128.9,105.2 129,96.4 	"/>
	<polygon id="XMLID_61_" points="82.2,119.7 82,130.4 70.1,124.2 70.3,113.5 	"/>
	<polygon id="XMLID_60_" class="st43" points="82.2,119.7 84.7,118.4 72.8,112.2 70.3,113.5 	"/>
	<polygon id="XMLID_59_" class="st44" points="82.2,119.7 82,130.4 84.6,129.1 84.7,118.4 	"/>
	<polygon id="XMLID_58_" class="st29" points="136.5,100.3 144,96.4 136.6,92.4 129,96.4 	"/>
	<polygon id="XMLID_57_" class="st33" points="114.4,88.6 114.2,97.4 121.7,101.4 121.8,92.6 	"/>
	<polygon id="XMLID_56_" class="st32" points="121.7,92.5 121.6,101.4 129.1,105.3 129.2,96.5 	"/>
	<polygon id="XMLID_55_" class="st34" points="114.4,88.6 121.9,84.6 129.4,88.6 121.8,92.6 	"/>
	<polygon id="XMLID_54_" class="st37" points="121.7,92.5 129.3,88.6 136.7,92.5 129.2,96.5 	"/>
	<polygon id="XMLID_53_" class="st29" points="136.5,100.3 136.4,109.2 143.9,105.2 144,96.4 	"/>
	<path id="XMLID_52_" class="st45" d="M106.3,68.5c1.2,2.1,2.3,4.7,2.2,7.4c-0.1,3.8-16.1,38.8-19.3,42.2c-1.3,1.3-4.6,3.8-5.4,3.8"
		/>
	<polygon id="XMLID_51_" class="st34" points="64.3,89.7 72.6,85.5 72.6,119.1 64.3,123.3 	"/>
	<polygon id="XMLID_50_" class="st29" points="64.3,123.3 72.6,119.1 72.6,127.5 64.3,131.7 	"/>
	<polygon id="XMLID_49_" class="st37" points="64.3,106.5 72.6,102.3 72.6,93.9 64.3,98.1 	"/>
	<polygon id="XMLID_48_" class="st37" points="64.3,123.3 72.6,119.1 72.6,110.7 64.3,114.9 	"/>
	<polygon id="XMLID_47_" class="st32" points="64.3,106.5 56,102.3 56,93.9 64.3,98.1 	"/>
	<polygon id="XMLID_46_" class="st32" points="64.3,106.5 56,102.3 56,93.9 64.3,98.1 	"/>
	<polygon id="XMLID_45_" class="st32" points="64.3,106.5 56,102.3 56,93.9 64.3,98.1 	"/>
	<polygon id="XMLID_44_" class="st32" points="64.3,106.5 56,102.3 56,93.9 64.3,98.1 	"/>
	<polygon id="XMLID_43_" class="st32" points="64.3,123.3 56,119.1 56,110.7 64.3,114.9 	"/>
	<polygon id="XMLID_42_" class="st32" points="64.3,123.3 56,119.1 56,110.7 64.3,114.9 	"/>
	<polygon id="XMLID_41_" class="st32" points="64.3,123.3 56,119.1 56,110.7 64.3,114.9 	"/>
	<polygon id="XMLID_40_" class="st32" points="64.3,123.3 56,119.1 56,110.7 64.3,114.9 	"/>
	<polygon id="XMLID_39_" class="st32" points="64.3,123.3 56,119.1 56,110.7 64.3,114.9 	"/>
	<polygon id="XMLID_38_" class="st46" points="105,49 105,55.7 109.9,53.3 109.8,46.7 	"/>
	<polygon id="XMLID_37_" class="st47" points="104.9,51.9 107,50.9 107,48.2 104.9,49.2 	"/>
	<polygon id="XMLID_36_" class="st46" points="94.3,54.4 94.4,61.1 99.3,58.7 99.2,52 	"/>
	<polygon id="XMLID_35_" class="st47" points="94.3,57.2 96.4,56.2 96.4,53.5 94.3,54.5 	"/>
	<polygon id="XMLID_34_" class="st48" points="103.4,61.2 105.3,60.2 105.3,57.5 103.4,58.5 103.4,59.1 	"/>
	<polygon id="XMLID_33_" class="st48" points="101.9,57.6 103.4,58.5 105.3,57.5 103.7,56.6 	"/>
	<polygon id="XMLID_32_" class="st49" points="103.4,58.5 101.9,57.6 101.9,58.3 101.9,59.7 101.9,60.4 103.4,61.2 	"/>
	<path id="XMLID_31_" class="st50" d="M61.7,55c2.6-3,7.4-2.4,10.7,1.2c3.3,3.6,3.9,8.9,1.3,11.9c-2.6,3-7.4,2.4-10.7-1.2
		C59.7,63.2,59.1,57.9,61.7,55z"/>
	<path id="XMLID_30_" class="st47" d="M61.7,55c2.6-3,7.4-2.4,10.7,1.2c3.3,3.6,3.9,8.9,1.3,11.9c-2.6,3-7.4,2.4-10.7-1.2
		C59.7,63.2,59.1,57.9,61.7,55z"/>
	<path id="XMLID_29_" class="st51" d="M63,53.9l3.8-2.4c0,0,5.5-2.5,10.1,4.9l-3.1,1.7C73.8,58.1,69.6,51.2,63,53.9z"/>
	<path id="XMLID_28_" class="st52" d="M72.1,69.2L76,67c0,0,4.9-3.6,0.6-11.2l-2.9,1.9C73.6,57.7,77.6,64.7,72.1,69.2z"/>
	<polygon id="XMLID_27_" class="st50" points="72.2,62.1 72.2,39.6 114,18.6 116.5,20 116.7,14.2 69.6,36.6 69.6,63.1 	"/>
	<polygon id="XMLID_26_" class="st53" points="65.4,35.3 65.4,60.8 69.7,63 69.8,37.3 116.5,14.3 111.7,12.9 	"/>
</g>
</svg>
