<?xml version="1.0" encoding="utf-8"?>
<!-- Generator: Adobe Illustrator 19.0.0, SVG Export Plug-In . SVG Version: 6.00 Build 0)  -->
<svg version="1.1" id="Layer_1" xmlns="http://www.w3.org/2000/svg" xmlns:xlink="http://www.w3.org/1999/xlink" x="0px" y="0px"
	 viewBox="0 0 200 200" style="enable-background:new 0 0 200 200;" xml:space="preserve">
<style type="text/css">
	.st0{fill:#F6C12C;}
	.st1{fill:#F8D55F;}
	.st2{fill:#ECEDEF;}
	.st3{fill:#F2A8B5;}
	.st4{fill:#E7576F;}
	.st5{fill:#F1A484;}
	.st6{fill:#E55782;}
	.st7{fill:#F8C7A9;}
	.st8{fill:#F1A485;}
	.st9{fill:#F8D9AA;}
	.st10{fill:#ED9425;}
	.st11{fill:#F1AED3;}
	.st12{fill:#D91D85;}
	.st13{fill:#6F020A;}
	.st14{fill:#530103;}
	.st15{fill:#8A030A;}
	.st16{fill:#A50613;}
	.st17{fill:#A34B47;}
	.st18{fill:#851F24;}
	.st19{fill:#F19484;}
	.st20{fill:#DA0E47;}
	.st21{fill:#EFA03E;}
	.st22{fill:#EFB09E;}
	.st23{fill:#E17670;}
	.st24{fill:#D91E84;}
	.st25{fill:#020101;}
	.st26{fill:#010101;}
	.st27{fill:#FBE9AB;}
</style>
<path id="XMLID_204_" class="st0" d="M63,37.8c0.2-0.3,0.5-0.3,0.7-0.5c14.6-7.3,29.2-14.7,43.7-22c0.6-0.3,1.1-0.3,1.7,0
	c8.5,4.3,17.1,8.6,25.6,13c0.2,0.1,0.6,0.2,0.7,0.5c-0.3,0.3-0.6,0.5-1,0.7c-3.2,1.6-6.4,3.1-9.5,4.8c-6.2,3.2-12.5,6.3-18.7,9.5
	c-2.3,1.2-4.7,2.3-7,3.6c-1.4,0.8-2.8,1.4-4.2,2.2c-1.6,0.7-3,1.6-4.7,2.2c-0.1,0-0.2,0-0.3,0c-2.3-1-4.5-2.1-6.7-3.3
	c-3.7-2-7.5-3.8-11.3-5.7c-2.8-1.4-5.6-2.9-8.4-4.3c-0.2-0.1-0.4-0.2-0.6-0.4C63,38,63,37.9,63,37.8z"/>
<path id="XMLID_203_" class="st1" d="M99.1,47.1c7.4-3.7,14.8-7.5,22.2-11.2c4.4-2.2,8.9-4.5,13.3-6.7c0.3-0.1,0.6-0.2,0.9-0.4
	c0,0.2,0,0.5,0,0.7c0,11.8,0,23.6,0,35.4c0,0.2,0,0.4,0,0.5c-0.2,0.3-0.4,0.4-0.7,0.6c-2.5,1.2-5,2.6-7.5,3.9
	c-0.3,0.1-0.6,0.3-0.9,0.2c-0.1-0.1-0.2-0.2-0.2-0.4c0-2.9,0-5.8,0-8.6c0-5.7,0-11.3,0-17c0-1.1-0.1-1.1-1-0.6
	c-5.8,2.9-11.6,5.7-17.3,8.7c-2.5,1.3-5,2.5-7.5,3.8c-0.4,0.2-0.7,0.4-1.2,0.4c-0.1-0.1-0.2-0.1-0.2-0.2c-0.2-1.5-0.1-2.9-0.1-4.4
	C99,50.1,98.9,48.6,99.1,47.1z"/>
<path id="XMLID_202_" class="st2" d="M126.5,152.7c2.9,1.5,5.8,3,8.9,4.6c-1.2,0.7-2.3,1.3-3.4,1.8c-5.7,2.9-11.5,5.7-17.1,8.6
	c-6.3,3.3-12.7,6.3-19,9.6c-1.6,0.8-3.3,1.6-4.9,2.5c-0.6,0.3-1.1,0.3-1.7,0c-2.5-1.5-5.3-2.7-7.9-4c-0.5-0.3-0.9-0.3-1.4,0
	c-2.4,1.2-4.9,2.5-7.3,3.7c-0.4,0.2-0.8,0.3-1.2,0.1c-2.7-1.4-5.4-2.7-8.1-4c-0.1-0.1-0.3-0.1-0.3-0.3c2.8-1.4,5.6-2.9,8.5-4.4
	c-2.9-1.5-5.7-2.9-8.8-4.4c6.2-3.1,12.2-6.1,18.2-9.1c0.3,0.3,0.3,0.7,0.3,1c0,1,0,2.1,0,3.1c-0.1,1.2,0,2.3,0,3.5
	c0,0.8,0.3,1.2,1,1.5c5.6,2.7,11.1,5.5,16.6,8.3c0.2,0.1,0.3,0.1,0.5,0.1c2.7-1.2,5.4-2.7,8.1-4c0.5-0.2,0.6-0.6,0.6-1.2
	c0-1.3,0-2.5,0-3.8c0-1.1,0-2.2,0-3.3c0-0.3,0-0.6,0.2-0.9c0.5-0.4,0.9-0.1,1.3,0.1c2.6,1.3,5.1,2.6,7.7,3.8
	c0.2,0.1,0.4,0.1,0.6-0.1c2.5-1.3,5-2.5,7.5-3.8c0.7-0.3,1-0.8,1-1.6c-0.1-1.2,0-2.4,0-3.6c0-1,0-2,0-3
	C126.2,153.4,126.2,153,126.5,152.7z"/>
<path id="XMLID_201_" class="st3" d="M135.6,74.5c0.2,0.3,0.1,0.6,0.1,0.9c0,5.4,0,10.9,0,16.3c0,0.4,0.1,0.8-0.2,1.1
	c-0.2,0.3-0.5,0.4-0.8,0.6c-2.4,1.2-4.9,2.4-7.3,3.6c-0.3,0.1-0.6,0.4-1,0.2c-0.4-1-0.1-2-0.2-3.1c0-1,0-1.1-1-0.6
	c-5.2,2.6-10.4,5.2-15.6,7.8c-3.1,1.6-6.2,3.2-9.4,4.7c-0.4,0.2-0.8,0.7-1.2,0c-0.2-1.2-0.1-2.3-0.1-3.5c0-1.7-0.1-3.4,0.1-5.2
	c0.2-0.6,0.7-0.8,1.2-1c5.5-2.8,11-5.5,16.5-8.3c2.9-1.5,5.7-2.9,8.6-4.4c0.4-0.2,0.7-0.5,1.2-0.3c0.3,0.3,0.3,0.6,0.3,1
	c0,0.7,0,1.4,0,2.1c0,0.9,0,1,0.8,0.6c1.9-0.9,3.7-1.9,5.6-2.8c2.4-1.2,2-0.6,2.1-3.4c0-2.1-0.1-4.3,0.1-6.4
	C135.4,74.6,135.5,74.6,135.6,74.5z"/>
<path id="XMLID_200_" class="st3" d="M126.5,120.3c0,2.8,0,5.7,0,8.5c0,0.5-0.2,0.8-0.7,1c-2.5,1.2-5,2.5-7.5,3.7
	c-0.3,0.2-0.6,0.3-0.9,0.5c-0.3,0.3-0.6,0.5-1,0.7c-2.7,1.4-5.4,2.8-8.1,4.1c-2.6,1.2-5.1,2.5-7.6,3.8c-0.3,0.1-0.6,0.3-0.9,0.4
	c-0.3,0.1-0.6,0.2-0.7-0.2c-0.2-1.4-0.1-2.8-0.1-4.1c0-1.5-0.1-3,0.1-4.5c0.1-0.4,0.5-0.6,0.8-0.7c8.5-4.3,17.1-8.7,25.7-12.9
	C125.9,120.4,126.1,120.2,126.5,120.3z"/>
<path id="XMLID_199_" class="st4" d="M126.5,120.3c-6.1,3.1-12.2,6.1-18.4,9.2c-2.9,1.5-5.9,3-8.8,4.4c0,0-0.1-0.1-0.1-0.1
	c-0.2-0.4-0.2-0.9-0.2-1.3c0-2.5,0-5.1,0-7.6c0-0.1,0-0.2,0.1-0.3c1.8-0.9,3.6-1.8,5.4-2.7c7-3.4,13.8-7.1,20.8-10.5
	c0.4-0.2,0.7-0.5,1.2-0.4C126.5,114.2,126.5,117.3,126.5,120.3z"/>
<path id="XMLID_198_" class="st3" d="M126.5,111.2c-8.7,4.4-17.4,8.8-26.1,13.1c-0.3,0.2-0.6,0.4-1,0.4c-0.2-0.3-0.3-0.6-0.3-0.9
	c0-2.4,0-4.9,0-7.3c0-0.3,0-0.5,0.2-0.8c0.2-0.4,0.6-0.6,0.9-0.8c8.6-4.3,17.1-8.6,25.7-12.9c0.3-0.1,0.6-0.5,0.9,0.1
	c0.1,1.5,0.3,2.9-0.2,4.4C126.5,108.1,126.5,109.6,126.5,111.2z"/>
<path id="XMLID_197_" class="st5" d="M81.1,161.7c0-1.5,0-2.9,0-4.4c0-2.8,0-5.5,0-8.3c0-5,0-9.9,0-14.9c0.3-0.2,0.6,0,0.9,0.1
	c2.5,1.4,5,2.6,7.5,3.9c0.4,0.2,0.7,0.4,0.8,0.9c0.1,0.6,0,1.2,0,1.8c0,6.2,0,12.5,0,18.7c0,0.6,0,1.1,0.1,1.7
	c0.1,0.2,0.1,0.4,0.1,0.6c0,1.1,0,2.3,0,3.4c0,0.9-0.3,1.1-1.1,0.7c-2.7-1.3-5.4-2.7-8-4C81.3,161.9,81.2,161.8,81.1,161.7z"/>
<path id="XMLID_196_" class="st6" d="M90.1,138.7c-1.4-0.9-2.9-1.5-4.3-2.2c-1.6-0.8-3.1-1.6-4.7-2.4c-1.5-0.8-3-1.5-4.5-2.3
	c0-0.5,0.4-0.6,0.7-0.8c0.8-0.4,1.6-0.9,2.4-1.2c0.8-0.3,1.1-0.9,1.1-1.8c0-1-0.2-2,0.1-3.1c0-0.1,0.1-0.1,0.2-0.2
	c0.4-0.1,0.7,0.2,1.1,0.3c2.2,1.1,4.3,2.2,6.4,3.3c3.2,1.7,6.4,3.2,9.6,4.8c0.3,0.2,0.7,0.3,1,0.6c0,0,0.1,0.1,0.1,0.1
	c0,3.1,0,6.1,0,9.2c0,0-0.1,0.1-0.1,0.1c-0.3,0.1-0.6-0.1-0.8-0.2c-2.5-1.2-5-2.5-7.5-3.8C90.5,139.1,90.3,138.9,90.1,138.7z"/>
<path id="XMLID_195_" class="st7" d="M108.3,138.7c2.9-1.5,5.9-2.9,8.8-4.5c0.1-0.1,0.2-0.1,0.3-0.1c0,4.2,0,8.3,0,12.5
	c0,0.3-0.1,0.7,0.1,1c0,0.1-0.1,0.2-0.1,0.2c-1.8,1.1-3.7,1.9-5.6,2.9c-0.9,0.5-1.9,1-2.8,1.4c-0.3,0.2-0.7,0.4-0.9-0.2
	c-0.1-0.9-0.1-1.8-0.1-2.6c0-3.1,0-6.2,0-9.3C108,139.6,108,139.1,108.3,138.7z"/>
<path id="XMLID_194_" class="st3" d="M63,37.8c0,0.1,0,0.1,0.1,0.2c0.3,0.5,0.2,1,0.2,1.5c0,14.1,0,28.1,0,42.2c0,1.4,0,1.5,1.3,0.8
	c2.3-1.2,4.6-2.4,7-3.5c0.1,0,0.2-0.1,0.3-0.1c0.3,0,0.6,0.2,0.9,0.3c2.4,1.2,4.9,2.4,7.3,3.7c0.3,0.2,0.7,0.3,0.8,0.7
	c0,0.4-0.4,0.6-0.7,0.7c-2.5,1.3-5.1,2.5-7.6,3.8c-0.3,0.1-0.6,0.3-0.9,0.2c-2.1-0.9-4.2-2-6.3-3c-0.7-0.3-1.4-0.7-2-1
	c-0.3,0.3-0.2,0.6-0.2,0.8c0,2.2,0,4.4,0,6.6c0,0.4,0,0.8-0.1,1.1c-0.1,0.1-0.1,0.1-0.2,0.1c0-3.4,0-6.7,0-10.1c0-14.7,0-29.3,0-44
	C62.9,38.5,62.8,38.2,63,37.8z"/>
<path id="XMLID_193_" class="st6" d="M62.9,92.9c0.1,0,0.1,0,0.2,0c0,0,0.1,0.1,0.1,0.1c0.2,0.3,0.2,0.6,0.2,0.9c0,2.6,0,5.3,0,7.9
	c0,2.6,0,5.3,0,7.9c0,0.8,0.3,1.2,1,1.6c2.4,1.2,4.8,2.3,7.2,3.6c0.3,0.2,0.6,0.3,0.8,0.6c0,0.1,0.1,0.2,0.1,0.3
	c0,2.8,0.1,5.6,0,8.5c-0.3,0.7-0.8,0.3-1.2,0.1c-2-1-4-2-6.1-3c-0.7-0.4-1.5-0.6-2-1.2c-0.2-0.2-0.1-0.5-0.1-0.8
	C62.9,110.7,62.9,101.8,62.9,92.9z"/>
<path id="XMLID_192_" class="st2" d="M117.6,147.7c3-1.4,6.1-2.9,9.1-4.3c0.3-0.1,0.5-0.2,0.8,0c2.8,1.4,5.6,2.8,8.4,4.2
	c0,0,0.1,0.1,0.2,0.3c-3.2,1.5-6.4,3-9.5,4.5c-0.4,0.2-0.6-0.1-0.9-0.2c-1.3-0.7-2.7-1.3-4-2c-1.2-0.5-2.4-1.2-3.6-1.8
	c-0.2-0.1-0.6-0.2-0.6-0.6C117.5,147.7,117.6,147.7,117.6,147.7z"/>
<path id="XMLID_191_" class="st8" d="M63,120.3c2.7,1.3,5.4,2.7,8.2,4c0.3,0.1,0.5,0.4,0.9,0.4c0.1,0.1,0.2,0.2,0.2,0.3
	c0.2,1.8,0,3.7,0.1,5.5c0,0.8,0,1.5,0,2.3c0,0.4,0,0.8-0.3,1.1c-1.6-0.6-3.1-1.5-4.6-2.2c-1.3-0.6-2.5-1.3-3.8-1.9
	c-0.5-0.2-0.7-0.5-0.7-1.1C63,125.9,63,123.1,63,120.3z"/>
<path id="XMLID_190_" class="st9" d="M126.5,106.5c0-1.5,0-3.1,0-4.6c-0.2-0.2-0.2-0.4-0.3-0.6c0-1.1,0-2.2,0-3.2
	c0-0.3,0.1-0.5,0.3-0.7c2.8-1.4,5.7-2.8,8.5-4.3c0.2-0.1,0.3-0.1,0.5-0.2c0,2.8,0,5.5,0,8.3c0,0.6-0.2,0.8-0.7,1.1
	C132.1,103.7,129.3,105.1,126.5,106.5z"/>
<path id="XMLID_189_" class="st3" d="M126.5,70c3-1.5,6-3,9-4.6c0,3,0,6.1,0,9.1c0,0,0,0-0.1,0.1c-0.5,0.5-1.2,0.8-1.8,1.1
	c-2.1,1.1-4.2,2.1-6.3,3.2c-0.4,0.2-0.8,0.5-1.1-0.1c-0.2-2.7-0.1-5.4-0.1-8.1C126.3,70.4,126.3,70.1,126.5,70z"/>
<path id="XMLID_188_" class="st9" d="M72.1,133.9c0-3,0-6,0-9c0.1-0.3,0.4-0.4,0.6-0.6c2.5-1.3,5-2.5,7.5-3.8c0.3-0.2,0.7-0.5,1,0.1
	c0.1,1.2,0,2.5,0.1,3.7c0,0.2-0.1,0.5-0.2,0.7c0,1.2-0.1,2.5,0,3.7c0,0.6-0.2,0.9-0.8,1.2c-1.2,0.6-2.6,1.1-3.7,2
	c-0.9,0.1-1.6,0.8-2.4,1.1C73.5,133.2,72.9,133.8,72.1,133.9z"/>
<path id="XMLID_187_" class="st7" d="M121.7,149.9c1.6,0.8,3.2,1.6,4.8,2.5c0,0.1,0,0.1,0,0.2c-0.2,0.2-0.4,0.4-0.6,0.5
	c-2.6,1.3-5.2,2.6-7.8,3.9c-0.2,0.1-0.3,0.1-0.5,0.2c-0.1,0-0.2,0-0.3,0c-1.5-0.6-3-1.4-4.4-2.2c0-0.1,0-0.2,0-0.3
	c0.2-0.4,0.6-0.5,0.9-0.6C116.4,152.6,119.1,151.3,121.7,149.9z"/>
<path id="XMLID_186_" class="st5" d="M117.5,156.9c2.8-1.4,5.6-2.8,8.3-4.2c0.2-0.1,0.4-0.2,0.7-0.2c0,0.1,0,0.1,0,0.2
	c0,1.4,0,2.9,0,4.3c-0.1,0.2-0.3,0.4-0.5,0.5c-2.6,1.3-5.1,2.6-7.7,3.8c-0.3,0.2-0.7,0.4-1-0.2c-0.1-1.2,0-2.4-0.1-3.6
	C117.3,157.3,117.3,157.1,117.5,156.9z"/>
<path id="XMLID_185_" class="st10" d="M80.9,83.6c-2.7-1.4-5.3-2.7-8-4.1c-0.3-0.2-0.6-0.3-0.9-0.5c-1-0.8-1.8-1.8-2.7-2.6
	c0.8,0.8,1.7,1.6,2.5,2.6c-2.9,1.5-5.8,3-8.9,4.6c0-0.5,0-0.8,0-1.1c0-14.2,0-28.5,0-42.7c0-0.6,0-1.2,0-1.8
	c2.3,0.9,4.5,2.1,6.6,3.3c3.1,1.6,6.2,3.1,9.4,4.7c3.7,1.9,7.3,3.7,11,5.6c0.3,0.3,0.3,0.6,0.3,1c-0.1,5.4,0.3,10.8,0.2,16.2
	c-0.1,2.6,0,5.3,0,7.9c-0.1,3.5-0.2,6.9-0.2,10.4c0,0.2,0,0.5-0.1,0.7c-0.2,0.6-0.6,0.4-1,0.2c-2.2-1.1-4.3-2.1-6.5-3.2
	c-0.5-0.3-1-0.6-1.5-0.8C81.2,83.8,81,83.7,80.9,83.6z"/>
<path id="XMLID_184_" class="st1" d="M90.1,88.2c0-0.1,0-0.1,0-0.2c0.1-8.8,0.3-17.6,0.1-26.4c-0.1-3.3,0-6.7-0.1-10
	c0.1,0,0.1,0,0.2,0c0.3,0.3,0.3,0.6,0.3,1c0,1.1,0,2.3,0,3.4c0,1.2,0,2.4,0,3.5c0,0.6,0.2,0.7,0.7,0.5c1.1-0.6,2.2-1.1,3.2-1.6
	c0.1-0.1,0.2-0.1,0.4-0.2c1.2-0.6,2.3-1.2,3.5-1.7c0.3-0.1,0.6-0.4,1-0.2l0,0c0.3,0.3,0.3,0.6,0.3,1c0,5.7,0,11.4,0,17.2
	c0,1.6,0,3.2,0,4.8c0,1.4,0.1,2.8-0.1,4.3c0,0.1-0.1,0.3-0.2,0.4C99.2,83.9,99.1,84,99,84c-2.7,1.4-5.5,2.8-8.2,4.1
	c-0.2,0.1-0.3,0.1-0.5,0.1C90.2,88.2,90.1,88.2,90.1,88.2z"/>
<path id="XMLID_183_" class="st11" d="M90.3,56.1c0-1.5,0-3,0-4.5c1.5-0.8,3-1.5,4.6-2.3c0.3,0.3,0.3,0.7,0.3,1.1c0,1.1,0,2.2,0,3.3
	c0.1,1.2,0,2.4,0,3.6c0,0.4,0,0.7-0.3,1c-0.1,0-0.1,0.1-0.2,0.1c-0.4-0.4-0.2-1-0.3-1.5c0-0.7,0-1.4,0-2c0-0.5-0.1-0.6-0.6-0.4
	c-0.9,0.5-1.7,0.9-2.6,1.3C91,56.1,90.7,56.4,90.3,56.1z"/>
<path id="XMLID_182_" class="st12" d="M94.9,53.7c0-1.5,0-2.9,0-4.4c1.4-0.7,2.9-1.5,4.3-2.2c0.4,0.6,0.1,1.3,0.2,1.9
	c0,0.8,0,1.7,0,2.5c-1.2,0.9-2.7,1.6-4.1,2.2C95.1,53.8,95,53.8,94.9,53.7z"/>
<path id="XMLID_181_" class="st9" d="M99.3,74.4c0-6.1,0-12.1,0-18.2c8.8-4.4,17.5-8.8,26.3-13.2c1-0.5,1-0.5,1,0.6
	c0,5.7,0,11.5,0,17.2c-0.2,0.4-0.6,0.5-1,0.7c-2.7,1.3-5.3,2.7-8,4c-1.5,0.6-2.9,1.6-4.4,2.2c-4.3,2.2-8.7,4.3-13,6.5
	C99.9,74.4,99.6,74.6,99.3,74.4z"/>
<path id="XMLID_180_" class="st4" d="M99.1,83.7c0.1-0.1,0.1-0.1,0.2-0.2c0.1-0.3,0.4-0.4,0.6-0.6c1-0.5,2-1,3-1.5
	c0.3-0.2,0.7-0.4,1,0.1c0.2,2.4,0,4.8,0.1,7.2c0,0.3-0.1,0.7,0.1,1c0.4,0.2,0.6-0.1,0.9-0.2c5.3-2.6,10.5-5.3,15.8-7.9
	c0.7-0.3,0.9-0.8,0.9-1.5c-0.1-2.6,0-5.3-0.1-7.9c0-0.1,0-0.2,0.1-0.3c1.4-0.8,3-1.4,4.4-2.3c0.1,0,0.2,0,0.2,0.1
	c0,0.1,0.1,0.1,0.1,0.2c0,3,0,6,0,9c0.2,0.3,0.3,0.6,0.3,0.9c0,1,0,1.9,0,2.9c0,0.4,0,0.8-0.4,1c-8.6,4.4-17.3,8.7-25.9,13.1
	c-0.4,0.2-0.7,0.4-1.1,0.6c0,0-0.1-0.1-0.1-0.1C99,96.9,99,96.5,99,96.1c0-3.8,0-7.6,0-11.4C99,84.4,99,84.1,99.1,83.7z"/>
<path id="XMLID_179_" class="st10" d="M126.4,69.8c-0.1,0-0.1,0-0.2,0c-0.4,0.1-0.6-0.1-0.9-0.2c-2.3-1.2-4.6-2.3-6.9-3.5
	c-0.4-0.2-0.8-0.3-0.9-0.8c3-1.5,6-3,9-4.6c0,2.7,0,5.4,0,8.1C126.5,69.2,126.6,69.5,126.4,69.8z"/>
<path id="XMLID_178_" class="st11" d="M94.9,53.7c1.5-0.7,2.9-1.4,4.4-2.2c0,1.5,0,3.1,0,4.6c-1.5,0.7-2.9,1.4-4.4,2.1
	C94.9,56.8,94.9,55.2,94.9,53.7z"/>
<path id="XMLID_177_" class="st13" d="M81.1,161.7c0.4-0.1,0.6,0.1,0.9,0.3c2.5,1.2,4.9,2.5,7.4,3.7c0.6,0.3,0.8,0.3,0.8-0.5
	c0-1.2-0.1-2.3,0.1-3.5c0.2-0.1,0.3-0.1,0.5,0c1.3,0.6,2.5,1.2,3.8,1.9c0.1,0.1,0.2,0.2,0.3,0.3c0.2,1.1,0.1,2.2,0.1,3.3
	c0,0.7,0.2,1.1,0.8,1.4c0.9,0.4,1.8,1,2.7,1.4c0.4,0.2,0.7,0.4,0.8,0.8c0.1,1.1,0,2.2,0,3.3c0,0.3,0.1,0.7-0.5,0.8
	c-4-2-8.1-4-12.1-6.1c-1.7-0.8-3.4-1.7-5-2.5c-0.5-0.2-0.6-0.5-0.6-1C81.1,164.1,81.1,162.9,81.1,161.7z"/>
<path id="XMLID_176_" class="st14" d="M112.9,154.6c0,0.1,0,0.1,0,0.2c0.4,0.9,0.3,1.8,0.2,2.7c-0.1,1.2,0.4,1.9,1.5,2.3
	c1,0.4,2,0.8,2.8,1.6c0.1,0.1,0.1,0.2,0.1,0.3c0.1,1.2,0,2.3,0,3.5c0,0.3,0,0.6-0.2,0.8c-2.7-1.3-5.4-2.7-8.1-4
	c-0.2-0.1-0.5-0.2-0.7-0.3c-0.2,0-0.3,0-0.5-0.1c-1.4-0.7-2.8-1.4-4.2-2.1c-1.3-0.5-2.6-1.2-3.8-1.8c-0.4-0.2-0.7-0.4-0.9-0.8
	c-0.1-1.3-0.1-2.7,0-4c0.4-0.7,0.8-0.2,1.2,0c2.3,1.1,4.6,2.3,6.9,3.4c0.3,0.1,0.5,0.4,0.9,0.3c0.2-1,0.1-2,0.1-3
	c0-1.1,0.3-1.2,1.2-0.7C110.6,153.3,111.9,153.7,112.9,154.6z"/>
<path id="XMLID_175_" class="st5" d="M108.1,161.4c0.2,0,0.3,0.1,0.4,0.3c-0.4,0.7-0.1,1.4-0.2,2.1c0,0.8,0,1.6,0,2.3
	c-0.1,0.2-0.3,0.4-0.5,0.5c-2.8,1.4-5.6,2.9-8.5,4.2c-0.1,0-0.2,0-0.2-0.1c-1.1-0.6-2.1-1.2-3.2-1.6c-1-0.4-1.3-1-1.2-2.1
	c0.1-1,0.1-2.1-0.1-3.2c0.1,0,0.2-0.1,0.2-0.1c1.3,0.5,2.4,1.2,3.6,1.8c0.6,0.3,1,0.3,1.6,0C102.7,164,105.4,162.7,108.1,161.4z"/>
<path id="XMLID_174_" class="st15" d="M117.5,161.4c2.6-1.3,5.1-2.6,7.7-3.8c0.4-0.2,0.8-0.4,1.3-0.6c0,1.3,0,2.7,0,4
	c0,0.4-0.1,0.6-0.5,0.7c-2.8,1.4-5.6,2.8-8.4,4.2c-0.4-0.1-0.2-0.4-0.2-0.6c0-1.2,0-2.4,0-3.7C117.4,161.6,117.4,161.5,117.5,161.4z
	"/>
<path id="XMLID_173_" class="st16" d="M99.3,170.7c3-1.5,6-3,9-4.5c0,1.4,0,2.7,0.1,4.1c0,0.3-0.1,0.5-0.4,0.7
	c-2.8,1.4-5.7,2.8-8.5,4.3c0,0-0.1,0-0.2,0C99.1,173.6,99.2,172.1,99.3,170.7z"/>
<path id="XMLID_172_" class="st17" d="M117.5,161.5c0,1.2,0,2.4,0,3.6c0,0.3-0.1,0.6,0.2,0.8c-0.1,0.1-0.2,0.2-0.4,0
	c0-1.5,0-3,0-4.4C117.4,161.4,117.4,161.4,117.5,161.5z"/>
<path id="XMLID_171_" class="st18" d="M99.3,170.7c0,1.5,0,3,0,4.5c-0.2,0-0.3,0-0.4-0.1c0.3-0.2,0.2-0.6,0.2-0.9c0-1.1,0-2.3,0-3.4
	C99.2,170.6,99.2,170.6,99.3,170.7z"/>
<path id="XMLID_170_" class="st4" d="M126.5,97.4c0,1.5,0,3.1,0,4.6c-0.2,0.1-0.4,0.3-0.7,0.4c-8.8,4.4-17.6,8.8-26.4,13.2
	c-0.1,0-0.2,0-0.3-0.1c-0.1-0.2-0.2-0.5-0.2-0.8c0-2.4,0-4.9,0-7.3c0-0.2,0-0.4,0.1-0.6c0-0.1,0.1-0.2,0.2-0.3
	c8.7-4.4,17.4-8.7,26.1-13.1c1.1-0.6,1.1-0.7,1.1,0.7C126.5,95.2,126.5,96.3,126.5,97.4z"/>
<path id="XMLID_169_" class="st6" d="M99.3,97.4c0,3,0,6.1,0,9.1c0,0,0,0-0.1,0.1c-0.5,0.1-0.8-0.2-1.1-0.4
	c-5.2-2.6-10.3-5.1-15.4-7.8c-0.2-0.1-0.4-0.2-0.6-0.3c-0.4-0.2-0.6-0.1-0.6,0.4c0,0.9,0,1.7,0,2.6c0,0.3,0,0.5-0.2,0.8
	c-0.2,0.2-0.3,0-0.4-0.1c-0.2-0.7-0.1-1.5-0.1-2.2c0-2.1,0-4.3,0-6.4c0-0.2,0-0.3,0.1-0.4c1.6-0.8,3-1.8,4.7-2.3
	c0.3,0.1,0.6,0.2,0.9,0.4c3.9,2,7.8,3.9,11.7,5.9C98.6,96.8,99,96.9,99.3,97.4C99.3,97.3,99.3,97.3,99.3,97.4z"/>
<path id="XMLID_168_" class="st6" d="M126.3,83.7c0.4-1,0.1-2,0.2-2.9c0-0.6,0-1.2,0-1.8c2.6-1.1,5-2.4,7.5-3.7
	c0.5-0.2,0.9-0.6,1.5-0.7c0,2.8,0,5.6,0,8.5c0,0.5-0.2,0.7-0.6,0.9c-2.6,1.3-5.2,2.6-7.7,3.9c-0.6,0.3-0.7,0.1-0.7-0.5
	c0-0.9,0-1.9,0-2.8C126.5,84.3,126.6,84,126.3,83.7z"/>
<path id="XMLID_167_" class="st19" d="M108.3,156.9c-2.7-1.4-5.4-2.7-8.2-4.1c-0.3-0.1-0.5-0.3-0.8-0.3c-0.3-0.3-0.3-0.8-0.3-1.2
	c0-2.3,0-4.7,0-7c0-0.4,0-0.8,0.3-1.2c0,0,0,0,0,0c2.7-1.4,5.4-2.7,8.1-4.1c0.3-0.1,0.6-0.3,0.9-0.4c0,4.6,0,9.1,0,13.7
	C108.4,153.9,108.5,155.4,108.3,156.9z"/>
<path id="XMLID_166_" class="st6" d="M99.3,115.5c0.1,0,0.1,0,0.2,0c-0.2,0.3-0.2,0.5-0.2,0.8c0,2.8,0,5.6,0,8.3c-0.1,0-0.1,0-0.2,0
	c-0.5,0.2-0.8-0.1-1.1-0.3c-5.1-2.5-10.1-5-15.1-7.6c-0.1-0.1-0.3-0.1-0.4-0.2c-0.9-0.4-0.9-0.4-0.9,0.6c0,2.2,0,4.3,0,6.5
	c0,0.4,0.1,0.8-0.2,1.2c0,0-0.1,0-0.1,0c0-1.5-0.1-3-0.1-4.6c-0.2-0.3-0.2-0.6-0.2-0.9c0-2.7,0-5.5,0-8.2c0.1-1.5-0.2-3,0.2-4.4
	c0.3-0.4,0.7-0.2,1,0c4.5,2.3,9,4.4,13.4,6.8C96.7,114.2,98.1,114.8,99.3,115.5z"/>
<path id="XMLID_165_" class="st20" d="M81.3,124.9c0-2.7,0-5.5,0-8.2c0-0.8,0.2-0.8,0.8-0.5c5.7,2.9,11.4,5.7,17,8.5
	c0.1,0.2,0.2,0.5,0.2,0.8c0,2.8,0,5.6,0,8.4c-0.3,0-0.6-0.2-0.8-0.3C92.7,130.7,87,127.8,81.3,124.9z"/>
<path id="XMLID_164_" class="st9" d="M99.3,143.1c0,3.1,0,6.2,0,9.4c0,1.5,0,3,0,4.4c-0.1,0.3-0.4,0.4-0.6,0.6
	c-2.5,1.2-4.9,2.5-7.4,3.7c-0.3,0.1-0.5,0.3-0.8,0.2c-0.6-0.1-0.3-0.6-0.3-1c0-7.2,0-14.5,0-21.7c1.7,0.7,3.3,1.6,5,2.4
	C96.5,141.8,97.8,142.6,99.3,143.1z"/>
<path id="XMLID_163_" class="st16" d="M90.5,161.3c2.9-1.5,5.9-3,8.8-4.4c1.5,0.9,3,1.6,4.6,2.3c-0.7,0.8-1.6,1-2.5,1.5
	c-1.9,1.1-3.9,2-5.8,2.9c-0.2,0.1-0.5,0.2-0.8,0.2c-0.1,0-0.1,0-0.2,0c-1.4-0.7-2.9-1.4-4.3-2.1C90.4,161.6,90.4,161.4,90.5,161.3z"
	/>
<path id="XMLID_162_" class="st15" d="M108.3,156.9c0-1.5,0-3,0.1-4.5c3.1-1.5,6.1-3.1,9.2-4.6c1.4,0.7,2.8,1.4,4.2,2.1
	c0.1,0.5-0.4,0.5-0.6,0.6c-2.7,1.4-5.5,2.8-8.2,4.2c-1.4-0.7-2.8-1.3-4.4-2.1c0,1.2,0,2.3,0,3.5
	C108.5,156.3,108.6,156.7,108.3,156.9z"/>
<path id="XMLID_161_" class="st4" d="M81.1,92.8c-0.1,0-0.1,0.1-0.2,0.1c-0.1,0.4-0.4,0.5-0.7,0.6c-2.4,1.2-4.9,2.5-7.3,3.6
	c-0.3,0.1-0.6,0.3-0.9,0.2c-0.1-0.1-0.1-0.2-0.1-0.3c-0.1-3-0.2-5.9,0-8.9c1.3-0.4,2.4-1.2,3.6-1.7c1.6-0.8,3.1-1.5,4.6-2.3
	c0.3-0.1,0.6-0.2,0.8-0.5c0.1,0.1,0.2,0.1,0.3,0.2c0.2,0.5,0.1,1,0.1,1.5c0,2.1,0,4.2,0,6.3C81.4,91.9,81.4,92.4,81.1,92.8z"/>
<path id="XMLID_160_" class="st20" d="M71.9,88.2c0.2,0.2,0.2,0.5,0.2,0.8c0,2.8,0,5.6,0,8.4c-0.3,0.2-0.6,0-0.9-0.2
	c-2.5-1.2-4.9-2.5-7.4-3.7c-0.3-0.1-0.5-0.3-0.7-0.5c0,0,0,0,0,0c0-3,0-6,0-9.2C66.1,85.2,69,86.7,71.9,88.2z"/>
<path id="XMLID_159_" class="st21" d="M71.9,79c-1-1.1-2-2.2-3-3.3c0,0,0,0,0,0c0.8,0.8,1.6,1.6,2.4,2.4c0.3,0.3,0.9,0.3,0.8,0.9
	C72,79,72,79,71.9,79z"/>
<path id="XMLID_158_" class="st3" d="M81.1,111.2c0,3.1,0,6.1,0,9.2c-3,1.5-6,3-9,4.6c0-0.1,0-0.1,0-0.2c0-3.1,0-6.1,0-9.2
	c0,0,0-0.1,0.1-0.1c0.7-0.5,1.5-0.9,2.3-1.2c1.8-0.9,3.7-1.9,5.6-2.8C80.4,111.3,80.7,111,81.1,111.2z"/>
<path id="XMLID_157_" class="st6" d="M63.1,92.9c2.6,1.3,5.1,2.5,7.7,3.8c0.4,0.2,0.8,0.4,1.3,0.6c0,0,0,0.1,0,0.1
	c0.2,0.2,0.2,0.4,0.2,0.6c0,2.7,0.1,5.5-0.1,8.2c-0.1,0.4-0.4,0.4-0.7,0.3c-2.8-1.4-5.8-2.7-8.5-4.3C63.1,99.1,63.1,96,63.1,92.9z"
	/>
<path id="XMLID_156_" class="st20" d="M63.1,102.2c0.4-0.1,0.6,0.2,0.9,0.3c2.7,1.3,5.4,2.7,8.1,4c0,0,0.1,0.1,0.1,0.1
	c0.2,0.3,0.2,0.6,0.2,0.9c0,2.3,0,4.6,0,6.9c0,0.4,0,0.8-0.3,1.1c0,0,0,0,0,0c-0.6,0-1.1-0.5-1.6-0.7c-2.2-1.1-4.5-2.3-6.7-3.3
	c-0.5-0.3-0.7-0.6-0.7-1.1C63.1,107.6,63.1,104.9,63.1,102.2z"/>
<path id="XMLID_155_" class="st19" d="M117.3,161.4c-1.3-0.7-2.7-1.3-4-2c-0.3-0.2-0.4-0.4-0.4-0.7c0-1.3,0-2.6,0-3.9
	c1.5,0.7,2.9,1.4,4.4,2.1C117.5,158.4,117.5,159.9,117.3,161.4z"/>
<path id="XMLID_154_" class="st22" d="M117.3,161.4c0-1.5,0-3,0-4.5c0.1,0,0.1,0,0.2,0c0,1.5,0,3,0,4.5c0,0,0,0.1,0,0.1
	c0,0-0.1,0-0.1,0s-0.1,0-0.1,0C117.3,161.5,117.3,161.4,117.3,161.4z"/>
<path id="XMLID_153_" class="st3" d="M81.1,92.8c0-2.7,0-5.4,0-8.1c0-0.3-0.1-0.7,0.1-0.9c2.9,1.5,5.9,3,8.8,4.4c0,0,0,0,0,0
	c0,0.1,0,0.2-0.1,0.3c-1.4,0.7-2.7,1.6-4.3,2C84.2,91.2,82.6,92,81.1,92.8z"/>
<path id="XMLID_152_" class="st23" d="M103.9,90.4c-0.3-0.2-0.2-0.6-0.2-0.9c0-2.7,0-5.4,0-8.1c-1.5-0.7-3-1.3-4.4-2.3
	c0-1.6,0-3.2,0-4.8c1.1-0.5,2.2-1,3.3-1.6c3.5-1.8,7-3.5,10.5-5.3c2.6,1.3,5.1,2.6,7.7,3.9c0.4,0.2,0.8,0.3,0.9,0.7
	c0,0.1,0,0.1,0,0.2c-0.1,0.5-0.5,0.6-0.9,0.8c-4.4,2.2-8.8,4.4-13.3,6.6c-0.9,0.4-1.7,1-2.6,1.4c-0.6,0.3-0.8,0.7-0.8,1.4
	c0,2.3,0,4.5,0,6.8C104.1,89.7,104.2,90.1,103.9,90.4z"/>
<path id="XMLID_151_" class="st20" d="M85.7,90.5c1.4-0.8,3-1.4,4.4-2.3c1.3-0.4,2.5-1.2,3.7-1.8c1.8-0.9,3.6-1.8,5.3-2.6
	c0.2,0.2,0.2,0.4,0.2,0.6c0,4.3,0,8.7,0,13C94.7,95.1,90.2,92.9,85.7,90.5z"/>
<path id="XMLID_150_" class="st24" d="M90.3,56.1c1.4-0.7,2.9-1.4,4.4-2.2c0,1.6,0,3.1,0,4.5c-1.3,0.6-2.6,1.3-3.8,1.9
	c-0.5,0.3-0.7,0.2-0.6-0.4C90.3,58.7,90.3,57.4,90.3,56.1z"/>
<path id="XMLID_149_" class="st20" d="M99.3,79.2c1.5,0.6,3,1.3,4.4,2.3c-1.5,0.7-2.9,1.4-4.4,2.2C99.3,82.1,99.3,80.6,99.3,79.2z"
	/>
<path id="XMLID_148_" class="st20" d="M121.7,72.1c-2.6-1.3-5.3-2.7-7.9-4c-0.3-0.1-0.7-0.2-0.7-0.6c1.5-0.7,2.9-1.5,4.4-2.2
	c1,0.7,2.2,1.2,3.3,1.8c1.8,0.9,3.6,1.8,5.3,2.7c0,0.1,0,0.2-0.1,0.2C124.6,70.8,123.3,71.6,121.7,72.1z"/>
<path id="XMLID_147_" class="st25" d="M105.3,56.3c0,0.2,0,0.3,0,0.4c0,2.8,0,2.7-2.5,3.8c-0.4,0.2-0.5,0.1-0.5-0.3
	c0-0.1,0-0.1,0-0.2C102.3,57.5,102.3,57.5,105.3,56.3z"/>
<path id="XMLID_146_" class="st26" d="M120.5,51.5c0-0.2,0-0.3,0-0.4c0-2.7,0-2.6,2.4-3.7c0.5-0.2,0.6-0.1,0.6,0.4
	C123.6,50.2,123.4,50.4,120.5,51.5z"/>
<path id="XMLID_145_" class="st9" d="M103.9,90.4c0-2.9,0-5.7,0-8.6c0-0.6,0.4-0.7,0.8-0.9c5.4-2.7,10.8-5.4,16.2-8.2
	c0.3-0.2,0.6-0.3,0.9-0.5c0.3,0.2,0.2,0.5,0.2,0.7c0,2.6,0,5.1,0,7.7c0,0.6-0.2,0.8-0.7,1.1C115.5,84.6,109.7,87.5,103.9,90.4z"/>
<path id="XMLID_144_" class="st27" d="M94.9,163.8c3-1.5,6-3.1,9-4.6c1.4,0.7,2.8,1.5,4.3,2.2c0,0.3-0.3,0.4-0.5,0.5
	c-2.6,1.3-5.1,2.6-7.7,3.9c-0.5,0.2-0.8,0.3-1.3,0C97.4,165.1,96,164.6,94.9,163.8z"/>
<path id="XMLID_143_" class="st20" d="M99.3,115.5c-1.5-0.4-2.8-1.2-4.1-1.9c-4.6-2.3-9.2-4.7-13.9-6.9c-0.3-0.1-0.4-0.3-0.4-0.5
	c0-1.4-0.2-2.7,0.1-4.1c0,0,0.1-0.1,0.1-0.1c0.3-1.1,0.1-2.3,0.1-3.5c0-1,0-1,0.9-0.6c5.5,2.8,11,5.6,16.5,8.4
	c0.2,0.1,0.4,0.2,0.5,0.3C99.3,109.6,99.3,112.5,99.3,115.5z"/>
<path id="XMLID_142_" class="st3" d="M72.1,106.5c0-3.1,0-6.1,0-9.2c2.9-1.5,5.9-3,8.8-4.5c0.3,0.3,0.2,0.7,0.2,1c0,2.7,0,5.4,0,8.1
	c0,0,0,0,0,0c-0.2,0.3-0.4,0.4-0.7,0.6c-2.5,1.2-4.9,2.6-7.4,3.8C72.7,106.5,72.4,106.7,72.1,106.5L72.1,106.5z"/>
<path id="XMLID_141_" class="st4" d="M72.1,106.5c3-1.5,6-3,9-4.6c0,1.3,0,2.6,0,3.8c0,0.3,0,0.6,0.2,0.9c-0.4,0.5-0.2,1.1-0.2,1.6
	c0,1,0,1.9,0,2.9c-2.7,1.3-5.4,2.7-8.1,4c-0.3,0.1-0.6,0.2-0.9,0.4C72.1,112.6,72.1,109.5,72.1,106.5z"/>
</svg>
